<?xml version="1.0" encoding="utf-8" standalone="no"?>
<!DOCTYPE svg PUBLIC "-//W3C//DTD SVG 1.1//EN"
  "http://www.w3.org/Graphics/SVG/1.1/DTD/svg11.dtd">
<svg xmlns:xlink="http://www.w3.org/1999/xlink" width="1133.858268pt" height="252.554867pt" viewBox="0 0 1133.858268 252.554867" xmlns="http://www.w3.org/2000/svg" version="1.1">
 <metadata>
  <rdf:RDF xmlns:dc="http://purl.org/dc/elements/1.1/" xmlns:cc="http://creativecommons.org/ns#" xmlns:rdf="http://www.w3.org/1999/02/22-rdf-syntax-ns#">
   <cc:Work>
    <dc:type rdf:resource="http://purl.org/dc/dcmitype/StillImage"/>
    <dc:date>2023-06-19T18:01:05.390050</dc:date>
    <dc:format>image/svg+xml</dc:format>
    <dc:creator>
     <cc:Agent>
      <dc:title>Matplotlib v3.5.3, https://matplotlib.org/</dc:title>
     </cc:Agent>
    </dc:creator>
   </cc:Work>
  </rdf:RDF>
 </metadata>
 <defs>
  <style type="text/css">*{stroke-linejoin: round; stroke-linecap: butt}</style>
 </defs>
 <g id="figure_1">
  <g id="patch_1">
   <path d="M 0 252.554867 
L 1133.858268 252.554867 
L 1133.858268 0 
L 0 0 
z
" style="fill: #ffffff"/>
  </g>
  <g id="axes_1">
   <g id="mpl_toolkits.axisartist.axis_artist_1">
    <defs>
     <path id="mcd188bc721" d="M 0 0 
L -0 3.5 
" style="stroke: #000000; stroke-width: 0.8"/>
    </defs>
    <g>
     <use xlink:href="#mcd188bc721" x="58.472025" y="50.096331" style="fill: none; stroke: #000000; stroke-width: 0.8"/>
    </g>
    <g>
     <use xlink:href="#mcd188bc721" x="213.856182" y="50.096331" style="fill: none; stroke: #000000; stroke-width: 0.8"/>
    </g>
    <g>
     <use xlink:href="#mcd188bc721" x="369.240339" y="50.096331" style="fill: none; stroke: #000000; stroke-width: 0.8"/>
    </g>
    <g>
     <use xlink:href="#mcd188bc721" x="524.624496" y="50.096331" style="fill: none; stroke: #000000; stroke-width: 0.8"/>
    </g>
    <g>
     <use xlink:href="#mcd188bc721" x="680.008653" y="50.096331" style="fill: none; stroke: #000000; stroke-width: 0.8"/>
    </g>
    <g>
     <use xlink:href="#mcd188bc721" x="835.39281" y="50.096331" style="fill: none; stroke: #000000; stroke-width: 0.8"/>
    </g>
    <g>
     <use xlink:href="#mcd188bc721" x="990.776967" y="50.096331" style="fill: none; stroke: #000000; stroke-width: 0.8"/>
    </g>
    <g id="text_1">
     <!-- 63.0 -->
     <g transform="translate(41.772806 46.38305)scale(0.15 -0.15)">
      <defs>
       <path id="DejaVuSans-36" d="M 2113 2584 
Q 1688 2584 1439 2293 
Q 1191 2003 1191 1497 
Q 1191 994 1439 701 
Q 1688 409 2113 409 
Q 2538 409 2786 701 
Q 3034 994 3034 1497 
Q 3034 2003 2786 2293 
Q 2538 2584 2113 2584 
z
M 3366 4563 
L 3366 3988 
Q 3128 4100 2886 4159 
Q 2644 4219 2406 4219 
Q 1781 4219 1451 3797 
Q 1122 3375 1075 2522 
Q 1259 2794 1537 2939 
Q 1816 3084 2150 3084 
Q 2853 3084 3261 2657 
Q 3669 2231 3669 1497 
Q 3669 778 3244 343 
Q 2819 -91 2113 -91 
Q 1303 -91 875 529 
Q 447 1150 447 2328 
Q 447 3434 972 4092 
Q 1497 4750 2381 4750 
Q 2619 4750 2861 4703 
Q 3103 4656 3366 4563 
z
" transform="scale(0.015625)"/>
       <path id="DejaVuSans-33" d="M 2597 2516 
Q 3050 2419 3304 2112 
Q 3559 1806 3559 1356 
Q 3559 666 3084 287 
Q 2609 -91 1734 -91 
Q 1441 -91 1130 -33 
Q 819 25 488 141 
L 488 750 
Q 750 597 1062 519 
Q 1375 441 1716 441 
Q 2309 441 2620 675 
Q 2931 909 2931 1356 
Q 2931 1769 2642 2001 
Q 2353 2234 1838 2234 
L 1294 2234 
L 1294 2753 
L 1863 2753 
Q 2328 2753 2575 2939 
Q 2822 3125 2822 3475 
Q 2822 3834 2567 4026 
Q 2313 4219 1838 4219 
Q 1578 4219 1281 4162 
Q 984 4106 628 3988 
L 628 4550 
Q 988 4650 1302 4700 
Q 1616 4750 1894 4750 
Q 2613 4750 3031 4423 
Q 3450 4097 3450 3541 
Q 3450 3153 3228 2886 
Q 3006 2619 2597 2516 
z
" transform="scale(0.015625)"/>
       <path id="DejaVuSans-2e" d="M 684 794 
L 1344 794 
L 1344 0 
L 684 0 
L 684 794 
z
" transform="scale(0.015625)"/>
       <path id="DejaVuSans-30" d="M 2034 4250 
Q 1547 4250 1301 3770 
Q 1056 3291 1056 2328 
Q 1056 1369 1301 889 
Q 1547 409 2034 409 
Q 2525 409 2770 889 
Q 3016 1369 3016 2328 
Q 3016 3291 2770 3770 
Q 2525 4250 2034 4250 
z
M 2034 4750 
Q 2819 4750 3233 4129 
Q 3647 3509 3647 2328 
Q 3647 1150 3233 529 
Q 2819 -91 2034 -91 
Q 1250 -91 836 529 
Q 422 1150 422 2328 
Q 422 3509 836 4129 
Q 1250 4750 2034 4750 
z
" transform="scale(0.015625)"/>
      </defs>
      <use xlink:href="#DejaVuSans-36"/>
      <use xlink:href="#DejaVuSans-33" x="63.623047"/>
      <use xlink:href="#DejaVuSans-2e" x="127.246094"/>
      <use xlink:href="#DejaVuSans-30" x="159.033203"/>
     </g>
    </g>
    <g id="text_2">
     <!-- 63.5 -->
     <g transform="translate(197.156963 46.38305)scale(0.15 -0.15)">
      <defs>
       <path id="DejaVuSans-35" d="M 691 4666 
L 3169 4666 
L 3169 4134 
L 1269 4134 
L 1269 2991 
Q 1406 3038 1543 3061 
Q 1681 3084 1819 3084 
Q 2600 3084 3056 2656 
Q 3513 2228 3513 1497 
Q 3513 744 3044 326 
Q 2575 -91 1722 -91 
Q 1428 -91 1123 -41 
Q 819 9 494 109 
L 494 744 
Q 775 591 1075 516 
Q 1375 441 1709 441 
Q 2250 441 2565 725 
Q 2881 1009 2881 1497 
Q 2881 1984 2565 2268 
Q 2250 2553 1709 2553 
Q 1456 2553 1204 2497 
Q 953 2441 691 2322 
L 691 4666 
z
" transform="scale(0.015625)"/>
      </defs>
      <use xlink:href="#DejaVuSans-36"/>
      <use xlink:href="#DejaVuSans-33" x="63.623047"/>
      <use xlink:href="#DejaVuSans-2e" x="127.246094"/>
      <use xlink:href="#DejaVuSans-35" x="159.033203"/>
     </g>
    </g>
    <g id="text_3">
     <!-- 64.0 -->
     <g transform="translate(352.54112 46.38305)scale(0.15 -0.15)">
      <defs>
       <path id="DejaVuSans-34" d="M 2419 4116 
L 825 1625 
L 2419 1625 
L 2419 4116 
z
M 2253 4666 
L 3047 4666 
L 3047 1625 
L 3713 1625 
L 3713 1100 
L 3047 1100 
L 3047 0 
L 2419 0 
L 2419 1100 
L 313 1100 
L 313 1709 
L 2253 4666 
z
" transform="scale(0.015625)"/>
      </defs>
      <use xlink:href="#DejaVuSans-36"/>
      <use xlink:href="#DejaVuSans-34" x="63.623047"/>
      <use xlink:href="#DejaVuSans-2e" x="127.246094"/>
      <use xlink:href="#DejaVuSans-30" x="159.033203"/>
     </g>
    </g>
    <g id="text_4">
     <!-- 64.5 -->
     <g transform="translate(507.925277 46.38305)scale(0.15 -0.15)">
      <use xlink:href="#DejaVuSans-36"/>
      <use xlink:href="#DejaVuSans-34" x="63.623047"/>
      <use xlink:href="#DejaVuSans-2e" x="127.246094"/>
      <use xlink:href="#DejaVuSans-35" x="159.033203"/>
     </g>
    </g>
    <g id="text_5">
     <!-- 65.0 -->
     <g transform="translate(663.309434 46.38305)scale(0.15 -0.15)">
      <use xlink:href="#DejaVuSans-36"/>
      <use xlink:href="#DejaVuSans-35" x="63.623047"/>
      <use xlink:href="#DejaVuSans-2e" x="127.246094"/>
      <use xlink:href="#DejaVuSans-30" x="159.033203"/>
     </g>
    </g>
    <g id="text_6">
     <!-- 65.5 Mb -->
     <g transform="translate(805.077576 46.38305)scale(0.15 -0.15)">
      <defs>
       <path id="DejaVuSans-20" transform="scale(0.015625)"/>
       <path id="DejaVuSans-4d" d="M 628 4666 
L 1569 4666 
L 2759 1491 
L 3956 4666 
L 4897 4666 
L 4897 0 
L 4281 0 
L 4281 4097 
L 3078 897 
L 2444 897 
L 1241 4097 
L 1241 0 
L 628 0 
L 628 4666 
z
" transform="scale(0.015625)"/>
       <path id="DejaVuSans-62" d="M 3116 1747 
Q 3116 2381 2855 2742 
Q 2594 3103 2138 3103 
Q 1681 3103 1420 2742 
Q 1159 2381 1159 1747 
Q 1159 1113 1420 752 
Q 1681 391 2138 391 
Q 2594 391 2855 752 
Q 3116 1113 3116 1747 
z
M 1159 2969 
Q 1341 3281 1617 3432 
Q 1894 3584 2278 3584 
Q 2916 3584 3314 3078 
Q 3713 2572 3713 1747 
Q 3713 922 3314 415 
Q 2916 -91 2278 -91 
Q 1894 -91 1617 61 
Q 1341 213 1159 525 
L 1159 0 
L 581 0 
L 581 4863 
L 1159 4863 
L 1159 2969 
z
" transform="scale(0.015625)"/>
      </defs>
      <use xlink:href="#DejaVuSans-36"/>
      <use xlink:href="#DejaVuSans-35" x="63.623047"/>
      <use xlink:href="#DejaVuSans-2e" x="127.246094"/>
      <use xlink:href="#DejaVuSans-35" x="159.033203"/>
      <use xlink:href="#DejaVuSans-20" x="222.65625"/>
      <use xlink:href="#DejaVuSans-4d" x="254.443359"/>
      <use xlink:href="#DejaVuSans-62" x="340.722656"/>
     </g>
    </g>
    <g id="text_7">
     <!-- 66.0 -->
     <g transform="translate(974.077749 46.38305)scale(0.15 -0.15)">
      <use xlink:href="#DejaVuSans-36"/>
      <use xlink:href="#DejaVuSans-36" x="63.623047"/>
      <use xlink:href="#DejaVuSans-2e" x="127.246094"/>
      <use xlink:href="#DejaVuSans-30" x="159.033203"/>
     </g>
    </g>
    <g id="patch_2">
     <path d="M 58.472025 50.096331 
L 990.776967 50.096331 
" clip-path="url(#p7e8b98db73)" style="fill: none; stroke: #000000; stroke-width: 0.8; stroke-linecap: square"/>
    </g>
   </g>
   <g id="text_8">
    <!-- EH23b.chrX -->
    <g transform="translate(480.458871 19.505798)scale(0.15 -0.15)">
     <defs>
      <path id="DejaVuSans-45" d="M 628 4666 
L 3578 4666 
L 3578 4134 
L 1259 4134 
L 1259 2753 
L 3481 2753 
L 3481 2222 
L 1259 2222 
L 1259 531 
L 3634 531 
L 3634 0 
L 628 0 
L 628 4666 
z
" transform="scale(0.015625)"/>
      <path id="DejaVuSans-48" d="M 628 4666 
L 1259 4666 
L 1259 2753 
L 3553 2753 
L 3553 4666 
L 4184 4666 
L 4184 0 
L 3553 0 
L 3553 2222 
L 1259 2222 
L 1259 0 
L 628 0 
L 628 4666 
z
" transform="scale(0.015625)"/>
      <path id="DejaVuSans-32" d="M 1228 531 
L 3431 531 
L 3431 0 
L 469 0 
L 469 531 
Q 828 903 1448 1529 
Q 2069 2156 2228 2338 
Q 2531 2678 2651 2914 
Q 2772 3150 2772 3378 
Q 2772 3750 2511 3984 
Q 2250 4219 1831 4219 
Q 1534 4219 1204 4116 
Q 875 4013 500 3803 
L 500 4441 
Q 881 4594 1212 4672 
Q 1544 4750 1819 4750 
Q 2544 4750 2975 4387 
Q 3406 4025 3406 3419 
Q 3406 3131 3298 2873 
Q 3191 2616 2906 2266 
Q 2828 2175 2409 1742 
Q 1991 1309 1228 531 
z
" transform="scale(0.015625)"/>
      <path id="DejaVuSans-63" d="M 3122 3366 
L 3122 2828 
Q 2878 2963 2633 3030 
Q 2388 3097 2138 3097 
Q 1578 3097 1268 2742 
Q 959 2388 959 1747 
Q 959 1106 1268 751 
Q 1578 397 2138 397 
Q 2388 397 2633 464 
Q 2878 531 3122 666 
L 3122 134 
Q 2881 22 2623 -34 
Q 2366 -91 2075 -91 
Q 1284 -91 818 406 
Q 353 903 353 1747 
Q 353 2603 823 3093 
Q 1294 3584 2113 3584 
Q 2378 3584 2631 3529 
Q 2884 3475 3122 3366 
z
" transform="scale(0.015625)"/>
      <path id="DejaVuSans-68" d="M 3513 2113 
L 3513 0 
L 2938 0 
L 2938 2094 
Q 2938 2591 2744 2837 
Q 2550 3084 2163 3084 
Q 1697 3084 1428 2787 
Q 1159 2491 1159 1978 
L 1159 0 
L 581 0 
L 581 4863 
L 1159 4863 
L 1159 2956 
Q 1366 3272 1645 3428 
Q 1925 3584 2291 3584 
Q 2894 3584 3203 3211 
Q 3513 2838 3513 2113 
z
" transform="scale(0.015625)"/>
      <path id="DejaVuSans-72" d="M 2631 2963 
Q 2534 3019 2420 3045 
Q 2306 3072 2169 3072 
Q 1681 3072 1420 2755 
Q 1159 2438 1159 1844 
L 1159 0 
L 581 0 
L 581 3500 
L 1159 3500 
L 1159 2956 
Q 1341 3275 1631 3429 
Q 1922 3584 2338 3584 
Q 2397 3584 2469 3576 
Q 2541 3569 2628 3553 
L 2631 2963 
z
" transform="scale(0.015625)"/>
      <path id="DejaVuSans-58" d="M 403 4666 
L 1081 4666 
L 2241 2931 
L 3406 4666 
L 4084 4666 
L 2584 2425 
L 4184 0 
L 3506 0 
L 2194 1984 
L 872 0 
L 191 0 
L 1856 2491 
L 403 4666 
z
" transform="scale(0.015625)"/>
     </defs>
     <use xlink:href="#DejaVuSans-45"/>
     <use xlink:href="#DejaVuSans-48" x="63.183594"/>
     <use xlink:href="#DejaVuSans-32" x="138.378906"/>
     <use xlink:href="#DejaVuSans-33" x="202.001953"/>
     <use xlink:href="#DejaVuSans-62" x="265.625"/>
     <use xlink:href="#DejaVuSans-2e" x="329.101562"/>
     <use xlink:href="#DejaVuSans-63" x="360.888672"/>
     <use xlink:href="#DejaVuSans-68" x="415.869141"/>
     <use xlink:href="#DejaVuSans-72" x="479.248047"/>
     <use xlink:href="#DejaVuSans-58" x="520.361328"/>
    </g>
   </g>
  </g>
  <g id="axes_2"/>
  <g id="axes_3"/>
  <g id="axes_4">
   <g id="PolyCollection_1">
    <path d="M 261.528041 117.419166 
L 261.528041 81.986095 
L 261.528352 81.986095 
L 261.528352 81.986095 
L 261.528663 81.986095 
L 261.528663 81.986095 
L 261.528974 81.986095 
L 261.528974 81.986095 
L 261.529284 81.986095 
L 261.529284 81.986095 
L 261.529595 81.986095 
L 261.529595 81.986095 
L 261.529906 81.986095 
L 261.529906 81.986095 
L 261.530217 81.986095 
L 261.530217 81.986095 
L 261.530527 81.986095 
L 261.530527 81.986095 
L 261.530838 81.986095 
L 261.530838 81.986095 
L 261.531149 81.986095 
L 261.531149 81.986095 
L 261.53146 81.986095 
L 261.53146 81.986095 
L 261.53177 81.986095 
L 261.53177 81.986095 
L 261.532081 81.986095 
L 261.532081 81.986095 
L 261.532392 81.986095 
L 261.532392 81.986095 
L 261.532703 81.986095 
L 261.532703 81.986095 
L 261.533014 81.986095 
L 261.533014 81.986095 
L 261.533324 81.986095 
L 261.533324 81.986095 
L 261.533635 81.986095 
L 261.533635 81.986095 
L 261.533946 81.986095 
L 261.533946 81.986095 
L 261.534257 81.986095 
L 261.534257 81.986095 
L 261.534567 81.986095 
L 261.534567 81.986095 
L 261.534878 81.986095 
L 261.534878 81.986095 
L 261.535189 81.986095 
L 261.535189 81.986095 
L 261.5355 81.986095 
L 261.5355 81.986095 
L 261.53581 81.986095 
L 261.53581 81.986095 
L 261.536121 81.986095 
L 261.536121 81.986095 
L 261.536432 81.986095 
L 261.536432 81.986095 
L 261.536743 81.986095 
L 261.536743 81.986095 
L 261.537054 81.986095 
L 261.537054 81.986095 
L 261.537364 81.986095 
L 261.537364 81.986095 
L 261.537675 81.986095 
L 261.537675 117.419166 
L 261.537675 117.419166 
L 261.537364 117.419166 
L 261.537364 117.419166 
L 261.537054 117.419166 
L 261.537054 117.419166 
L 261.536743 117.419166 
L 261.536743 117.419166 
L 261.536432 117.419166 
L 261.536432 117.419166 
L 261.536121 117.419166 
L 261.536121 117.419166 
L 261.53581 117.419166 
L 261.53581 117.419166 
L 261.5355 117.419166 
L 261.5355 117.419166 
L 261.535189 117.419166 
L 261.535189 117.419166 
L 261.534878 117.419166 
L 261.534878 117.419166 
L 261.534567 117.419166 
L 261.534567 117.419166 
L 261.534257 117.419166 
L 261.534257 117.419166 
L 261.533946 117.419166 
L 261.533946 117.419166 
L 261.533635 117.419166 
L 261.533635 117.419166 
L 261.533324 117.419166 
L 261.533324 117.419166 
L 261.533014 117.419166 
L 261.533014 117.419166 
L 261.532703 117.419166 
L 261.532703 117.419166 
L 261.532392 117.419166 
L 261.532392 117.419166 
L 261.532081 117.419166 
L 261.532081 117.419166 
L 261.53177 117.419166 
L 261.53177 117.419166 
L 261.53146 117.419166 
L 261.53146 117.419166 
L 261.531149 117.419166 
L 261.531149 117.419166 
L 261.530838 117.419166 
L 261.530838 117.419166 
L 261.530527 117.419166 
L 261.530527 117.419166 
L 261.530217 117.419166 
L 261.530217 117.419166 
L 261.529906 117.419166 
L 261.529906 117.419166 
L 261.529595 117.419166 
L 261.529595 117.419166 
L 261.529284 117.419166 
L 261.529284 117.419166 
L 261.528974 117.419166 
L 261.528974 117.419166 
L 261.528663 117.419166 
L 261.528663 117.419166 
L 261.528352 117.419166 
L 261.528352 117.419166 
L 261.528041 117.419166 
z
" clip-path="url(#p08882d3257)" style="fill: #1f77b4; stroke: #1f77b4; stroke-width: 0.1"/>
    <path d="M 394.268376 117.419166 
L 394.268376 81.986095 
L 394.268687 81.986095 
L 394.268687 81.986095 
L 394.268997 81.986095 
L 394.268997 81.986095 
L 394.269308 81.986095 
L 394.269308 81.986095 
L 394.269619 81.986095 
L 394.269619 81.986095 
L 394.26993 81.986095 
L 394.26993 81.986095 
L 394.270241 81.986095 
L 394.270241 81.986095 
L 394.270551 81.986095 
L 394.270551 81.986095 
L 394.270862 81.986095 
L 394.270862 81.986095 
L 394.271173 81.986095 
L 394.271173 81.986095 
L 394.271484 81.986095 
L 394.271484 81.986095 
L 394.271794 81.986095 
L 394.271794 81.986095 
L 394.272105 81.986095 
L 394.272105 81.986095 
L 394.272416 81.986095 
L 394.272416 81.986095 
L 394.272727 81.986095 
L 394.272727 81.986095 
L 394.273037 81.986095 
L 394.273037 81.986095 
L 394.273348 81.986095 
L 394.273348 81.986095 
L 394.273659 81.986095 
L 394.273659 81.986095 
L 394.27397 81.986095 
L 394.27397 81.986095 
L 394.274281 81.986095 
L 394.274281 81.986095 
L 394.274591 81.986095 
L 394.274591 81.986095 
L 394.274902 81.986095 
L 394.274902 81.986095 
L 394.275213 81.986095 
L 394.275213 81.986095 
L 394.275524 81.986095 
L 394.275524 81.986095 
L 394.275834 81.986095 
L 394.275834 81.986095 
L 394.276145 81.986095 
L 394.276145 81.986095 
L 394.276456 81.986095 
L 394.276456 81.986095 
L 394.276767 81.986095 
L 394.276767 81.986095 
L 394.277077 81.986095 
L 394.277077 81.986095 
L 394.277388 81.986095 
L 394.277388 81.986095 
L 394.277699 81.986095 
L 394.277699 81.986095 
L 394.27801 81.986095 
L 394.27801 117.419166 
L 394.27801 117.419166 
L 394.277699 117.419166 
L 394.277699 117.419166 
L 394.277388 117.419166 
L 394.277388 117.419166 
L 394.277077 117.419166 
L 394.277077 117.419166 
L 394.276767 117.419166 
L 394.276767 117.419166 
L 394.276456 117.419166 
L 394.276456 117.419166 
L 394.276145 117.419166 
L 394.276145 117.419166 
L 394.275834 117.419166 
L 394.275834 117.419166 
L 394.275524 117.419166 
L 394.275524 117.419166 
L 394.275213 117.419166 
L 394.275213 117.419166 
L 394.274902 117.419166 
L 394.274902 117.419166 
L 394.274591 117.419166 
L 394.274591 117.419166 
L 394.274281 117.419166 
L 394.274281 117.419166 
L 394.27397 117.419166 
L 394.27397 117.419166 
L 394.273659 117.419166 
L 394.273659 117.419166 
L 394.273348 117.419166 
L 394.273348 117.419166 
L 394.273037 117.419166 
L 394.273037 117.419166 
L 394.272727 117.419166 
L 394.272727 117.419166 
L 394.272416 117.419166 
L 394.272416 117.419166 
L 394.272105 117.419166 
L 394.272105 117.419166 
L 394.271794 117.419166 
L 394.271794 117.419166 
L 394.271484 117.419166 
L 394.271484 117.419166 
L 394.271173 117.419166 
L 394.271173 117.419166 
L 394.270862 117.419166 
L 394.270862 117.419166 
L 394.270551 117.419166 
L 394.270551 117.419166 
L 394.270241 117.419166 
L 394.270241 117.419166 
L 394.26993 117.419166 
L 394.26993 117.419166 
L 394.269619 117.419166 
L 394.269619 117.419166 
L 394.269308 117.419166 
L 394.269308 117.419166 
L 394.268997 117.419166 
L 394.268997 117.419166 
L 394.268687 117.419166 
L 394.268687 117.419166 
L 394.268376 117.419166 
z
" clip-path="url(#p08882d3257)" style="fill: #1f77b4; stroke: #1f77b4; stroke-width: 0.1"/>
    <path d="M 394.70687 117.419166 
L 394.70687 81.986095 
L 394.707181 81.986095 
L 394.707181 81.986095 
L 394.707492 81.986095 
L 394.707492 81.986095 
L 394.707802 81.986095 
L 394.707802 81.986095 
L 394.708113 81.986095 
L 394.708113 81.986095 
L 394.708424 81.986095 
L 394.708424 81.986095 
L 394.708735 81.986095 
L 394.708735 81.986095 
L 394.709045 81.986095 
L 394.709045 81.986095 
L 394.709356 81.986095 
L 394.709356 81.986095 
L 394.709667 81.986095 
L 394.709667 81.986095 
L 394.709978 81.986095 
L 394.709978 81.986095 
L 394.710288 81.986095 
L 394.710288 81.986095 
L 394.710599 81.986095 
L 394.710599 81.986095 
L 394.71091 81.986095 
L 394.71091 81.986095 
L 394.711221 81.986095 
L 394.711221 81.986095 
L 394.711532 81.986095 
L 394.711532 81.986095 
L 394.711842 81.986095 
L 394.711842 81.986095 
L 394.712153 81.986095 
L 394.712153 81.986095 
L 394.712464 81.986095 
L 394.712464 81.986095 
L 394.712775 81.986095 
L 394.712775 81.986095 
L 394.713085 81.986095 
L 394.713085 81.986095 
L 394.713396 81.986095 
L 394.713396 81.986095 
L 394.713707 81.986095 
L 394.713707 81.986095 
L 394.714018 81.986095 
L 394.714018 81.986095 
L 394.714328 81.986095 
L 394.714328 81.986095 
L 394.714639 81.986095 
L 394.714639 81.986095 
L 394.71495 81.986095 
L 394.71495 81.986095 
L 394.715261 81.986095 
L 394.715261 81.986095 
L 394.715572 81.986095 
L 394.715572 81.986095 
L 394.715882 81.986095 
L 394.715882 81.986095 
L 394.716193 81.986095 
L 394.716193 81.986095 
L 394.716504 81.986095 
L 394.716504 117.419166 
L 394.716504 117.419166 
L 394.716193 117.419166 
L 394.716193 117.419166 
L 394.715882 117.419166 
L 394.715882 117.419166 
L 394.715572 117.419166 
L 394.715572 117.419166 
L 394.715261 117.419166 
L 394.715261 117.419166 
L 394.71495 117.419166 
L 394.71495 117.419166 
L 394.714639 117.419166 
L 394.714639 117.419166 
L 394.714328 117.419166 
L 394.714328 117.419166 
L 394.714018 117.419166 
L 394.714018 117.419166 
L 394.713707 117.419166 
L 394.713707 117.419166 
L 394.713396 117.419166 
L 394.713396 117.419166 
L 394.713085 117.419166 
L 394.713085 117.419166 
L 394.712775 117.419166 
L 394.712775 117.419166 
L 394.712464 117.419166 
L 394.712464 117.419166 
L 394.712153 117.419166 
L 394.712153 117.419166 
L 394.711842 117.419166 
L 394.711842 117.419166 
L 394.711532 117.419166 
L 394.711532 117.419166 
L 394.711221 117.419166 
L 394.711221 117.419166 
L 394.71091 117.419166 
L 394.71091 117.419166 
L 394.710599 117.419166 
L 394.710599 117.419166 
L 394.710288 117.419166 
L 394.710288 117.419166 
L 394.709978 117.419166 
L 394.709978 117.419166 
L 394.709667 117.419166 
L 394.709667 117.419166 
L 394.709356 117.419166 
L 394.709356 117.419166 
L 394.709045 117.419166 
L 394.709045 117.419166 
L 394.708735 117.419166 
L 394.708735 117.419166 
L 394.708424 117.419166 
L 394.708424 117.419166 
L 394.708113 117.419166 
L 394.708113 117.419166 
L 394.707802 117.419166 
L 394.707802 117.419166 
L 394.707492 117.419166 
L 394.707492 117.419166 
L 394.707181 117.419166 
L 394.707181 117.419166 
L 394.70687 117.419166 
z
" clip-path="url(#p08882d3257)" style="fill: #1f77b4; stroke: #1f77b4; stroke-width: 0.1"/>
    <path d="M 394.963254 117.419166 
L 394.963254 110.332552 
L 394.963565 110.332552 
L 394.963565 110.332552 
L 394.963875 110.332552 
L 394.963875 110.332552 
L 394.964186 110.332552 
L 394.964186 110.332552 
L 394.964497 110.332552 
L 394.964497 110.332552 
L 394.964808 110.332552 
L 394.964808 110.332552 
L 394.965118 110.332552 
L 394.965118 110.332552 
L 394.965429 110.332552 
L 394.965429 110.332552 
L 394.96574 110.332552 
L 394.96574 110.332552 
L 394.966051 110.332552 
L 394.966051 110.332552 
L 394.966362 110.332552 
L 394.966362 110.332552 
L 394.966672 110.332552 
L 394.966672 110.332552 
L 394.966983 110.332552 
L 394.966983 110.332552 
L 394.967294 110.332552 
L 394.967294 110.332552 
L 394.967605 110.332552 
L 394.967605 110.332552 
L 394.967915 110.332552 
L 394.967915 110.332552 
L 394.968226 110.332552 
L 394.968226 110.332552 
L 394.968537 110.332552 
L 394.968537 110.332552 
L 394.968848 110.332552 
L 394.968848 110.332552 
L 394.969158 110.332552 
L 394.969158 110.332552 
L 394.969469 110.332552 
L 394.969469 110.332552 
L 394.96978 110.332552 
L 394.96978 110.332552 
L 394.970091 110.332552 
L 394.970091 110.332552 
L 394.970402 110.332552 
L 394.970402 110.332552 
L 394.970712 110.332552 
L 394.970712 110.332552 
L 394.971023 110.332552 
L 394.971023 110.332552 
L 394.971334 110.332552 
L 394.971334 110.332552 
L 394.971645 110.332552 
L 394.971645 110.332552 
L 394.971955 110.332552 
L 394.971955 110.332552 
L 394.972266 110.332552 
L 394.972266 110.332552 
L 394.972577 110.332552 
L 394.972577 110.332552 
L 394.972888 110.332552 
L 394.972888 117.419166 
L 394.972888 117.419166 
L 394.972577 117.419166 
L 394.972577 117.419166 
L 394.972266 117.419166 
L 394.972266 117.419166 
L 394.971955 117.419166 
L 394.971955 117.419166 
L 394.971645 117.419166 
L 394.971645 117.419166 
L 394.971334 117.419166 
L 394.971334 117.419166 
L 394.971023 117.419166 
L 394.971023 117.419166 
L 394.970712 117.419166 
L 394.970712 117.419166 
L 394.970402 117.419166 
L 394.970402 117.419166 
L 394.970091 117.419166 
L 394.970091 117.419166 
L 394.96978 117.419166 
L 394.96978 117.419166 
L 394.969469 117.419166 
L 394.969469 117.419166 
L 394.969158 117.419166 
L 394.969158 117.419166 
L 394.968848 117.419166 
L 394.968848 117.419166 
L 394.968537 117.419166 
L 394.968537 117.419166 
L 394.968226 117.419166 
L 394.968226 117.419166 
L 394.967915 117.419166 
L 394.967915 117.419166 
L 394.967605 117.419166 
L 394.967605 117.419166 
L 394.967294 117.419166 
L 394.967294 117.419166 
L 394.966983 117.419166 
L 394.966983 117.419166 
L 394.966672 117.419166 
L 394.966672 117.419166 
L 394.966362 117.419166 
L 394.966362 117.419166 
L 394.966051 117.419166 
L 394.966051 117.419166 
L 394.96574 117.419166 
L 394.96574 117.419166 
L 394.965429 117.419166 
L 394.965429 117.419166 
L 394.965118 117.419166 
L 394.965118 117.419166 
L 394.964808 117.419166 
L 394.964808 117.419166 
L 394.964497 117.419166 
L 394.964497 117.419166 
L 394.964186 117.419166 
L 394.964186 117.419166 
L 394.963875 117.419166 
L 394.963875 117.419166 
L 394.963565 117.419166 
L 394.963565 117.419166 
L 394.963254 117.419166 
z
" clip-path="url(#p08882d3257)" style="fill: #1f77b4; stroke: #1f77b4; stroke-width: 0.1"/>
    <path d="M 395.478818 117.419166 
L 395.478818 110.332552 
L 395.479129 110.332552 
L 395.479129 110.332552 
L 395.47944 110.332552 
L 395.47944 110.332552 
L 395.479751 110.332552 
L 395.479751 110.332552 
L 395.480062 110.332552 
L 395.480062 110.332552 
L 395.480372 110.332552 
L 395.480372 110.332552 
L 395.480683 110.332552 
L 395.480683 110.332552 
L 395.480994 110.332552 
L 395.480994 110.332552 
L 395.481305 110.332552 
L 395.481305 110.332552 
L 395.481615 110.332552 
L 395.481615 110.332552 
L 395.481926 110.332552 
L 395.481926 110.332552 
L 395.482237 110.332552 
L 395.482237 110.332552 
L 395.482548 110.332552 
L 395.482548 110.332552 
L 395.482858 110.332552 
L 395.482858 110.332552 
L 395.483169 110.332552 
L 395.483169 110.332552 
L 395.48348 110.332552 
L 395.48348 110.332552 
L 395.483791 110.332552 
L 395.483791 110.332552 
L 395.484102 110.332552 
L 395.484102 110.332552 
L 395.484412 110.332552 
L 395.484412 110.332552 
L 395.484723 110.332552 
L 395.484723 110.332552 
L 395.485034 110.332552 
L 395.485034 110.332552 
L 395.485345 110.332552 
L 395.485345 110.332552 
L 395.485655 110.332552 
L 395.485655 110.332552 
L 395.485966 110.332552 
L 395.485966 110.332552 
L 395.486277 110.332552 
L 395.486277 110.332552 
L 395.486588 110.332552 
L 395.486588 110.332552 
L 395.486898 110.332552 
L 395.486898 110.332552 
L 395.487209 110.332552 
L 395.487209 110.332552 
L 395.48752 110.332552 
L 395.48752 110.332552 
L 395.487831 110.332552 
L 395.487831 110.332552 
L 395.488142 110.332552 
L 395.488142 110.332552 
L 395.488452 110.332552 
L 395.488452 110.332552 
L 395.488763 110.332552 
L 395.488763 110.332552 
L 395.489074 110.332552 
L 395.489074 110.332552 
L 395.489385 110.332552 
L 395.489385 110.332552 
L 395.489695 110.332552 
L 395.489695 110.332552 
L 395.490006 110.332552 
L 395.490006 110.332552 
L 395.490317 110.332552 
L 395.490317 110.332552 
L 395.490628 110.332552 
L 395.490628 110.332552 
L 395.490938 110.332552 
L 395.490938 110.332552 
L 395.491249 110.332552 
L 395.491249 110.332552 
L 395.49156 110.332552 
L 395.49156 110.332552 
L 395.491871 110.332552 
L 395.491871 110.332552 
L 395.492182 110.332552 
L 395.492182 110.332552 
L 395.492492 110.332552 
L 395.492492 110.332552 
L 395.492803 110.332552 
L 395.492803 110.332552 
L 395.493114 110.332552 
L 395.493114 110.332552 
L 395.493425 110.332552 
L 395.493425 110.332552 
L 395.493735 110.332552 
L 395.493735 110.332552 
L 395.494046 110.332552 
L 395.494046 110.332552 
L 395.494357 110.332552 
L 395.494357 110.332552 
L 395.494668 110.332552 
L 395.494668 110.332552 
L 395.494978 110.332552 
L 395.494978 110.332552 
L 395.495289 110.332552 
L 395.495289 110.332552 
L 395.4956 110.332552 
L 395.4956 110.332552 
L 395.495911 110.332552 
L 395.495911 110.332552 
L 395.496222 110.332552 
L 395.496222 110.332552 
L 395.496532 110.332552 
L 395.496532 110.332552 
L 395.496843 110.332552 
L 395.496843 117.419166 
L 395.496843 117.419166 
L 395.496532 117.419166 
L 395.496532 117.419166 
L 395.496222 117.419166 
L 395.496222 117.419166 
L 395.495911 117.419166 
L 395.495911 117.419166 
L 395.4956 117.419166 
L 395.4956 117.419166 
L 395.495289 117.419166 
L 395.495289 117.419166 
L 395.494978 117.419166 
L 395.494978 117.419166 
L 395.494668 117.419166 
L 395.494668 117.419166 
L 395.494357 117.419166 
L 395.494357 117.419166 
L 395.494046 117.419166 
L 395.494046 117.419166 
L 395.493735 117.419166 
L 395.493735 117.419166 
L 395.493425 117.419166 
L 395.493425 117.419166 
L 395.493114 117.419166 
L 395.493114 117.419166 
L 395.492803 117.419166 
L 395.492803 117.419166 
L 395.492492 117.419166 
L 395.492492 117.419166 
L 395.492182 117.419166 
L 395.492182 117.419166 
L 395.491871 117.419166 
L 395.491871 117.419166 
L 395.49156 117.419166 
L 395.49156 117.419166 
L 395.491249 117.419166 
L 395.491249 117.419166 
L 395.490938 117.419166 
L 395.490938 117.419166 
L 395.490628 117.419166 
L 395.490628 117.419166 
L 395.490317 117.419166 
L 395.490317 117.419166 
L 395.490006 117.419166 
L 395.490006 117.419166 
L 395.489695 117.419166 
L 395.489695 117.419166 
L 395.489385 117.419166 
L 395.489385 117.419166 
L 395.489074 117.419166 
L 395.489074 117.419166 
L 395.488763 117.419166 
L 395.488763 117.419166 
L 395.488452 117.419166 
L 395.488452 117.419166 
L 395.488142 117.419166 
L 395.488142 117.419166 
L 395.487831 117.419166 
L 395.487831 117.419166 
L 395.48752 117.419166 
L 395.48752 117.419166 
L 395.487209 117.419166 
L 395.487209 117.419166 
L 395.486898 117.419166 
L 395.486898 117.419166 
L 395.486588 117.419166 
L 395.486588 117.419166 
L 395.486277 117.419166 
L 395.486277 117.419166 
L 395.485966 117.419166 
L 395.485966 117.419166 
L 395.485655 117.419166 
L 395.485655 117.419166 
L 395.485345 117.419166 
L 395.485345 117.419166 
L 395.485034 117.419166 
L 395.485034 117.419166 
L 395.484723 117.419166 
L 395.484723 117.419166 
L 395.484412 117.419166 
L 395.484412 117.419166 
L 395.484102 117.419166 
L 395.484102 117.419166 
L 395.483791 117.419166 
L 395.483791 117.419166 
L 395.48348 117.419166 
L 395.48348 117.419166 
L 395.483169 117.419166 
L 395.483169 117.419166 
L 395.482858 117.419166 
L 395.482858 117.419166 
L 395.482548 117.419166 
L 395.482548 117.419166 
L 395.482237 117.419166 
L 395.482237 117.419166 
L 395.481926 117.419166 
L 395.481926 117.419166 
L 395.481615 117.419166 
L 395.481615 117.419166 
L 395.481305 117.419166 
L 395.481305 117.419166 
L 395.480994 117.419166 
L 395.480994 117.419166 
L 395.480683 117.419166 
L 395.480683 117.419166 
L 395.480372 117.419166 
L 395.480372 117.419166 
L 395.480062 117.419166 
L 395.480062 117.419166 
L 395.479751 117.419166 
L 395.479751 117.419166 
L 395.47944 117.419166 
L 395.47944 117.419166 
L 395.479129 117.419166 
L 395.479129 117.419166 
L 395.478818 117.419166 
z
" clip-path="url(#p08882d3257)" style="fill: #1f77b4; stroke: #1f77b4; stroke-width: 0.1"/>
    <path d="M 429.235716 117.419166 
L 429.235716 89.072709 
L 429.236027 89.072709 
L 429.236027 89.072709 
L 429.236337 89.072709 
L 429.236337 89.072709 
L 429.236648 89.072709 
L 429.236648 89.072709 
L 429.236959 89.072709 
L 429.236959 89.072709 
L 429.23727 89.072709 
L 429.23727 89.072709 
L 429.23758 89.072709 
L 429.23758 89.072709 
L 429.237891 89.072709 
L 429.237891 89.072709 
L 429.238202 89.072709 
L 429.238202 89.072709 
L 429.238513 89.072709 
L 429.238513 89.072709 
L 429.238824 89.072709 
L 429.238824 89.072709 
L 429.239134 89.072709 
L 429.239134 89.072709 
L 429.239445 89.072709 
L 429.239445 89.072709 
L 429.239756 89.072709 
L 429.239756 89.072709 
L 429.240067 89.072709 
L 429.240067 89.072709 
L 429.240377 89.072709 
L 429.240377 89.072709 
L 429.240688 89.072709 
L 429.240688 89.072709 
L 429.240999 89.072709 
L 429.240999 89.072709 
L 429.24131 89.072709 
L 429.24131 89.072709 
L 429.24162 89.072709 
L 429.24162 89.072709 
L 429.241931 89.072709 
L 429.241931 89.072709 
L 429.242242 89.072709 
L 429.242242 89.072709 
L 429.242553 89.072709 
L 429.242553 89.072709 
L 429.242864 89.072709 
L 429.242864 89.072709 
L 429.243174 89.072709 
L 429.243174 89.072709 
L 429.243485 89.072709 
L 429.243485 89.072709 
L 429.243796 89.072709 
L 429.243796 89.072709 
L 429.244107 89.072709 
L 429.244107 89.072709 
L 429.244417 89.072709 
L 429.244417 89.072709 
L 429.244728 89.072709 
L 429.244728 89.072709 
L 429.245039 89.072709 
L 429.245039 89.072709 
L 429.24535 89.072709 
L 429.24535 117.419166 
L 429.24535 117.419166 
L 429.245039 117.419166 
L 429.245039 117.419166 
L 429.244728 117.419166 
L 429.244728 117.419166 
L 429.244417 117.419166 
L 429.244417 117.419166 
L 429.244107 117.419166 
L 429.244107 117.419166 
L 429.243796 117.419166 
L 429.243796 117.419166 
L 429.243485 117.419166 
L 429.243485 117.419166 
L 429.243174 117.419166 
L 429.243174 117.419166 
L 429.242864 117.419166 
L 429.242864 117.419166 
L 429.242553 117.419166 
L 429.242553 117.419166 
L 429.242242 117.419166 
L 429.242242 117.419166 
L 429.241931 117.419166 
L 429.241931 117.419166 
L 429.24162 117.419166 
L 429.24162 117.419166 
L 429.24131 117.419166 
L 429.24131 117.419166 
L 429.240999 117.419166 
L 429.240999 117.419166 
L 429.240688 117.419166 
L 429.240688 117.419166 
L 429.240377 117.419166 
L 429.240377 117.419166 
L 429.240067 117.419166 
L 429.240067 117.419166 
L 429.239756 117.419166 
L 429.239756 117.419166 
L 429.239445 117.419166 
L 429.239445 117.419166 
L 429.239134 117.419166 
L 429.239134 117.419166 
L 429.238824 117.419166 
L 429.238824 117.419166 
L 429.238513 117.419166 
L 429.238513 117.419166 
L 429.238202 117.419166 
L 429.238202 117.419166 
L 429.237891 117.419166 
L 429.237891 117.419166 
L 429.23758 117.419166 
L 429.23758 117.419166 
L 429.23727 117.419166 
L 429.23727 117.419166 
L 429.236959 117.419166 
L 429.236959 117.419166 
L 429.236648 117.419166 
L 429.236648 117.419166 
L 429.236337 117.419166 
L 429.236337 117.419166 
L 429.236027 117.419166 
L 429.236027 117.419166 
L 429.235716 117.419166 
z
" clip-path="url(#p08882d3257)" style="fill: #1f77b4; stroke: #1f77b4; stroke-width: 0.1"/>
    <path d="M 478.347986 117.419166 
L 478.347986 81.986095 
L 478.348297 81.986095 
L 478.348297 81.986095 
L 478.348608 81.986095 
L 478.348608 81.986095 
L 478.348919 81.986095 
L 478.348919 81.986095 
L 478.349229 81.986095 
L 478.349229 81.986095 
L 478.34954 81.986095 
L 478.34954 81.986095 
L 478.349851 81.986095 
L 478.349851 81.986095 
L 478.350162 81.986095 
L 478.350162 81.986095 
L 478.350473 81.986095 
L 478.350473 81.986095 
L 478.350783 81.986095 
L 478.350783 81.986095 
L 478.351094 81.986095 
L 478.351094 81.986095 
L 478.351405 81.986095 
L 478.351405 81.986095 
L 478.351716 81.986095 
L 478.351716 81.986095 
L 478.352026 81.986095 
L 478.352026 81.986095 
L 478.352337 81.986095 
L 478.352337 81.986095 
L 478.352648 81.986095 
L 478.352648 81.986095 
L 478.352959 81.986095 
L 478.352959 81.986095 
L 478.353269 81.986095 
L 478.353269 81.986095 
L 478.35358 81.986095 
L 478.35358 81.986095 
L 478.353891 81.986095 
L 478.353891 81.986095 
L 478.354202 81.986095 
L 478.354202 81.986095 
L 478.354513 81.986095 
L 478.354513 81.986095 
L 478.354823 81.986095 
L 478.354823 81.986095 
L 478.355134 81.986095 
L 478.355134 81.986095 
L 478.355445 81.986095 
L 478.355445 81.986095 
L 478.355756 81.986095 
L 478.355756 81.986095 
L 478.356066 81.986095 
L 478.356066 81.986095 
L 478.356377 81.986095 
L 478.356377 81.986095 
L 478.356688 81.986095 
L 478.356688 81.986095 
L 478.356999 81.986095 
L 478.356999 81.986095 
L 478.357309 81.986095 
L 478.357309 81.986095 
L 478.35762 81.986095 
L 478.35762 117.419166 
L 478.35762 117.419166 
L 478.357309 117.419166 
L 478.357309 117.419166 
L 478.356999 117.419166 
L 478.356999 117.419166 
L 478.356688 117.419166 
L 478.356688 117.419166 
L 478.356377 117.419166 
L 478.356377 117.419166 
L 478.356066 117.419166 
L 478.356066 117.419166 
L 478.355756 117.419166 
L 478.355756 117.419166 
L 478.355445 117.419166 
L 478.355445 117.419166 
L 478.355134 117.419166 
L 478.355134 117.419166 
L 478.354823 117.419166 
L 478.354823 117.419166 
L 478.354513 117.419166 
L 478.354513 117.419166 
L 478.354202 117.419166 
L 478.354202 117.419166 
L 478.353891 117.419166 
L 478.353891 117.419166 
L 478.35358 117.419166 
L 478.35358 117.419166 
L 478.353269 117.419166 
L 478.353269 117.419166 
L 478.352959 117.419166 
L 478.352959 117.419166 
L 478.352648 117.419166 
L 478.352648 117.419166 
L 478.352337 117.419166 
L 478.352337 117.419166 
L 478.352026 117.419166 
L 478.352026 117.419166 
L 478.351716 117.419166 
L 478.351716 117.419166 
L 478.351405 117.419166 
L 478.351405 117.419166 
L 478.351094 117.419166 
L 478.351094 117.419166 
L 478.350783 117.419166 
L 478.350783 117.419166 
L 478.350473 117.419166 
L 478.350473 117.419166 
L 478.350162 117.419166 
L 478.350162 117.419166 
L 478.349851 117.419166 
L 478.349851 117.419166 
L 478.34954 117.419166 
L 478.34954 117.419166 
L 478.349229 117.419166 
L 478.349229 117.419166 
L 478.348919 117.419166 
L 478.348919 117.419166 
L 478.348608 117.419166 
L 478.348608 117.419166 
L 478.348297 117.419166 
L 478.348297 117.419166 
L 478.347986 117.419166 
z
" clip-path="url(#p08882d3257)" style="fill: #1f77b4; stroke: #1f77b4; stroke-width: 0.1"/>
    <path d="M 479.127393 117.419166 
L 479.127393 81.986095 
L 479.127704 81.986095 
L 479.127704 81.986095 
L 479.128015 81.986095 
L 479.128015 81.986095 
L 479.128326 81.986095 
L 479.128326 81.986095 
L 479.128636 81.986095 
L 479.128636 81.986095 
L 479.128947 81.986095 
L 479.128947 81.986095 
L 479.129258 81.986095 
L 479.129258 81.986095 
L 479.129569 81.986095 
L 479.129569 81.986095 
L 479.129879 81.986095 
L 479.129879 81.986095 
L 479.13019 81.986095 
L 479.13019 81.986095 
L 479.130501 81.986095 
L 479.130501 81.986095 
L 479.130812 81.986095 
L 479.130812 81.986095 
L 479.131123 81.986095 
L 479.131123 81.986095 
L 479.131433 81.986095 
L 479.131433 81.986095 
L 479.131744 81.986095 
L 479.131744 81.986095 
L 479.132055 81.986095 
L 479.132055 81.986095 
L 479.132366 81.986095 
L 479.132366 81.986095 
L 479.132676 81.986095 
L 479.132676 81.986095 
L 479.132987 81.986095 
L 479.132987 81.986095 
L 479.133298 81.986095 
L 479.133298 81.986095 
L 479.133609 81.986095 
L 479.133609 81.986095 
L 479.133919 81.986095 
L 479.133919 81.986095 
L 479.13423 81.986095 
L 479.13423 81.986095 
L 479.134541 81.986095 
L 479.134541 81.986095 
L 479.134852 81.986095 
L 479.134852 81.986095 
L 479.135163 81.986095 
L 479.135163 81.986095 
L 479.135473 81.986095 
L 479.135473 81.986095 
L 479.135784 81.986095 
L 479.135784 81.986095 
L 479.136095 81.986095 
L 479.136095 81.986095 
L 479.136406 81.986095 
L 479.136406 81.986095 
L 479.136716 81.986095 
L 479.136716 81.986095 
L 479.137027 81.986095 
L 479.137027 117.419166 
L 479.137027 117.419166 
L 479.136716 117.419166 
L 479.136716 117.419166 
L 479.136406 117.419166 
L 479.136406 117.419166 
L 479.136095 117.419166 
L 479.136095 117.419166 
L 479.135784 117.419166 
L 479.135784 117.419166 
L 479.135473 117.419166 
L 479.135473 117.419166 
L 479.135163 117.419166 
L 479.135163 117.419166 
L 479.134852 117.419166 
L 479.134852 117.419166 
L 479.134541 117.419166 
L 479.134541 117.419166 
L 479.13423 117.419166 
L 479.13423 117.419166 
L 479.133919 117.419166 
L 479.133919 117.419166 
L 479.133609 117.419166 
L 479.133609 117.419166 
L 479.133298 117.419166 
L 479.133298 117.419166 
L 479.132987 117.419166 
L 479.132987 117.419166 
L 479.132676 117.419166 
L 479.132676 117.419166 
L 479.132366 117.419166 
L 479.132366 117.419166 
L 479.132055 117.419166 
L 479.132055 117.419166 
L 479.131744 117.419166 
L 479.131744 117.419166 
L 479.131433 117.419166 
L 479.131433 117.419166 
L 479.131123 117.419166 
L 479.131123 117.419166 
L 479.130812 117.419166 
L 479.130812 117.419166 
L 479.130501 117.419166 
L 479.130501 117.419166 
L 479.13019 117.419166 
L 479.13019 117.419166 
L 479.129879 117.419166 
L 479.129879 117.419166 
L 479.129569 117.419166 
L 479.129569 117.419166 
L 479.129258 117.419166 
L 479.129258 117.419166 
L 479.128947 117.419166 
L 479.128947 117.419166 
L 479.128636 117.419166 
L 479.128636 117.419166 
L 479.128326 117.419166 
L 479.128326 117.419166 
L 479.128015 117.419166 
L 479.128015 117.419166 
L 479.127704 117.419166 
L 479.127704 117.419166 
L 479.127393 117.419166 
z
" clip-path="url(#p08882d3257)" style="fill: #1f77b4; stroke: #1f77b4; stroke-width: 0.1"/>
    <path d="M 480.409623 117.419166 
L 480.409623 81.986095 
L 480.409934 81.986095 
L 480.409934 81.986095 
L 480.410245 81.986095 
L 480.410245 81.986095 
L 480.410556 81.986095 
L 480.410556 81.986095 
L 480.410866 81.986095 
L 480.410866 81.986095 
L 480.411177 81.986095 
L 480.411177 81.986095 
L 480.411488 81.986095 
L 480.411488 81.986095 
L 480.411799 81.986095 
L 480.411799 81.986095 
L 480.41211 81.986095 
L 480.41211 81.986095 
L 480.41242 81.986095 
L 480.41242 81.986095 
L 480.412731 81.986095 
L 480.412731 81.986095 
L 480.413042 81.986095 
L 480.413042 81.986095 
L 480.413353 81.986095 
L 480.413353 81.986095 
L 480.413663 81.986095 
L 480.413663 81.986095 
L 480.413974 81.986095 
L 480.413974 81.986095 
L 480.414285 81.986095 
L 480.414285 81.986095 
L 480.414596 81.986095 
L 480.414596 81.986095 
L 480.414906 81.986095 
L 480.414906 81.986095 
L 480.415217 81.986095 
L 480.415217 81.986095 
L 480.415528 81.986095 
L 480.415528 81.986095 
L 480.415839 81.986095 
L 480.415839 81.986095 
L 480.41615 81.986095 
L 480.41615 81.986095 
L 480.41646 81.986095 
L 480.41646 81.986095 
L 480.416771 81.986095 
L 480.416771 81.986095 
L 480.417082 81.986095 
L 480.417082 81.986095 
L 480.417393 81.986095 
L 480.417393 81.986095 
L 480.417703 81.986095 
L 480.417703 81.986095 
L 480.418014 81.986095 
L 480.418014 81.986095 
L 480.418325 81.986095 
L 480.418325 81.986095 
L 480.418636 81.986095 
L 480.418636 81.986095 
L 480.418946 81.986095 
L 480.418946 81.986095 
L 480.419257 81.986095 
L 480.419257 117.419166 
L 480.419257 117.419166 
L 480.418946 117.419166 
L 480.418946 117.419166 
L 480.418636 117.419166 
L 480.418636 117.419166 
L 480.418325 117.419166 
L 480.418325 117.419166 
L 480.418014 117.419166 
L 480.418014 117.419166 
L 480.417703 117.419166 
L 480.417703 117.419166 
L 480.417393 117.419166 
L 480.417393 117.419166 
L 480.417082 117.419166 
L 480.417082 117.419166 
L 480.416771 117.419166 
L 480.416771 117.419166 
L 480.41646 117.419166 
L 480.41646 117.419166 
L 480.41615 117.419166 
L 480.41615 117.419166 
L 480.415839 117.419166 
L 480.415839 117.419166 
L 480.415528 117.419166 
L 480.415528 117.419166 
L 480.415217 117.419166 
L 480.415217 117.419166 
L 480.414906 117.419166 
L 480.414906 117.419166 
L 480.414596 117.419166 
L 480.414596 117.419166 
L 480.414285 117.419166 
L 480.414285 117.419166 
L 480.413974 117.419166 
L 480.413974 117.419166 
L 480.413663 117.419166 
L 480.413663 117.419166 
L 480.413353 117.419166 
L 480.413353 117.419166 
L 480.413042 117.419166 
L 480.413042 117.419166 
L 480.412731 117.419166 
L 480.412731 117.419166 
L 480.41242 117.419166 
L 480.41242 117.419166 
L 480.41211 117.419166 
L 480.41211 117.419166 
L 480.411799 117.419166 
L 480.411799 117.419166 
L 480.411488 117.419166 
L 480.411488 117.419166 
L 480.411177 117.419166 
L 480.411177 117.419166 
L 480.410866 117.419166 
L 480.410866 117.419166 
L 480.410556 117.419166 
L 480.410556 117.419166 
L 480.410245 117.419166 
L 480.410245 117.419166 
L 480.409934 117.419166 
L 480.409934 117.419166 
L 480.409623 117.419166 
z
" clip-path="url(#p08882d3257)" style="fill: #1f77b4; stroke: #1f77b4; stroke-width: 0.1"/>
    <path d="M 482.204 117.419166 
L 482.204 81.986095 
L 482.20431 81.986095 
L 482.20431 81.986095 
L 482.204621 81.986095 
L 482.204621 81.986095 
L 482.204932 81.986095 
L 482.204932 81.986095 
L 482.205243 81.986095 
L 482.205243 81.986095 
L 482.205553 81.986095 
L 482.205553 81.986095 
L 482.205864 81.986095 
L 482.205864 81.986095 
L 482.206175 81.986095 
L 482.206175 81.986095 
L 482.206486 81.986095 
L 482.206486 81.986095 
L 482.206797 81.986095 
L 482.206797 81.986095 
L 482.207107 81.986095 
L 482.207107 81.986095 
L 482.207418 81.986095 
L 482.207418 81.986095 
L 482.207729 81.986095 
L 482.207729 81.986095 
L 482.20804 81.986095 
L 482.20804 81.986095 
L 482.20835 81.986095 
L 482.20835 81.986095 
L 482.208661 81.986095 
L 482.208661 81.986095 
L 482.208972 81.986095 
L 482.208972 81.986095 
L 482.209283 81.986095 
L 482.209283 81.986095 
L 482.209593 81.986095 
L 482.209593 81.986095 
L 482.209904 81.986095 
L 482.209904 81.986095 
L 482.210215 81.986095 
L 482.210215 81.986095 
L 482.210526 81.986095 
L 482.210526 81.986095 
L 482.210837 81.986095 
L 482.210837 81.986095 
L 482.211147 81.986095 
L 482.211147 81.986095 
L 482.211458 81.986095 
L 482.211458 81.986095 
L 482.211769 81.986095 
L 482.211769 81.986095 
L 482.21208 81.986095 
L 482.21208 81.986095 
L 482.21239 81.986095 
L 482.21239 81.986095 
L 482.212701 81.986095 
L 482.212701 81.986095 
L 482.213012 81.986095 
L 482.213012 81.986095 
L 482.213323 81.986095 
L 482.213323 81.986095 
L 482.213633 81.986095 
L 482.213633 117.419166 
L 482.213633 117.419166 
L 482.213323 117.419166 
L 482.213323 117.419166 
L 482.213012 117.419166 
L 482.213012 117.419166 
L 482.212701 117.419166 
L 482.212701 117.419166 
L 482.21239 117.419166 
L 482.21239 117.419166 
L 482.21208 117.419166 
L 482.21208 117.419166 
L 482.211769 117.419166 
L 482.211769 117.419166 
L 482.211458 117.419166 
L 482.211458 117.419166 
L 482.211147 117.419166 
L 482.211147 117.419166 
L 482.210837 117.419166 
L 482.210837 117.419166 
L 482.210526 117.419166 
L 482.210526 117.419166 
L 482.210215 117.419166 
L 482.210215 117.419166 
L 482.209904 117.419166 
L 482.209904 117.419166 
L 482.209593 117.419166 
L 482.209593 117.419166 
L 482.209283 117.419166 
L 482.209283 117.419166 
L 482.208972 117.419166 
L 482.208972 117.419166 
L 482.208661 117.419166 
L 482.208661 117.419166 
L 482.20835 117.419166 
L 482.20835 117.419166 
L 482.20804 117.419166 
L 482.20804 117.419166 
L 482.207729 117.419166 
L 482.207729 117.419166 
L 482.207418 117.419166 
L 482.207418 117.419166 
L 482.207107 117.419166 
L 482.207107 117.419166 
L 482.206797 117.419166 
L 482.206797 117.419166 
L 482.206486 117.419166 
L 482.206486 117.419166 
L 482.206175 117.419166 
L 482.206175 117.419166 
L 482.205864 117.419166 
L 482.205864 117.419166 
L 482.205553 117.419166 
L 482.205553 117.419166 
L 482.205243 117.419166 
L 482.205243 117.419166 
L 482.204932 117.419166 
L 482.204932 117.419166 
L 482.204621 117.419166 
L 482.204621 117.419166 
L 482.20431 117.419166 
L 482.20431 117.419166 
L 482.204 117.419166 
z
" clip-path="url(#p08882d3257)" style="fill: #1f77b4; stroke: #1f77b4; stroke-width: 0.1"/>
    <path d="M 692.162802 117.419166 
L 692.162802 81.986095 
L 692.163113 81.986095 
L 692.163113 81.986095 
L 692.163423 81.986095 
L 692.163423 81.986095 
L 692.163734 81.986095 
L 692.163734 81.986095 
L 692.164045 81.986095 
L 692.164045 81.986095 
L 692.164356 81.986095 
L 692.164356 81.986095 
L 692.164666 81.986095 
L 692.164666 81.986095 
L 692.164977 81.986095 
L 692.164977 81.986095 
L 692.165288 81.986095 
L 692.165288 81.986095 
L 692.165599 81.986095 
L 692.165599 81.986095 
L 692.16591 81.986095 
L 692.16591 81.986095 
L 692.16622 81.986095 
L 692.16622 81.986095 
L 692.166531 81.986095 
L 692.166531 81.986095 
L 692.166842 81.986095 
L 692.166842 81.986095 
L 692.167153 81.986095 
L 692.167153 81.986095 
L 692.167463 81.986095 
L 692.167463 81.986095 
L 692.167774 81.986095 
L 692.167774 81.986095 
L 692.168085 81.986095 
L 692.168085 81.986095 
L 692.168396 81.986095 
L 692.168396 81.986095 
L 692.168706 81.986095 
L 692.168706 81.986095 
L 692.169017 81.986095 
L 692.169017 81.986095 
L 692.169328 81.986095 
L 692.169328 81.986095 
L 692.169639 81.986095 
L 692.169639 81.986095 
L 692.16995 81.986095 
L 692.16995 81.986095 
L 692.17026 81.986095 
L 692.17026 81.986095 
L 692.170571 81.986095 
L 692.170571 81.986095 
L 692.170882 81.986095 
L 692.170882 81.986095 
L 692.171193 81.986095 
L 692.171193 81.986095 
L 692.171503 81.986095 
L 692.171503 81.986095 
L 692.171814 81.986095 
L 692.171814 81.986095 
L 692.172125 81.986095 
L 692.172125 81.986095 
L 692.172436 81.986095 
L 692.172436 81.986095 
L 692.172746 81.986095 
L 692.172746 81.986095 
L 692.173057 81.986095 
L 692.173057 81.986095 
L 692.173368 81.986095 
L 692.173368 81.986095 
L 692.173679 81.986095 
L 692.173679 81.986095 
L 692.17399 81.986095 
L 692.17399 81.986095 
L 692.1743 81.986095 
L 692.1743 81.986095 
L 692.174611 81.986095 
L 692.174611 81.986095 
L 692.174922 81.986095 
L 692.174922 117.419166 
L 692.174922 117.419166 
L 692.174611 117.419166 
L 692.174611 117.419166 
L 692.1743 117.419166 
L 692.1743 117.419166 
L 692.17399 117.419166 
L 692.17399 117.419166 
L 692.173679 117.419166 
L 692.173679 117.419166 
L 692.173368 117.419166 
L 692.173368 117.419166 
L 692.173057 117.419166 
L 692.173057 117.419166 
L 692.172746 117.419166 
L 692.172746 117.419166 
L 692.172436 117.419166 
L 692.172436 117.419166 
L 692.172125 117.419166 
L 692.172125 117.419166 
L 692.171814 117.419166 
L 692.171814 117.419166 
L 692.171503 117.419166 
L 692.171503 117.419166 
L 692.171193 117.419166 
L 692.171193 117.419166 
L 692.170882 117.419166 
L 692.170882 117.419166 
L 692.170571 117.419166 
L 692.170571 117.419166 
L 692.17026 117.419166 
L 692.17026 117.419166 
L 692.16995 117.419166 
L 692.16995 117.419166 
L 692.169639 117.419166 
L 692.169639 117.419166 
L 692.169328 117.419166 
L 692.169328 117.419166 
L 692.169017 117.419166 
L 692.169017 117.419166 
L 692.168706 117.419166 
L 692.168706 117.419166 
L 692.168396 117.419166 
L 692.168396 117.419166 
L 692.168085 117.419166 
L 692.168085 117.419166 
L 692.167774 117.419166 
L 692.167774 117.419166 
L 692.167463 117.419166 
L 692.167463 117.419166 
L 692.167153 117.419166 
L 692.167153 117.419166 
L 692.166842 117.419166 
L 692.166842 117.419166 
L 692.166531 117.419166 
L 692.166531 117.419166 
L 692.16622 117.419166 
L 692.16622 117.419166 
L 692.16591 117.419166 
L 692.16591 117.419166 
L 692.165599 117.419166 
L 692.165599 117.419166 
L 692.165288 117.419166 
L 692.165288 117.419166 
L 692.164977 117.419166 
L 692.164977 117.419166 
L 692.164666 117.419166 
L 692.164666 117.419166 
L 692.164356 117.419166 
L 692.164356 117.419166 
L 692.164045 117.419166 
L 692.164045 117.419166 
L 692.163734 117.419166 
L 692.163734 117.419166 
L 692.163423 117.419166 
L 692.163423 117.419166 
L 692.163113 117.419166 
L 692.163113 117.419166 
L 692.162802 117.419166 
z
" clip-path="url(#p08882d3257)" style="fill: #1f77b4; stroke: #1f77b4; stroke-width: 0.1"/>
    <path d="M 708.06606 117.419166 
L 708.06606 103.245937 
L 708.06637 103.245937 
L 708.06637 103.245937 
L 708.066681 103.245937 
L 708.066681 103.245937 
L 708.066992 103.245937 
L 708.066992 103.245937 
L 708.067303 103.245937 
L 708.067303 103.245937 
L 708.067613 103.245937 
L 708.067613 103.245937 
L 708.067924 103.245937 
L 708.067924 103.245937 
L 708.068235 103.245937 
L 708.068235 103.245937 
L 708.068546 103.245937 
L 708.068546 103.245937 
L 708.068856 103.245937 
L 708.068856 103.245937 
L 708.069167 103.245937 
L 708.069167 103.245937 
L 708.069478 103.245937 
L 708.069478 103.245937 
L 708.069789 103.245937 
L 708.069789 103.245937 
L 708.0701 103.245937 
L 708.0701 103.245937 
L 708.07041 103.245937 
L 708.07041 103.245937 
L 708.070721 103.245937 
L 708.070721 103.245937 
L 708.071032 103.245937 
L 708.071032 103.245937 
L 708.071343 103.245937 
L 708.071343 103.245937 
L 708.071653 103.245937 
L 708.071653 103.245937 
L 708.071964 103.245937 
L 708.071964 103.245937 
L 708.072275 103.245937 
L 708.072275 103.245937 
L 708.072586 103.245937 
L 708.072586 103.245937 
L 708.072896 103.245937 
L 708.072896 103.245937 
L 708.073207 103.245937 
L 708.073207 103.245937 
L 708.073518 103.245937 
L 708.073518 103.245937 
L 708.073829 103.245937 
L 708.073829 103.245937 
L 708.07414 103.245937 
L 708.07414 103.245937 
L 708.07445 103.245937 
L 708.07445 103.245937 
L 708.074761 103.245937 
L 708.074761 103.245937 
L 708.075072 103.245937 
L 708.075072 103.245937 
L 708.075383 103.245937 
L 708.075383 103.245937 
L 708.075693 103.245937 
L 708.075693 117.419166 
L 708.075693 117.419166 
L 708.075383 117.419166 
L 708.075383 117.419166 
L 708.075072 117.419166 
L 708.075072 117.419166 
L 708.074761 117.419166 
L 708.074761 117.419166 
L 708.07445 117.419166 
L 708.07445 117.419166 
L 708.07414 117.419166 
L 708.07414 117.419166 
L 708.073829 117.419166 
L 708.073829 117.419166 
L 708.073518 117.419166 
L 708.073518 117.419166 
L 708.073207 117.419166 
L 708.073207 117.419166 
L 708.072896 117.419166 
L 708.072896 117.419166 
L 708.072586 117.419166 
L 708.072586 117.419166 
L 708.072275 117.419166 
L 708.072275 117.419166 
L 708.071964 117.419166 
L 708.071964 117.419166 
L 708.071653 117.419166 
L 708.071653 117.419166 
L 708.071343 117.419166 
L 708.071343 117.419166 
L 708.071032 117.419166 
L 708.071032 117.419166 
L 708.070721 117.419166 
L 708.070721 117.419166 
L 708.07041 117.419166 
L 708.07041 117.419166 
L 708.0701 117.419166 
L 708.0701 117.419166 
L 708.069789 117.419166 
L 708.069789 117.419166 
L 708.069478 117.419166 
L 708.069478 117.419166 
L 708.069167 117.419166 
L 708.069167 117.419166 
L 708.068856 117.419166 
L 708.068856 117.419166 
L 708.068546 117.419166 
L 708.068546 117.419166 
L 708.068235 117.419166 
L 708.068235 117.419166 
L 708.067924 117.419166 
L 708.067924 117.419166 
L 708.067613 117.419166 
L 708.067613 117.419166 
L 708.067303 117.419166 
L 708.067303 117.419166 
L 708.066992 117.419166 
L 708.066992 117.419166 
L 708.066681 117.419166 
L 708.066681 117.419166 
L 708.06637 117.419166 
L 708.06637 117.419166 
L 708.06606 117.419166 
z
" clip-path="url(#p08882d3257)" style="fill: #1f77b4; stroke: #1f77b4; stroke-width: 0.1"/>
    <path d="M 939.35631 117.419166 
L 939.35631 110.332552 
L 939.35662 110.332552 
L 939.35662 110.332552 
L 939.356931 110.332552 
L 939.356931 110.332552 
L 939.357242 110.332552 
L 939.357242 110.332552 
L 939.357553 110.332552 
L 939.357553 110.332552 
L 939.357864 110.332552 
L 939.357864 110.332552 
L 939.358174 110.332552 
L 939.358174 110.332552 
L 939.358485 110.332552 
L 939.358485 110.332552 
L 939.358796 110.332552 
L 939.358796 110.332552 
L 939.359107 110.332552 
L 939.359107 110.332552 
L 939.359417 110.332552 
L 939.359417 110.332552 
L 939.359728 110.332552 
L 939.359728 110.332552 
L 939.360039 110.332552 
L 939.360039 110.332552 
L 939.36035 110.332552 
L 939.36035 110.332552 
L 939.36066 110.332552 
L 939.36066 110.332552 
L 939.360971 110.332552 
L 939.360971 110.332552 
L 939.361282 110.332552 
L 939.361282 110.332552 
L 939.361593 110.332552 
L 939.361593 110.332552 
L 939.361904 110.332552 
L 939.361904 110.332552 
L 939.362214 110.332552 
L 939.362214 110.332552 
L 939.362525 110.332552 
L 939.362525 110.332552 
L 939.362836 110.332552 
L 939.362836 110.332552 
L 939.363147 110.332552 
L 939.363147 110.332552 
L 939.363457 110.332552 
L 939.363457 110.332552 
L 939.363768 110.332552 
L 939.363768 110.332552 
L 939.364079 110.332552 
L 939.364079 110.332552 
L 939.36439 110.332552 
L 939.36439 110.332552 
L 939.3647 110.332552 
L 939.3647 110.332552 
L 939.365011 110.332552 
L 939.365011 110.332552 
L 939.365322 110.332552 
L 939.365322 110.332552 
L 939.365633 110.332552 
L 939.365633 110.332552 
L 939.365944 110.332552 
L 939.365944 117.419166 
L 939.365944 117.419166 
L 939.365633 117.419166 
L 939.365633 117.419166 
L 939.365322 117.419166 
L 939.365322 117.419166 
L 939.365011 117.419166 
L 939.365011 117.419166 
L 939.3647 117.419166 
L 939.3647 117.419166 
L 939.36439 117.419166 
L 939.36439 117.419166 
L 939.364079 117.419166 
L 939.364079 117.419166 
L 939.363768 117.419166 
L 939.363768 117.419166 
L 939.363457 117.419166 
L 939.363457 117.419166 
L 939.363147 117.419166 
L 939.363147 117.419166 
L 939.362836 117.419166 
L 939.362836 117.419166 
L 939.362525 117.419166 
L 939.362525 117.419166 
L 939.362214 117.419166 
L 939.362214 117.419166 
L 939.361904 117.419166 
L 939.361904 117.419166 
L 939.361593 117.419166 
L 939.361593 117.419166 
L 939.361282 117.419166 
L 939.361282 117.419166 
L 939.360971 117.419166 
L 939.360971 117.419166 
L 939.36066 117.419166 
L 939.36066 117.419166 
L 939.36035 117.419166 
L 939.36035 117.419166 
L 939.360039 117.419166 
L 939.360039 117.419166 
L 939.359728 117.419166 
L 939.359728 117.419166 
L 939.359417 117.419166 
L 939.359417 117.419166 
L 939.359107 117.419166 
L 939.359107 117.419166 
L 939.358796 117.419166 
L 939.358796 117.419166 
L 939.358485 117.419166 
L 939.358485 117.419166 
L 939.358174 117.419166 
L 939.358174 117.419166 
L 939.357864 117.419166 
L 939.357864 117.419166 
L 939.357553 117.419166 
L 939.357553 117.419166 
L 939.357242 117.419166 
L 939.357242 117.419166 
L 939.356931 117.419166 
L 939.356931 117.419166 
L 939.35662 117.419166 
L 939.35662 117.419166 
L 939.35631 117.419166 
z
" clip-path="url(#p08882d3257)" style="fill: #1f77b4; stroke: #1f77b4; stroke-width: 0.1"/>
   </g>
  </g>
  <g id="axes_5">
   <g id="line2d_1">
    <path d="M 45.354331 116.852237 
L 50.261199 116.852237 
L 50.261199 61.293181 
L 45.354331 61.293181 
" clip-path="url(#p3b7e280fe1)" style="fill: none; stroke: #000000; stroke-linecap: square"/>
   </g>
   <g id="text_9">
    <!-- 0 -->
    <g transform="translate(35.756583 115.49047)scale(0.12 -0.12)">
     <use xlink:href="#DejaVuSans-30"/>
    </g>
   </g>
   <g id="text_10">
    <!-- 1 -->
    <g transform="translate(35.756583 69.844377)scale(0.12 -0.12)">
     <defs>
      <path id="DejaVuSans-31" d="M 794 531 
L 1825 531 
L 1825 4091 
L 703 3866 
L 703 4441 
L 1819 4666 
L 2450 4666 
L 2450 531 
L 3481 531 
L 3481 0 
L 794 0 
L 794 531 
z
" transform="scale(0.015625)"/>
     </defs>
     <use xlink:href="#DejaVuSans-31"/>
    </g>
   </g>
  </g>
  <g id="axes_6">
   <g id="text_11">
    <!-- EH23b -->
    <g transform="translate(996.534359 93.046209)scale(0.144 -0.144)">
     <use xlink:href="#DejaVuSans-45"/>
     <use xlink:href="#DejaVuSans-48" x="63.183594"/>
     <use xlink:href="#DejaVuSans-32" x="138.378906"/>
     <use xlink:href="#DejaVuSans-33" x="202.001953"/>
     <use xlink:href="#DejaVuSans-62" x="265.625"/>
    </g>
   </g>
  </g>
  <g id="axes_7"/>
  <g id="axes_8"/>
  <g id="axes_9"/>
  <g id="axes_10">
   <g id="patch_3">
    <path d="M 62.696609 132.46796 
L 58.96739 137.940249 
L 62.696609 143.412538 
L 62.848575 143.412538 
L 62.848575 132.46796 
z
" clip-path="url(#pbb8d1fa2db)" style="fill: #1f78b4; stroke: #000000; stroke-width: 0.5; stroke-linejoin: miter"/>
   </g>
   <g id="patch_4">
    <path d="M 68.633527 157.640489 
L 68.633527 168.585067 
L 70.290855 168.585067 
L 74.020074 163.112778 
L 70.290855 157.640489 
z
" clip-path="url(#pbb8d1fa2db)" style="fill: #1f78b4; stroke: #000000; stroke-width: 0.5; stroke-linejoin: miter"/>
   </g>
   <g id="patch_5">
    <path d="M 75.210628 132.46796 
L 75.210628 143.412538 
L 76.171213 143.412538 
L 79.900432 137.940249 
L 76.171213 132.46796 
z
" clip-path="url(#pbb8d1fa2db)" style="fill: #1f78b4; stroke: #000000; stroke-width: 0.5; stroke-linejoin: miter"/>
   </g>
   <g id="patch_6">
    <path d="M 81.246059 157.640489 
L 81.246059 168.585067 
L 81.467015 168.585067 
L 85.196235 163.112778 
L 81.467015 157.640489 
z
" clip-path="url(#pbb8d1fa2db)" style="fill: #1f78b4; stroke: #000000; stroke-width: 0.5; stroke-linejoin: miter"/>
   </g>
   <g id="patch_7">
    <path d="M 82.068352 182.813018 
L 78.339132 188.285307 
L 82.068352 193.757596 
L 82.789024 193.757596 
L 82.789024 182.813018 
z
" clip-path="url(#pbb8d1fa2db)" style="fill: #1f78b4; stroke: #000000; stroke-width: 0.5; stroke-linejoin: miter"/>
   </g>
   <g id="patch_8">
    <path d="M 86.07975 132.46796 
L 82.35053 137.940249 
L 86.07975 143.412538 
L 87.214365 143.412538 
L 87.214365 132.46796 
z
" clip-path="url(#pbb8d1fa2db)" style="fill: #1f78b4; stroke: #000000; stroke-width: 0.5; stroke-linejoin: miter"/>
   </g>
   <g id="patch_9">
    <path d="M 88.402432 207.985548 
L 84.673212 213.457837 
L 88.402432 218.930125 
L 89.708591 218.930125 
L 89.708591 207.985548 
z
" clip-path="url(#pbb8d1fa2db)" style="fill: #1f78b4; stroke: #000000; stroke-width: 0.5; stroke-linejoin: miter"/>
   </g>
   <g id="patch_10">
    <path d="M 96.199298 132.46796 
L 96.199298 143.412538 
L 96.505405 143.412538 
L 100.234625 137.940249 
L 96.505405 132.46796 
z
" clip-path="url(#pbb8d1fa2db)" style="fill: #1f78b4; stroke: #000000; stroke-width: 0.5; stroke-linejoin: miter"/>
   </g>
   <g id="patch_11">
    <path d="M 97.694715 157.640489 
L 93.965496 163.112778 
L 97.694715 168.585067 
L 97.874029 168.585067 
L 97.874029 157.640489 
z
" clip-path="url(#pbb8d1fa2db)" style="fill: #1f78b4; stroke: #000000; stroke-width: 0.5; stroke-linejoin: miter"/>
   </g>
   <g id="patch_12">
    <path d="M 98.074474 182.813018 
L 94.345254 188.285307 
L 98.074474 193.757596 
L 98.999321 193.757596 
L 98.999321 182.813018 
z
" clip-path="url(#pbb8d1fa2db)" style="fill: #1f78b4; stroke: #000000; stroke-width: 0.5; stroke-linejoin: miter"/>
   </g>
   <g id="patch_13">
    <path d="M 103.854765 207.985548 
L 103.854765 218.930125 
L 104.179518 218.930125 
L 107.908737 213.457837 
L 104.179518 207.985548 
z
" clip-path="url(#pbb8d1fa2db)" style="fill: #1f78b4; stroke: #000000; stroke-width: 0.5; stroke-linejoin: miter"/>
   </g>
   <g id="patch_14">
    <path d="M 105.738642 132.46796 
L 105.738642 143.412538 
L 106.506551 143.412538 
L 110.235771 137.940249 
L 106.506551 132.46796 
z
" clip-path="url(#pbb8d1fa2db)" style="fill: #1f78b4; stroke: #000000; stroke-width: 0.5; stroke-linejoin: miter"/>
   </g>
   <g id="patch_15">
    <path d="M 111.692031 157.640489 
L 107.962811 163.112778 
L 111.692031 168.585067 
L 112.965559 168.585067 
L 112.965559 157.640489 
z
" clip-path="url(#pbb8d1fa2db)" style="fill: #1f78b4; stroke: #000000; stroke-width: 0.5; stroke-linejoin: miter"/>
   </g>
   <g id="patch_16">
    <path d="M 116.749164 132.46796 
L 113.019944 137.940249 
L 116.749164 143.412538 
L 116.866634 143.412538 
L 116.866634 132.46796 
z
" clip-path="url(#pbb8d1fa2db)" style="fill: #1f78b4; stroke: #000000; stroke-width: 0.5; stroke-linejoin: miter"/>
   </g>
   <g id="patch_17">
    <path d="M 122.139751 157.640489 
L 118.410531 163.112778 
L 122.139751 168.585067 
L 122.278664 168.585067 
L 122.278664 157.640489 
z
" clip-path="url(#pbb8d1fa2db)" style="fill: #1f78b4; stroke: #000000; stroke-width: 0.5; stroke-linejoin: miter"/>
   </g>
   <g id="patch_18">
    <path d="M 126.446067 132.46796 
L 122.716848 137.940249 
L 126.446067 143.412538 
L 126.985561 143.412538 
L 126.985561 132.46796 
z
" clip-path="url(#pbb8d1fa2db)" style="fill: #1f78b4; stroke: #000000; stroke-width: 0.5; stroke-linejoin: miter"/>
   </g>
   <g id="patch_19">
    <path d="M 127.269603 182.813018 
L 123.540384 188.285307 
L 127.269603 193.757596 
L 127.787654 193.757596 
L 127.787654 182.813018 
z
" clip-path="url(#pbb8d1fa2db)" style="fill: #1f78b4; stroke: #000000; stroke-width: 0.5; stroke-linejoin: miter"/>
   </g>
   <g id="patch_20">
    <path d="M 129.756993 157.640489 
L 129.756993 168.585067 
L 130.229672 168.585067 
L 133.958891 163.112778 
L 130.229672 157.640489 
z
" clip-path="url(#pbb8d1fa2db)" style="fill: #1f78b4; stroke: #000000; stroke-width: 0.5; stroke-linejoin: miter"/>
   </g>
   <g id="patch_21">
    <path d="M 130.656357 207.985548 
L 126.927137 213.457837 
L 130.656357 218.930125 
L 130.975205 218.930125 
L 130.975205 207.985548 
z
" clip-path="url(#pbb8d1fa2db)" style="fill: #1f78b4; stroke: #000000; stroke-width: 0.5; stroke-linejoin: miter"/>
   </g>
   <g id="patch_22">
    <path d="M 135.523921 132.46796 
L 131.794701 137.940249 
L 135.523921 143.412538 
L 135.618083 143.412538 
L 135.618083 132.46796 
z
" clip-path="url(#pbb8d1fa2db)" style="fill: #1f78b4; stroke: #000000; stroke-width: 0.5; stroke-linejoin: miter"/>
   </g>
   <g id="patch_23">
    <path d="M 142.26231 157.640489 
L 142.26231 168.585067 
L 144.475602 168.585067 
L 148.204822 163.112778 
L 144.475602 157.640489 
z
" clip-path="url(#pbb8d1fa2db)" style="fill: #1f78b4; stroke: #000000; stroke-width: 0.5; stroke-linejoin: miter"/>
   </g>
   <g id="patch_24">
    <path d="M 149.490159 132.46796 
L 149.490159 143.412538 
L 151.912288 143.412538 
L 155.641507 137.940249 
L 151.912288 132.46796 
z
" clip-path="url(#pbb8d1fa2db)" style="fill: #1f78b4; stroke: #000000; stroke-width: 0.5; stroke-linejoin: miter"/>
   </g>
   <g id="patch_25">
    <path d="M 153.114961 157.640489 
L 153.114961 168.585067 
L 153.899029 168.585067 
L 157.628249 163.112778 
L 153.899029 157.640489 
z
" clip-path="url(#pbb8d1fa2db)" style="fill: #1f78b4; stroke: #000000; stroke-width: 0.5; stroke-linejoin: miter"/>
   </g>
   <g id="patch_26">
    <path d="M 163.227051 132.46796 
L 163.227051 143.412538 
L 164.982892 143.412538 
L 168.712112 137.940249 
L 164.982892 132.46796 
z
" clip-path="url(#pbb8d1fa2db)" style="fill: #1f78b4; stroke: #000000; stroke-width: 0.5; stroke-linejoin: miter"/>
   </g>
   <g id="patch_27">
    <path d="M 166.009049 157.640489 
L 166.009049 168.585067 
L 167.258027 168.585067 
L 170.987247 163.112778 
L 167.258027 157.640489 
z
" clip-path="url(#pbb8d1fa2db)" style="fill: #1f78b4; stroke: #000000; stroke-width: 0.5; stroke-linejoin: miter"/>
   </g>
   <g id="patch_28">
    <path d="M 171.490691 182.813018 
L 171.490691 193.757596 
L 172.991392 193.757596 
L 176.720611 188.285307 
L 172.991392 182.813018 
z
" clip-path="url(#pbb8d1fa2db)" style="fill: #1f78b4; stroke: #000000; stroke-width: 0.5; stroke-linejoin: miter"/>
   </g>
   <g id="patch_29">
    <path d="M 182.349247 132.46796 
L 182.349247 143.412538 
L 182.46765 143.412538 
L 186.19687 137.940249 
L 182.46765 132.46796 
z
" clip-path="url(#pbb8d1fa2db)" style="fill: #1f78b4; stroke: #000000; stroke-width: 0.5; stroke-linejoin: miter"/>
   </g>
   <g id="patch_30">
    <path d="M 183.911169 157.640489 
L 180.181949 163.112778 
L 183.911169 168.585067 
L 184.936393 168.585067 
L 184.936393 157.640489 
z
" clip-path="url(#pbb8d1fa2db)" style="fill: #1f78b4; stroke: #000000; stroke-width: 0.5; stroke-linejoin: miter"/>
   </g>
   <g id="patch_31">
    <path d="M 189.229036 182.813018 
L 185.499816 188.285307 
L 189.229036 193.757596 
L 189.479826 193.757596 
L 189.479826 182.813018 
z
" clip-path="url(#pbb8d1fa2db)" style="fill: #1f78b4; stroke: #000000; stroke-width: 0.5; stroke-linejoin: miter"/>
   </g>
   <g id="patch_32">
    <path d="M 193.663389 132.46796 
L 193.663389 143.412538 
L 195.264157 143.412538 
L 198.993376 137.940249 
L 195.264157 132.46796 
z
" clip-path="url(#pbb8d1fa2db)" style="fill: #1f78b4; stroke: #000000; stroke-width: 0.5; stroke-linejoin: miter"/>
   </g>
   <g id="patch_33">
    <path d="M 196.083653 157.640489 
L 192.354433 163.112778 
L 196.083653 168.585067 
L 197.669503 168.585067 
L 197.669503 157.640489 
z
" clip-path="url(#pbb8d1fa2db)" style="fill: #1f78b4; stroke: #000000; stroke-width: 0.5; stroke-linejoin: miter"/>
   </g>
   <g id="patch_34">
    <path d="M 200.215628 182.813018 
L 196.486409 188.285307 
L 200.215628 193.757596 
L 200.810439 193.757596 
L 200.810439 182.813018 
z
" clip-path="url(#pbb8d1fa2db)" style="fill: #1f78b4; stroke: #000000; stroke-width: 0.5; stroke-linejoin: miter"/>
   </g>
   <g id="patch_35">
    <path d="M 201.211951 207.985548 
L 201.211951 218.930125 
L 201.948472 218.930125 
L 205.677692 213.457837 
L 201.948472 207.985548 
z
" clip-path="url(#pbb8d1fa2db)" style="fill: #1f78b4; stroke: #000000; stroke-width: 0.5; stroke-linejoin: miter"/>
   </g>
   <g id="patch_36">
    <path d="M 208.395672 132.46796 
L 208.395672 143.412538 
L 208.556028 143.412538 
L 212.285248 137.940249 
L 208.556028 132.46796 
z
" clip-path="url(#pbb8d1fa2db)" style="fill: #1f78b4; stroke: #000000; stroke-width: 0.5; stroke-linejoin: miter"/>
   </g>
   <g id="patch_37">
    <path d="M 210.450161 157.640489 
L 206.720941 163.112778 
L 210.450161 168.585067 
L 211.282399 168.585067 
L 211.282399 157.640489 
z
" clip-path="url(#pbb8d1fa2db)" style="fill: #1f78b4; stroke: #000000; stroke-width: 0.5; stroke-linejoin: miter"/>
   </g>
   <g id="patch_38">
    <path d="M 212.741145 182.813018 
L 212.741145 193.757596 
L 213.748035 193.757596 
L 217.477254 188.285307 
L 213.748035 182.813018 
z
" clip-path="url(#pbb8d1fa2db)" style="fill: #1f78b4; stroke: #000000; stroke-width: 0.5; stroke-linejoin: miter"/>
   </g>
   <g id="patch_39">
    <path d="M 214.322956 207.985548 
L 210.593736 213.457837 
L 214.322956 218.930125 
L 215.72421 218.930125 
L 215.72421 207.985548 
z
" clip-path="url(#pbb8d1fa2db)" style="fill: #1f78b4; stroke: #000000; stroke-width: 0.5; stroke-linejoin: miter"/>
   </g>
   <g id="patch_40">
    <path d="M 249.476446 132.46796 
L 249.476446 143.412538 
L 249.60324 143.412538 
L 253.332459 137.940249 
L 249.60324 132.46796 
z
" clip-path="url(#pbb8d1fa2db)" style="fill: #1f78b4; stroke: #000000; stroke-width: 0.5; stroke-linejoin: miter"/>
   </g>
   <g id="patch_41">
    <path d="M 256.057276 157.640489 
L 256.057276 168.585067 
L 256.236278 168.585067 
L 259.965498 163.112778 
L 256.236278 157.640489 
z
" clip-path="url(#pbb8d1fa2db)" style="fill: #1f78b4; stroke: #000000; stroke-width: 0.5; stroke-linejoin: miter"/>
   </g>
   <g id="patch_42">
    <path d="M 267.198941 132.46796 
L 267.198941 143.412538 
L 268.107006 143.412538 
L 271.836226 137.940249 
L 268.107006 132.46796 
z
" clip-path="url(#pbb8d1fa2db)" style="fill: #1f78b4; stroke: #000000; stroke-width: 0.5; stroke-linejoin: miter"/>
   </g>
   <g id="patch_43">
    <path d="M 268.1328 157.640489 
L 268.1328 168.585067 
L 268.984616 168.585067 
L 272.713836 163.112778 
L 268.984616 157.640489 
z
" clip-path="url(#pbb8d1fa2db)" style="fill: #1f78b4; stroke: #000000; stroke-width: 0.5; stroke-linejoin: miter"/>
   </g>
   <g id="patch_44">
    <path d="M 295.181453 132.46796 
L 291.452233 137.940249 
L 295.181453 143.412538 
L 295.44716 143.412538 
L 295.44716 132.46796 
z
" clip-path="url(#pbb8d1fa2db)" style="fill: #1f78b4; stroke: #000000; stroke-width: 0.5; stroke-linejoin: miter"/>
   </g>
   <g id="patch_45">
    <path d="M 299.225481 157.640489 
L 295.496261 163.112778 
L 299.225481 168.585067 
L 301.132044 168.585067 
L 301.132044 157.640489 
z
" clip-path="url(#pbb8d1fa2db)" style="fill: #1f78b4; stroke: #000000; stroke-width: 0.5; stroke-linejoin: miter"/>
   </g>
   <g id="patch_46">
    <path d="M 321.582464 132.46796 
L 317.853244 137.940249 
L 321.582464 143.412538 
L 322.854439 143.412538 
L 322.854439 132.46796 
z
" clip-path="url(#pbb8d1fa2db)" style="fill: #1f78b4; stroke: #000000; stroke-width: 0.5; stroke-linejoin: miter"/>
   </g>
   <g id="patch_47">
    <path d="M 323.327428 157.640489 
L 319.598208 163.112778 
L 323.327428 168.585067 
L 324.360422 168.585067 
L 324.360422 157.640489 
z
" clip-path="url(#pbb8d1fa2db)" style="fill: #1f78b4; stroke: #000000; stroke-width: 0.5; stroke-linejoin: miter"/>
   </g>
   <g id="patch_48">
    <path d="M 328.713354 182.813018 
L 324.984134 188.285307 
L 328.713354 193.757596 
L 328.89795 193.757596 
L 328.89795 182.813018 
z
" clip-path="url(#pbb8d1fa2db)" style="fill: #1f78b4; stroke: #000000; stroke-width: 0.5; stroke-linejoin: miter"/>
   </g>
   <g id="patch_49">
    <path d="M 330.768465 132.46796 
L 327.039245 137.940249 
L 330.768465 143.412538 
L 331.782191 143.412538 
L 331.782191 132.46796 
z
" clip-path="url(#pbb8d1fa2db)" style="fill: #1f78b4; stroke: #000000; stroke-width: 0.5; stroke-linejoin: miter"/>
   </g>
   <g id="patch_50">
    <path d="M 332.399066 157.640489 
L 328.669846 163.112778 
L 332.399066 168.585067 
L 332.562219 168.585067 
L 332.562219 157.640489 
z
" clip-path="url(#pbb8d1fa2db)" style="fill: #1f78b4; stroke: #000000; stroke-width: 0.5; stroke-linejoin: miter"/>
   </g>
   <g id="patch_51">
    <path d="M 348.944682 132.46796 
L 348.944682 143.412538 
L 351.296576 143.412538 
L 355.025796 137.940249 
L 351.296576 132.46796 
z
" clip-path="url(#pbb8d1fa2db)" style="fill: #1f78b4; stroke: #000000; stroke-width: 0.5; stroke-linejoin: miter"/>
   </g>
   <g id="patch_52">
    <path d="M 351.629099 157.640489 
L 351.629099 168.585067 
L 352.131611 168.585067 
L 355.860831 163.112778 
L 352.131611 157.640489 
z
" clip-path="url(#pbb8d1fa2db)" style="fill: #1f78b4; stroke: #000000; stroke-width: 0.5; stroke-linejoin: miter"/>
   </g>
   <g id="patch_53">
    <path d="M 353.073239 182.813018 
L 349.344019 188.285307 
L 353.073239 193.757596 
L 353.537527 193.757596 
L 353.537527 182.813018 
z
" clip-path="url(#pbb8d1fa2db)" style="fill: #1f78b4; stroke: #000000; stroke-width: 0.5; stroke-linejoin: miter"/>
   </g>
   <g id="patch_54">
    <path d="M 361.788736 132.46796 
L 361.788736 143.412538 
L 362.871764 143.412538 
L 366.600984 137.940249 
L 362.871764 132.46796 
z
" clip-path="url(#pbb8d1fa2db)" style="fill: #1f78b4; stroke: #000000; stroke-width: 0.5; stroke-linejoin: miter"/>
   </g>
   <g id="patch_55">
    <path d="M 362.952253 157.640489 
L 359.223033 163.112778 
L 362.952253 168.585067 
L 363.823026 168.585067 
L 363.823026 157.640489 
z
" clip-path="url(#pbb8d1fa2db)" style="fill: #1f78b4; stroke: #000000; stroke-width: 0.5; stroke-linejoin: miter"/>
   </g>
   <g id="patch_56">
    <path d="M 365.688568 182.813018 
L 361.959348 188.285307 
L 365.688568 193.757596 
L 366.76538 193.757596 
L 366.76538 182.813018 
z
" clip-path="url(#pbb8d1fa2db)" style="fill: #1f78b4; stroke: #000000; stroke-width: 0.5; stroke-linejoin: miter"/>
   </g>
   <g id="patch_57">
    <path d="M 367.034816 207.985548 
L 363.305596 213.457837 
L 367.034816 218.930125 
L 367.518682 218.930125 
L 367.518682 207.985548 
z
" clip-path="url(#pbb8d1fa2db)" style="fill: #1f78b4; stroke: #000000; stroke-width: 0.5; stroke-linejoin: miter"/>
   </g>
   <g id="patch_58">
    <path d="M 375.89855 132.46796 
L 372.16933 137.940249 
L 375.89855 143.412538 
L 377.368173 143.412538 
L 377.368173 132.46796 
z
" clip-path="url(#pbb8d1fa2db)" style="fill: #1f78b4; stroke: #000000; stroke-width: 0.5; stroke-linejoin: miter"/>
   </g>
   <g id="patch_59">
    <path d="M 379.823865 157.640489 
L 379.823865 168.585067 
L 380.550441 168.585067 
L 384.279661 163.112778 
L 380.550441 157.640489 
z
" clip-path="url(#pbb8d1fa2db)" style="fill: #1f78b4; stroke: #000000; stroke-width: 0.5; stroke-linejoin: miter"/>
   </g>
   <g id="patch_60">
    <path d="M 381.045495 182.813018 
L 381.045495 193.757596 
L 381.161101 193.757596 
L 384.89032 188.285307 
L 381.161101 182.813018 
z
" clip-path="url(#pbb8d1fa2db)" style="fill: #1f78b4; stroke: #000000; stroke-width: 0.5; stroke-linejoin: miter"/>
   </g>
   <g id="patch_61">
    <path d="M 383.099052 207.985548 
L 383.099052 218.930125 
L 383.224292 218.930125 
L 386.953511 213.457837 
L 383.224292 207.985548 
z
" clip-path="url(#pbb8d1fa2db)" style="fill: #1f78b4; stroke: #000000; stroke-width: 0.5; stroke-linejoin: miter"/>
   </g>
   <g id="patch_62">
    <path d="M 386.357768 132.46796 
L 386.357768 143.412538 
L 387.116665 143.412538 
L 390.845884 137.940249 
L 387.116665 132.46796 
z
" clip-path="url(#pbb8d1fa2db)" style="fill: #1f78b4; stroke: #000000; stroke-width: 0.5; stroke-linejoin: miter"/>
   </g>
   <g id="patch_63">
    <path d="M 388.781451 157.640489 
L 388.781451 168.585067 
L 389.291732 168.585067 
L 393.020952 163.112778 
L 389.291732 157.640489 
z
" clip-path="url(#pbb8d1fa2db)" style="fill: #1f78b4; stroke: #000000; stroke-width: 0.5; stroke-linejoin: miter"/>
   </g>
   <g id="patch_64">
    <path d="M 389.663411 182.813018 
L 385.934191 188.285307 
L 389.663411 193.757596 
L 392.068447 193.757596 
L 392.068447 182.813018 
z
" clip-path="url(#pbb8d1fa2db)" style="fill: #1f78b4; stroke: #000000; stroke-width: 0.5; stroke-linejoin: miter"/>
   </g>
   <g id="patch_65">
    <path d="M 394.917882 132.46796 
L 394.917882 143.412538 
L 395.71407 143.412538 
L 399.44329 137.940249 
L 395.71407 132.46796 
z
" clip-path="url(#pbb8d1fa2db)" style="fill: #1f78b4; stroke: #000000; stroke-width: 0.5; stroke-linejoin: miter"/>
   </g>
   <g id="patch_66">
    <path d="M 397.458723 157.640489 
L 393.729504 163.112778 
L 397.458723 168.585067 
L 398.087408 168.585067 
L 398.087408 157.640489 
z
" clip-path="url(#pbb8d1fa2db)" style="fill: #1f78b4; stroke: #000000; stroke-width: 0.5; stroke-linejoin: miter"/>
   </g>
   <g id="patch_67">
    <path d="M 399.732304 182.813018 
L 399.732304 193.757596 
L 399.945802 193.757596 
L 403.675022 188.285307 
L 399.945802 182.813018 
z
" clip-path="url(#pbb8d1fa2db)" style="fill: #1f78b4; stroke: #000000; stroke-width: 0.5; stroke-linejoin: miter"/>
   </g>
   <g id="patch_68">
    <path d="M 427.737191 132.46796 
L 427.737191 143.412538 
L 427.870511 143.412538 
L 431.59973 137.940249 
L 427.870511 132.46796 
z
" clip-path="url(#pbb8d1fa2db)" style="fill: #1f78b4; stroke: #000000; stroke-width: 0.5; stroke-linejoin: miter"/>
   </g>
   <g id="patch_69">
    <path d="M 431.759776 157.640489 
L 431.759776 168.585067 
L 432.126793 168.585067 
L 435.856013 163.112778 
L 432.126793 157.640489 
z
" clip-path="url(#pbb8d1fa2db)" style="fill: #1f78b4; stroke: #000000; stroke-width: 0.5; stroke-linejoin: miter"/>
   </g>
   <g id="patch_70">
    <path d="M 441.927494 132.46796 
L 441.927494 143.412538 
L 442.987214 143.412538 
L 446.716434 137.940249 
L 442.987214 132.46796 
z
" clip-path="url(#pbb8d1fa2db)" style="fill: #1f78b4; stroke: #000000; stroke-width: 0.5; stroke-linejoin: miter"/>
   </g>
   <g id="patch_71">
    <path d="M 446.28633 157.640489 
L 442.55711 163.112778 
L 446.28633 168.585067 
L 446.616677 168.585067 
L 446.616677 157.640489 
z
" clip-path="url(#pbb8d1fa2db)" style="fill: #1f78b4; stroke: #000000; stroke-width: 0.5; stroke-linejoin: miter"/>
   </g>
   <g id="patch_72">
    <path d="M 449.819766 182.813018 
L 449.819766 193.757596 
L 450.94568 193.757596 
L 454.674899 188.285307 
L 450.94568 182.813018 
z
" clip-path="url(#pbb8d1fa2db)" style="fill: #1f78b4; stroke: #000000; stroke-width: 0.5; stroke-linejoin: miter"/>
   </g>
   <g id="patch_73">
    <path d="M 460.193212 132.46796 
L 460.193212 143.412538 
L 465.069478 143.412538 
L 468.798698 137.940249 
L 465.069478 132.46796 
z
" clip-path="url(#pbb8d1fa2db)" style="fill: #1f78b4; stroke: #000000; stroke-width: 0.5; stroke-linejoin: miter"/>
   </g>
   <g id="patch_74">
    <path d="M 465.310323 157.640489 
L 461.581104 163.112778 
L 465.310323 168.585067 
L 466.132616 168.585067 
L 466.132616 157.640489 
z
" clip-path="url(#pbb8d1fa2db)" style="fill: #1f78b4; stroke: #000000; stroke-width: 0.5; stroke-linejoin: miter"/>
   </g>
   <g id="patch_75">
    <path d="M 473.483841 132.46796 
L 473.483841 143.412538 
L 476.164217 143.412538 
L 479.893437 137.940249 
L 476.164217 132.46796 
z
" clip-path="url(#pbb8d1fa2db)" style="fill: #1f78b4; stroke: #000000; stroke-width: 0.5; stroke-linejoin: miter"/>
   </g>
   <g id="patch_76">
    <path d="M 476.347571 157.640489 
L 472.618351 163.112778 
L 476.347571 168.585067 
L 477.113304 168.585067 
L 477.113304 157.640489 
z
" clip-path="url(#pbb8d1fa2db)" style="fill: #1f78b4; stroke: #000000; stroke-width: 0.5; stroke-linejoin: miter"/>
   </g>
   <g id="patch_77">
    <path d="M 495.49929 132.46796 
L 491.77007 137.940249 
L 495.49929 143.412538 
L 495.696628 143.412538 
L 495.696628 132.46796 
z
" clip-path="url(#pbb8d1fa2db)" style="fill: #1f78b4; stroke: #000000; stroke-width: 0.5; stroke-linejoin: miter"/>
   </g>
   <g id="patch_78">
    <path d="M 503.964929 132.46796 
L 503.964929 143.412538 
L 504.118138 143.412538 
L 507.847358 137.940249 
L 504.118138 132.46796 
z
" clip-path="url(#pbb8d1fa2db)" style="fill: #1f78b4; stroke: #000000; stroke-width: 0.5; stroke-linejoin: miter"/>
   </g>
   <g id="patch_79">
    <path d="M 547.593071 132.46796 
L 543.863852 137.940249 
L 547.593071 143.412538 
L 547.800043 143.412538 
L 547.800043 132.46796 
z
" clip-path="url(#pbb8d1fa2db)" style="fill: #1f78b4; stroke: #000000; stroke-width: 0.5; stroke-linejoin: miter"/>
   </g>
   <g id="patch_80">
    <path d="M 558.697756 132.46796 
L 558.697756 143.412538 
L 558.815226 143.412538 
L 562.544446 137.940249 
L 558.815226 132.46796 
z
" clip-path="url(#pbb8d1fa2db)" style="fill: #1f78b4; stroke: #000000; stroke-width: 0.5; stroke-linejoin: miter"/>
   </g>
   <g id="patch_81">
    <path d="M 577.754379 132.46796 
L 574.02516 137.940249 
L 577.754379 143.412538 
L 577.944259 143.412538 
L 577.944259 132.46796 
z
" clip-path="url(#pbb8d1fa2db)" style="fill: #1f78b4; stroke: #000000; stroke-width: 0.5; stroke-linejoin: miter"/>
   </g>
   <g id="patch_82">
    <path d="M 608.239197 132.46796 
L 604.509977 137.940249 
L 608.239197 143.412538 
L 608.435603 143.412538 
L 608.435603 132.46796 
z
" clip-path="url(#pbb8d1fa2db)" style="fill: #1f78b4; stroke: #000000; stroke-width: 0.5; stroke-linejoin: miter"/>
   </g>
   <g id="patch_83">
    <path d="M 621.623678 132.46796 
L 617.894458 137.940249 
L 621.623678 143.412538 
L 621.788696 143.412538 
L 621.788696 132.46796 
z
" clip-path="url(#pbb8d1fa2db)" style="fill: #1f78b4; stroke: #000000; stroke-width: 0.5; stroke-linejoin: miter"/>
   </g>
   <g id="patch_84">
    <path d="M 637.597169 132.46796 
L 633.867949 137.940249 
L 637.597169 143.412538 
L 637.788602 143.412538 
L 637.788602 132.46796 
z
" clip-path="url(#pbb8d1fa2db)" style="fill: #1f78b4; stroke: #000000; stroke-width: 0.5; stroke-linejoin: miter"/>
   </g>
   <g id="patch_85">
    <path d="M 646.71449 132.46796 
L 642.98527 137.940249 
L 646.71449 143.412538 
L 646.904369 143.412538 
L 646.904369 132.46796 
z
" clip-path="url(#pbb8d1fa2db)" style="fill: #1f78b4; stroke: #000000; stroke-width: 0.5; stroke-linejoin: miter"/>
   </g>
   <g id="patch_86">
    <path d="M 656.853617 132.46796 
L 653.124397 137.940249 
L 656.853617 143.412538 
L 657.060278 143.412538 
L 657.060278 132.46796 
z
" clip-path="url(#pbb8d1fa2db)" style="fill: #1f78b4; stroke: #000000; stroke-width: 0.5; stroke-linejoin: miter"/>
   </g>
   <g id="patch_87">
    <path d="M 677.676648 132.46796 
L 673.947428 137.940249 
L 677.676648 143.412538 
L 678.066662 143.412538 
L 678.066662 132.46796 
z
" clip-path="url(#pbb8d1fa2db)" style="fill: #1f78b4; stroke: #000000; stroke-width: 0.5; stroke-linejoin: miter"/>
   </g>
   <g id="patch_88">
    <path d="M 678.083133 157.640489 
L 674.353913 163.112778 
L 678.083133 168.585067 
L 678.208061 168.585067 
L 678.208061 157.640489 
z
" clip-path="url(#pbb8d1fa2db)" style="fill: #1f78b4; stroke: #000000; stroke-width: 0.5; stroke-linejoin: miter"/>
   </g>
   <g id="patch_89">
    <path d="M 724.68222 132.46796 
L 720.953 137.940249 
L 724.68222 143.412538 
L 724.760533 143.412538 
L 724.760533 132.46796 
z
" clip-path="url(#pbb8d1fa2db)" style="fill: #1f78b4; stroke: #000000; stroke-width: 0.5; stroke-linejoin: miter"/>
   </g>
   <g id="patch_90">
    <path d="M 744.549949 132.46796 
L 744.549949 143.412538 
L 745.357014 143.412538 
L 749.086234 137.940249 
L 745.357014 132.46796 
z
" clip-path="url(#pbb8d1fa2db)" style="fill: #1f78b4; stroke: #000000; stroke-width: 0.5; stroke-linejoin: miter"/>
   </g>
   <g id="patch_91">
    <path d="M 745.864499 157.640489 
L 742.135279 163.112778 
L 745.864499 168.585067 
L 747.087994 168.585067 
L 747.087994 157.640489 
z
" clip-path="url(#pbb8d1fa2db)" style="fill: #1f78b4; stroke: #000000; stroke-width: 0.5; stroke-linejoin: miter"/>
   </g>
   <g id="patch_92">
    <path d="M 756.265914 132.46796 
L 756.265914 143.412538 
L 757.098152 143.412538 
L 760.827372 137.940249 
L 757.098152 132.46796 
z
" clip-path="url(#pbb8d1fa2db)" style="fill: #1f78b4; stroke: #000000; stroke-width: 0.5; stroke-linejoin: miter"/>
   </g>
   <g id="patch_93">
    <path d="M 759.416173 157.640489 
L 759.416173 168.585067 
L 760.039885 168.585067 
L 763.769105 163.112778 
L 760.039885 157.640489 
z
" clip-path="url(#pbb8d1fa2db)" style="fill: #1f78b4; stroke: #000000; stroke-width: 0.5; stroke-linejoin: miter"/>
   </g>
   <g id="patch_94">
    <path d="M 784.331712 132.46796 
L 784.331712 143.412538 
L 797.308464 143.412538 
L 801.037684 137.940249 
L 797.308464 132.46796 
z
" clip-path="url(#pbb8d1fa2db)" style="fill: #1f78b4; stroke: #000000; stroke-width: 0.5; stroke-linejoin: miter"/>
   </g>
   <g id="patch_95">
    <path d="M 798.542836 157.640489 
L 798.542836 168.585067 
L 799.081397 168.585067 
L 802.810617 163.112778 
L 799.081397 157.640489 
z
" clip-path="url(#pbb8d1fa2db)" style="fill: #1f78b4; stroke: #000000; stroke-width: 0.5; stroke-linejoin: miter"/>
   </g>
   <g id="patch_96">
    <path d="M 818.665084 132.46796 
L 818.665084 143.412538 
L 820.05888 143.412538 
L 823.7881 137.940249 
L 820.05888 132.46796 
z
" clip-path="url(#pbb8d1fa2db)" style="fill: #1f78b4; stroke: #000000; stroke-width: 0.5; stroke-linejoin: miter"/>
   </g>
   <g id="patch_97">
    <path d="M 822.241095 157.640489 
L 818.511875 163.112778 
L 822.241095 168.585067 
L 822.434082 168.585067 
L 822.434082 157.640489 
z
" clip-path="url(#pbb8d1fa2db)" style="fill: #1f78b4; stroke: #000000; stroke-width: 0.5; stroke-linejoin: miter"/>
   </g>
   <g id="patch_98">
    <path d="M 827.413212 182.813018 
L 827.413212 193.757596 
L 828.481944 193.757596 
L 832.211164 188.285307 
L 828.481944 182.813018 
z
" clip-path="url(#pbb8d1fa2db)" style="fill: #1f78b4; stroke: #000000; stroke-width: 0.5; stroke-linejoin: miter"/>
   </g>
   <g id="patch_99">
    <path d="M 835.966178 132.46796 
L 835.966178 143.412538 
L 837.056975 143.412538 
L 840.786194 137.940249 
L 837.056975 132.46796 
z
" clip-path="url(#pbb8d1fa2db)" style="fill: #1f78b4; stroke: #000000; stroke-width: 0.5; stroke-linejoin: miter"/>
   </g>
   <g id="patch_100">
    <path d="M 843.989905 157.640489 
L 843.989905 168.585067 
L 845.583836 168.585067 
L 849.313055 163.112778 
L 845.583836 157.640489 
z
" clip-path="url(#pbb8d1fa2db)" style="fill: #1f78b4; stroke: #000000; stroke-width: 0.5; stroke-linejoin: miter"/>
   </g>
   <g id="patch_101">
    <path d="M 862.763108 132.46796 
L 859.033888 137.940249 
L 862.763108 143.412538 
L 863.684536 143.412538 
L 863.684536 132.46796 
z
" clip-path="url(#pbb8d1fa2db)" style="fill: #1f78b4; stroke: #000000; stroke-width: 0.5; stroke-linejoin: miter"/>
   </g>
   <g id="patch_102">
    <path d="M 871.353366 132.46796 
L 871.353366 143.412538 
L 872.863389 143.412538 
L 876.592609 137.940249 
L 872.863389 132.46796 
z
" clip-path="url(#pbb8d1fa2db)" style="fill: #1f78b4; stroke: #000000; stroke-width: 0.5; stroke-linejoin: miter"/>
   </g>
   <g id="patch_103">
    <path d="M 873.28448 157.640489 
L 869.55526 163.112778 
L 873.28448 168.585067 
L 874.390194 168.585067 
L 874.390194 157.640489 
z
" clip-path="url(#pbb8d1fa2db)" style="fill: #1f78b4; stroke: #000000; stroke-width: 0.5; stroke-linejoin: miter"/>
   </g>
   <g id="patch_104">
    <path d="M 875.55371 182.813018 
L 875.55371 193.757596 
L 875.82874 193.757596 
L 879.55796 188.285307 
L 875.82874 182.813018 
z
" clip-path="url(#pbb8d1fa2db)" style="fill: #1f78b4; stroke: #000000; stroke-width: 0.5; stroke-linejoin: miter"/>
   </g>
   <g id="patch_105">
    <path d="M 876.429766 207.985548 
L 872.700546 213.457837 
L 876.429766 218.930125 
L 876.692676 218.930125 
L 876.692676 207.985548 
z
" clip-path="url(#pbb8d1fa2db)" style="fill: #1f78b4; stroke: #000000; stroke-width: 0.5; stroke-linejoin: miter"/>
   </g>
   <g id="patch_106">
    <path d="M 889.118436 132.46796 
L 885.389217 137.940249 
L 889.118436 143.412538 
L 889.292777 143.412538 
L 889.292777 132.46796 
z
" clip-path="url(#pbb8d1fa2db)" style="fill: #1f78b4; stroke: #000000; stroke-width: 0.5; stroke-linejoin: miter"/>
   </g>
   <g id="patch_107">
    <path d="M 893.220267 157.640489 
L 893.220267 168.585067 
L 893.744533 168.585067 
L 897.473753 163.112778 
L 893.744533 157.640489 
z
" clip-path="url(#pbb8d1fa2db)" style="fill: #1f78b4; stroke: #000000; stroke-width: 0.5; stroke-linejoin: miter"/>
   </g>
   <g id="patch_108">
    <path d="M 894.275637 182.813018 
L 894.275637 193.757596 
L 895.196132 193.757596 
L 898.925352 188.285307 
L 895.196132 182.813018 
z
" clip-path="url(#pbb8d1fa2db)" style="fill: #1f78b4; stroke: #000000; stroke-width: 0.5; stroke-linejoin: miter"/>
   </g>
   <g id="patch_109">
    <path d="M 896.084619 207.985548 
L 896.084619 218.930125 
L 896.632814 218.930125 
L 900.362034 213.457837 
L 896.632814 207.985548 
z
" clip-path="url(#pbb8d1fa2db)" style="fill: #1f78b4; stroke: #000000; stroke-width: 0.5; stroke-linejoin: miter"/>
   </g>
   <g id="patch_110">
    <path d="M 897.05577 132.46796 
L 897.05577 143.412538 
L 899.444646 143.412538 
L 903.173866 137.940249 
L 899.444646 132.46796 
z
" clip-path="url(#pbb8d1fa2db)" style="fill: #1f78b4; stroke: #000000; stroke-width: 0.5; stroke-linejoin: miter"/>
   </g>
   <g id="patch_111">
    <path d="M 902.032414 157.640489 
L 898.303194 163.112778 
L 902.032414 168.585067 
L 903.953583 168.585067 
L 903.953583 157.640489 
z
" clip-path="url(#pbb8d1fa2db)" style="fill: #1f78b4; stroke: #000000; stroke-width: 0.5; stroke-linejoin: miter"/>
   </g>
   <g id="patch_112">
    <path d="M 907.773547 132.46796 
L 904.044328 137.940249 
L 907.773547 143.412538 
L 908.869006 143.412538 
L 908.869006 132.46796 
z
" clip-path="url(#pbb8d1fa2db)" style="fill: #1f78b4; stroke: #000000; stroke-width: 0.5; stroke-linejoin: miter"/>
   </g>
   <g id="patch_113">
    <path d="M 914.715801 157.640489 
L 914.715801 168.585067 
L 915.179156 168.585067 
L 918.908376 163.112778 
L 915.179156 157.640489 
z
" clip-path="url(#pbb8d1fa2db)" style="fill: #1f78b4; stroke: #000000; stroke-width: 0.5; stroke-linejoin: miter"/>
   </g>
   <g id="patch_114">
    <path d="M 915.530325 182.813018 
L 915.530325 193.757596 
L 915.887708 193.757596 
L 919.616928 188.285307 
L 915.887708 182.813018 
z
" clip-path="url(#pbb8d1fa2db)" style="fill: #1f78b4; stroke: #000000; stroke-width: 0.5; stroke-linejoin: miter"/>
   </g>
   <g id="patch_115">
    <path d="M 916.578235 132.46796 
L 912.849016 137.940249 
L 916.578235 143.412538 
L 919.27819 143.412538 
L 919.27819 132.46796 
z
" clip-path="url(#pbb8d1fa2db)" style="fill: #1f78b4; stroke: #000000; stroke-width: 0.5; stroke-linejoin: miter"/>
   </g>
   <g id="patch_116">
    <path d="M 926.34444 157.640489 
L 926.34444 168.585067 
L 928.274933 168.585067 
L 932.004153 163.112778 
L 928.274933 157.640489 
z
" clip-path="url(#pbb8d1fa2db)" style="fill: #1f78b4; stroke: #000000; stroke-width: 0.5; stroke-linejoin: miter"/>
   </g>
   <g id="patch_117">
    <path d="M 928.930344 132.46796 
L 928.930344 143.412538 
L 929.602535 143.412538 
L 933.331755 137.940249 
L 929.602535 132.46796 
z
" clip-path="url(#pbb8d1fa2db)" style="fill: #1f78b4; stroke: #000000; stroke-width: 0.5; stroke-linejoin: miter"/>
   </g>
   <g id="patch_118">
    <path d="M 930.109399 182.813018 
L 930.109399 193.757596 
L 931.232515 193.757596 
L 934.961735 188.285307 
L 931.232515 182.813018 
z
" clip-path="url(#pbb8d1fa2db)" style="fill: #1f78b4; stroke: #000000; stroke-width: 0.5; stroke-linejoin: miter"/>
   </g>
   <g id="patch_119">
    <path d="M 936.916778 157.640489 
L 936.916778 168.585067 
L 938.496725 168.585067 
L 942.225944 163.112778 
L 938.496725 157.640489 
z
" clip-path="url(#pbb8d1fa2db)" style="fill: #1f78b4; stroke: #000000; stroke-width: 0.5; stroke-linejoin: miter"/>
   </g>
   <g id="patch_120">
    <path d="M 941.912379 132.46796 
L 938.183159 137.940249 
L 941.912379 143.412538 
L 942.1958 143.412538 
L 942.1958 132.46796 
z
" clip-path="url(#pbb8d1fa2db)" style="fill: #1f78b4; stroke: #000000; stroke-width: 0.5; stroke-linejoin: miter"/>
   </g>
   <g id="patch_121">
    <path d="M 948.692101 157.640489 
L 948.692101 168.585067 
L 950.574735 168.585067 
L 954.303955 163.112778 
L 950.574735 157.640489 
z
" clip-path="url(#pbb8d1fa2db)" style="fill: #1f78b4; stroke: #000000; stroke-width: 0.5; stroke-linejoin: miter"/>
   </g>
   <g id="patch_122">
    <path d="M 954.282201 132.46796 
L 954.282201 143.412538 
L 955.177835 143.412538 
L 958.907055 137.940249 
L 955.177835 132.46796 
z
" clip-path="url(#pbb8d1fa2db)" style="fill: #1f78b4; stroke: #000000; stroke-width: 0.5; stroke-linejoin: miter"/>
   </g>
   <g id="patch_123">
    <path d="M 958.60965 157.640489 
L 954.88043 163.112778 
L 958.60965 168.585067 
L 958.951495 168.585067 
L 958.951495 157.640489 
z
" clip-path="url(#pbb8d1fa2db)" style="fill: #1f78b4; stroke: #000000; stroke-width: 0.5; stroke-linejoin: miter"/>
   </g>
   <g id="patch_124">
    <path d="M 965.95528 132.46796 
L 962.226061 137.940249 
L 965.95528 143.412538 
L 967.618202 143.412538 
L 967.618202 132.46796 
z
" clip-path="url(#pbb8d1fa2db)" style="fill: #1f78b4; stroke: #000000; stroke-width: 0.5; stroke-linejoin: miter"/>
   </g>
   <g id="patch_125">
    <path d="M 976.57672 132.46796 
L 976.57672 143.412538 
L 977.307336 143.412538 
L 981.036556 137.940249 
L 977.307336 132.46796 
z
" clip-path="url(#pbb8d1fa2db)" style="fill: #1f78b4; stroke: #000000; stroke-width: 0.5; stroke-linejoin: miter"/>
   </g>
  </g>
  <g id="axes_11"/>
  <g id="axes_12">
   <g id="text_12">
    <!-- genes -->
    <g transform="translate(996.534359 142.534144)scale(0.144 -0.144)">
     <defs>
      <path id="DejaVuSans-67" d="M 2906 1791 
Q 2906 2416 2648 2759 
Q 2391 3103 1925 3103 
Q 1463 3103 1205 2759 
Q 947 2416 947 1791 
Q 947 1169 1205 825 
Q 1463 481 1925 481 
Q 2391 481 2648 825 
Q 2906 1169 2906 1791 
z
M 3481 434 
Q 3481 -459 3084 -895 
Q 2688 -1331 1869 -1331 
Q 1566 -1331 1297 -1286 
Q 1028 -1241 775 -1147 
L 775 -588 
Q 1028 -725 1275 -790 
Q 1522 -856 1778 -856 
Q 2344 -856 2625 -561 
Q 2906 -266 2906 331 
L 2906 616 
Q 2728 306 2450 153 
Q 2172 0 1784 0 
Q 1141 0 747 490 
Q 353 981 353 1791 
Q 353 2603 747 3093 
Q 1141 3584 1784 3584 
Q 2172 3584 2450 3431 
Q 2728 3278 2906 2969 
L 2906 3500 
L 3481 3500 
L 3481 434 
z
" transform="scale(0.015625)"/>
      <path id="DejaVuSans-65" d="M 3597 1894 
L 3597 1613 
L 953 1613 
Q 991 1019 1311 708 
Q 1631 397 2203 397 
Q 2534 397 2845 478 
Q 3156 559 3463 722 
L 3463 178 
Q 3153 47 2828 -22 
Q 2503 -91 2169 -91 
Q 1331 -91 842 396 
Q 353 884 353 1716 
Q 353 2575 817 3079 
Q 1281 3584 2069 3584 
Q 2775 3584 3186 3129 
Q 3597 2675 3597 1894 
z
M 3022 2063 
Q 3016 2534 2758 2815 
Q 2500 3097 2075 3097 
Q 1594 3097 1305 2825 
Q 1016 2553 972 2059 
L 3022 2063 
z
" transform="scale(0.015625)"/>
      <path id="DejaVuSans-6e" d="M 3513 2113 
L 3513 0 
L 2938 0 
L 2938 2094 
Q 2938 2591 2744 2837 
Q 2550 3084 2163 3084 
Q 1697 3084 1428 2787 
Q 1159 2491 1159 1978 
L 1159 0 
L 581 0 
L 581 3500 
L 1159 3500 
L 1159 2956 
Q 1366 3272 1645 3428 
Q 1925 3584 2291 3584 
Q 2894 3584 3203 3211 
Q 3513 2838 3513 2113 
z
" transform="scale(0.015625)"/>
      <path id="DejaVuSans-73" d="M 2834 3397 
L 2834 2853 
Q 2591 2978 2328 3040 
Q 2066 3103 1784 3103 
Q 1356 3103 1142 2972 
Q 928 2841 928 2578 
Q 928 2378 1081 2264 
Q 1234 2150 1697 2047 
L 1894 2003 
Q 2506 1872 2764 1633 
Q 3022 1394 3022 966 
Q 3022 478 2636 193 
Q 2250 -91 1575 -91 
Q 1294 -91 989 -36 
Q 684 19 347 128 
L 347 722 
Q 666 556 975 473 
Q 1284 391 1588 391 
Q 1994 391 2212 530 
Q 2431 669 2431 922 
Q 2431 1156 2273 1281 
Q 2116 1406 1581 1522 
L 1381 1569 
Q 847 1681 609 1914 
Q 372 2147 372 2553 
Q 372 3047 722 3315 
Q 1072 3584 1716 3584 
Q 2034 3584 2315 3537 
Q 2597 3491 2834 3397 
z
" transform="scale(0.015625)"/>
     </defs>
     <use xlink:href="#DejaVuSans-67"/>
     <use xlink:href="#DejaVuSans-65" x="63.476562"/>
     <use xlink:href="#DejaVuSans-6e" x="125"/>
     <use xlink:href="#DejaVuSans-65" x="188.378906"/>
     <use xlink:href="#DejaVuSans-73" x="249.902344"/>
    </g>
   </g>
  </g>
 </g>
 <defs>
  <clipPath id="p7e8b98db73">
   <rect x="58.472025" y="7.576646" width="932.304942" height="53.149606"/>
  </clipPath>
  <clipPath id="p08882d3257">
   <rect x="58.472025" y="60.726252" width="932.304942" height="56.692913"/>
  </clipPath>
  <clipPath id="p3b7e280fe1">
   <rect x="45.354331" y="60.726252" width="9.813736" height="56.692913"/>
  </clipPath>
  <clipPath id="pbb8d1fa2db">
   <rect x="58.472025" y="131.592394" width="932.304942" height="113.385827"/>
  </clipPath>
 </defs>
</svg>
