<?xml version="1.0" encoding="utf-8" standalone="no"?>
<!DOCTYPE svg PUBLIC "-//W3C//DTD SVG 1.1//EN"
  "http://www.w3.org/Graphics/SVG/1.1/DTD/svg11.dtd">
<svg xmlns:xlink="http://www.w3.org/1999/xlink" width="1133.858268pt" height="252.554867pt" viewBox="0 0 1133.858268 252.554867" xmlns="http://www.w3.org/2000/svg" version="1.1">
 <metadata>
  <rdf:RDF xmlns:dc="http://purl.org/dc/elements/1.1/" xmlns:cc="http://creativecommons.org/ns#" xmlns:rdf="http://www.w3.org/1999/02/22-rdf-syntax-ns#">
   <cc:Work>
    <dc:type rdf:resource="http://purl.org/dc/dcmitype/StillImage"/>
    <dc:date>2023-06-19T16:35:21.033969</dc:date>
    <dc:format>image/svg+xml</dc:format>
    <dc:creator>
     <cc:Agent>
      <dc:title>Matplotlib v3.5.3, https://matplotlib.org/</dc:title>
     </cc:Agent>
    </dc:creator>
   </cc:Work>
  </rdf:RDF>
 </metadata>
 <defs>
  <style type="text/css">*{stroke-linejoin: round; stroke-linecap: butt}</style>
 </defs>
 <g id="figure_1">
  <g id="patch_1">
   <path d="M 0 252.554867 
L 1133.858268 252.554867 
L 1133.858268 0 
L 0 0 
z
" style="fill: #ffffff"/>
  </g>
  <g id="axes_1">
   <g id="mpl_toolkits.axisartist.axis_artist_1">
    <defs>
     <path id="m4302c478fd" d="M 0 0 
L -0 3.5 
" style="stroke: #000000; stroke-width: 0.8"/>
    </defs>
    <g>
     <use xlink:href="#m4302c478fd" x="125.065235" y="50.096331" style="fill: none; stroke: #000000; stroke-width: 0.8"/>
    </g>
    <g>
     <use xlink:href="#m4302c478fd" x="258.251655" y="50.096331" style="fill: none; stroke: #000000; stroke-width: 0.8"/>
    </g>
    <g>
     <use xlink:href="#m4302c478fd" x="391.438076" y="50.096331" style="fill: none; stroke: #000000; stroke-width: 0.8"/>
    </g>
    <g>
     <use xlink:href="#m4302c478fd" x="524.624496" y="50.096331" style="fill: none; stroke: #000000; stroke-width: 0.8"/>
    </g>
    <g>
     <use xlink:href="#m4302c478fd" x="657.810916" y="50.096331" style="fill: none; stroke: #000000; stroke-width: 0.8"/>
    </g>
    <g>
     <use xlink:href="#m4302c478fd" x="790.997337" y="50.096331" style="fill: none; stroke: #000000; stroke-width: 0.8"/>
    </g>
    <g>
     <use xlink:href="#m4302c478fd" x="924.183757" y="50.096331" style="fill: none; stroke: #000000; stroke-width: 0.8"/>
    </g>
    <g id="text_1">
     <!-- 61.2 -->
     <g transform="translate(108.366016 46.38305)scale(0.15 -0.15)">
      <defs>
       <path id="DejaVuSans-36" d="M 2113 2584 
Q 1688 2584 1439 2293 
Q 1191 2003 1191 1497 
Q 1191 994 1439 701 
Q 1688 409 2113 409 
Q 2538 409 2786 701 
Q 3034 994 3034 1497 
Q 3034 2003 2786 2293 
Q 2538 2584 2113 2584 
z
M 3366 4563 
L 3366 3988 
Q 3128 4100 2886 4159 
Q 2644 4219 2406 4219 
Q 1781 4219 1451 3797 
Q 1122 3375 1075 2522 
Q 1259 2794 1537 2939 
Q 1816 3084 2150 3084 
Q 2853 3084 3261 2657 
Q 3669 2231 3669 1497 
Q 3669 778 3244 343 
Q 2819 -91 2113 -91 
Q 1303 -91 875 529 
Q 447 1150 447 2328 
Q 447 3434 972 4092 
Q 1497 4750 2381 4750 
Q 2619 4750 2861 4703 
Q 3103 4656 3366 4563 
z
" transform="scale(0.015625)"/>
       <path id="DejaVuSans-31" d="M 794 531 
L 1825 531 
L 1825 4091 
L 703 3866 
L 703 4441 
L 1819 4666 
L 2450 4666 
L 2450 531 
L 3481 531 
L 3481 0 
L 794 0 
L 794 531 
z
" transform="scale(0.015625)"/>
       <path id="DejaVuSans-2e" d="M 684 794 
L 1344 794 
L 1344 0 
L 684 0 
L 684 794 
z
" transform="scale(0.015625)"/>
       <path id="DejaVuSans-32" d="M 1228 531 
L 3431 531 
L 3431 0 
L 469 0 
L 469 531 
Q 828 903 1448 1529 
Q 2069 2156 2228 2338 
Q 2531 2678 2651 2914 
Q 2772 3150 2772 3378 
Q 2772 3750 2511 3984 
Q 2250 4219 1831 4219 
Q 1534 4219 1204 4116 
Q 875 4013 500 3803 
L 500 4441 
Q 881 4594 1212 4672 
Q 1544 4750 1819 4750 
Q 2544 4750 2975 4387 
Q 3406 4025 3406 3419 
Q 3406 3131 3298 2873 
Q 3191 2616 2906 2266 
Q 2828 2175 2409 1742 
Q 1991 1309 1228 531 
z
" transform="scale(0.015625)"/>
      </defs>
      <use xlink:href="#DejaVuSans-36"/>
      <use xlink:href="#DejaVuSans-31" x="63.623047"/>
      <use xlink:href="#DejaVuSans-2e" x="127.246094"/>
      <use xlink:href="#DejaVuSans-32" x="159.033203"/>
     </g>
    </g>
    <g id="text_2">
     <!-- 61.4 -->
     <g transform="translate(241.552437 46.38305)scale(0.15 -0.15)">
      <defs>
       <path id="DejaVuSans-34" d="M 2419 4116 
L 825 1625 
L 2419 1625 
L 2419 4116 
z
M 2253 4666 
L 3047 4666 
L 3047 1625 
L 3713 1625 
L 3713 1100 
L 3047 1100 
L 3047 0 
L 2419 0 
L 2419 1100 
L 313 1100 
L 313 1709 
L 2253 4666 
z
" transform="scale(0.015625)"/>
      </defs>
      <use xlink:href="#DejaVuSans-36"/>
      <use xlink:href="#DejaVuSans-31" x="63.623047"/>
      <use xlink:href="#DejaVuSans-2e" x="127.246094"/>
      <use xlink:href="#DejaVuSans-34" x="159.033203"/>
     </g>
    </g>
    <g id="text_3">
     <!-- 61.6 -->
     <g transform="translate(374.738857 46.38305)scale(0.15 -0.15)">
      <use xlink:href="#DejaVuSans-36"/>
      <use xlink:href="#DejaVuSans-31" x="63.623047"/>
      <use xlink:href="#DejaVuSans-2e" x="127.246094"/>
      <use xlink:href="#DejaVuSans-36" x="159.033203"/>
     </g>
    </g>
    <g id="text_4">
     <!-- 61.8 -->
     <g transform="translate(507.925277 46.38305)scale(0.15 -0.15)">
      <defs>
       <path id="DejaVuSans-38" d="M 2034 2216 
Q 1584 2216 1326 1975 
Q 1069 1734 1069 1313 
Q 1069 891 1326 650 
Q 1584 409 2034 409 
Q 2484 409 2743 651 
Q 3003 894 3003 1313 
Q 3003 1734 2745 1975 
Q 2488 2216 2034 2216 
z
M 1403 2484 
Q 997 2584 770 2862 
Q 544 3141 544 3541 
Q 544 4100 942 4425 
Q 1341 4750 2034 4750 
Q 2731 4750 3128 4425 
Q 3525 4100 3525 3541 
Q 3525 3141 3298 2862 
Q 3072 2584 2669 2484 
Q 3125 2378 3379 2068 
Q 3634 1759 3634 1313 
Q 3634 634 3220 271 
Q 2806 -91 2034 -91 
Q 1263 -91 848 271 
Q 434 634 434 1313 
Q 434 1759 690 2068 
Q 947 2378 1403 2484 
z
M 1172 3481 
Q 1172 3119 1398 2916 
Q 1625 2713 2034 2713 
Q 2441 2713 2670 2916 
Q 2900 3119 2900 3481 
Q 2900 3844 2670 4047 
Q 2441 4250 2034 4250 
Q 1625 4250 1398 4047 
Q 1172 3844 1172 3481 
z
" transform="scale(0.015625)"/>
      </defs>
      <use xlink:href="#DejaVuSans-36"/>
      <use xlink:href="#DejaVuSans-31" x="63.623047"/>
      <use xlink:href="#DejaVuSans-2e" x="127.246094"/>
      <use xlink:href="#DejaVuSans-38" x="159.033203"/>
     </g>
    </g>
    <g id="text_5">
     <!-- 62.0 -->
     <g transform="translate(641.111698 46.38305)scale(0.15 -0.15)">
      <defs>
       <path id="DejaVuSans-30" d="M 2034 4250 
Q 1547 4250 1301 3770 
Q 1056 3291 1056 2328 
Q 1056 1369 1301 889 
Q 1547 409 2034 409 
Q 2525 409 2770 889 
Q 3016 1369 3016 2328 
Q 3016 3291 2770 3770 
Q 2525 4250 2034 4250 
z
M 2034 4750 
Q 2819 4750 3233 4129 
Q 3647 3509 3647 2328 
Q 3647 1150 3233 529 
Q 2819 -91 2034 -91 
Q 1250 -91 836 529 
Q 422 1150 422 2328 
Q 422 3509 836 4129 
Q 1250 4750 2034 4750 
z
" transform="scale(0.015625)"/>
      </defs>
      <use xlink:href="#DejaVuSans-36"/>
      <use xlink:href="#DejaVuSans-32" x="63.623047"/>
      <use xlink:href="#DejaVuSans-2e" x="127.246094"/>
      <use xlink:href="#DejaVuSans-30" x="159.033203"/>
     </g>
    </g>
    <g id="text_6">
     <!-- 62.2 -->
     <g transform="translate(774.298118 46.38305)scale(0.15 -0.15)">
      <use xlink:href="#DejaVuSans-36"/>
      <use xlink:href="#DejaVuSans-32" x="63.623047"/>
      <use xlink:href="#DejaVuSans-2e" x="127.246094"/>
      <use xlink:href="#DejaVuSans-32" x="159.033203"/>
     </g>
    </g>
    <g id="text_7">
     <!-- 62.4 Mb -->
     <g transform="translate(893.868523 46.38305)scale(0.15 -0.15)">
      <defs>
       <path id="DejaVuSans-20" transform="scale(0.015625)"/>
       <path id="DejaVuSans-4d" d="M 628 4666 
L 1569 4666 
L 2759 1491 
L 3956 4666 
L 4897 4666 
L 4897 0 
L 4281 0 
L 4281 4097 
L 3078 897 
L 2444 897 
L 1241 4097 
L 1241 0 
L 628 0 
L 628 4666 
z
" transform="scale(0.015625)"/>
       <path id="DejaVuSans-62" d="M 3116 1747 
Q 3116 2381 2855 2742 
Q 2594 3103 2138 3103 
Q 1681 3103 1420 2742 
Q 1159 2381 1159 1747 
Q 1159 1113 1420 752 
Q 1681 391 2138 391 
Q 2594 391 2855 752 
Q 3116 1113 3116 1747 
z
M 1159 2969 
Q 1341 3281 1617 3432 
Q 1894 3584 2278 3584 
Q 2916 3584 3314 3078 
Q 3713 2572 3713 1747 
Q 3713 922 3314 415 
Q 2916 -91 2278 -91 
Q 1894 -91 1617 61 
Q 1341 213 1159 525 
L 1159 0 
L 581 0 
L 581 4863 
L 1159 4863 
L 1159 2969 
z
" transform="scale(0.015625)"/>
      </defs>
      <use xlink:href="#DejaVuSans-36"/>
      <use xlink:href="#DejaVuSans-32" x="63.623047"/>
      <use xlink:href="#DejaVuSans-2e" x="127.246094"/>
      <use xlink:href="#DejaVuSans-34" x="159.033203"/>
      <use xlink:href="#DejaVuSans-20" x="222.65625"/>
      <use xlink:href="#DejaVuSans-4d" x="254.443359"/>
      <use xlink:href="#DejaVuSans-62" x="340.722656"/>
     </g>
    </g>
    <g id="patch_2">
     <path d="M 58.472025 50.096331 
L 990.776967 50.096331 
" clip-path="url(#p98f3dd9544)" style="fill: none; stroke: #000000; stroke-width: 0.8; stroke-linecap: square"/>
    </g>
   </g>
   <g id="text_8">
    <!-- EH23b.chr1 -->
    <g transform="translate(480.824496 19.505798)scale(0.15 -0.15)">
     <defs>
      <path id="DejaVuSans-45" d="M 628 4666 
L 3578 4666 
L 3578 4134 
L 1259 4134 
L 1259 2753 
L 3481 2753 
L 3481 2222 
L 1259 2222 
L 1259 531 
L 3634 531 
L 3634 0 
L 628 0 
L 628 4666 
z
" transform="scale(0.015625)"/>
      <path id="DejaVuSans-48" d="M 628 4666 
L 1259 4666 
L 1259 2753 
L 3553 2753 
L 3553 4666 
L 4184 4666 
L 4184 0 
L 3553 0 
L 3553 2222 
L 1259 2222 
L 1259 0 
L 628 0 
L 628 4666 
z
" transform="scale(0.015625)"/>
      <path id="DejaVuSans-33" d="M 2597 2516 
Q 3050 2419 3304 2112 
Q 3559 1806 3559 1356 
Q 3559 666 3084 287 
Q 2609 -91 1734 -91 
Q 1441 -91 1130 -33 
Q 819 25 488 141 
L 488 750 
Q 750 597 1062 519 
Q 1375 441 1716 441 
Q 2309 441 2620 675 
Q 2931 909 2931 1356 
Q 2931 1769 2642 2001 
Q 2353 2234 1838 2234 
L 1294 2234 
L 1294 2753 
L 1863 2753 
Q 2328 2753 2575 2939 
Q 2822 3125 2822 3475 
Q 2822 3834 2567 4026 
Q 2313 4219 1838 4219 
Q 1578 4219 1281 4162 
Q 984 4106 628 3988 
L 628 4550 
Q 988 4650 1302 4700 
Q 1616 4750 1894 4750 
Q 2613 4750 3031 4423 
Q 3450 4097 3450 3541 
Q 3450 3153 3228 2886 
Q 3006 2619 2597 2516 
z
" transform="scale(0.015625)"/>
      <path id="DejaVuSans-63" d="M 3122 3366 
L 3122 2828 
Q 2878 2963 2633 3030 
Q 2388 3097 2138 3097 
Q 1578 3097 1268 2742 
Q 959 2388 959 1747 
Q 959 1106 1268 751 
Q 1578 397 2138 397 
Q 2388 397 2633 464 
Q 2878 531 3122 666 
L 3122 134 
Q 2881 22 2623 -34 
Q 2366 -91 2075 -91 
Q 1284 -91 818 406 
Q 353 903 353 1747 
Q 353 2603 823 3093 
Q 1294 3584 2113 3584 
Q 2378 3584 2631 3529 
Q 2884 3475 3122 3366 
z
" transform="scale(0.015625)"/>
      <path id="DejaVuSans-68" d="M 3513 2113 
L 3513 0 
L 2938 0 
L 2938 2094 
Q 2938 2591 2744 2837 
Q 2550 3084 2163 3084 
Q 1697 3084 1428 2787 
Q 1159 2491 1159 1978 
L 1159 0 
L 581 0 
L 581 4863 
L 1159 4863 
L 1159 2956 
Q 1366 3272 1645 3428 
Q 1925 3584 2291 3584 
Q 2894 3584 3203 3211 
Q 3513 2838 3513 2113 
z
" transform="scale(0.015625)"/>
      <path id="DejaVuSans-72" d="M 2631 2963 
Q 2534 3019 2420 3045 
Q 2306 3072 2169 3072 
Q 1681 3072 1420 2755 
Q 1159 2438 1159 1844 
L 1159 0 
L 581 0 
L 581 3500 
L 1159 3500 
L 1159 2956 
Q 1341 3275 1631 3429 
Q 1922 3584 2338 3584 
Q 2397 3584 2469 3576 
Q 2541 3569 2628 3553 
L 2631 2963 
z
" transform="scale(0.015625)"/>
     </defs>
     <use xlink:href="#DejaVuSans-45"/>
     <use xlink:href="#DejaVuSans-48" x="63.183594"/>
     <use xlink:href="#DejaVuSans-32" x="138.378906"/>
     <use xlink:href="#DejaVuSans-33" x="202.001953"/>
     <use xlink:href="#DejaVuSans-62" x="265.625"/>
     <use xlink:href="#DejaVuSans-2e" x="329.101562"/>
     <use xlink:href="#DejaVuSans-63" x="360.888672"/>
     <use xlink:href="#DejaVuSans-68" x="415.869141"/>
     <use xlink:href="#DejaVuSans-72" x="479.248047"/>
     <use xlink:href="#DejaVuSans-31" x="520.361328"/>
    </g>
   </g>
  </g>
  <g id="axes_2"/>
  <g id="axes_3"/>
  <g id="axes_4">
   <g id="PolyCollection_1">
    <path d="M 98.606421 117.419166 
L 98.606421 81.986095 
L 98.607087 81.986095 
L 98.607087 81.986095 
L 98.607753 81.986095 
L 98.607753 81.986095 
L 98.608419 81.986095 
L 98.608419 81.986095 
L 98.609084 81.986095 
L 98.609084 81.986095 
L 98.60975 81.986095 
L 98.60975 81.986095 
L 98.610416 81.986095 
L 98.610416 81.986095 
L 98.611082 81.986095 
L 98.611082 81.986095 
L 98.611748 81.986095 
L 98.611748 81.986095 
L 98.612414 81.986095 
L 98.612414 81.986095 
L 98.61308 81.986095 
L 98.61308 81.986095 
L 98.613746 81.986095 
L 98.613746 81.986095 
L 98.614412 81.986095 
L 98.614412 81.986095 
L 98.615078 81.986095 
L 98.615078 81.986095 
L 98.615744 81.986095 
L 98.615744 81.986095 
L 98.61641 81.986095 
L 98.61641 81.986095 
L 98.617076 81.986095 
L 98.617076 81.986095 
L 98.617742 81.986095 
L 98.617742 81.986095 
L 98.618407 81.986095 
L 98.618407 81.986095 
L 98.619073 81.986095 
L 98.619073 81.986095 
L 98.619739 81.986095 
L 98.619739 81.986095 
L 98.620405 81.986095 
L 98.620405 81.986095 
L 98.621071 81.986095 
L 98.621071 81.986095 
L 98.621737 81.986095 
L 98.621737 81.986095 
L 98.622403 81.986095 
L 98.622403 81.986095 
L 98.623069 81.986095 
L 98.623069 81.986095 
L 98.623735 81.986095 
L 98.623735 81.986095 
L 98.624401 81.986095 
L 98.624401 81.986095 
L 98.625067 81.986095 
L 98.625067 81.986095 
L 98.625733 81.986095 
L 98.625733 81.986095 
L 98.626399 81.986095 
L 98.626399 81.986095 
L 98.627065 81.986095 
L 98.627065 117.419166 
L 98.627065 117.419166 
L 98.626399 117.419166 
L 98.626399 117.419166 
L 98.625733 117.419166 
L 98.625733 117.419166 
L 98.625067 117.419166 
L 98.625067 117.419166 
L 98.624401 117.419166 
L 98.624401 117.419166 
L 98.623735 117.419166 
L 98.623735 117.419166 
L 98.623069 117.419166 
L 98.623069 117.419166 
L 98.622403 117.419166 
L 98.622403 117.419166 
L 98.621737 117.419166 
L 98.621737 117.419166 
L 98.621071 117.419166 
L 98.621071 117.419166 
L 98.620405 117.419166 
L 98.620405 117.419166 
L 98.619739 117.419166 
L 98.619739 117.419166 
L 98.619073 117.419166 
L 98.619073 117.419166 
L 98.618407 117.419166 
L 98.618407 117.419166 
L 98.617742 117.419166 
L 98.617742 117.419166 
L 98.617076 117.419166 
L 98.617076 117.419166 
L 98.61641 117.419166 
L 98.61641 117.419166 
L 98.615744 117.419166 
L 98.615744 117.419166 
L 98.615078 117.419166 
L 98.615078 117.419166 
L 98.614412 117.419166 
L 98.614412 117.419166 
L 98.613746 117.419166 
L 98.613746 117.419166 
L 98.61308 117.419166 
L 98.61308 117.419166 
L 98.612414 117.419166 
L 98.612414 117.419166 
L 98.611748 117.419166 
L 98.611748 117.419166 
L 98.611082 117.419166 
L 98.611082 117.419166 
L 98.610416 117.419166 
L 98.610416 117.419166 
L 98.60975 117.419166 
L 98.60975 117.419166 
L 98.609084 117.419166 
L 98.609084 117.419166 
L 98.608419 117.419166 
L 98.608419 117.419166 
L 98.607753 117.419166 
L 98.607753 117.419166 
L 98.607087 117.419166 
L 98.607087 117.419166 
L 98.606421 117.419166 
z
" clip-path="url(#p9b4127c2ca)" style="fill: #1f77b4; stroke: #1f77b4; stroke-width: 0.1"/>
    <path d="M 732.680997 117.419166 
L 732.680997 110.332552 
L 732.681663 110.332552 
L 732.681663 110.332552 
L 732.682329 110.332552 
L 732.682329 110.332552 
L 732.682994 110.332552 
L 732.682994 110.332552 
L 732.68366 110.332552 
L 732.68366 110.332552 
L 732.684326 110.332552 
L 732.684326 110.332552 
L 732.684992 110.332552 
L 732.684992 110.332552 
L 732.685658 110.332552 
L 732.685658 110.332552 
L 732.686324 110.332552 
L 732.686324 110.332552 
L 732.68699 110.332552 
L 732.68699 110.332552 
L 732.687656 110.332552 
L 732.687656 110.332552 
L 732.688322 110.332552 
L 732.688322 110.332552 
L 732.688988 110.332552 
L 732.688988 110.332552 
L 732.689654 110.332552 
L 732.689654 110.332552 
L 732.69032 110.332552 
L 732.69032 110.332552 
L 732.690986 110.332552 
L 732.690986 110.332552 
L 732.691652 110.332552 
L 732.691652 110.332552 
L 732.692317 110.332552 
L 732.692317 110.332552 
L 732.692983 110.332552 
L 732.692983 110.332552 
L 732.693649 110.332552 
L 732.693649 110.332552 
L 732.694315 110.332552 
L 732.694315 110.332552 
L 732.694981 110.332552 
L 732.694981 110.332552 
L 732.695647 110.332552 
L 732.695647 110.332552 
L 732.696313 110.332552 
L 732.696313 110.332552 
L 732.696979 110.332552 
L 732.696979 110.332552 
L 732.697645 110.332552 
L 732.697645 110.332552 
L 732.698311 110.332552 
L 732.698311 110.332552 
L 732.698977 110.332552 
L 732.698977 110.332552 
L 732.699643 110.332552 
L 732.699643 110.332552 
L 732.700309 110.332552 
L 732.700309 110.332552 
L 732.700975 110.332552 
L 732.700975 110.332552 
L 732.701641 110.332552 
L 732.701641 117.419166 
L 732.701641 117.419166 
L 732.700975 117.419166 
L 732.700975 117.419166 
L 732.700309 117.419166 
L 732.700309 117.419166 
L 732.699643 117.419166 
L 732.699643 117.419166 
L 732.698977 117.419166 
L 732.698977 117.419166 
L 732.698311 117.419166 
L 732.698311 117.419166 
L 732.697645 117.419166 
L 732.697645 117.419166 
L 732.696979 117.419166 
L 732.696979 117.419166 
L 732.696313 117.419166 
L 732.696313 117.419166 
L 732.695647 117.419166 
L 732.695647 117.419166 
L 732.694981 117.419166 
L 732.694981 117.419166 
L 732.694315 117.419166 
L 732.694315 117.419166 
L 732.693649 117.419166 
L 732.693649 117.419166 
L 732.692983 117.419166 
L 732.692983 117.419166 
L 732.692317 117.419166 
L 732.692317 117.419166 
L 732.691652 117.419166 
L 732.691652 117.419166 
L 732.690986 117.419166 
L 732.690986 117.419166 
L 732.69032 117.419166 
L 732.69032 117.419166 
L 732.689654 117.419166 
L 732.689654 117.419166 
L 732.688988 117.419166 
L 732.688988 117.419166 
L 732.688322 117.419166 
L 732.688322 117.419166 
L 732.687656 117.419166 
L 732.687656 117.419166 
L 732.68699 117.419166 
L 732.68699 117.419166 
L 732.686324 117.419166 
L 732.686324 117.419166 
L 732.685658 117.419166 
L 732.685658 117.419166 
L 732.684992 117.419166 
L 732.684992 117.419166 
L 732.684326 117.419166 
L 732.684326 117.419166 
L 732.68366 117.419166 
L 732.68366 117.419166 
L 732.682994 117.419166 
L 732.682994 117.419166 
L 732.682329 117.419166 
L 732.682329 117.419166 
L 732.681663 117.419166 
L 732.681663 117.419166 
L 732.680997 117.419166 
z
" clip-path="url(#p9b4127c2ca)" style="fill: #1f77b4; stroke: #1f77b4; stroke-width: 0.1"/>
    <path d="M 733.679895 117.419166 
L 733.679895 110.332552 
L 733.680561 110.332552 
L 733.680561 110.332552 
L 733.681227 110.332552 
L 733.681227 110.332552 
L 733.681893 110.332552 
L 733.681893 110.332552 
L 733.682559 110.332552 
L 733.682559 110.332552 
L 733.683224 110.332552 
L 733.683224 110.332552 
L 733.68389 110.332552 
L 733.68389 110.332552 
L 733.684556 110.332552 
L 733.684556 110.332552 
L 733.685222 110.332552 
L 733.685222 110.332552 
L 733.685888 110.332552 
L 733.685888 110.332552 
L 733.686554 110.332552 
L 733.686554 110.332552 
L 733.68722 110.332552 
L 733.68722 110.332552 
L 733.687886 110.332552 
L 733.687886 110.332552 
L 733.688552 110.332552 
L 733.688552 110.332552 
L 733.689218 110.332552 
L 733.689218 110.332552 
L 733.689884 110.332552 
L 733.689884 110.332552 
L 733.69055 110.332552 
L 733.69055 110.332552 
L 733.691216 110.332552 
L 733.691216 110.332552 
L 733.691882 110.332552 
L 733.691882 110.332552 
L 733.692548 110.332552 
L 733.692548 110.332552 
L 733.693213 110.332552 
L 733.693213 110.332552 
L 733.693879 110.332552 
L 733.693879 110.332552 
L 733.694545 110.332552 
L 733.694545 110.332552 
L 733.695211 110.332552 
L 733.695211 110.332552 
L 733.695877 110.332552 
L 733.695877 110.332552 
L 733.696543 110.332552 
L 733.696543 110.332552 
L 733.697209 110.332552 
L 733.697209 110.332552 
L 733.697875 110.332552 
L 733.697875 110.332552 
L 733.698541 110.332552 
L 733.698541 110.332552 
L 733.699207 110.332552 
L 733.699207 110.332552 
L 733.699873 110.332552 
L 733.699873 110.332552 
L 733.700539 110.332552 
L 733.700539 117.419166 
L 733.700539 117.419166 
L 733.699873 117.419166 
L 733.699873 117.419166 
L 733.699207 117.419166 
L 733.699207 117.419166 
L 733.698541 117.419166 
L 733.698541 117.419166 
L 733.697875 117.419166 
L 733.697875 117.419166 
L 733.697209 117.419166 
L 733.697209 117.419166 
L 733.696543 117.419166 
L 733.696543 117.419166 
L 733.695877 117.419166 
L 733.695877 117.419166 
L 733.695211 117.419166 
L 733.695211 117.419166 
L 733.694545 117.419166 
L 733.694545 117.419166 
L 733.693879 117.419166 
L 733.693879 117.419166 
L 733.693213 117.419166 
L 733.693213 117.419166 
L 733.692548 117.419166 
L 733.692548 117.419166 
L 733.691882 117.419166 
L 733.691882 117.419166 
L 733.691216 117.419166 
L 733.691216 117.419166 
L 733.69055 117.419166 
L 733.69055 117.419166 
L 733.689884 117.419166 
L 733.689884 117.419166 
L 733.689218 117.419166 
L 733.689218 117.419166 
L 733.688552 117.419166 
L 733.688552 117.419166 
L 733.687886 117.419166 
L 733.687886 117.419166 
L 733.68722 117.419166 
L 733.68722 117.419166 
L 733.686554 117.419166 
L 733.686554 117.419166 
L 733.685888 117.419166 
L 733.685888 117.419166 
L 733.685222 117.419166 
L 733.685222 117.419166 
L 733.684556 117.419166 
L 733.684556 117.419166 
L 733.68389 117.419166 
L 733.68389 117.419166 
L 733.683224 117.419166 
L 733.683224 117.419166 
L 733.682559 117.419166 
L 733.682559 117.419166 
L 733.681893 117.419166 
L 733.681893 117.419166 
L 733.681227 117.419166 
L 733.681227 117.419166 
L 733.680561 117.419166 
L 733.680561 117.419166 
L 733.679895 117.419166 
z
" clip-path="url(#p9b4127c2ca)" style="fill: #1f77b4; stroke: #1f77b4; stroke-width: 0.1"/>
    <path d="M 734.852601 117.419166 
L 734.852601 110.332552 
L 734.853267 110.332552 
L 734.853267 110.332552 
L 734.853933 110.332552 
L 734.853933 110.332552 
L 734.854599 110.332552 
L 734.854599 110.332552 
L 734.855265 110.332552 
L 734.855265 110.332552 
L 734.855931 110.332552 
L 734.855931 110.332552 
L 734.856597 110.332552 
L 734.856597 110.332552 
L 734.857263 110.332552 
L 734.857263 110.332552 
L 734.857929 110.332552 
L 734.857929 110.332552 
L 734.858595 110.332552 
L 734.858595 110.332552 
L 734.859261 110.332552 
L 734.859261 110.332552 
L 734.859926 110.332552 
L 734.859926 110.332552 
L 734.860592 110.332552 
L 734.860592 110.332552 
L 734.861258 110.332552 
L 734.861258 110.332552 
L 734.861924 110.332552 
L 734.861924 110.332552 
L 734.86259 110.332552 
L 734.86259 110.332552 
L 734.863256 110.332552 
L 734.863256 110.332552 
L 734.863922 110.332552 
L 734.863922 110.332552 
L 734.864588 110.332552 
L 734.864588 110.332552 
L 734.865254 110.332552 
L 734.865254 110.332552 
L 734.86592 110.332552 
L 734.86592 110.332552 
L 734.866586 110.332552 
L 734.866586 110.332552 
L 734.867252 110.332552 
L 734.867252 110.332552 
L 734.867918 110.332552 
L 734.867918 110.332552 
L 734.868584 110.332552 
L 734.868584 110.332552 
L 734.86925 110.332552 
L 734.86925 110.332552 
L 734.869915 110.332552 
L 734.869915 110.332552 
L 734.870581 110.332552 
L 734.870581 110.332552 
L 734.871247 110.332552 
L 734.871247 110.332552 
L 734.871913 110.332552 
L 734.871913 110.332552 
L 734.872579 110.332552 
L 734.872579 110.332552 
L 734.873245 110.332552 
L 734.873245 110.332552 
L 734.873911 110.332552 
L 734.873911 110.332552 
L 734.874577 110.332552 
L 734.874577 110.332552 
L 734.875243 110.332552 
L 734.875243 110.332552 
L 734.875909 110.332552 
L 734.875909 110.332552 
L 734.876575 110.332552 
L 734.876575 117.419166 
L 734.876575 117.419166 
L 734.875909 117.419166 
L 734.875909 117.419166 
L 734.875243 117.419166 
L 734.875243 117.419166 
L 734.874577 117.419166 
L 734.874577 117.419166 
L 734.873911 117.419166 
L 734.873911 117.419166 
L 734.873245 117.419166 
L 734.873245 117.419166 
L 734.872579 117.419166 
L 734.872579 117.419166 
L 734.871913 117.419166 
L 734.871913 117.419166 
L 734.871247 117.419166 
L 734.871247 117.419166 
L 734.870581 117.419166 
L 734.870581 117.419166 
L 734.869915 117.419166 
L 734.869915 117.419166 
L 734.86925 117.419166 
L 734.86925 117.419166 
L 734.868584 117.419166 
L 734.868584 117.419166 
L 734.867918 117.419166 
L 734.867918 117.419166 
L 734.867252 117.419166 
L 734.867252 117.419166 
L 734.866586 117.419166 
L 734.866586 117.419166 
L 734.86592 117.419166 
L 734.86592 117.419166 
L 734.865254 117.419166 
L 734.865254 117.419166 
L 734.864588 117.419166 
L 734.864588 117.419166 
L 734.863922 117.419166 
L 734.863922 117.419166 
L 734.863256 117.419166 
L 734.863256 117.419166 
L 734.86259 117.419166 
L 734.86259 117.419166 
L 734.861924 117.419166 
L 734.861924 117.419166 
L 734.861258 117.419166 
L 734.861258 117.419166 
L 734.860592 117.419166 
L 734.860592 117.419166 
L 734.859926 117.419166 
L 734.859926 117.419166 
L 734.859261 117.419166 
L 734.859261 117.419166 
L 734.858595 117.419166 
L 734.858595 117.419166 
L 734.857929 117.419166 
L 734.857929 117.419166 
L 734.857263 117.419166 
L 734.857263 117.419166 
L 734.856597 117.419166 
L 734.856597 117.419166 
L 734.855931 117.419166 
L 734.855931 117.419166 
L 734.855265 117.419166 
L 734.855265 117.419166 
L 734.854599 117.419166 
L 734.854599 117.419166 
L 734.853933 117.419166 
L 734.853933 117.419166 
L 734.853267 117.419166 
L 734.853267 117.419166 
L 734.852601 117.419166 
z
" clip-path="url(#p9b4127c2ca)" style="fill: #1f77b4; stroke: #1f77b4; stroke-width: 0.1"/>
    <path d="M 765.213778 117.419166 
L 765.213778 81.986095 
L 765.214444 81.986095 
L 765.214444 81.986095 
L 765.215109 81.986095 
L 765.215109 81.986095 
L 765.215775 81.986095 
L 765.215775 81.986095 
L 765.216441 81.986095 
L 765.216441 81.986095 
L 765.217107 81.986095 
L 765.217107 81.986095 
L 765.217773 81.986095 
L 765.217773 81.986095 
L 765.218439 81.986095 
L 765.218439 81.986095 
L 765.219105 81.986095 
L 765.219105 81.986095 
L 765.219771 81.986095 
L 765.219771 81.986095 
L 765.220437 81.986095 
L 765.220437 81.986095 
L 765.221103 81.986095 
L 765.221103 81.986095 
L 765.221769 81.986095 
L 765.221769 81.986095 
L 765.222435 81.986095 
L 765.222435 81.986095 
L 765.223101 81.986095 
L 765.223101 81.986095 
L 765.223767 81.986095 
L 765.223767 81.986095 
L 765.224433 81.986095 
L 765.224433 81.986095 
L 765.225098 81.986095 
L 765.225098 81.986095 
L 765.225764 81.986095 
L 765.225764 81.986095 
L 765.22643 81.986095 
L 765.22643 81.986095 
L 765.227096 81.986095 
L 765.227096 81.986095 
L 765.227762 81.986095 
L 765.227762 81.986095 
L 765.228428 81.986095 
L 765.228428 81.986095 
L 765.229094 81.986095 
L 765.229094 81.986095 
L 765.22976 81.986095 
L 765.22976 81.986095 
L 765.230426 81.986095 
L 765.230426 81.986095 
L 765.231092 81.986095 
L 765.231092 81.986095 
L 765.231758 81.986095 
L 765.231758 81.986095 
L 765.232424 81.986095 
L 765.232424 81.986095 
L 765.23309 81.986095 
L 765.23309 81.986095 
L 765.233756 81.986095 
L 765.233756 81.986095 
L 765.234422 81.986095 
L 765.234422 117.419166 
L 765.234422 117.419166 
L 765.233756 117.419166 
L 765.233756 117.419166 
L 765.23309 117.419166 
L 765.23309 117.419166 
L 765.232424 117.419166 
L 765.232424 117.419166 
L 765.231758 117.419166 
L 765.231758 117.419166 
L 765.231092 117.419166 
L 765.231092 117.419166 
L 765.230426 117.419166 
L 765.230426 117.419166 
L 765.22976 117.419166 
L 765.22976 117.419166 
L 765.229094 117.419166 
L 765.229094 117.419166 
L 765.228428 117.419166 
L 765.228428 117.419166 
L 765.227762 117.419166 
L 765.227762 117.419166 
L 765.227096 117.419166 
L 765.227096 117.419166 
L 765.22643 117.419166 
L 765.22643 117.419166 
L 765.225764 117.419166 
L 765.225764 117.419166 
L 765.225098 117.419166 
L 765.225098 117.419166 
L 765.224433 117.419166 
L 765.224433 117.419166 
L 765.223767 117.419166 
L 765.223767 117.419166 
L 765.223101 117.419166 
L 765.223101 117.419166 
L 765.222435 117.419166 
L 765.222435 117.419166 
L 765.221769 117.419166 
L 765.221769 117.419166 
L 765.221103 117.419166 
L 765.221103 117.419166 
L 765.220437 117.419166 
L 765.220437 117.419166 
L 765.219771 117.419166 
L 765.219771 117.419166 
L 765.219105 117.419166 
L 765.219105 117.419166 
L 765.218439 117.419166 
L 765.218439 117.419166 
L 765.217773 117.419166 
L 765.217773 117.419166 
L 765.217107 117.419166 
L 765.217107 117.419166 
L 765.216441 117.419166 
L 765.216441 117.419166 
L 765.215775 117.419166 
L 765.215775 117.419166 
L 765.215109 117.419166 
L 765.215109 117.419166 
L 765.214444 117.419166 
L 765.214444 117.419166 
L 765.213778 117.419166 
z
" clip-path="url(#p9b4127c2ca)" style="fill: #1f77b4; stroke: #1f77b4; stroke-width: 0.1"/>
   </g>
  </g>
  <g id="axes_5">
   <g id="line2d_1">
    <path d="M 45.354331 116.852237 
L 50.261199 116.852237 
L 50.261199 61.293181 
L 45.354331 61.293181 
" clip-path="url(#p46045d0b55)" style="fill: none; stroke: #000000; stroke-linecap: square"/>
   </g>
   <g id="text_9">
    <!-- 0 -->
    <g transform="translate(35.756583 115.49047)scale(0.12 -0.12)">
     <use xlink:href="#DejaVuSans-30"/>
    </g>
   </g>
   <g id="text_10">
    <!-- 1 -->
    <g transform="translate(35.756583 69.844377)scale(0.12 -0.12)">
     <use xlink:href="#DejaVuSans-31"/>
    </g>
   </g>
  </g>
  <g id="axes_6">
   <g id="text_11">
    <!-- EH23b -->
    <g transform="translate(996.534359 93.046209)scale(0.144 -0.144)">
     <use xlink:href="#DejaVuSans-45"/>
     <use xlink:href="#DejaVuSans-48" x="63.183594"/>
     <use xlink:href="#DejaVuSans-32" x="138.378906"/>
     <use xlink:href="#DejaVuSans-33" x="202.001953"/>
     <use xlink:href="#DejaVuSans-62" x="265.625"/>
    </g>
   </g>
  </g>
  <g id="axes_7"/>
  <g id="axes_8"/>
  <g id="axes_9"/>
  <g id="axes_10">
   <g id="patch_3">
    <path d="M 102.445519 132.46796 
L 102.445519 143.412538 
L 103.686151 143.412538 
L 107.415371 137.940249 
L 103.686151 132.46796 
z
" clip-path="url(#p98791cb07f)" style="fill: #1f78b4; stroke: #000000; stroke-width: 0.5; stroke-linejoin: miter"/>
   </g>
   <g id="patch_4">
    <path d="M 123.595523 132.46796 
L 119.866303 137.940249 
L 123.595523 143.412538 
L 124.521834 143.412538 
L 124.521834 132.46796 
z
" clip-path="url(#p98791cb07f)" style="fill: #1f78b4; stroke: #000000; stroke-width: 0.5; stroke-linejoin: miter"/>
   </g>
   <g id="patch_5">
    <path d="M 132.136768 132.46796 
L 128.407548 137.940249 
L 132.136768 143.412538 
L 138.443811 143.412538 
L 138.443811 132.46796 
z
" clip-path="url(#p98791cb07f)" style="fill: #1f78b4; stroke: #000000; stroke-width: 0.5; stroke-linejoin: miter"/>
   </g>
   <g id="patch_6">
    <path d="M 153.216849 132.46796 
L 149.487629 137.940249 
L 153.216849 143.412538 
L 154.824409 143.412538 
L 154.824409 132.46796 
z
" clip-path="url(#p98791cb07f)" style="fill: #1f78b4; stroke: #000000; stroke-width: 0.5; stroke-linejoin: miter"/>
   </g>
   <g id="patch_7">
    <path d="M 170.427198 132.46796 
L 170.427198 143.412538 
L 171.581924 143.412538 
L 175.311144 137.940249 
L 171.581924 132.46796 
z
" clip-path="url(#p98791cb07f)" style="fill: #1f78b4; stroke: #000000; stroke-width: 0.5; stroke-linejoin: miter"/>
   </g>
   <g id="patch_8">
    <path d="M 186.473498 132.46796 
L 186.473498 143.412538 
L 188.512582 143.412538 
L 192.241802 137.940249 
L 188.512582 132.46796 
z
" clip-path="url(#p98791cb07f)" style="fill: #1f78b4; stroke: #000000; stroke-width: 0.5; stroke-linejoin: miter"/>
   </g>
   <g id="patch_9">
    <path d="M 188.812917 157.640489 
L 185.083698 163.112778 
L 188.812917 168.585067 
L 189.392278 168.585067 
L 189.392278 157.640489 
z
" clip-path="url(#p98791cb07f)" style="fill: #1f78b4; stroke: #000000; stroke-width: 0.5; stroke-linejoin: miter"/>
   </g>
   <g id="patch_10">
    <path d="M 190.283961 182.813018 
L 190.283961 193.757596 
L 192.139914 193.757596 
L 195.869134 188.285307 
L 192.139914 182.813018 
z
" clip-path="url(#p98791cb07f)" style="fill: #1f78b4; stroke: #000000; stroke-width: 0.5; stroke-linejoin: miter"/>
   </g>
   <g id="patch_11">
    <path d="M 193.648916 207.985548 
L 193.648916 218.930125 
L 197.294229 218.930125 
L 201.023448 213.457837 
L 197.294229 207.985548 
z
" clip-path="url(#p98791cb07f)" style="fill: #1f78b4; stroke: #000000; stroke-width: 0.5; stroke-linejoin: miter"/>
   </g>
   <g id="patch_12">
    <path d="M 221.942373 132.46796 
L 221.942373 143.412538 
L 235.967569 143.412538 
L 239.696789 137.940249 
L 235.967569 132.46796 
z
" clip-path="url(#p98791cb07f)" style="fill: #1f78b4; stroke: #000000; stroke-width: 0.5; stroke-linejoin: miter"/>
   </g>
   <g id="patch_13">
    <path d="M 228.957302 157.640489 
L 225.228082 163.112778 
L 228.957302 168.585067 
L 229.881616 168.585067 
L 229.881616 157.640489 
z
" clip-path="url(#p98791cb07f)" style="fill: #1f78b4; stroke: #000000; stroke-width: 0.5; stroke-linejoin: miter"/>
   </g>
   <g id="patch_14">
    <path d="M 251.51775 132.46796 
L 251.51775 143.412538 
L 252.533962 143.412538 
L 256.263182 137.940249 
L 252.533962 132.46796 
z
" clip-path="url(#p98791cb07f)" style="fill: #1f78b4; stroke: #000000; stroke-width: 0.5; stroke-linejoin: miter"/>
   </g>
   <g id="patch_15">
    <path d="M 255.836986 157.640489 
L 255.836986 168.585067 
L 258.218359 168.585067 
L 261.947578 163.112778 
L 258.218359 157.640489 
z
" clip-path="url(#p98791cb07f)" style="fill: #1f78b4; stroke: #000000; stroke-width: 0.5; stroke-linejoin: miter"/>
   </g>
   <g id="patch_16">
    <path d="M 259.823921 182.813018 
L 256.094701 188.285307 
L 259.823921 193.757596 
L 260.591075 193.757596 
L 260.591075 182.813018 
z
" clip-path="url(#p98791cb07f)" style="fill: #1f78b4; stroke: #000000; stroke-width: 0.5; stroke-linejoin: miter"/>
   </g>
   <g id="patch_17">
    <path d="M 262.403076 132.46796 
L 262.403076 143.412538 
L 263.069674 143.412538 
L 266.798894 137.940249 
L 263.069674 132.46796 
z
" clip-path="url(#p98791cb07f)" style="fill: #1f78b4; stroke: #000000; stroke-width: 0.5; stroke-linejoin: miter"/>
   </g>
   <g id="patch_18">
    <path d="M 263.848149 207.985548 
L 260.118929 213.457837 
L 263.848149 218.930125 
L 265.464366 218.930125 
L 265.464366 207.985548 
z
" clip-path="url(#p98791cb07f)" style="fill: #1f78b4; stroke: #000000; stroke-width: 0.5; stroke-linejoin: miter"/>
   </g>
   <g id="patch_19">
    <path d="M 270.704586 132.46796 
L 266.975366 137.940249 
L 270.704586 143.412538 
L 271.97585 143.412538 
L 271.97585 132.46796 
z
" clip-path="url(#p98791cb07f)" style="fill: #1f78b4; stroke: #000000; stroke-width: 0.5; stroke-linejoin: miter"/>
   </g>
   <g id="patch_20">
    <path d="M 285.760645 132.46796 
L 282.031425 137.940249 
L 285.760645 143.412538 
L 287.92226 143.412538 
L 287.92226 132.46796 
z
" clip-path="url(#p98791cb07f)" style="fill: #1f78b4; stroke: #000000; stroke-width: 0.5; stroke-linejoin: miter"/>
   </g>
   <g id="patch_21">
    <path d="M 288.761335 157.640489 
L 285.032115 163.112778 
L 288.761335 168.585067 
L 289.542473 168.585067 
L 289.542473 157.640489 
z
" clip-path="url(#p98791cb07f)" style="fill: #1f78b4; stroke: #000000; stroke-width: 0.5; stroke-linejoin: miter"/>
   </g>
   <g id="patch_22">
    <path d="M 292.039052 182.813018 
L 288.309833 188.285307 
L 292.039052 193.757596 
L 292.856151 193.757596 
L 292.856151 182.813018 
z
" clip-path="url(#p98791cb07f)" style="fill: #1f78b4; stroke: #000000; stroke-width: 0.5; stroke-linejoin: miter"/>
   </g>
   <g id="patch_23">
    <path d="M 297.755414 132.46796 
L 297.755414 143.412538 
L 300.469087 143.412538 
L 304.198307 137.940249 
L 300.469087 132.46796 
z
" clip-path="url(#p98791cb07f)" style="fill: #1f78b4; stroke: #000000; stroke-width: 0.5; stroke-linejoin: miter"/>
   </g>
   <g id="patch_24">
    <path d="M 323.054174 132.46796 
L 319.324954 137.940249 
L 323.054174 143.412538 
L 323.283921 143.412538 
L 323.283921 132.46796 
z
" clip-path="url(#p98791cb07f)" style="fill: #1f78b4; stroke: #000000; stroke-width: 0.5; stroke-linejoin: miter"/>
   </g>
   <g id="patch_25">
    <path d="M 323.549628 157.640489 
L 323.549628 168.585067 
L 324.913457 168.585067 
L 328.642676 163.112778 
L 324.913457 157.640489 
z
" clip-path="url(#p98791cb07f)" style="fill: #1f78b4; stroke: #000000; stroke-width: 0.5; stroke-linejoin: miter"/>
   </g>
   <g id="patch_26">
    <path d="M 343.135357 132.46796 
L 339.406137 137.940249 
L 343.135357 143.412538 
L 344.318052 143.412538 
L 344.318052 132.46796 
z
" clip-path="url(#p98791cb07f)" style="fill: #1f78b4; stroke: #000000; stroke-width: 0.5; stroke-linejoin: miter"/>
   </g>
   <g id="patch_27">
    <path d="M 349.468371 157.640489 
L 345.739151 163.112778 
L 349.468371 168.585067 
L 349.997787 168.585067 
L 349.997787 157.640489 
z
" clip-path="url(#p98791cb07f)" style="fill: #1f78b4; stroke: #000000; stroke-width: 0.5; stroke-linejoin: miter"/>
   </g>
   <g id="patch_28">
    <path d="M 353.336105 132.46796 
L 349.606885 137.940249 
L 353.336105 143.412538 
L 353.647761 143.412538 
L 353.647761 132.46796 
z
" clip-path="url(#p98791cb07f)" style="fill: #1f78b4; stroke: #000000; stroke-width: 0.5; stroke-linejoin: miter"/>
   </g>
   <g id="patch_29">
    <path d="M 355.347885 182.813018 
L 351.618666 188.285307 
L 355.347885 193.757596 
L 357.333029 193.757596 
L 357.333029 182.813018 
z
" clip-path="url(#p98791cb07f)" style="fill: #1f78b4; stroke: #000000; stroke-width: 0.5; stroke-linejoin: miter"/>
   </g>
   <g id="patch_30">
    <path d="M 369.847225 132.46796 
L 366.118005 137.940249 
L 369.847225 143.412538 
L 381.144097 143.412538 
L 381.144097 132.46796 
z
" clip-path="url(#p98791cb07f)" style="fill: #1f78b4; stroke: #000000; stroke-width: 0.5; stroke-linejoin: miter"/>
   </g>
   <g id="patch_31">
    <path d="M 424.017472 132.46796 
L 424.017472 143.412538 
L 426.531366 143.412538 
L 430.260585 137.940249 
L 426.531366 132.46796 
z
" clip-path="url(#p98791cb07f)" style="fill: #1f78b4; stroke: #000000; stroke-width: 0.5; stroke-linejoin: miter"/>
   </g>
   <g id="patch_32">
    <path d="M 434.520553 132.46796 
L 434.520553 143.412538 
L 437.331452 143.412538 
L 441.060672 137.940249 
L 437.331452 132.46796 
z
" clip-path="url(#p98791cb07f)" style="fill: #1f78b4; stroke: #000000; stroke-width: 0.5; stroke-linejoin: miter"/>
   </g>
   <g id="patch_33">
    <path d="M 439.770096 157.640489 
L 436.040876 163.112778 
L 439.770096 168.585067 
L 440.257558 168.585067 
L 440.257558 157.640489 
z
" clip-path="url(#p98791cb07f)" style="fill: #1f78b4; stroke: #000000; stroke-width: 0.5; stroke-linejoin: miter"/>
   </g>
   <g id="patch_34">
    <path d="M 458.482122 132.46796 
L 454.752902 137.940249 
L 458.482122 143.412538 
L 458.931626 143.412538 
L 458.931626 132.46796 
z
" clip-path="url(#p98791cb07f)" style="fill: #1f78b4; stroke: #000000; stroke-width: 0.5; stroke-linejoin: miter"/>
   </g>
   <g id="patch_35">
    <path d="M 481.023924 132.46796 
L 477.294704 137.940249 
L 481.023924 143.412538 
L 481.665216 143.412538 
L 481.665216 132.46796 
z
" clip-path="url(#p98791cb07f)" style="fill: #1f78b4; stroke: #000000; stroke-width: 0.5; stroke-linejoin: miter"/>
   </g>
   <g id="patch_36">
    <path d="M 526.618963 132.46796 
L 522.889743 137.940249 
L 526.618963 143.412538 
L 527.258257 143.412538 
L 527.258257 132.46796 
z
" clip-path="url(#p98791cb07f)" style="fill: #1f78b4; stroke: #000000; stroke-width: 0.5; stroke-linejoin: miter"/>
   </g>
   <g id="patch_37">
    <path d="M 544.141634 132.46796 
L 544.141634 143.412538 
L 544.878821 143.412538 
L 548.608041 137.940249 
L 544.878821 132.46796 
z
" clip-path="url(#p98791cb07f)" style="fill: #1f78b4; stroke: #000000; stroke-width: 0.5; stroke-linejoin: miter"/>
   </g>
   <g id="patch_38">
    <path d="M 544.890142 157.640489 
L 544.890142 168.585067 
L 545.283708 168.585067 
L 549.012927 163.112778 
L 545.283708 157.640489 
z
" clip-path="url(#p98791cb07f)" style="fill: #1f78b4; stroke: #000000; stroke-width: 0.5; stroke-linejoin: miter"/>
   </g>
   <g id="patch_39">
    <path d="M 547.238218 182.813018 
L 547.238218 193.757596 
L 548.211145 193.757596 
L 551.940365 188.285307 
L 548.211145 182.813018 
z
" clip-path="url(#p98791cb07f)" style="fill: #1f78b4; stroke: #000000; stroke-width: 0.5; stroke-linejoin: miter"/>
   </g>
   <g id="patch_40">
    <path d="M 555.431181 132.46796 
L 555.431181 143.412538 
L 557.238521 143.412538 
L 560.96774 137.940249 
L 557.238521 132.46796 
z
" clip-path="url(#p98791cb07f)" style="fill: #1f78b4; stroke: #000000; stroke-width: 0.5; stroke-linejoin: miter"/>
   </g>
   <g id="patch_41">
    <path d="M 558.510451 157.640489 
L 558.510451 168.585067 
L 558.914006 168.585067 
L 562.643226 163.112778 
L 558.914006 157.640489 
z
" clip-path="url(#p98791cb07f)" style="fill: #1f78b4; stroke: #000000; stroke-width: 0.5; stroke-linejoin: miter"/>
   </g>
   <g id="patch_42">
    <path d="M 559.462068 182.813018 
L 555.732848 188.285307 
L 559.462068 193.757596 
L 560.630113 193.757596 
L 560.630113 182.813018 
z
" clip-path="url(#p98791cb07f)" style="fill: #1f78b4; stroke: #000000; stroke-width: 0.5; stroke-linejoin: miter"/>
   </g>
   <g id="patch_43">
    <path d="M 561.845439 207.985548 
L 561.845439 218.930125 
L 562.137117 218.930125 
L 565.866337 213.457837 
L 562.137117 207.985548 
z
" clip-path="url(#p98791cb07f)" style="fill: #1f78b4; stroke: #000000; stroke-width: 0.5; stroke-linejoin: miter"/>
   </g>
   <g id="patch_44">
    <path d="M 568.418855 132.46796 
L 564.689635 137.940249 
L 568.418855 143.412538 
L 571.501454 143.412538 
L 571.501454 132.46796 
z
" clip-path="url(#p98791cb07f)" style="fill: #1f78b4; stroke: #000000; stroke-width: 0.5; stroke-linejoin: miter"/>
   </g>
   <g id="patch_45">
    <path d="M 572.778046 157.640489 
L 572.778046 168.585067 
L 572.967837 168.585067 
L 576.697057 163.112778 
L 572.967837 157.640489 
z
" clip-path="url(#p98791cb07f)" style="fill: #1f78b4; stroke: #000000; stroke-width: 0.5; stroke-linejoin: miter"/>
   </g>
   <g id="patch_46">
    <path d="M 583.173246 132.46796 
L 579.444027 137.940249 
L 583.173246 143.412538 
L 583.744616 143.412538 
L 583.744616 132.46796 
z
" clip-path="url(#p98791cb07f)" style="fill: #1f78b4; stroke: #000000; stroke-width: 0.5; stroke-linejoin: miter"/>
   </g>
   <g id="patch_47">
    <path d="M 610.380568 132.46796 
L 606.651349 137.940249 
L 610.380568 143.412538 
L 618.153994 143.412538 
L 618.153994 132.46796 
z
" clip-path="url(#p98791cb07f)" style="fill: #1f78b4; stroke: #000000; stroke-width: 0.5; stroke-linejoin: miter"/>
   </g>
   <g id="patch_48">
    <path d="M 634.978102 132.46796 
L 631.248883 137.940249 
L 634.978102 143.412538 
L 635.400969 143.412538 
L 635.400969 132.46796 
z
" clip-path="url(#p98791cb07f)" style="fill: #1f78b4; stroke: #000000; stroke-width: 0.5; stroke-linejoin: miter"/>
   </g>
   <g id="patch_49">
    <path d="M 647.116047 132.46796 
L 643.386827 137.940249 
L 647.116047 143.412538 
L 647.682089 143.412538 
L 647.682089 132.46796 
z
" clip-path="url(#p98791cb07f)" style="fill: #1f78b4; stroke: #000000; stroke-width: 0.5; stroke-linejoin: miter"/>
   </g>
   <g id="patch_50">
    <path d="M 657.02778 132.46796 
L 657.02778 143.412538 
L 658.068632 143.412538 
L 661.797852 137.940249 
L 658.068632 132.46796 
z
" clip-path="url(#p98791cb07f)" style="fill: #1f78b4; stroke: #000000; stroke-width: 0.5; stroke-linejoin: miter"/>
   </g>
   <g id="patch_51">
    <path d="M 660.134353 157.640489 
L 660.134353 168.585067 
L 661.766553 168.585067 
L 665.495773 163.112778 
L 661.766553 157.640489 
z
" clip-path="url(#p98791cb07f)" style="fill: #1f78b4; stroke: #000000; stroke-width: 0.5; stroke-linejoin: miter"/>
   </g>
   <g id="patch_52">
    <path d="M 662.198743 182.813018 
L 662.198743 193.757596 
L 662.42849 193.757596 
L 666.157709 188.285307 
L 662.42849 182.813018 
z
" clip-path="url(#p98791cb07f)" style="fill: #1f78b4; stroke: #000000; stroke-width: 0.5; stroke-linejoin: miter"/>
   </g>
   <g id="patch_53">
    <path d="M 669.084481 132.46796 
L 669.084481 143.412538 
L 670.070726 143.412538 
L 673.799946 137.940249 
L 670.070726 132.46796 
z
" clip-path="url(#p98791cb07f)" style="fill: #1f78b4; stroke: #000000; stroke-width: 0.5; stroke-linejoin: miter"/>
   </g>
   <g id="patch_54">
    <path d="M 677.162903 157.640489 
L 677.162903 168.585067 
L 678.451482 168.585067 
L 682.180702 163.112778 
L 678.451482 157.640489 
z
" clip-path="url(#p98791cb07f)" style="fill: #1f78b4; stroke: #000000; stroke-width: 0.5; stroke-linejoin: miter"/>
   </g>
   <g id="patch_55">
    <path d="M 679.538949 132.46796 
L 675.809729 137.940249 
L 679.538949 143.412538 
L 679.834623 143.412538 
L 679.834623 132.46796 
z
" clip-path="url(#p98791cb07f)" style="fill: #1f78b4; stroke: #000000; stroke-width: 0.5; stroke-linejoin: miter"/>
   </g>
   <g id="patch_56">
    <path d="M 687.503497 132.46796 
L 687.503497 143.412538 
L 690.581435 143.412538 
L 694.310655 137.940249 
L 690.581435 132.46796 
z
" clip-path="url(#p98791cb07f)" style="fill: #1f78b4; stroke: #000000; stroke-width: 0.5; stroke-linejoin: miter"/>
   </g>
   <g id="patch_57">
    <path d="M 695.474038 157.640489 
L 695.474038 168.585067 
L 695.683807 168.585067 
L 699.413027 163.112778 
L 695.683807 157.640489 
z
" clip-path="url(#p98791cb07f)" style="fill: #1f78b4; stroke: #000000; stroke-width: 0.5; stroke-linejoin: miter"/>
   </g>
   <g id="patch_58">
    <path d="M 704.489427 132.46796 
L 704.489427 143.412538 
L 706.150262 143.412538 
L 709.879481 137.940249 
L 706.150262 132.46796 
z
" clip-path="url(#p98791cb07f)" style="fill: #1f78b4; stroke: #000000; stroke-width: 0.5; stroke-linejoin: miter"/>
   </g>
   <g id="patch_59">
    <path d="M 706.495215 157.640489 
L 702.765995 163.112778 
L 706.495215 168.585067 
L 707.592005 168.585067 
L 707.592005 157.640489 
z
" clip-path="url(#p98791cb07f)" style="fill: #1f78b4; stroke: #000000; stroke-width: 0.5; stroke-linejoin: miter"/>
   </g>
   <g id="patch_60">
    <path d="M 718.364788 132.46796 
L 718.364788 143.412538 
L 723.473153 143.412538 
L 727.202373 137.940249 
L 723.473153 132.46796 
z
" clip-path="url(#p98791cb07f)" style="fill: #1f78b4; stroke: #000000; stroke-width: 0.5; stroke-linejoin: miter"/>
   </g>
   <g id="patch_61">
    <path d="M 863.95486 132.46796 
L 860.22564 137.940249 
L 863.95486 143.412538 
L 864.160633 143.412538 
L 864.160633 132.46796 
z
" clip-path="url(#p98791cb07f)" style="fill: #1f78b4; stroke: #000000; stroke-width: 0.5; stroke-linejoin: miter"/>
   </g>
   <g id="patch_62">
    <path d="M 866.33024 157.640489 
L 866.33024 168.585067 
L 868.383974 168.585067 
L 872.113194 163.112778 
L 868.383974 157.640489 
z
" clip-path="url(#p98791cb07f)" style="fill: #1f78b4; stroke: #000000; stroke-width: 0.5; stroke-linejoin: miter"/>
   </g>
   <g id="patch_63">
    <path d="M 869.282317 182.813018 
L 865.553097 188.285307 
L 869.282317 193.757596 
L 870.285876 193.757596 
L 870.285876 182.813018 
z
" clip-path="url(#p98791cb07f)" style="fill: #1f78b4; stroke: #000000; stroke-width: 0.5; stroke-linejoin: miter"/>
   </g>
   <g id="patch_64">
    <path d="M 871.508528 207.985548 
L 867.779308 213.457837 
L 871.508528 218.930125 
L 871.868131 218.930125 
L 871.868131 207.985548 
z
" clip-path="url(#p98791cb07f)" style="fill: #1f78b4; stroke: #000000; stroke-width: 0.5; stroke-linejoin: miter"/>
   </g>
   <g id="patch_65">
    <path d="M 875.261721 132.46796 
L 871.532501 137.940249 
L 875.261721 143.412538 
L 877.41135 143.412538 
L 877.41135 132.46796 
z
" clip-path="url(#p98791cb07f)" style="fill: #1f78b4; stroke: #000000; stroke-width: 0.5; stroke-linejoin: miter"/>
   </g>
   <g id="patch_66">
    <path d="M 877.920122 157.640489 
L 874.190902 163.112778 
L 877.920122 168.585067 
L 878.54743 168.585067 
L 878.54743 157.640489 
z
" clip-path="url(#p98791cb07f)" style="fill: #1f78b4; stroke: #000000; stroke-width: 0.5; stroke-linejoin: miter"/>
   </g>
   <g id="patch_67">
    <path d="M 882.736809 182.813018 
L 879.007589 188.285307 
L 882.736809 193.757596 
L 882.884646 193.757596 
L 882.884646 182.813018 
z
" clip-path="url(#p98791cb07f)" style="fill: #1f78b4; stroke: #000000; stroke-width: 0.5; stroke-linejoin: miter"/>
   </g>
   <g id="patch_68">
    <path d="M 885.423845 132.46796 
L 885.423845 143.412538 
L 885.86669 143.412538 
L 889.59591 137.940249 
L 885.86669 132.46796 
z
" clip-path="url(#p98791cb07f)" style="fill: #1f78b4; stroke: #000000; stroke-width: 0.5; stroke-linejoin: miter"/>
   </g>
   <g id="patch_69">
    <path d="M 886.571912 157.640489 
L 882.842692 163.112778 
L 886.571912 168.585067 
L 887.958383 168.585067 
L 887.958383 157.640489 
z
" clip-path="url(#p98791cb07f)" style="fill: #1f78b4; stroke: #000000; stroke-width: 0.5; stroke-linejoin: miter"/>
   </g>
   <g id="patch_70">
    <path d="M 896.393745 132.46796 
L 892.664525 137.940249 
L 896.393745 143.412538 
L 903.023765 143.412538 
L 903.023765 132.46796 
z
" clip-path="url(#p98791cb07f)" style="fill: #1f78b4; stroke: #000000; stroke-width: 0.5; stroke-linejoin: miter"/>
   </g>
   <g id="patch_71">
    <path d="M 911.42916 132.46796 
L 907.69994 137.940249 
L 911.42916 143.412538 
L 911.576996 143.412538 
L 911.576996 132.46796 
z
" clip-path="url(#p98791cb07f)" style="fill: #1f78b4; stroke: #000000; stroke-width: 0.5; stroke-linejoin: miter"/>
   </g>
   <g id="patch_72">
    <path d="M 919.701368 132.46796 
L 915.972148 137.940249 
L 919.701368 143.412538 
L 921.438119 143.412538 
L 921.438119 132.46796 
z
" clip-path="url(#p98791cb07f)" style="fill: #1f78b4; stroke: #000000; stroke-width: 0.5; stroke-linejoin: miter"/>
   </g>
   <g id="patch_73">
    <path d="M 934.345215 132.46796 
L 930.615995 137.940249 
L 934.345215 143.412538 
L 935.67042 143.412538 
L 935.67042 132.46796 
z
" clip-path="url(#p98791cb07f)" style="fill: #1f78b4; stroke: #000000; stroke-width: 0.5; stroke-linejoin: miter"/>
   </g>
   <g id="patch_74">
    <path d="M 936.61005 157.640489 
L 932.88083 163.112778 
L 936.61005 168.585067 
L 938.851578 168.585067 
L 938.851578 157.640489 
z
" clip-path="url(#p98791cb07f)" style="fill: #1f78b4; stroke: #000000; stroke-width: 0.5; stroke-linejoin: miter"/>
   </g>
   <g id="patch_75">
    <path d="M 940.298648 182.813018 
L 940.298648 193.757596 
L 941.621189 193.757596 
L 945.350409 188.285307 
L 941.621189 182.813018 
z
" clip-path="url(#p98791cb07f)" style="fill: #1f78b4; stroke: #000000; stroke-width: 0.5; stroke-linejoin: miter"/>
   </g>
   <g id="patch_76">
    <path d="M 951.104062 132.46796 
L 951.104062 143.412538 
L 952.531155 143.412538 
L 956.260375 137.940249 
L 952.531155 132.46796 
z
" clip-path="url(#p98791cb07f)" style="fill: #1f78b4; stroke: #000000; stroke-width: 0.5; stroke-linejoin: miter"/>
   </g>
   <g id="patch_77">
    <path d="M 952.789536 157.640489 
L 949.060317 163.112778 
L 952.789536 168.585067 
L 954.494989 168.585067 
L 954.494989 157.640489 
z
" clip-path="url(#p98791cb07f)" style="fill: #1f78b4; stroke: #000000; stroke-width: 0.5; stroke-linejoin: miter"/>
   </g>
   <g id="patch_78">
    <path d="M 960.750089 132.46796 
L 960.750089 143.412538 
L 961.339439 143.412538 
L 965.068658 137.940249 
L 961.339439 132.46796 
z
" clip-path="url(#p98791cb07f)" style="fill: #1f78b4; stroke: #000000; stroke-width: 0.5; stroke-linejoin: miter"/>
   </g>
   <g id="patch_79">
    <path d="M 961.575845 182.813018 
L 957.846625 188.285307 
L 961.575845 193.757596 
L 962.756542 193.757596 
L 962.756542 182.813018 
z
" clip-path="url(#p98791cb07f)" style="fill: #1f78b4; stroke: #000000; stroke-width: 0.5; stroke-linejoin: miter"/>
   </g>
   <g id="patch_80">
    <path d="M 967.532607 157.640489 
L 967.532607 168.585067 
L 968.843162 168.585067 
L 972.572381 163.112778 
L 968.843162 157.640489 
z
" clip-path="url(#p98791cb07f)" style="fill: #1f78b4; stroke: #000000; stroke-width: 0.5; stroke-linejoin: miter"/>
   </g>
   <g id="patch_81">
    <path d="M 971.371706 132.46796 
L 967.642486 137.940249 
L 971.371706 143.412538 
L 973.872281 143.412538 
L 973.872281 132.46796 
z
" clip-path="url(#p98791cb07f)" style="fill: #1f78b4; stroke: #000000; stroke-width: 0.5; stroke-linejoin: miter"/>
   </g>
   <g id="patch_82">
    <path d="M 979.914949 157.640489 
L 979.914949 168.585067 
L 980.172664 168.585067 
L 983.901884 163.112778 
L 980.172664 157.640489 
z
" clip-path="url(#p98791cb07f)" style="fill: #1f78b4; stroke: #000000; stroke-width: 0.5; stroke-linejoin: miter"/>
   </g>
   <g id="patch_83">
    <path d="M 985.155834 132.46796 
L 985.155834 143.412538 
L 985.857727 143.412538 
L 989.586947 137.940249 
L 985.857727 132.46796 
z
" clip-path="url(#p98791cb07f)" style="fill: #1f78b4; stroke: #000000; stroke-width: 0.5; stroke-linejoin: miter"/>
   </g>
   <g id="patch_84">
    <path d="M 987.904802 157.640489 
L 987.904802 168.585067 
L 988.277724 168.585067 
L 992.006944 163.112778 
L 988.277724 157.640489 
z
" clip-path="url(#p98791cb07f)" style="fill: #1f78b4; stroke: #000000; stroke-width: 0.5; stroke-linejoin: miter"/>
   </g>
  </g>
  <g id="axes_11"/>
  <g id="axes_12">
   <g id="text_12">
    <!-- genes -->
    <g transform="translate(996.534359 142.534144)scale(0.144 -0.144)">
     <defs>
      <path id="DejaVuSans-67" d="M 2906 1791 
Q 2906 2416 2648 2759 
Q 2391 3103 1925 3103 
Q 1463 3103 1205 2759 
Q 947 2416 947 1791 
Q 947 1169 1205 825 
Q 1463 481 1925 481 
Q 2391 481 2648 825 
Q 2906 1169 2906 1791 
z
M 3481 434 
Q 3481 -459 3084 -895 
Q 2688 -1331 1869 -1331 
Q 1566 -1331 1297 -1286 
Q 1028 -1241 775 -1147 
L 775 -588 
Q 1028 -725 1275 -790 
Q 1522 -856 1778 -856 
Q 2344 -856 2625 -561 
Q 2906 -266 2906 331 
L 2906 616 
Q 2728 306 2450 153 
Q 2172 0 1784 0 
Q 1141 0 747 490 
Q 353 981 353 1791 
Q 353 2603 747 3093 
Q 1141 3584 1784 3584 
Q 2172 3584 2450 3431 
Q 2728 3278 2906 2969 
L 2906 3500 
L 3481 3500 
L 3481 434 
z
" transform="scale(0.015625)"/>
      <path id="DejaVuSans-65" d="M 3597 1894 
L 3597 1613 
L 953 1613 
Q 991 1019 1311 708 
Q 1631 397 2203 397 
Q 2534 397 2845 478 
Q 3156 559 3463 722 
L 3463 178 
Q 3153 47 2828 -22 
Q 2503 -91 2169 -91 
Q 1331 -91 842 396 
Q 353 884 353 1716 
Q 353 2575 817 3079 
Q 1281 3584 2069 3584 
Q 2775 3584 3186 3129 
Q 3597 2675 3597 1894 
z
M 3022 2063 
Q 3016 2534 2758 2815 
Q 2500 3097 2075 3097 
Q 1594 3097 1305 2825 
Q 1016 2553 972 2059 
L 3022 2063 
z
" transform="scale(0.015625)"/>
      <path id="DejaVuSans-6e" d="M 3513 2113 
L 3513 0 
L 2938 0 
L 2938 2094 
Q 2938 2591 2744 2837 
Q 2550 3084 2163 3084 
Q 1697 3084 1428 2787 
Q 1159 2491 1159 1978 
L 1159 0 
L 581 0 
L 581 3500 
L 1159 3500 
L 1159 2956 
Q 1366 3272 1645 3428 
Q 1925 3584 2291 3584 
Q 2894 3584 3203 3211 
Q 3513 2838 3513 2113 
z
" transform="scale(0.015625)"/>
      <path id="DejaVuSans-73" d="M 2834 3397 
L 2834 2853 
Q 2591 2978 2328 3040 
Q 2066 3103 1784 3103 
Q 1356 3103 1142 2972 
Q 928 2841 928 2578 
Q 928 2378 1081 2264 
Q 1234 2150 1697 2047 
L 1894 2003 
Q 2506 1872 2764 1633 
Q 3022 1394 3022 966 
Q 3022 478 2636 193 
Q 2250 -91 1575 -91 
Q 1294 -91 989 -36 
Q 684 19 347 128 
L 347 722 
Q 666 556 975 473 
Q 1284 391 1588 391 
Q 1994 391 2212 530 
Q 2431 669 2431 922 
Q 2431 1156 2273 1281 
Q 2116 1406 1581 1522 
L 1381 1569 
Q 847 1681 609 1914 
Q 372 2147 372 2553 
Q 372 3047 722 3315 
Q 1072 3584 1716 3584 
Q 2034 3584 2315 3537 
Q 2597 3491 2834 3397 
z
" transform="scale(0.015625)"/>
     </defs>
     <use xlink:href="#DejaVuSans-67"/>
     <use xlink:href="#DejaVuSans-65" x="63.476562"/>
     <use xlink:href="#DejaVuSans-6e" x="125"/>
     <use xlink:href="#DejaVuSans-65" x="188.378906"/>
     <use xlink:href="#DejaVuSans-73" x="249.902344"/>
    </g>
   </g>
  </g>
 </g>
 <defs>
  <clipPath id="p98f3dd9544">
   <rect x="58.472025" y="7.576646" width="932.304942" height="53.149606"/>
  </clipPath>
  <clipPath id="p9b4127c2ca">
   <rect x="58.472025" y="60.726252" width="932.304942" height="56.692913"/>
  </clipPath>
  <clipPath id="p46045d0b55">
   <rect x="45.354331" y="60.726252" width="9.813736" height="56.692913"/>
  </clipPath>
  <clipPath id="p98791cb07f">
   <rect x="58.472025" y="131.592394" width="932.304942" height="113.385827"/>
  </clipPath>
 </defs>
</svg>
