<?xml version="1.0" encoding="utf-8" standalone="no"?>
<!DOCTYPE svg PUBLIC "-//W3C//DTD SVG 1.1//EN"
  "http://www.w3.org/Graphics/SVG/1.1/DTD/svg11.dtd">
<svg xmlns:xlink="http://www.w3.org/1999/xlink" width="1133.858268pt" height="252.554867pt" viewBox="0 0 1133.858268 252.554867" xmlns="http://www.w3.org/2000/svg" version="1.1">
 <metadata>
  <rdf:RDF xmlns:dc="http://purl.org/dc/elements/1.1/" xmlns:cc="http://creativecommons.org/ns#" xmlns:rdf="http://www.w3.org/1999/02/22-rdf-syntax-ns#">
   <cc:Work>
    <dc:type rdf:resource="http://purl.org/dc/dcmitype/StillImage"/>
    <dc:date>2023-06-19T17:56:31.990343</dc:date>
    <dc:format>image/svg+xml</dc:format>
    <dc:creator>
     <cc:Agent>
      <dc:title>Matplotlib v3.5.3, https://matplotlib.org/</dc:title>
     </cc:Agent>
    </dc:creator>
   </cc:Work>
  </rdf:RDF>
 </metadata>
 <defs>
  <style type="text/css">*{stroke-linejoin: round; stroke-linecap: butt}</style>
 </defs>
 <g id="figure_1">
  <g id="patch_1">
   <path d="M 0 252.554867 
L 1133.858268 252.554867 
L 1133.858268 0 
L 0 0 
z
" style="fill: #ffffff"/>
  </g>
  <g id="axes_1">
   <g id="mpl_toolkits.axisartist.axis_artist_1">
    <defs>
     <path id="m55a534ce88" d="M 0 0 
L -0 3.5 
" style="stroke: #000000; stroke-width: 0.8"/>
    </defs>
    <g>
     <use xlink:href="#m55a534ce88" x="58.472025" y="50.096331" style="fill: none; stroke: #000000; stroke-width: 0.8"/>
    </g>
    <g>
     <use xlink:href="#m55a534ce88" x="244.933013" y="50.096331" style="fill: none; stroke: #000000; stroke-width: 0.8"/>
    </g>
    <g>
     <use xlink:href="#m55a534ce88" x="431.394002" y="50.096331" style="fill: none; stroke: #000000; stroke-width: 0.8"/>
    </g>
    <g>
     <use xlink:href="#m55a534ce88" x="617.85499" y="50.096331" style="fill: none; stroke: #000000; stroke-width: 0.8"/>
    </g>
    <g>
     <use xlink:href="#m55a534ce88" x="804.315979" y="50.096331" style="fill: none; stroke: #000000; stroke-width: 0.8"/>
    </g>
    <g>
     <use xlink:href="#m55a534ce88" x="990.776967" y="50.096331" style="fill: none; stroke: #000000; stroke-width: 0.8"/>
    </g>
    <g id="text_1">
     <!-- 44.0 -->
     <g transform="translate(41.772806 46.38305)scale(0.15 -0.15)">
      <defs>
       <path id="DejaVuSans-34" d="M 2419 4116 
L 825 1625 
L 2419 1625 
L 2419 4116 
z
M 2253 4666 
L 3047 4666 
L 3047 1625 
L 3713 1625 
L 3713 1100 
L 3047 1100 
L 3047 0 
L 2419 0 
L 2419 1100 
L 313 1100 
L 313 1709 
L 2253 4666 
z
" transform="scale(0.015625)"/>
       <path id="DejaVuSans-2e" d="M 684 794 
L 1344 794 
L 1344 0 
L 684 0 
L 684 794 
z
" transform="scale(0.015625)"/>
       <path id="DejaVuSans-30" d="M 2034 4250 
Q 1547 4250 1301 3770 
Q 1056 3291 1056 2328 
Q 1056 1369 1301 889 
Q 1547 409 2034 409 
Q 2525 409 2770 889 
Q 3016 1369 3016 2328 
Q 3016 3291 2770 3770 
Q 2525 4250 2034 4250 
z
M 2034 4750 
Q 2819 4750 3233 4129 
Q 3647 3509 3647 2328 
Q 3647 1150 3233 529 
Q 2819 -91 2034 -91 
Q 1250 -91 836 529 
Q 422 1150 422 2328 
Q 422 3509 836 4129 
Q 1250 4750 2034 4750 
z
" transform="scale(0.015625)"/>
      </defs>
      <use xlink:href="#DejaVuSans-34"/>
      <use xlink:href="#DejaVuSans-34" x="63.623047"/>
      <use xlink:href="#DejaVuSans-2e" x="127.246094"/>
      <use xlink:href="#DejaVuSans-30" x="159.033203"/>
     </g>
    </g>
    <g id="text_2">
     <!-- 44.2 -->
     <g transform="translate(228.233795 46.38305)scale(0.15 -0.15)">
      <defs>
       <path id="DejaVuSans-32" d="M 1228 531 
L 3431 531 
L 3431 0 
L 469 0 
L 469 531 
Q 828 903 1448 1529 
Q 2069 2156 2228 2338 
Q 2531 2678 2651 2914 
Q 2772 3150 2772 3378 
Q 2772 3750 2511 3984 
Q 2250 4219 1831 4219 
Q 1534 4219 1204 4116 
Q 875 4013 500 3803 
L 500 4441 
Q 881 4594 1212 4672 
Q 1544 4750 1819 4750 
Q 2544 4750 2975 4387 
Q 3406 4025 3406 3419 
Q 3406 3131 3298 2873 
Q 3191 2616 2906 2266 
Q 2828 2175 2409 1742 
Q 1991 1309 1228 531 
z
" transform="scale(0.015625)"/>
      </defs>
      <use xlink:href="#DejaVuSans-34"/>
      <use xlink:href="#DejaVuSans-34" x="63.623047"/>
      <use xlink:href="#DejaVuSans-2e" x="127.246094"/>
      <use xlink:href="#DejaVuSans-32" x="159.033203"/>
     </g>
    </g>
    <g id="text_3">
     <!-- 44.4 -->
     <g transform="translate(414.694783 46.38305)scale(0.15 -0.15)">
      <use xlink:href="#DejaVuSans-34"/>
      <use xlink:href="#DejaVuSans-34" x="63.623047"/>
      <use xlink:href="#DejaVuSans-2e" x="127.246094"/>
      <use xlink:href="#DejaVuSans-34" x="159.033203"/>
     </g>
    </g>
    <g id="text_4">
     <!-- 44.6 -->
     <g transform="translate(601.155772 46.38305)scale(0.15 -0.15)">
      <defs>
       <path id="DejaVuSans-36" d="M 2113 2584 
Q 1688 2584 1439 2293 
Q 1191 2003 1191 1497 
Q 1191 994 1439 701 
Q 1688 409 2113 409 
Q 2538 409 2786 701 
Q 3034 994 3034 1497 
Q 3034 2003 2786 2293 
Q 2538 2584 2113 2584 
z
M 3366 4563 
L 3366 3988 
Q 3128 4100 2886 4159 
Q 2644 4219 2406 4219 
Q 1781 4219 1451 3797 
Q 1122 3375 1075 2522 
Q 1259 2794 1537 2939 
Q 1816 3084 2150 3084 
Q 2853 3084 3261 2657 
Q 3669 2231 3669 1497 
Q 3669 778 3244 343 
Q 2819 -91 2113 -91 
Q 1303 -91 875 529 
Q 447 1150 447 2328 
Q 447 3434 972 4092 
Q 1497 4750 2381 4750 
Q 2619 4750 2861 4703 
Q 3103 4656 3366 4563 
z
" transform="scale(0.015625)"/>
      </defs>
      <use xlink:href="#DejaVuSans-34"/>
      <use xlink:href="#DejaVuSans-34" x="63.623047"/>
      <use xlink:href="#DejaVuSans-2e" x="127.246094"/>
      <use xlink:href="#DejaVuSans-36" x="159.033203"/>
     </g>
    </g>
    <g id="text_5">
     <!-- 44.8 Mb -->
     <g transform="translate(774.000744 46.38305)scale(0.15 -0.15)">
      <defs>
       <path id="DejaVuSans-38" d="M 2034 2216 
Q 1584 2216 1326 1975 
Q 1069 1734 1069 1313 
Q 1069 891 1326 650 
Q 1584 409 2034 409 
Q 2484 409 2743 651 
Q 3003 894 3003 1313 
Q 3003 1734 2745 1975 
Q 2488 2216 2034 2216 
z
M 1403 2484 
Q 997 2584 770 2862 
Q 544 3141 544 3541 
Q 544 4100 942 4425 
Q 1341 4750 2034 4750 
Q 2731 4750 3128 4425 
Q 3525 4100 3525 3541 
Q 3525 3141 3298 2862 
Q 3072 2584 2669 2484 
Q 3125 2378 3379 2068 
Q 3634 1759 3634 1313 
Q 3634 634 3220 271 
Q 2806 -91 2034 -91 
Q 1263 -91 848 271 
Q 434 634 434 1313 
Q 434 1759 690 2068 
Q 947 2378 1403 2484 
z
M 1172 3481 
Q 1172 3119 1398 2916 
Q 1625 2713 2034 2713 
Q 2441 2713 2670 2916 
Q 2900 3119 2900 3481 
Q 2900 3844 2670 4047 
Q 2441 4250 2034 4250 
Q 1625 4250 1398 4047 
Q 1172 3844 1172 3481 
z
" transform="scale(0.015625)"/>
       <path id="DejaVuSans-20" transform="scale(0.015625)"/>
       <path id="DejaVuSans-4d" d="M 628 4666 
L 1569 4666 
L 2759 1491 
L 3956 4666 
L 4897 4666 
L 4897 0 
L 4281 0 
L 4281 4097 
L 3078 897 
L 2444 897 
L 1241 4097 
L 1241 0 
L 628 0 
L 628 4666 
z
" transform="scale(0.015625)"/>
       <path id="DejaVuSans-62" d="M 3116 1747 
Q 3116 2381 2855 2742 
Q 2594 3103 2138 3103 
Q 1681 3103 1420 2742 
Q 1159 2381 1159 1747 
Q 1159 1113 1420 752 
Q 1681 391 2138 391 
Q 2594 391 2855 752 
Q 3116 1113 3116 1747 
z
M 1159 2969 
Q 1341 3281 1617 3432 
Q 1894 3584 2278 3584 
Q 2916 3584 3314 3078 
Q 3713 2572 3713 1747 
Q 3713 922 3314 415 
Q 2916 -91 2278 -91 
Q 1894 -91 1617 61 
Q 1341 213 1159 525 
L 1159 0 
L 581 0 
L 581 4863 
L 1159 4863 
L 1159 2969 
z
" transform="scale(0.015625)"/>
      </defs>
      <use xlink:href="#DejaVuSans-34"/>
      <use xlink:href="#DejaVuSans-34" x="63.623047"/>
      <use xlink:href="#DejaVuSans-2e" x="127.246094"/>
      <use xlink:href="#DejaVuSans-38" x="159.033203"/>
      <use xlink:href="#DejaVuSans-20" x="222.65625"/>
      <use xlink:href="#DejaVuSans-4d" x="254.443359"/>
      <use xlink:href="#DejaVuSans-62" x="340.722656"/>
     </g>
    </g>
    <g id="text_6">
     <!-- 45.0 -->
     <g transform="translate(974.077749 46.38305)scale(0.15 -0.15)">
      <defs>
       <path id="DejaVuSans-35" d="M 691 4666 
L 3169 4666 
L 3169 4134 
L 1269 4134 
L 1269 2991 
Q 1406 3038 1543 3061 
Q 1681 3084 1819 3084 
Q 2600 3084 3056 2656 
Q 3513 2228 3513 1497 
Q 3513 744 3044 326 
Q 2575 -91 1722 -91 
Q 1428 -91 1123 -41 
Q 819 9 494 109 
L 494 744 
Q 775 591 1075 516 
Q 1375 441 1709 441 
Q 2250 441 2565 725 
Q 2881 1009 2881 1497 
Q 2881 1984 2565 2268 
Q 2250 2553 1709 2553 
Q 1456 2553 1204 2497 
Q 953 2441 691 2322 
L 691 4666 
z
" transform="scale(0.015625)"/>
      </defs>
      <use xlink:href="#DejaVuSans-34"/>
      <use xlink:href="#DejaVuSans-35" x="63.623047"/>
      <use xlink:href="#DejaVuSans-2e" x="127.246094"/>
      <use xlink:href="#DejaVuSans-30" x="159.033203"/>
     </g>
    </g>
    <g id="patch_2">
     <path d="M 58.472025 50.096331 
L 990.776967 50.096331 
" clip-path="url(#p28e0a90451)" style="fill: none; stroke: #000000; stroke-width: 0.8; stroke-linecap: square"/>
    </g>
   </g>
   <g id="text_7">
    <!-- EH23b.chr8 -->
    <g transform="translate(480.824496 19.505798)scale(0.15 -0.15)">
     <defs>
      <path id="DejaVuSans-45" d="M 628 4666 
L 3578 4666 
L 3578 4134 
L 1259 4134 
L 1259 2753 
L 3481 2753 
L 3481 2222 
L 1259 2222 
L 1259 531 
L 3634 531 
L 3634 0 
L 628 0 
L 628 4666 
z
" transform="scale(0.015625)"/>
      <path id="DejaVuSans-48" d="M 628 4666 
L 1259 4666 
L 1259 2753 
L 3553 2753 
L 3553 4666 
L 4184 4666 
L 4184 0 
L 3553 0 
L 3553 2222 
L 1259 2222 
L 1259 0 
L 628 0 
L 628 4666 
z
" transform="scale(0.015625)"/>
      <path id="DejaVuSans-33" d="M 2597 2516 
Q 3050 2419 3304 2112 
Q 3559 1806 3559 1356 
Q 3559 666 3084 287 
Q 2609 -91 1734 -91 
Q 1441 -91 1130 -33 
Q 819 25 488 141 
L 488 750 
Q 750 597 1062 519 
Q 1375 441 1716 441 
Q 2309 441 2620 675 
Q 2931 909 2931 1356 
Q 2931 1769 2642 2001 
Q 2353 2234 1838 2234 
L 1294 2234 
L 1294 2753 
L 1863 2753 
Q 2328 2753 2575 2939 
Q 2822 3125 2822 3475 
Q 2822 3834 2567 4026 
Q 2313 4219 1838 4219 
Q 1578 4219 1281 4162 
Q 984 4106 628 3988 
L 628 4550 
Q 988 4650 1302 4700 
Q 1616 4750 1894 4750 
Q 2613 4750 3031 4423 
Q 3450 4097 3450 3541 
Q 3450 3153 3228 2886 
Q 3006 2619 2597 2516 
z
" transform="scale(0.015625)"/>
      <path id="DejaVuSans-63" d="M 3122 3366 
L 3122 2828 
Q 2878 2963 2633 3030 
Q 2388 3097 2138 3097 
Q 1578 3097 1268 2742 
Q 959 2388 959 1747 
Q 959 1106 1268 751 
Q 1578 397 2138 397 
Q 2388 397 2633 464 
Q 2878 531 3122 666 
L 3122 134 
Q 2881 22 2623 -34 
Q 2366 -91 2075 -91 
Q 1284 -91 818 406 
Q 353 903 353 1747 
Q 353 2603 823 3093 
Q 1294 3584 2113 3584 
Q 2378 3584 2631 3529 
Q 2884 3475 3122 3366 
z
" transform="scale(0.015625)"/>
      <path id="DejaVuSans-68" d="M 3513 2113 
L 3513 0 
L 2938 0 
L 2938 2094 
Q 2938 2591 2744 2837 
Q 2550 3084 2163 3084 
Q 1697 3084 1428 2787 
Q 1159 2491 1159 1978 
L 1159 0 
L 581 0 
L 581 4863 
L 1159 4863 
L 1159 2956 
Q 1366 3272 1645 3428 
Q 1925 3584 2291 3584 
Q 2894 3584 3203 3211 
Q 3513 2838 3513 2113 
z
" transform="scale(0.015625)"/>
      <path id="DejaVuSans-72" d="M 2631 2963 
Q 2534 3019 2420 3045 
Q 2306 3072 2169 3072 
Q 1681 3072 1420 2755 
Q 1159 2438 1159 1844 
L 1159 0 
L 581 0 
L 581 3500 
L 1159 3500 
L 1159 2956 
Q 1341 3275 1631 3429 
Q 1922 3584 2338 3584 
Q 2397 3584 2469 3576 
Q 2541 3569 2628 3553 
L 2631 2963 
z
" transform="scale(0.015625)"/>
     </defs>
     <use xlink:href="#DejaVuSans-45"/>
     <use xlink:href="#DejaVuSans-48" x="63.183594"/>
     <use xlink:href="#DejaVuSans-32" x="138.378906"/>
     <use xlink:href="#DejaVuSans-33" x="202.001953"/>
     <use xlink:href="#DejaVuSans-62" x="265.625"/>
     <use xlink:href="#DejaVuSans-2e" x="329.101562"/>
     <use xlink:href="#DejaVuSans-63" x="360.888672"/>
     <use xlink:href="#DejaVuSans-68" x="415.869141"/>
     <use xlink:href="#DejaVuSans-72" x="479.248047"/>
     <use xlink:href="#DejaVuSans-38" x="520.361328"/>
    </g>
   </g>
  </g>
  <g id="axes_2"/>
  <g id="axes_3"/>
  <g id="axes_4">
   <g id="PolyCollection_1">
    <defs>
     <path id="mdd918c223a" d="M 687.013371 -135.135701 
L 687.013371 -170.568772 
L 687.014303 -170.568772 
L 687.014303 -170.568772 
L 687.015236 -170.568772 
L 687.015236 -170.568772 
L 687.016168 -170.568772 
L 687.016168 -170.568772 
L 687.0171 -170.568772 
L 687.0171 -170.568772 
L 687.018032 -170.568772 
L 687.018032 -170.568772 
L 687.018965 -170.568772 
L 687.018965 -170.568772 
L 687.019897 -170.568772 
L 687.019897 -170.568772 
L 687.020829 -170.568772 
L 687.020829 -170.568772 
L 687.021762 -170.568772 
L 687.021762 -170.568772 
L 687.022694 -170.568772 
L 687.022694 -170.568772 
L 687.023626 -170.568772 
L 687.023626 -170.568772 
L 687.024559 -170.568772 
L 687.024559 -170.568772 
L 687.025491 -170.568772 
L 687.025491 -170.568772 
L 687.026423 -170.568772 
L 687.026423 -170.568772 
L 687.027355 -170.568772 
L 687.027355 -170.568772 
L 687.028288 -170.568772 
L 687.028288 -170.568772 
L 687.02922 -170.568772 
L 687.02922 -170.568772 
L 687.030152 -170.568772 
L 687.030152 -170.568772 
L 687.031085 -170.568772 
L 687.031085 -170.568772 
L 687.032017 -170.568772 
L 687.032017 -170.568772 
L 687.032949 -170.568772 
L 687.032949 -170.568772 
L 687.033882 -170.568772 
L 687.033882 -170.568772 
L 687.034814 -170.568772 
L 687.034814 -170.568772 
L 687.035746 -170.568772 
L 687.035746 -170.568772 
L 687.036679 -170.568772 
L 687.036679 -170.568772 
L 687.037611 -170.568772 
L 687.037611 -170.568772 
L 687.038543 -170.568772 
L 687.038543 -170.568772 
L 687.039475 -170.568772 
L 687.039475 -170.568772 
L 687.040408 -170.568772 
L 687.040408 -170.568772 
L 687.04134 -170.568772 
L 687.04134 -170.568772 
L 687.042272 -170.568772 
L 687.042272 -135.135701 
L 687.042272 -135.135701 
L 687.04134 -135.135701 
L 687.04134 -135.135701 
L 687.040408 -135.135701 
L 687.040408 -135.135701 
L 687.039475 -135.135701 
L 687.039475 -135.135701 
L 687.038543 -135.135701 
L 687.038543 -135.135701 
L 687.037611 -135.135701 
L 687.037611 -135.135701 
L 687.036679 -135.135701 
L 687.036679 -135.135701 
L 687.035746 -135.135701 
L 687.035746 -135.135701 
L 687.034814 -135.135701 
L 687.034814 -135.135701 
L 687.033882 -135.135701 
L 687.033882 -135.135701 
L 687.032949 -135.135701 
L 687.032949 -135.135701 
L 687.032017 -135.135701 
L 687.032017 -135.135701 
L 687.031085 -135.135701 
L 687.031085 -135.135701 
L 687.030152 -135.135701 
L 687.030152 -135.135701 
L 687.02922 -135.135701 
L 687.02922 -135.135701 
L 687.028288 -135.135701 
L 687.028288 -135.135701 
L 687.027355 -135.135701 
L 687.027355 -135.135701 
L 687.026423 -135.135701 
L 687.026423 -135.135701 
L 687.025491 -135.135701 
L 687.025491 -135.135701 
L 687.024559 -135.135701 
L 687.024559 -135.135701 
L 687.023626 -135.135701 
L 687.023626 -135.135701 
L 687.022694 -135.135701 
L 687.022694 -135.135701 
L 687.021762 -135.135701 
L 687.021762 -135.135701 
L 687.020829 -135.135701 
L 687.020829 -135.135701 
L 687.019897 -135.135701 
L 687.019897 -135.135701 
L 687.018965 -135.135701 
L 687.018965 -135.135701 
L 687.018032 -135.135701 
L 687.018032 -135.135701 
L 687.0171 -135.135701 
L 687.0171 -135.135701 
L 687.016168 -135.135701 
L 687.016168 -135.135701 
L 687.015236 -135.135701 
L 687.015236 -135.135701 
L 687.014303 -135.135701 
L 687.014303 -135.135701 
L 687.013371 -135.135701 
z
" style="stroke: #1f77b4; stroke-width: 0.1"/>
    </defs>
    <g clip-path="url(#pd819344d0a)">
     <use xlink:href="#mdd918c223a" x="0" y="252.554867" style="fill: #1f77b4; stroke: #1f77b4; stroke-width: 0.1"/>
    </g>
   </g>
  </g>
  <g id="axes_5">
   <g id="line2d_1">
    <path d="M 45.354331 116.852237 
L 50.261199 116.852237 
L 50.261199 61.293181 
L 45.354331 61.293181 
" clip-path="url(#pe0f492d4a3)" style="fill: none; stroke: #000000; stroke-linecap: square"/>
   </g>
   <g id="text_8">
    <!-- 0 -->
    <g transform="translate(35.756583 115.49047)scale(0.12 -0.12)">
     <use xlink:href="#DejaVuSans-30"/>
    </g>
   </g>
   <g id="text_9">
    <!-- 1 -->
    <g transform="translate(35.756583 69.844377)scale(0.12 -0.12)">
     <defs>
      <path id="DejaVuSans-31" d="M 794 531 
L 1825 531 
L 1825 4091 
L 703 3866 
L 703 4441 
L 1819 4666 
L 2450 4666 
L 2450 531 
L 3481 531 
L 3481 0 
L 794 0 
L 794 531 
z
" transform="scale(0.015625)"/>
     </defs>
     <use xlink:href="#DejaVuSans-31"/>
    </g>
   </g>
  </g>
  <g id="axes_6">
   <g id="text_10">
    <!-- EH23b -->
    <g transform="translate(996.534359 93.046209)scale(0.144 -0.144)">
     <use xlink:href="#DejaVuSans-45"/>
     <use xlink:href="#DejaVuSans-48" x="63.183594"/>
     <use xlink:href="#DejaVuSans-32" x="138.378906"/>
     <use xlink:href="#DejaVuSans-33" x="202.001953"/>
     <use xlink:href="#DejaVuSans-62" x="265.625"/>
    </g>
   </g>
  </g>
  <g id="axes_7"/>
  <g id="axes_8"/>
  <g id="axes_9"/>
  <g id="axes_10">
   <g id="patch_3">
    <path d="M 59.02022 132.46796 
L 59.02022 143.412538 
L 59.577738 143.412538 
L 63.306958 137.940249 
L 59.577738 132.46796 
z
" clip-path="url(#pba1b2092f8)" style="fill: #1f78b4; stroke: #000000; stroke-width: 0.5; stroke-linejoin: miter"/>
   </g>
   <g id="patch_4">
    <path d="M 73.783269 157.640489 
L 73.783269 168.585067 
L 74.226114 168.585067 
L 77.955333 163.112778 
L 74.226114 157.640489 
z
" clip-path="url(#pba1b2092f8)" style="fill: #1f78b4; stroke: #000000; stroke-width: 0.5; stroke-linejoin: miter"/>
   </g>
   <g id="patch_5">
    <path d="M 74.3296 182.813018 
L 74.3296 193.757596 
L 75.124856 193.757596 
L 78.854075 188.285307 
L 75.124856 182.813018 
z
" clip-path="url(#pba1b2092f8)" style="fill: #1f78b4; stroke: #000000; stroke-width: 0.5; stroke-linejoin: miter"/>
   </g>
   <g id="patch_6">
    <path d="M 76.633325 207.985548 
L 76.633325 218.930125 
L 78.069075 218.930125 
L 81.798294 213.457837 
L 78.069075 207.985548 
z
" clip-path="url(#pba1b2092f8)" style="fill: #1f78b4; stroke: #000000; stroke-width: 0.5; stroke-linejoin: miter"/>
   </g>
   <g id="patch_7">
    <path d="M 334.330802 132.46796 
L 334.330802 143.412538 
L 335.032828 143.412538 
L 338.762047 137.940249 
L 335.032828 132.46796 
z
" clip-path="url(#pba1b2092f8)" style="fill: #1f78b4; stroke: #000000; stroke-width: 0.5; stroke-linejoin: miter"/>
   </g>
   <g id="patch_8">
    <path d="M 335.298534 157.640489 
L 331.569315 163.112778 
L 335.298534 168.585067 
L 337.99476 168.585067 
L 337.99476 157.640489 
z
" clip-path="url(#pba1b2092f8)" style="fill: #1f78b4; stroke: #000000; stroke-width: 0.5; stroke-linejoin: miter"/>
   </g>
   <g id="patch_9">
    <path d="M 441.685716 182.813018 
L 441.685716 193.757596 
L 441.943032 193.757596 
L 445.672252 188.285307 
L 441.943032 182.813018 
z
" clip-path="url(#pba1b2092f8)" style="fill: #1f78b4; stroke: #000000; stroke-width: 0.5; stroke-linejoin: miter"/>
   </g>
   <g id="patch_10">
    <path d="M 498.878895 207.985548 
L 498.878895 218.930125 
L 499.267666 218.930125 
L 502.996886 213.457837 
L 499.267666 207.985548 
z
" clip-path="url(#pba1b2092f8)" style="fill: #1f78b4; stroke: #000000; stroke-width: 0.5; stroke-linejoin: miter"/>
   </g>
   <g id="patch_11">
    <path d="M 647.634675 132.46796 
L 647.634675 143.412538 
L 650.076381 143.412538 
L 653.805601 137.940249 
L 650.076381 132.46796 
z
" clip-path="url(#pba1b2092f8)" style="fill: #1f78b4; stroke: #000000; stroke-width: 0.5; stroke-linejoin: miter"/>
   </g>
   <g id="patch_12">
    <path d="M 660.355976 157.640489 
L 660.355976 168.585067 
L 660.618886 168.585067 
L 664.348105 163.112778 
L 660.618886 157.640489 
z
" clip-path="url(#pba1b2092f8)" style="fill: #1f78b4; stroke: #000000; stroke-width: 0.5; stroke-linejoin: miter"/>
   </g>
   <g id="patch_13">
    <path d="M 674.289273 182.813018 
L 670.560053 188.285307 
L 674.289273 193.757596 
L 674.521417 193.757596 
L 674.521417 182.813018 
z
" clip-path="url(#pba1b2092f8)" style="fill: #1f78b4; stroke: #000000; stroke-width: 0.5; stroke-linejoin: miter"/>
   </g>
   <g id="text_11">
    <!-- EH23b.chr8.v1.g245700 -->
    <g transform="translate(63.306958 140.699624)scale(0.1 -0.1)">
     <defs>
      <path id="DejaVuSans-76" d="M 191 3500 
L 800 3500 
L 1894 563 
L 2988 3500 
L 3597 3500 
L 2284 0 
L 1503 0 
L 191 3500 
z
" transform="scale(0.015625)"/>
      <path id="DejaVuSans-67" d="M 2906 1791 
Q 2906 2416 2648 2759 
Q 2391 3103 1925 3103 
Q 1463 3103 1205 2759 
Q 947 2416 947 1791 
Q 947 1169 1205 825 
Q 1463 481 1925 481 
Q 2391 481 2648 825 
Q 2906 1169 2906 1791 
z
M 3481 434 
Q 3481 -459 3084 -895 
Q 2688 -1331 1869 -1331 
Q 1566 -1331 1297 -1286 
Q 1028 -1241 775 -1147 
L 775 -588 
Q 1028 -725 1275 -790 
Q 1522 -856 1778 -856 
Q 2344 -856 2625 -561 
Q 2906 -266 2906 331 
L 2906 616 
Q 2728 306 2450 153 
Q 2172 0 1784 0 
Q 1141 0 747 490 
Q 353 981 353 1791 
Q 353 2603 747 3093 
Q 1141 3584 1784 3584 
Q 2172 3584 2450 3431 
Q 2728 3278 2906 2969 
L 2906 3500 
L 3481 3500 
L 3481 434 
z
" transform="scale(0.015625)"/>
      <path id="DejaVuSans-37" d="M 525 4666 
L 3525 4666 
L 3525 4397 
L 1831 0 
L 1172 0 
L 2766 4134 
L 525 4134 
L 525 4666 
z
" transform="scale(0.015625)"/>
     </defs>
     <use xlink:href="#DejaVuSans-45"/>
     <use xlink:href="#DejaVuSans-48" x="63.183594"/>
     <use xlink:href="#DejaVuSans-32" x="138.378906"/>
     <use xlink:href="#DejaVuSans-33" x="202.001953"/>
     <use xlink:href="#DejaVuSans-62" x="265.625"/>
     <use xlink:href="#DejaVuSans-2e" x="329.101562"/>
     <use xlink:href="#DejaVuSans-63" x="360.888672"/>
     <use xlink:href="#DejaVuSans-68" x="415.869141"/>
     <use xlink:href="#DejaVuSans-72" x="479.248047"/>
     <use xlink:href="#DejaVuSans-38" x="520.361328"/>
     <use xlink:href="#DejaVuSans-2e" x="583.984375"/>
     <use xlink:href="#DejaVuSans-76" x="615.771484"/>
     <use xlink:href="#DejaVuSans-31" x="674.951172"/>
     <use xlink:href="#DejaVuSans-2e" x="738.574219"/>
     <use xlink:href="#DejaVuSans-67" x="770.361328"/>
     <use xlink:href="#DejaVuSans-32" x="833.837891"/>
     <use xlink:href="#DejaVuSans-34" x="897.460938"/>
     <use xlink:href="#DejaVuSans-35" x="961.083984"/>
     <use xlink:href="#DejaVuSans-37" x="1024.707031"/>
     <use xlink:href="#DejaVuSans-30" x="1088.330078"/>
     <use xlink:href="#DejaVuSans-30" x="1151.953125"/>
    </g>
   </g>
   <g id="text_12">
    <!-- EH23b.chr8.v1.g245710 -->
    <g transform="translate(77.955333 165.872153)scale(0.1 -0.1)">
     <use xlink:href="#DejaVuSans-45"/>
     <use xlink:href="#DejaVuSans-48" x="63.183594"/>
     <use xlink:href="#DejaVuSans-32" x="138.378906"/>
     <use xlink:href="#DejaVuSans-33" x="202.001953"/>
     <use xlink:href="#DejaVuSans-62" x="265.625"/>
     <use xlink:href="#DejaVuSans-2e" x="329.101562"/>
     <use xlink:href="#DejaVuSans-63" x="360.888672"/>
     <use xlink:href="#DejaVuSans-68" x="415.869141"/>
     <use xlink:href="#DejaVuSans-72" x="479.248047"/>
     <use xlink:href="#DejaVuSans-38" x="520.361328"/>
     <use xlink:href="#DejaVuSans-2e" x="583.984375"/>
     <use xlink:href="#DejaVuSans-76" x="615.771484"/>
     <use xlink:href="#DejaVuSans-31" x="674.951172"/>
     <use xlink:href="#DejaVuSans-2e" x="738.574219"/>
     <use xlink:href="#DejaVuSans-67" x="770.361328"/>
     <use xlink:href="#DejaVuSans-32" x="833.837891"/>
     <use xlink:href="#DejaVuSans-34" x="897.460938"/>
     <use xlink:href="#DejaVuSans-35" x="961.083984"/>
     <use xlink:href="#DejaVuSans-37" x="1024.707031"/>
     <use xlink:href="#DejaVuSans-31" x="1088.330078"/>
     <use xlink:href="#DejaVuSans-30" x="1151.953125"/>
    </g>
   </g>
   <g id="text_13">
    <!-- EH23b.chr8.v1.g245720 -->
    <g transform="translate(78.854075 191.044682)scale(0.1 -0.1)">
     <use xlink:href="#DejaVuSans-45"/>
     <use xlink:href="#DejaVuSans-48" x="63.183594"/>
     <use xlink:href="#DejaVuSans-32" x="138.378906"/>
     <use xlink:href="#DejaVuSans-33" x="202.001953"/>
     <use xlink:href="#DejaVuSans-62" x="265.625"/>
     <use xlink:href="#DejaVuSans-2e" x="329.101562"/>
     <use xlink:href="#DejaVuSans-63" x="360.888672"/>
     <use xlink:href="#DejaVuSans-68" x="415.869141"/>
     <use xlink:href="#DejaVuSans-72" x="479.248047"/>
     <use xlink:href="#DejaVuSans-38" x="520.361328"/>
     <use xlink:href="#DejaVuSans-2e" x="583.984375"/>
     <use xlink:href="#DejaVuSans-76" x="615.771484"/>
     <use xlink:href="#DejaVuSans-31" x="674.951172"/>
     <use xlink:href="#DejaVuSans-2e" x="738.574219"/>
     <use xlink:href="#DejaVuSans-67" x="770.361328"/>
     <use xlink:href="#DejaVuSans-32" x="833.837891"/>
     <use xlink:href="#DejaVuSans-34" x="897.460938"/>
     <use xlink:href="#DejaVuSans-35" x="961.083984"/>
     <use xlink:href="#DejaVuSans-37" x="1024.707031"/>
     <use xlink:href="#DejaVuSans-32" x="1088.330078"/>
     <use xlink:href="#DejaVuSans-30" x="1151.953125"/>
    </g>
   </g>
   <g id="text_14">
    <!-- EH23b.chr8.v1.g245730 -->
    <g transform="translate(81.798294 216.217212)scale(0.1 -0.1)">
     <use xlink:href="#DejaVuSans-45"/>
     <use xlink:href="#DejaVuSans-48" x="63.183594"/>
     <use xlink:href="#DejaVuSans-32" x="138.378906"/>
     <use xlink:href="#DejaVuSans-33" x="202.001953"/>
     <use xlink:href="#DejaVuSans-62" x="265.625"/>
     <use xlink:href="#DejaVuSans-2e" x="329.101562"/>
     <use xlink:href="#DejaVuSans-63" x="360.888672"/>
     <use xlink:href="#DejaVuSans-68" x="415.869141"/>
     <use xlink:href="#DejaVuSans-72" x="479.248047"/>
     <use xlink:href="#DejaVuSans-38" x="520.361328"/>
     <use xlink:href="#DejaVuSans-2e" x="583.984375"/>
     <use xlink:href="#DejaVuSans-76" x="615.771484"/>
     <use xlink:href="#DejaVuSans-31" x="674.951172"/>
     <use xlink:href="#DejaVuSans-2e" x="738.574219"/>
     <use xlink:href="#DejaVuSans-67" x="770.361328"/>
     <use xlink:href="#DejaVuSans-32" x="833.837891"/>
     <use xlink:href="#DejaVuSans-34" x="897.460938"/>
     <use xlink:href="#DejaVuSans-35" x="961.083984"/>
     <use xlink:href="#DejaVuSans-37" x="1024.707031"/>
     <use xlink:href="#DejaVuSans-33" x="1088.330078"/>
     <use xlink:href="#DejaVuSans-30" x="1151.953125"/>
    </g>
   </g>
   <g id="text_15">
    <!-- EH23b.chr8.v1.g245760 -->
    <g transform="translate(338.762047 140.699624)scale(0.1 -0.1)">
     <use xlink:href="#DejaVuSans-45"/>
     <use xlink:href="#DejaVuSans-48" x="63.183594"/>
     <use xlink:href="#DejaVuSans-32" x="138.378906"/>
     <use xlink:href="#DejaVuSans-33" x="202.001953"/>
     <use xlink:href="#DejaVuSans-62" x="265.625"/>
     <use xlink:href="#DejaVuSans-2e" x="329.101562"/>
     <use xlink:href="#DejaVuSans-63" x="360.888672"/>
     <use xlink:href="#DejaVuSans-68" x="415.869141"/>
     <use xlink:href="#DejaVuSans-72" x="479.248047"/>
     <use xlink:href="#DejaVuSans-38" x="520.361328"/>
     <use xlink:href="#DejaVuSans-2e" x="583.984375"/>
     <use xlink:href="#DejaVuSans-76" x="615.771484"/>
     <use xlink:href="#DejaVuSans-31" x="674.951172"/>
     <use xlink:href="#DejaVuSans-2e" x="738.574219"/>
     <use xlink:href="#DejaVuSans-67" x="770.361328"/>
     <use xlink:href="#DejaVuSans-32" x="833.837891"/>
     <use xlink:href="#DejaVuSans-34" x="897.460938"/>
     <use xlink:href="#DejaVuSans-35" x="961.083984"/>
     <use xlink:href="#DejaVuSans-37" x="1024.707031"/>
     <use xlink:href="#DejaVuSans-36" x="1088.330078"/>
     <use xlink:href="#DejaVuSans-30" x="1151.953125"/>
    </g>
   </g>
   <g id="text_16">
    <!-- EH23b.chr8.v1.g245770 -->
    <g transform="translate(341.72398 165.872153)scale(0.1 -0.1)">
     <use xlink:href="#DejaVuSans-45"/>
     <use xlink:href="#DejaVuSans-48" x="63.183594"/>
     <use xlink:href="#DejaVuSans-32" x="138.378906"/>
     <use xlink:href="#DejaVuSans-33" x="202.001953"/>
     <use xlink:href="#DejaVuSans-62" x="265.625"/>
     <use xlink:href="#DejaVuSans-2e" x="329.101562"/>
     <use xlink:href="#DejaVuSans-63" x="360.888672"/>
     <use xlink:href="#DejaVuSans-68" x="415.869141"/>
     <use xlink:href="#DejaVuSans-72" x="479.248047"/>
     <use xlink:href="#DejaVuSans-38" x="520.361328"/>
     <use xlink:href="#DejaVuSans-2e" x="583.984375"/>
     <use xlink:href="#DejaVuSans-76" x="615.771484"/>
     <use xlink:href="#DejaVuSans-31" x="674.951172"/>
     <use xlink:href="#DejaVuSans-2e" x="738.574219"/>
     <use xlink:href="#DejaVuSans-67" x="770.361328"/>
     <use xlink:href="#DejaVuSans-32" x="833.837891"/>
     <use xlink:href="#DejaVuSans-34" x="897.460938"/>
     <use xlink:href="#DejaVuSans-35" x="961.083984"/>
     <use xlink:href="#DejaVuSans-37" x="1024.707031"/>
     <use xlink:href="#DejaVuSans-37" x="1088.330078"/>
     <use xlink:href="#DejaVuSans-30" x="1151.953125"/>
    </g>
   </g>
   <g id="text_17">
    <!-- EH23b.chr8.v1.g245820 -->
    <g transform="translate(445.672252 191.044682)scale(0.1 -0.1)">
     <use xlink:href="#DejaVuSans-45"/>
     <use xlink:href="#DejaVuSans-48" x="63.183594"/>
     <use xlink:href="#DejaVuSans-32" x="138.378906"/>
     <use xlink:href="#DejaVuSans-33" x="202.001953"/>
     <use xlink:href="#DejaVuSans-62" x="265.625"/>
     <use xlink:href="#DejaVuSans-2e" x="329.101562"/>
     <use xlink:href="#DejaVuSans-63" x="360.888672"/>
     <use xlink:href="#DejaVuSans-68" x="415.869141"/>
     <use xlink:href="#DejaVuSans-72" x="479.248047"/>
     <use xlink:href="#DejaVuSans-38" x="520.361328"/>
     <use xlink:href="#DejaVuSans-2e" x="583.984375"/>
     <use xlink:href="#DejaVuSans-76" x="615.771484"/>
     <use xlink:href="#DejaVuSans-31" x="674.951172"/>
     <use xlink:href="#DejaVuSans-2e" x="738.574219"/>
     <use xlink:href="#DejaVuSans-67" x="770.361328"/>
     <use xlink:href="#DejaVuSans-32" x="833.837891"/>
     <use xlink:href="#DejaVuSans-34" x="897.460938"/>
     <use xlink:href="#DejaVuSans-35" x="961.083984"/>
     <use xlink:href="#DejaVuSans-38" x="1024.707031"/>
     <use xlink:href="#DejaVuSans-32" x="1088.330078"/>
     <use xlink:href="#DejaVuSans-30" x="1151.953125"/>
    </g>
   </g>
   <g id="text_18">
    <!-- EH23b.chr8.v1.g245880 -->
    <g transform="translate(502.996886 216.217212)scale(0.1 -0.1)">
     <use xlink:href="#DejaVuSans-45"/>
     <use xlink:href="#DejaVuSans-48" x="63.183594"/>
     <use xlink:href="#DejaVuSans-32" x="138.378906"/>
     <use xlink:href="#DejaVuSans-33" x="202.001953"/>
     <use xlink:href="#DejaVuSans-62" x="265.625"/>
     <use xlink:href="#DejaVuSans-2e" x="329.101562"/>
     <use xlink:href="#DejaVuSans-63" x="360.888672"/>
     <use xlink:href="#DejaVuSans-68" x="415.869141"/>
     <use xlink:href="#DejaVuSans-72" x="479.248047"/>
     <use xlink:href="#DejaVuSans-38" x="520.361328"/>
     <use xlink:href="#DejaVuSans-2e" x="583.984375"/>
     <use xlink:href="#DejaVuSans-76" x="615.771484"/>
     <use xlink:href="#DejaVuSans-31" x="674.951172"/>
     <use xlink:href="#DejaVuSans-2e" x="738.574219"/>
     <use xlink:href="#DejaVuSans-67" x="770.361328"/>
     <use xlink:href="#DejaVuSans-32" x="833.837891"/>
     <use xlink:href="#DejaVuSans-34" x="897.460938"/>
     <use xlink:href="#DejaVuSans-35" x="961.083984"/>
     <use xlink:href="#DejaVuSans-38" x="1024.707031"/>
     <use xlink:href="#DejaVuSans-38" x="1088.330078"/>
     <use xlink:href="#DejaVuSans-30" x="1151.953125"/>
    </g>
   </g>
   <g id="text_19">
    <!-- EH23b.chr8.v1.g245960 -->
    <g transform="translate(653.805601 140.699624)scale(0.1 -0.1)">
     <defs>
      <path id="DejaVuSans-39" d="M 703 97 
L 703 672 
Q 941 559 1184 500 
Q 1428 441 1663 441 
Q 2288 441 2617 861 
Q 2947 1281 2994 2138 
Q 2813 1869 2534 1725 
Q 2256 1581 1919 1581 
Q 1219 1581 811 2004 
Q 403 2428 403 3163 
Q 403 3881 828 4315 
Q 1253 4750 1959 4750 
Q 2769 4750 3195 4129 
Q 3622 3509 3622 2328 
Q 3622 1225 3098 567 
Q 2575 -91 1691 -91 
Q 1453 -91 1209 -44 
Q 966 3 703 97 
z
M 1959 2075 
Q 2384 2075 2632 2365 
Q 2881 2656 2881 3163 
Q 2881 3666 2632 3958 
Q 2384 4250 1959 4250 
Q 1534 4250 1286 3958 
Q 1038 3666 1038 3163 
Q 1038 2656 1286 2365 
Q 1534 2075 1959 2075 
z
" transform="scale(0.015625)"/>
     </defs>
     <use xlink:href="#DejaVuSans-45"/>
     <use xlink:href="#DejaVuSans-48" x="63.183594"/>
     <use xlink:href="#DejaVuSans-32" x="138.378906"/>
     <use xlink:href="#DejaVuSans-33" x="202.001953"/>
     <use xlink:href="#DejaVuSans-62" x="265.625"/>
     <use xlink:href="#DejaVuSans-2e" x="329.101562"/>
     <use xlink:href="#DejaVuSans-63" x="360.888672"/>
     <use xlink:href="#DejaVuSans-68" x="415.869141"/>
     <use xlink:href="#DejaVuSans-72" x="479.248047"/>
     <use xlink:href="#DejaVuSans-38" x="520.361328"/>
     <use xlink:href="#DejaVuSans-2e" x="583.984375"/>
     <use xlink:href="#DejaVuSans-76" x="615.771484"/>
     <use xlink:href="#DejaVuSans-31" x="674.951172"/>
     <use xlink:href="#DejaVuSans-2e" x="738.574219"/>
     <use xlink:href="#DejaVuSans-67" x="770.361328"/>
     <use xlink:href="#DejaVuSans-32" x="833.837891"/>
     <use xlink:href="#DejaVuSans-34" x="897.460938"/>
     <use xlink:href="#DejaVuSans-35" x="961.083984"/>
     <use xlink:href="#DejaVuSans-39" x="1024.707031"/>
     <use xlink:href="#DejaVuSans-36" x="1088.330078"/>
     <use xlink:href="#DejaVuSans-30" x="1151.953125"/>
    </g>
   </g>
   <g id="text_20">
    <!-- EH23b.chr8.v1.g246010 -->
    <g transform="translate(664.348105 165.872153)scale(0.1 -0.1)">
     <use xlink:href="#DejaVuSans-45"/>
     <use xlink:href="#DejaVuSans-48" x="63.183594"/>
     <use xlink:href="#DejaVuSans-32" x="138.378906"/>
     <use xlink:href="#DejaVuSans-33" x="202.001953"/>
     <use xlink:href="#DejaVuSans-62" x="265.625"/>
     <use xlink:href="#DejaVuSans-2e" x="329.101562"/>
     <use xlink:href="#DejaVuSans-63" x="360.888672"/>
     <use xlink:href="#DejaVuSans-68" x="415.869141"/>
     <use xlink:href="#DejaVuSans-72" x="479.248047"/>
     <use xlink:href="#DejaVuSans-38" x="520.361328"/>
     <use xlink:href="#DejaVuSans-2e" x="583.984375"/>
     <use xlink:href="#DejaVuSans-76" x="615.771484"/>
     <use xlink:href="#DejaVuSans-31" x="674.951172"/>
     <use xlink:href="#DejaVuSans-2e" x="738.574219"/>
     <use xlink:href="#DejaVuSans-67" x="770.361328"/>
     <use xlink:href="#DejaVuSans-32" x="833.837891"/>
     <use xlink:href="#DejaVuSans-34" x="897.460938"/>
     <use xlink:href="#DejaVuSans-36" x="961.083984"/>
     <use xlink:href="#DejaVuSans-30" x="1024.707031"/>
     <use xlink:href="#DejaVuSans-31" x="1088.330078"/>
     <use xlink:href="#DejaVuSans-30" x="1151.953125"/>
    </g>
   </g>
   <g id="text_21">
    <!-- EH23b.chr8.v1.g246020 -->
    <g transform="translate(678.250637 191.044682)scale(0.1 -0.1)">
     <use xlink:href="#DejaVuSans-45"/>
     <use xlink:href="#DejaVuSans-48" x="63.183594"/>
     <use xlink:href="#DejaVuSans-32" x="138.378906"/>
     <use xlink:href="#DejaVuSans-33" x="202.001953"/>
     <use xlink:href="#DejaVuSans-62" x="265.625"/>
     <use xlink:href="#DejaVuSans-2e" x="329.101562"/>
     <use xlink:href="#DejaVuSans-63" x="360.888672"/>
     <use xlink:href="#DejaVuSans-68" x="415.869141"/>
     <use xlink:href="#DejaVuSans-72" x="479.248047"/>
     <use xlink:href="#DejaVuSans-38" x="520.361328"/>
     <use xlink:href="#DejaVuSans-2e" x="583.984375"/>
     <use xlink:href="#DejaVuSans-76" x="615.771484"/>
     <use xlink:href="#DejaVuSans-31" x="674.951172"/>
     <use xlink:href="#DejaVuSans-2e" x="738.574219"/>
     <use xlink:href="#DejaVuSans-67" x="770.361328"/>
     <use xlink:href="#DejaVuSans-32" x="833.837891"/>
     <use xlink:href="#DejaVuSans-34" x="897.460938"/>
     <use xlink:href="#DejaVuSans-36" x="961.083984"/>
     <use xlink:href="#DejaVuSans-30" x="1024.707031"/>
     <use xlink:href="#DejaVuSans-32" x="1088.330078"/>
     <use xlink:href="#DejaVuSans-30" x="1151.953125"/>
    </g>
   </g>
  </g>
  <g id="axes_11"/>
  <g id="axes_12">
   <g id="text_22">
    <!-- genes -->
    <g transform="translate(996.534359 142.534144)scale(0.144 -0.144)">
     <defs>
      <path id="DejaVuSans-65" d="M 3597 1894 
L 3597 1613 
L 953 1613 
Q 991 1019 1311 708 
Q 1631 397 2203 397 
Q 2534 397 2845 478 
Q 3156 559 3463 722 
L 3463 178 
Q 3153 47 2828 -22 
Q 2503 -91 2169 -91 
Q 1331 -91 842 396 
Q 353 884 353 1716 
Q 353 2575 817 3079 
Q 1281 3584 2069 3584 
Q 2775 3584 3186 3129 
Q 3597 2675 3597 1894 
z
M 3022 2063 
Q 3016 2534 2758 2815 
Q 2500 3097 2075 3097 
Q 1594 3097 1305 2825 
Q 1016 2553 972 2059 
L 3022 2063 
z
" transform="scale(0.015625)"/>
      <path id="DejaVuSans-6e" d="M 3513 2113 
L 3513 0 
L 2938 0 
L 2938 2094 
Q 2938 2591 2744 2837 
Q 2550 3084 2163 3084 
Q 1697 3084 1428 2787 
Q 1159 2491 1159 1978 
L 1159 0 
L 581 0 
L 581 3500 
L 1159 3500 
L 1159 2956 
Q 1366 3272 1645 3428 
Q 1925 3584 2291 3584 
Q 2894 3584 3203 3211 
Q 3513 2838 3513 2113 
z
" transform="scale(0.015625)"/>
      <path id="DejaVuSans-73" d="M 2834 3397 
L 2834 2853 
Q 2591 2978 2328 3040 
Q 2066 3103 1784 3103 
Q 1356 3103 1142 2972 
Q 928 2841 928 2578 
Q 928 2378 1081 2264 
Q 1234 2150 1697 2047 
L 1894 2003 
Q 2506 1872 2764 1633 
Q 3022 1394 3022 966 
Q 3022 478 2636 193 
Q 2250 -91 1575 -91 
Q 1294 -91 989 -36 
Q 684 19 347 128 
L 347 722 
Q 666 556 975 473 
Q 1284 391 1588 391 
Q 1994 391 2212 530 
Q 2431 669 2431 922 
Q 2431 1156 2273 1281 
Q 2116 1406 1581 1522 
L 1381 1569 
Q 847 1681 609 1914 
Q 372 2147 372 2553 
Q 372 3047 722 3315 
Q 1072 3584 1716 3584 
Q 2034 3584 2315 3537 
Q 2597 3491 2834 3397 
z
" transform="scale(0.015625)"/>
     </defs>
     <use xlink:href="#DejaVuSans-67"/>
     <use xlink:href="#DejaVuSans-65" x="63.476562"/>
     <use xlink:href="#DejaVuSans-6e" x="125"/>
     <use xlink:href="#DejaVuSans-65" x="188.378906"/>
     <use xlink:href="#DejaVuSans-73" x="249.902344"/>
    </g>
   </g>
  </g>
 </g>
 <defs>
  <clipPath id="p28e0a90451">
   <rect x="58.472025" y="7.576646" width="932.304942" height="53.149606"/>
  </clipPath>
  <clipPath id="pd819344d0a">
   <rect x="58.472025" y="60.726252" width="932.304942" height="56.692913"/>
  </clipPath>
  <clipPath id="pe0f492d4a3">
   <rect x="45.354331" y="60.726252" width="9.813736" height="56.692913"/>
  </clipPath>
  <clipPath id="pba1b2092f8">
   <rect x="58.472025" y="131.592394" width="932.304942" height="113.385827"/>
  </clipPath>
 </defs>
</svg>
