<?xml version="1.0" encoding="utf-8" standalone="no"?>
<!DOCTYPE svg PUBLIC "-//W3C//DTD SVG 1.1//EN"
  "http://www.w3.org/Graphics/SVG/1.1/DTD/svg11.dtd">
<svg xmlns:xlink="http://www.w3.org/1999/xlink" width="1133.858268pt" height="252.554867pt" viewBox="0 0 1133.858268 252.554867" xmlns="http://www.w3.org/2000/svg" version="1.1">
 <metadata>
  <rdf:RDF xmlns:dc="http://purl.org/dc/elements/1.1/" xmlns:cc="http://creativecommons.org/ns#" xmlns:rdf="http://www.w3.org/1999/02/22-rdf-syntax-ns#">
   <cc:Work>
    <dc:type rdf:resource="http://purl.org/dc/dcmitype/StillImage"/>
    <dc:date>2023-06-19T17:17:26.433097</dc:date>
    <dc:format>image/svg+xml</dc:format>
    <dc:creator>
     <cc:Agent>
      <dc:title>Matplotlib v3.5.3, https://matplotlib.org/</dc:title>
     </cc:Agent>
    </dc:creator>
   </cc:Work>
  </rdf:RDF>
 </metadata>
 <defs>
  <style type="text/css">*{stroke-linejoin: round; stroke-linecap: butt}</style>
 </defs>
 <g id="figure_1">
  <g id="patch_1">
   <path d="M 0 252.554867 
L 1133.858268 252.554867 
L 1133.858268 0 
L 0 0 
z
" style="fill: #ffffff"/>
  </g>
  <g id="axes_1">
   <g id="mpl_toolkits.axisartist.axis_artist_1">
    <defs>
     <path id="m2228100cad" d="M 0 0 
L -0 3.5 
" style="stroke: #000000; stroke-width: 0.8"/>
    </defs>
    <g>
     <use xlink:href="#m2228100cad" x="58.472025" y="50.096331" style="fill: none; stroke: #000000; stroke-width: 0.8"/>
    </g>
    <g>
     <use xlink:href="#m2228100cad" x="175.010143" y="50.096331" style="fill: none; stroke: #000000; stroke-width: 0.8"/>
    </g>
    <g>
     <use xlink:href="#m2228100cad" x="291.54826" y="50.096331" style="fill: none; stroke: #000000; stroke-width: 0.8"/>
    </g>
    <g>
     <use xlink:href="#m2228100cad" x="408.086378" y="50.096331" style="fill: none; stroke: #000000; stroke-width: 0.8"/>
    </g>
    <g>
     <use xlink:href="#m2228100cad" x="524.624496" y="50.096331" style="fill: none; stroke: #000000; stroke-width: 0.8"/>
    </g>
    <g>
     <use xlink:href="#m2228100cad" x="641.162614" y="50.096331" style="fill: none; stroke: #000000; stroke-width: 0.8"/>
    </g>
    <g>
     <use xlink:href="#m2228100cad" x="757.700732" y="50.096331" style="fill: none; stroke: #000000; stroke-width: 0.8"/>
    </g>
    <g>
     <use xlink:href="#m2228100cad" x="874.238849" y="50.096331" style="fill: none; stroke: #000000; stroke-width: 0.8"/>
    </g>
    <g>
     <use xlink:href="#m2228100cad" x="990.776967" y="50.096331" style="fill: none; stroke: #000000; stroke-width: 0.8"/>
    </g>
    <g id="text_1">
     <!-- 4,400 -->
     <g transform="translate(37.000931 44.852581)scale(0.15 -0.15)">
      <defs>
       <path id="DejaVuSans-34" d="M 2419 4116 
L 825 1625 
L 2419 1625 
L 2419 4116 
z
M 2253 4666 
L 3047 4666 
L 3047 1625 
L 3713 1625 
L 3713 1100 
L 3047 1100 
L 3047 0 
L 2419 0 
L 2419 1100 
L 313 1100 
L 313 1709 
L 2253 4666 
z
" transform="scale(0.015625)"/>
       <path id="DejaVuSans-2c" d="M 750 794 
L 1409 794 
L 1409 256 
L 897 -744 
L 494 -744 
L 750 256 
L 750 794 
z
" transform="scale(0.015625)"/>
       <path id="DejaVuSans-30" d="M 2034 4250 
Q 1547 4250 1301 3770 
Q 1056 3291 1056 2328 
Q 1056 1369 1301 889 
Q 1547 409 2034 409 
Q 2525 409 2770 889 
Q 3016 1369 3016 2328 
Q 3016 3291 2770 3770 
Q 2525 4250 2034 4250 
z
M 2034 4750 
Q 2819 4750 3233 4129 
Q 3647 3509 3647 2328 
Q 3647 1150 3233 529 
Q 2819 -91 2034 -91 
Q 1250 -91 836 529 
Q 422 1150 422 2328 
Q 422 3509 836 4129 
Q 1250 4750 2034 4750 
z
" transform="scale(0.015625)"/>
      </defs>
      <use xlink:href="#DejaVuSans-34"/>
      <use xlink:href="#DejaVuSans-2c" x="63.623047"/>
      <use xlink:href="#DejaVuSans-34" x="95.410156"/>
      <use xlink:href="#DejaVuSans-30" x="159.033203"/>
      <use xlink:href="#DejaVuSans-30" x="222.65625"/>
     </g>
    </g>
    <g id="text_2">
     <!-- 4,425 -->
     <g transform="translate(153.539049 44.852581)scale(0.15 -0.15)">
      <defs>
       <path id="DejaVuSans-32" d="M 1228 531 
L 3431 531 
L 3431 0 
L 469 0 
L 469 531 
Q 828 903 1448 1529 
Q 2069 2156 2228 2338 
Q 2531 2678 2651 2914 
Q 2772 3150 2772 3378 
Q 2772 3750 2511 3984 
Q 2250 4219 1831 4219 
Q 1534 4219 1204 4116 
Q 875 4013 500 3803 
L 500 4441 
Q 881 4594 1212 4672 
Q 1544 4750 1819 4750 
Q 2544 4750 2975 4387 
Q 3406 4025 3406 3419 
Q 3406 3131 3298 2873 
Q 3191 2616 2906 2266 
Q 2828 2175 2409 1742 
Q 1991 1309 1228 531 
z
" transform="scale(0.015625)"/>
       <path id="DejaVuSans-35" d="M 691 4666 
L 3169 4666 
L 3169 4134 
L 1269 4134 
L 1269 2991 
Q 1406 3038 1543 3061 
Q 1681 3084 1819 3084 
Q 2600 3084 3056 2656 
Q 3513 2228 3513 1497 
Q 3513 744 3044 326 
Q 2575 -91 1722 -91 
Q 1428 -91 1123 -41 
Q 819 9 494 109 
L 494 744 
Q 775 591 1075 516 
Q 1375 441 1709 441 
Q 2250 441 2565 725 
Q 2881 1009 2881 1497 
Q 2881 1984 2565 2268 
Q 2250 2553 1709 2553 
Q 1456 2553 1204 2497 
Q 953 2441 691 2322 
L 691 4666 
z
" transform="scale(0.015625)"/>
      </defs>
      <use xlink:href="#DejaVuSans-34"/>
      <use xlink:href="#DejaVuSans-2c" x="63.623047"/>
      <use xlink:href="#DejaVuSans-34" x="95.410156"/>
      <use xlink:href="#DejaVuSans-32" x="159.033203"/>
      <use xlink:href="#DejaVuSans-35" x="222.65625"/>
     </g>
    </g>
    <g id="text_3">
     <!-- 4,450 -->
     <g transform="translate(270.077167 44.852581)scale(0.15 -0.15)">
      <use xlink:href="#DejaVuSans-34"/>
      <use xlink:href="#DejaVuSans-2c" x="63.623047"/>
      <use xlink:href="#DejaVuSans-34" x="95.410156"/>
      <use xlink:href="#DejaVuSans-35" x="159.033203"/>
      <use xlink:href="#DejaVuSans-30" x="222.65625"/>
     </g>
    </g>
    <g id="text_4">
     <!-- 4,475 -->
     <g transform="translate(386.615284 44.852581)scale(0.15 -0.15)">
      <defs>
       <path id="DejaVuSans-37" d="M 525 4666 
L 3525 4666 
L 3525 4397 
L 1831 0 
L 1172 0 
L 2766 4134 
L 525 4134 
L 525 4666 
z
" transform="scale(0.015625)"/>
      </defs>
      <use xlink:href="#DejaVuSans-34"/>
      <use xlink:href="#DejaVuSans-2c" x="63.623047"/>
      <use xlink:href="#DejaVuSans-34" x="95.410156"/>
      <use xlink:href="#DejaVuSans-37" x="159.033203"/>
      <use xlink:href="#DejaVuSans-35" x="222.65625"/>
     </g>
    </g>
    <g id="text_5">
     <!-- 4,500 -->
     <g transform="translate(503.153402 44.852581)scale(0.15 -0.15)">
      <use xlink:href="#DejaVuSans-34"/>
      <use xlink:href="#DejaVuSans-2c" x="63.623047"/>
      <use xlink:href="#DejaVuSans-35" x="95.410156"/>
      <use xlink:href="#DejaVuSans-30" x="159.033203"/>
      <use xlink:href="#DejaVuSans-30" x="222.65625"/>
     </g>
    </g>
    <g id="text_6">
     <!-- 4,525 -->
     <g transform="translate(619.69152 44.852581)scale(0.15 -0.15)">
      <use xlink:href="#DejaVuSans-34"/>
      <use xlink:href="#DejaVuSans-2c" x="63.623047"/>
      <use xlink:href="#DejaVuSans-35" x="95.410156"/>
      <use xlink:href="#DejaVuSans-32" x="159.033203"/>
      <use xlink:href="#DejaVuSans-35" x="222.65625"/>
     </g>
    </g>
    <g id="text_7">
     <!-- 4,550 -->
     <g transform="translate(736.229638 44.852581)scale(0.15 -0.15)">
      <use xlink:href="#DejaVuSans-34"/>
      <use xlink:href="#DejaVuSans-2c" x="63.623047"/>
      <use xlink:href="#DejaVuSans-35" x="95.410156"/>
      <use xlink:href="#DejaVuSans-35" x="159.033203"/>
      <use xlink:href="#DejaVuSans-30" x="222.65625"/>
     </g>
    </g>
    <g id="text_8">
     <!-- 4,575 Kb -->
     <g transform="translate(840.704474 44.852581)scale(0.15 -0.15)">
      <defs>
       <path id="DejaVuSans-20" transform="scale(0.015625)"/>
       <path id="DejaVuSans-4b" d="M 628 4666 
L 1259 4666 
L 1259 2694 
L 3353 4666 
L 4166 4666 
L 1850 2491 
L 4331 0 
L 3500 0 
L 1259 2247 
L 1259 0 
L 628 0 
L 628 4666 
z
" transform="scale(0.015625)"/>
       <path id="DejaVuSans-62" d="M 3116 1747 
Q 3116 2381 2855 2742 
Q 2594 3103 2138 3103 
Q 1681 3103 1420 2742 
Q 1159 2381 1159 1747 
Q 1159 1113 1420 752 
Q 1681 391 2138 391 
Q 2594 391 2855 752 
Q 3116 1113 3116 1747 
z
M 1159 2969 
Q 1341 3281 1617 3432 
Q 1894 3584 2278 3584 
Q 2916 3584 3314 3078 
Q 3713 2572 3713 1747 
Q 3713 922 3314 415 
Q 2916 -91 2278 -91 
Q 1894 -91 1617 61 
Q 1341 213 1159 525 
L 1159 0 
L 581 0 
L 581 4863 
L 1159 4863 
L 1159 2969 
z
" transform="scale(0.015625)"/>
      </defs>
      <use xlink:href="#DejaVuSans-34"/>
      <use xlink:href="#DejaVuSans-2c" x="63.623047"/>
      <use xlink:href="#DejaVuSans-35" x="95.410156"/>
      <use xlink:href="#DejaVuSans-37" x="159.033203"/>
      <use xlink:href="#DejaVuSans-35" x="222.65625"/>
      <use xlink:href="#DejaVuSans-20" x="286.279297"/>
      <use xlink:href="#DejaVuSans-4b" x="318.066406"/>
      <use xlink:href="#DejaVuSans-62" x="383.642578"/>
     </g>
    </g>
    <g id="text_9">
     <!-- 4,600 -->
     <g transform="translate(969.305874 44.852581)scale(0.15 -0.15)">
      <defs>
       <path id="DejaVuSans-36" d="M 2113 2584 
Q 1688 2584 1439 2293 
Q 1191 2003 1191 1497 
Q 1191 994 1439 701 
Q 1688 409 2113 409 
Q 2538 409 2786 701 
Q 3034 994 3034 1497 
Q 3034 2003 2786 2293 
Q 2538 2584 2113 2584 
z
M 3366 4563 
L 3366 3988 
Q 3128 4100 2886 4159 
Q 2644 4219 2406 4219 
Q 1781 4219 1451 3797 
Q 1122 3375 1075 2522 
Q 1259 2794 1537 2939 
Q 1816 3084 2150 3084 
Q 2853 3084 3261 2657 
Q 3669 2231 3669 1497 
Q 3669 778 3244 343 
Q 2819 -91 2113 -91 
Q 1303 -91 875 529 
Q 447 1150 447 2328 
Q 447 3434 972 4092 
Q 1497 4750 2381 4750 
Q 2619 4750 2861 4703 
Q 3103 4656 3366 4563 
z
" transform="scale(0.015625)"/>
      </defs>
      <use xlink:href="#DejaVuSans-34"/>
      <use xlink:href="#DejaVuSans-2c" x="63.623047"/>
      <use xlink:href="#DejaVuSans-36" x="95.410156"/>
      <use xlink:href="#DejaVuSans-30" x="159.033203"/>
      <use xlink:href="#DejaVuSans-30" x="222.65625"/>
     </g>
    </g>
    <g id="patch_2">
     <path d="M 58.472025 50.096331 
L 990.776967 50.096331 
" clip-path="url(#p69b31fcc4c)" style="fill: none; stroke: #000000; stroke-width: 0.8; stroke-linecap: square"/>
    </g>
   </g>
   <g id="text_10">
    <!-- EH23b.chr7 -->
    <g transform="translate(480.824496 19.505798)scale(0.15 -0.15)">
     <defs>
      <path id="DejaVuSans-45" d="M 628 4666 
L 3578 4666 
L 3578 4134 
L 1259 4134 
L 1259 2753 
L 3481 2753 
L 3481 2222 
L 1259 2222 
L 1259 531 
L 3634 531 
L 3634 0 
L 628 0 
L 628 4666 
z
" transform="scale(0.015625)"/>
      <path id="DejaVuSans-48" d="M 628 4666 
L 1259 4666 
L 1259 2753 
L 3553 2753 
L 3553 4666 
L 4184 4666 
L 4184 0 
L 3553 0 
L 3553 2222 
L 1259 2222 
L 1259 0 
L 628 0 
L 628 4666 
z
" transform="scale(0.015625)"/>
      <path id="DejaVuSans-33" d="M 2597 2516 
Q 3050 2419 3304 2112 
Q 3559 1806 3559 1356 
Q 3559 666 3084 287 
Q 2609 -91 1734 -91 
Q 1441 -91 1130 -33 
Q 819 25 488 141 
L 488 750 
Q 750 597 1062 519 
Q 1375 441 1716 441 
Q 2309 441 2620 675 
Q 2931 909 2931 1356 
Q 2931 1769 2642 2001 
Q 2353 2234 1838 2234 
L 1294 2234 
L 1294 2753 
L 1863 2753 
Q 2328 2753 2575 2939 
Q 2822 3125 2822 3475 
Q 2822 3834 2567 4026 
Q 2313 4219 1838 4219 
Q 1578 4219 1281 4162 
Q 984 4106 628 3988 
L 628 4550 
Q 988 4650 1302 4700 
Q 1616 4750 1894 4750 
Q 2613 4750 3031 4423 
Q 3450 4097 3450 3541 
Q 3450 3153 3228 2886 
Q 3006 2619 2597 2516 
z
" transform="scale(0.015625)"/>
      <path id="DejaVuSans-2e" d="M 684 794 
L 1344 794 
L 1344 0 
L 684 0 
L 684 794 
z
" transform="scale(0.015625)"/>
      <path id="DejaVuSans-63" d="M 3122 3366 
L 3122 2828 
Q 2878 2963 2633 3030 
Q 2388 3097 2138 3097 
Q 1578 3097 1268 2742 
Q 959 2388 959 1747 
Q 959 1106 1268 751 
Q 1578 397 2138 397 
Q 2388 397 2633 464 
Q 2878 531 3122 666 
L 3122 134 
Q 2881 22 2623 -34 
Q 2366 -91 2075 -91 
Q 1284 -91 818 406 
Q 353 903 353 1747 
Q 353 2603 823 3093 
Q 1294 3584 2113 3584 
Q 2378 3584 2631 3529 
Q 2884 3475 3122 3366 
z
" transform="scale(0.015625)"/>
      <path id="DejaVuSans-68" d="M 3513 2113 
L 3513 0 
L 2938 0 
L 2938 2094 
Q 2938 2591 2744 2837 
Q 2550 3084 2163 3084 
Q 1697 3084 1428 2787 
Q 1159 2491 1159 1978 
L 1159 0 
L 581 0 
L 581 4863 
L 1159 4863 
L 1159 2956 
Q 1366 3272 1645 3428 
Q 1925 3584 2291 3584 
Q 2894 3584 3203 3211 
Q 3513 2838 3513 2113 
z
" transform="scale(0.015625)"/>
      <path id="DejaVuSans-72" d="M 2631 2963 
Q 2534 3019 2420 3045 
Q 2306 3072 2169 3072 
Q 1681 3072 1420 2755 
Q 1159 2438 1159 1844 
L 1159 0 
L 581 0 
L 581 3500 
L 1159 3500 
L 1159 2956 
Q 1341 3275 1631 3429 
Q 1922 3584 2338 3584 
Q 2397 3584 2469 3576 
Q 2541 3569 2628 3553 
L 2631 2963 
z
" transform="scale(0.015625)"/>
     </defs>
     <use xlink:href="#DejaVuSans-45"/>
     <use xlink:href="#DejaVuSans-48" x="63.183594"/>
     <use xlink:href="#DejaVuSans-32" x="138.378906"/>
     <use xlink:href="#DejaVuSans-33" x="202.001953"/>
     <use xlink:href="#DejaVuSans-62" x="265.625"/>
     <use xlink:href="#DejaVuSans-2e" x="329.101562"/>
     <use xlink:href="#DejaVuSans-63" x="360.888672"/>
     <use xlink:href="#DejaVuSans-68" x="415.869141"/>
     <use xlink:href="#DejaVuSans-72" x="479.248047"/>
     <use xlink:href="#DejaVuSans-37" x="520.361328"/>
    </g>
   </g>
  </g>
  <g id="axes_2"/>
  <g id="axes_3"/>
  <g id="axes_4">
   <g id="PolyCollection_1">
    <path d="M 100.602885 117.419166 
L 100.602885 103.245937 
L 100.607547 103.245937 
L 100.607547 103.245937 
L 100.612208 103.245937 
L 100.612208 103.245937 
L 100.61687 103.245937 
L 100.61687 103.245937 
L 100.621531 103.245937 
L 100.621531 103.245937 
L 100.626193 103.245937 
L 100.626193 103.245937 
L 100.630854 103.245937 
L 100.630854 103.245937 
L 100.635516 103.245937 
L 100.635516 103.245937 
L 100.640177 103.245937 
L 100.640177 103.245937 
L 100.644839 103.245937 
L 100.644839 103.245937 
L 100.6495 103.245937 
L 100.6495 103.245937 
L 100.654162 103.245937 
L 100.654162 103.245937 
L 100.658823 103.245937 
L 100.658823 103.245937 
L 100.663485 103.245937 
L 100.663485 103.245937 
L 100.668147 103.245937 
L 100.668147 103.245937 
L 100.672808 103.245937 
L 100.672808 103.245937 
L 100.67747 103.245937 
L 100.67747 103.245937 
L 100.682131 103.245937 
L 100.682131 103.245937 
L 100.686793 103.245937 
L 100.686793 103.245937 
L 100.691454 103.245937 
L 100.691454 103.245937 
L 100.696116 103.245937 
L 100.696116 103.245937 
L 100.700777 103.245937 
L 100.700777 103.245937 
L 100.705439 103.245937 
L 100.705439 103.245937 
L 100.7101 103.245937 
L 100.7101 103.245937 
L 100.714762 103.245937 
L 100.714762 103.245937 
L 100.719423 103.245937 
L 100.719423 103.245937 
L 100.724085 103.245937 
L 100.724085 103.245937 
L 100.728746 103.245937 
L 100.728746 103.245937 
L 100.733408 103.245937 
L 100.733408 103.245937 
L 100.738069 103.245937 
L 100.738069 103.245937 
L 100.742731 103.245937 
L 100.742731 103.245937 
L 100.747392 103.245937 
L 100.747392 103.245937 
L 100.752054 103.245937 
L 100.752054 103.245937 
L 100.756715 103.245937 
L 100.756715 103.245937 
L 100.761377 103.245937 
L 100.761377 103.245937 
L 100.766039 103.245937 
L 100.766039 103.245937 
L 100.7707 103.245937 
L 100.7707 103.245937 
L 100.775362 103.245937 
L 100.775362 103.245937 
L 100.780023 103.245937 
L 100.780023 103.245937 
L 100.784685 103.245937 
L 100.784685 103.245937 
L 100.789346 103.245937 
L 100.789346 103.245937 
L 100.794008 103.245937 
L 100.794008 117.419166 
L 100.794008 117.419166 
L 100.789346 117.419166 
L 100.789346 117.419166 
L 100.784685 117.419166 
L 100.784685 117.419166 
L 100.780023 117.419166 
L 100.780023 117.419166 
L 100.775362 117.419166 
L 100.775362 117.419166 
L 100.7707 117.419166 
L 100.7707 117.419166 
L 100.766039 117.419166 
L 100.766039 117.419166 
L 100.761377 117.419166 
L 100.761377 117.419166 
L 100.756715 117.419166 
L 100.756715 117.419166 
L 100.752054 117.419166 
L 100.752054 117.419166 
L 100.747392 117.419166 
L 100.747392 117.419166 
L 100.742731 117.419166 
L 100.742731 117.419166 
L 100.738069 117.419166 
L 100.738069 117.419166 
L 100.733408 117.419166 
L 100.733408 117.419166 
L 100.728746 117.419166 
L 100.728746 117.419166 
L 100.724085 117.419166 
L 100.724085 117.419166 
L 100.719423 117.419166 
L 100.719423 117.419166 
L 100.714762 117.419166 
L 100.714762 117.419166 
L 100.7101 117.419166 
L 100.7101 117.419166 
L 100.705439 117.419166 
L 100.705439 117.419166 
L 100.700777 117.419166 
L 100.700777 117.419166 
L 100.696116 117.419166 
L 100.696116 117.419166 
L 100.691454 117.419166 
L 100.691454 117.419166 
L 100.686793 117.419166 
L 100.686793 117.419166 
L 100.682131 117.419166 
L 100.682131 117.419166 
L 100.67747 117.419166 
L 100.67747 117.419166 
L 100.672808 117.419166 
L 100.672808 117.419166 
L 100.668147 117.419166 
L 100.668147 117.419166 
L 100.663485 117.419166 
L 100.663485 117.419166 
L 100.658823 117.419166 
L 100.658823 117.419166 
L 100.654162 117.419166 
L 100.654162 117.419166 
L 100.6495 117.419166 
L 100.6495 117.419166 
L 100.644839 117.419166 
L 100.644839 117.419166 
L 100.640177 117.419166 
L 100.640177 117.419166 
L 100.635516 117.419166 
L 100.635516 117.419166 
L 100.630854 117.419166 
L 100.630854 117.419166 
L 100.626193 117.419166 
L 100.626193 117.419166 
L 100.621531 117.419166 
L 100.621531 117.419166 
L 100.61687 117.419166 
L 100.61687 117.419166 
L 100.612208 117.419166 
L 100.612208 117.419166 
L 100.607547 117.419166 
L 100.607547 117.419166 
L 100.602885 117.419166 
z
" clip-path="url(#p1f886769da)" style="fill: #1f77b4; stroke: #1f77b4; stroke-width: 0.1"/>
    <path d="M 101.730974 117.419166 
L 101.730974 103.245937 
L 101.735636 103.245937 
L 101.735636 103.245937 
L 101.740297 103.245937 
L 101.740297 103.245937 
L 101.744959 103.245937 
L 101.744959 103.245937 
L 101.74962 103.245937 
L 101.74962 103.245937 
L 101.754282 103.245937 
L 101.754282 103.245937 
L 101.758943 103.245937 
L 101.758943 103.245937 
L 101.763605 103.245937 
L 101.763605 103.245937 
L 101.768266 103.245937 
L 101.768266 103.245937 
L 101.772928 103.245937 
L 101.772928 103.245937 
L 101.777589 103.245937 
L 101.777589 103.245937 
L 101.782251 103.245937 
L 101.782251 103.245937 
L 101.786912 103.245937 
L 101.786912 103.245937 
L 101.791574 103.245937 
L 101.791574 103.245937 
L 101.796235 103.245937 
L 101.796235 103.245937 
L 101.800897 103.245937 
L 101.800897 103.245937 
L 101.805559 103.245937 
L 101.805559 103.245937 
L 101.81022 103.245937 
L 101.81022 103.245937 
L 101.814882 103.245937 
L 101.814882 103.245937 
L 101.819543 103.245937 
L 101.819543 103.245937 
L 101.824205 103.245937 
L 101.824205 103.245937 
L 101.828866 103.245937 
L 101.828866 103.245937 
L 101.833528 103.245937 
L 101.833528 103.245937 
L 101.838189 103.245937 
L 101.838189 103.245937 
L 101.842851 103.245937 
L 101.842851 103.245937 
L 101.847512 103.245937 
L 101.847512 103.245937 
L 101.852174 103.245937 
L 101.852174 103.245937 
L 101.856835 103.245937 
L 101.856835 103.245937 
L 101.861497 103.245937 
L 101.861497 103.245937 
L 101.866158 103.245937 
L 101.866158 103.245937 
L 101.87082 103.245937 
L 101.87082 103.245937 
L 101.875481 103.245937 
L 101.875481 117.419166 
L 101.875481 117.419166 
L 101.87082 117.419166 
L 101.87082 117.419166 
L 101.866158 117.419166 
L 101.866158 117.419166 
L 101.861497 117.419166 
L 101.861497 117.419166 
L 101.856835 117.419166 
L 101.856835 117.419166 
L 101.852174 117.419166 
L 101.852174 117.419166 
L 101.847512 117.419166 
L 101.847512 117.419166 
L 101.842851 117.419166 
L 101.842851 117.419166 
L 101.838189 117.419166 
L 101.838189 117.419166 
L 101.833528 117.419166 
L 101.833528 117.419166 
L 101.828866 117.419166 
L 101.828866 117.419166 
L 101.824205 117.419166 
L 101.824205 117.419166 
L 101.819543 117.419166 
L 101.819543 117.419166 
L 101.814882 117.419166 
L 101.814882 117.419166 
L 101.81022 117.419166 
L 101.81022 117.419166 
L 101.805559 117.419166 
L 101.805559 117.419166 
L 101.800897 117.419166 
L 101.800897 117.419166 
L 101.796235 117.419166 
L 101.796235 117.419166 
L 101.791574 117.419166 
L 101.791574 117.419166 
L 101.786912 117.419166 
L 101.786912 117.419166 
L 101.782251 117.419166 
L 101.782251 117.419166 
L 101.777589 117.419166 
L 101.777589 117.419166 
L 101.772928 117.419166 
L 101.772928 117.419166 
L 101.768266 117.419166 
L 101.768266 117.419166 
L 101.763605 117.419166 
L 101.763605 117.419166 
L 101.758943 117.419166 
L 101.758943 117.419166 
L 101.754282 117.419166 
L 101.754282 117.419166 
L 101.74962 117.419166 
L 101.74962 117.419166 
L 101.744959 117.419166 
L 101.744959 117.419166 
L 101.740297 117.419166 
L 101.740297 117.419166 
L 101.735636 117.419166 
L 101.735636 117.419166 
L 101.730974 117.419166 
z
" clip-path="url(#p1f886769da)" style="fill: #1f77b4; stroke: #1f77b4; stroke-width: 0.1"/>
    <path d="M 113.603878 117.419166 
L 113.603878 103.245937 
L 113.608539 103.245937 
L 113.608539 103.245937 
L 113.613201 103.245937 
L 113.613201 103.245937 
L 113.617862 103.245937 
L 113.617862 103.245937 
L 113.622524 103.245937 
L 113.622524 103.245937 
L 113.627185 103.245937 
L 113.627185 103.245937 
L 113.631847 103.245937 
L 113.631847 103.245937 
L 113.636508 103.245937 
L 113.636508 103.245937 
L 113.64117 103.245937 
L 113.64117 103.245937 
L 113.645831 103.245937 
L 113.645831 103.245937 
L 113.650493 103.245937 
L 113.650493 103.245937 
L 113.655154 103.245937 
L 113.655154 103.245937 
L 113.659816 103.245937 
L 113.659816 103.245937 
L 113.664477 103.245937 
L 113.664477 103.245937 
L 113.669139 103.245937 
L 113.669139 103.245937 
L 113.6738 103.245937 
L 113.6738 103.245937 
L 113.678462 103.245937 
L 113.678462 103.245937 
L 113.683124 103.245937 
L 113.683124 103.245937 
L 113.687785 103.245937 
L 113.687785 103.245937 
L 113.692447 103.245937 
L 113.692447 103.245937 
L 113.697108 103.245937 
L 113.697108 103.245937 
L 113.70177 103.245937 
L 113.70177 103.245937 
L 113.706431 103.245937 
L 113.706431 103.245937 
L 113.711093 103.245937 
L 113.711093 103.245937 
L 113.715754 103.245937 
L 113.715754 103.245937 
L 113.720416 103.245937 
L 113.720416 103.245937 
L 113.725077 103.245937 
L 113.725077 103.245937 
L 113.729739 103.245937 
L 113.729739 103.245937 
L 113.7344 103.245937 
L 113.7344 103.245937 
L 113.739062 103.245937 
L 113.739062 103.245937 
L 113.743723 103.245937 
L 113.743723 103.245937 
L 113.748385 103.245937 
L 113.748385 117.419166 
L 113.748385 117.419166 
L 113.743723 117.419166 
L 113.743723 117.419166 
L 113.739062 117.419166 
L 113.739062 117.419166 
L 113.7344 117.419166 
L 113.7344 117.419166 
L 113.729739 117.419166 
L 113.729739 117.419166 
L 113.725077 117.419166 
L 113.725077 117.419166 
L 113.720416 117.419166 
L 113.720416 117.419166 
L 113.715754 117.419166 
L 113.715754 117.419166 
L 113.711093 117.419166 
L 113.711093 117.419166 
L 113.706431 117.419166 
L 113.706431 117.419166 
L 113.70177 117.419166 
L 113.70177 117.419166 
L 113.697108 117.419166 
L 113.697108 117.419166 
L 113.692447 117.419166 
L 113.692447 117.419166 
L 113.687785 117.419166 
L 113.687785 117.419166 
L 113.683124 117.419166 
L 113.683124 117.419166 
L 113.678462 117.419166 
L 113.678462 117.419166 
L 113.6738 117.419166 
L 113.6738 117.419166 
L 113.669139 117.419166 
L 113.669139 117.419166 
L 113.664477 117.419166 
L 113.664477 117.419166 
L 113.659816 117.419166 
L 113.659816 117.419166 
L 113.655154 117.419166 
L 113.655154 117.419166 
L 113.650493 117.419166 
L 113.650493 117.419166 
L 113.645831 117.419166 
L 113.645831 117.419166 
L 113.64117 117.419166 
L 113.64117 117.419166 
L 113.636508 117.419166 
L 113.636508 117.419166 
L 113.631847 117.419166 
L 113.631847 117.419166 
L 113.627185 117.419166 
L 113.627185 117.419166 
L 113.622524 117.419166 
L 113.622524 117.419166 
L 113.617862 117.419166 
L 113.617862 117.419166 
L 113.613201 117.419166 
L 113.613201 117.419166 
L 113.608539 117.419166 
L 113.608539 117.419166 
L 113.603878 117.419166 
z
" clip-path="url(#p1f886769da)" style="fill: #1f77b4; stroke: #1f77b4; stroke-width: 0.1"/>
    <path d="M 114.918428 117.419166 
L 114.918428 103.245937 
L 114.923089 103.245937 
L 114.923089 103.245937 
L 114.927751 103.245937 
L 114.927751 103.245937 
L 114.932412 103.245937 
L 114.932412 103.245937 
L 114.937074 103.245937 
L 114.937074 103.245937 
L 114.941735 103.245937 
L 114.941735 103.245937 
L 114.946397 103.245937 
L 114.946397 103.245937 
L 114.951058 103.245937 
L 114.951058 103.245937 
L 114.95572 103.245937 
L 114.95572 103.245937 
L 114.960381 103.245937 
L 114.960381 103.245937 
L 114.965043 103.245937 
L 114.965043 103.245937 
L 114.969704 103.245937 
L 114.969704 103.245937 
L 114.974366 103.245937 
L 114.974366 103.245937 
L 114.979027 103.245937 
L 114.979027 103.245937 
L 114.983689 103.245937 
L 114.983689 103.245937 
L 114.98835 103.245937 
L 114.98835 103.245937 
L 114.993012 103.245937 
L 114.993012 103.245937 
L 114.997673 103.245937 
L 114.997673 103.245937 
L 115.002335 103.245937 
L 115.002335 103.245937 
L 115.006997 103.245937 
L 115.006997 103.245937 
L 115.011658 103.245937 
L 115.011658 103.245937 
L 115.01632 103.245937 
L 115.01632 103.245937 
L 115.020981 103.245937 
L 115.020981 103.245937 
L 115.025643 103.245937 
L 115.025643 103.245937 
L 115.030304 103.245937 
L 115.030304 103.245937 
L 115.034966 103.245937 
L 115.034966 103.245937 
L 115.039627 103.245937 
L 115.039627 103.245937 
L 115.044289 103.245937 
L 115.044289 103.245937 
L 115.04895 103.245937 
L 115.04895 103.245937 
L 115.053612 103.245937 
L 115.053612 103.245937 
L 115.058273 103.245937 
L 115.058273 103.245937 
L 115.062935 103.245937 
L 115.062935 103.245937 
L 115.067596 103.245937 
L 115.067596 103.245937 
L 115.072258 103.245937 
L 115.072258 103.245937 
L 115.076919 103.245937 
L 115.076919 103.245937 
L 115.081581 103.245937 
L 115.081581 103.245937 
L 115.086242 103.245937 
L 115.086242 103.245937 
L 115.090904 103.245937 
L 115.090904 103.245937 
L 115.095565 103.245937 
L 115.095565 117.419166 
L 115.095565 117.419166 
L 115.090904 117.419166 
L 115.090904 117.419166 
L 115.086242 117.419166 
L 115.086242 117.419166 
L 115.081581 117.419166 
L 115.081581 117.419166 
L 115.076919 117.419166 
L 115.076919 117.419166 
L 115.072258 117.419166 
L 115.072258 117.419166 
L 115.067596 117.419166 
L 115.067596 117.419166 
L 115.062935 117.419166 
L 115.062935 117.419166 
L 115.058273 117.419166 
L 115.058273 117.419166 
L 115.053612 117.419166 
L 115.053612 117.419166 
L 115.04895 117.419166 
L 115.04895 117.419166 
L 115.044289 117.419166 
L 115.044289 117.419166 
L 115.039627 117.419166 
L 115.039627 117.419166 
L 115.034966 117.419166 
L 115.034966 117.419166 
L 115.030304 117.419166 
L 115.030304 117.419166 
L 115.025643 117.419166 
L 115.025643 117.419166 
L 115.020981 117.419166 
L 115.020981 117.419166 
L 115.01632 117.419166 
L 115.01632 117.419166 
L 115.011658 117.419166 
L 115.011658 117.419166 
L 115.006997 117.419166 
L 115.006997 117.419166 
L 115.002335 117.419166 
L 115.002335 117.419166 
L 114.997673 117.419166 
L 114.997673 117.419166 
L 114.993012 117.419166 
L 114.993012 117.419166 
L 114.98835 117.419166 
L 114.98835 117.419166 
L 114.983689 117.419166 
L 114.983689 117.419166 
L 114.979027 117.419166 
L 114.979027 117.419166 
L 114.974366 117.419166 
L 114.974366 117.419166 
L 114.969704 117.419166 
L 114.969704 117.419166 
L 114.965043 117.419166 
L 114.965043 117.419166 
L 114.960381 117.419166 
L 114.960381 117.419166 
L 114.95572 117.419166 
L 114.95572 117.419166 
L 114.951058 117.419166 
L 114.951058 117.419166 
L 114.946397 117.419166 
L 114.946397 117.419166 
L 114.941735 117.419166 
L 114.941735 117.419166 
L 114.937074 117.419166 
L 114.937074 117.419166 
L 114.932412 117.419166 
L 114.932412 117.419166 
L 114.927751 117.419166 
L 114.927751 117.419166 
L 114.923089 117.419166 
L 114.923089 117.419166 
L 114.918428 117.419166 
z
" clip-path="url(#p1f886769da)" style="fill: #1f77b4; stroke: #1f77b4; stroke-width: 0.1"/>
    <path d="M 133.597157 117.419166 
L 133.597157 110.332552 
L 133.601819 110.332552 
L 133.601819 110.332552 
L 133.60648 110.332552 
L 133.60648 110.332552 
L 133.611142 110.332552 
L 133.611142 110.332552 
L 133.615803 110.332552 
L 133.615803 110.332552 
L 133.620465 110.332552 
L 133.620465 110.332552 
L 133.625126 110.332552 
L 133.625126 110.332552 
L 133.629788 110.332552 
L 133.629788 110.332552 
L 133.634449 110.332552 
L 133.634449 110.332552 
L 133.639111 110.332552 
L 133.639111 110.332552 
L 133.643772 110.332552 
L 133.643772 110.332552 
L 133.648434 110.332552 
L 133.648434 110.332552 
L 133.653095 110.332552 
L 133.653095 110.332552 
L 133.657757 110.332552 
L 133.657757 110.332552 
L 133.662418 110.332552 
L 133.662418 110.332552 
L 133.66708 110.332552 
L 133.66708 110.332552 
L 133.671741 110.332552 
L 133.671741 110.332552 
L 133.676403 110.332552 
L 133.676403 110.332552 
L 133.681065 110.332552 
L 133.681065 110.332552 
L 133.685726 110.332552 
L 133.685726 110.332552 
L 133.690388 110.332552 
L 133.690388 110.332552 
L 133.695049 110.332552 
L 133.695049 110.332552 
L 133.699711 110.332552 
L 133.699711 110.332552 
L 133.704372 110.332552 
L 133.704372 110.332552 
L 133.709034 110.332552 
L 133.709034 110.332552 
L 133.713695 110.332552 
L 133.713695 110.332552 
L 133.718357 110.332552 
L 133.718357 110.332552 
L 133.723018 110.332552 
L 133.723018 110.332552 
L 133.72768 110.332552 
L 133.72768 110.332552 
L 133.732341 110.332552 
L 133.732341 110.332552 
L 133.737003 110.332552 
L 133.737003 110.332552 
L 133.741664 110.332552 
L 133.741664 117.419166 
L 133.741664 117.419166 
L 133.737003 117.419166 
L 133.737003 117.419166 
L 133.732341 117.419166 
L 133.732341 117.419166 
L 133.72768 117.419166 
L 133.72768 117.419166 
L 133.723018 117.419166 
L 133.723018 117.419166 
L 133.718357 117.419166 
L 133.718357 117.419166 
L 133.713695 117.419166 
L 133.713695 117.419166 
L 133.709034 117.419166 
L 133.709034 117.419166 
L 133.704372 117.419166 
L 133.704372 117.419166 
L 133.699711 117.419166 
L 133.699711 117.419166 
L 133.695049 117.419166 
L 133.695049 117.419166 
L 133.690388 117.419166 
L 133.690388 117.419166 
L 133.685726 117.419166 
L 133.685726 117.419166 
L 133.681065 117.419166 
L 133.681065 117.419166 
L 133.676403 117.419166 
L 133.676403 117.419166 
L 133.671741 117.419166 
L 133.671741 117.419166 
L 133.66708 117.419166 
L 133.66708 117.419166 
L 133.662418 117.419166 
L 133.662418 117.419166 
L 133.657757 117.419166 
L 133.657757 117.419166 
L 133.653095 117.419166 
L 133.653095 117.419166 
L 133.648434 117.419166 
L 133.648434 117.419166 
L 133.643772 117.419166 
L 133.643772 117.419166 
L 133.639111 117.419166 
L 133.639111 117.419166 
L 133.634449 117.419166 
L 133.634449 117.419166 
L 133.629788 117.419166 
L 133.629788 117.419166 
L 133.625126 117.419166 
L 133.625126 117.419166 
L 133.620465 117.419166 
L 133.620465 117.419166 
L 133.615803 117.419166 
L 133.615803 117.419166 
L 133.611142 117.419166 
L 133.611142 117.419166 
L 133.60648 117.419166 
L 133.60648 117.419166 
L 133.601819 117.419166 
L 133.601819 117.419166 
L 133.597157 117.419166 
z
" clip-path="url(#p1f886769da)" style="fill: #1f77b4; stroke: #1f77b4; stroke-width: 0.1"/>
    <path d="M 180.729833 117.419166 
L 180.729833 103.245937 
L 180.734495 103.245937 
L 180.734495 103.245937 
L 180.739156 103.245937 
L 180.739156 103.245937 
L 180.743818 103.245937 
L 180.743818 103.245937 
L 180.74848 103.245937 
L 180.74848 103.245937 
L 180.753141 103.245937 
L 180.753141 103.245937 
L 180.757803 103.245937 
L 180.757803 103.245937 
L 180.762464 103.245937 
L 180.762464 103.245937 
L 180.767126 103.245937 
L 180.767126 103.245937 
L 180.771787 103.245937 
L 180.771787 103.245937 
L 180.776449 103.245937 
L 180.776449 103.245937 
L 180.78111 103.245937 
L 180.78111 103.245937 
L 180.785772 103.245937 
L 180.785772 103.245937 
L 180.790433 103.245937 
L 180.790433 103.245937 
L 180.795095 103.245937 
L 180.795095 103.245937 
L 180.799756 103.245937 
L 180.799756 103.245937 
L 180.804418 103.245937 
L 180.804418 103.245937 
L 180.809079 103.245937 
L 180.809079 103.245937 
L 180.813741 103.245937 
L 180.813741 103.245937 
L 180.818402 103.245937 
L 180.818402 103.245937 
L 180.823064 103.245937 
L 180.823064 103.245937 
L 180.827725 103.245937 
L 180.827725 103.245937 
L 180.832387 103.245937 
L 180.832387 103.245937 
L 180.837049 103.245937 
L 180.837049 103.245937 
L 180.84171 103.245937 
L 180.84171 103.245937 
L 180.846372 103.245937 
L 180.846372 103.245937 
L 180.851033 103.245937 
L 180.851033 103.245937 
L 180.855695 103.245937 
L 180.855695 103.245937 
L 180.860356 103.245937 
L 180.860356 103.245937 
L 180.865018 103.245937 
L 180.865018 103.245937 
L 180.869679 103.245937 
L 180.869679 103.245937 
L 180.874341 103.245937 
L 180.874341 117.419166 
L 180.874341 117.419166 
L 180.869679 117.419166 
L 180.869679 117.419166 
L 180.865018 117.419166 
L 180.865018 117.419166 
L 180.860356 117.419166 
L 180.860356 117.419166 
L 180.855695 117.419166 
L 180.855695 117.419166 
L 180.851033 117.419166 
L 180.851033 117.419166 
L 180.846372 117.419166 
L 180.846372 117.419166 
L 180.84171 117.419166 
L 180.84171 117.419166 
L 180.837049 117.419166 
L 180.837049 117.419166 
L 180.832387 117.419166 
L 180.832387 117.419166 
L 180.827725 117.419166 
L 180.827725 117.419166 
L 180.823064 117.419166 
L 180.823064 117.419166 
L 180.818402 117.419166 
L 180.818402 117.419166 
L 180.813741 117.419166 
L 180.813741 117.419166 
L 180.809079 117.419166 
L 180.809079 117.419166 
L 180.804418 117.419166 
L 180.804418 117.419166 
L 180.799756 117.419166 
L 180.799756 117.419166 
L 180.795095 117.419166 
L 180.795095 117.419166 
L 180.790433 117.419166 
L 180.790433 117.419166 
L 180.785772 117.419166 
L 180.785772 117.419166 
L 180.78111 117.419166 
L 180.78111 117.419166 
L 180.776449 117.419166 
L 180.776449 117.419166 
L 180.771787 117.419166 
L 180.771787 117.419166 
L 180.767126 117.419166 
L 180.767126 117.419166 
L 180.762464 117.419166 
L 180.762464 117.419166 
L 180.757803 117.419166 
L 180.757803 117.419166 
L 180.753141 117.419166 
L 180.753141 117.419166 
L 180.74848 117.419166 
L 180.74848 117.419166 
L 180.743818 117.419166 
L 180.743818 117.419166 
L 180.739156 117.419166 
L 180.739156 117.419166 
L 180.734495 117.419166 
L 180.734495 117.419166 
L 180.729833 117.419166 
z
" clip-path="url(#p1f886769da)" style="fill: #1f77b4; stroke: #1f77b4; stroke-width: 0.1"/>
    <path d="M 181.33117 117.419166 
L 181.33117 103.245937 
L 181.335832 103.245937 
L 181.335832 103.245937 
L 181.340493 103.245937 
L 181.340493 103.245937 
L 181.345155 103.245937 
L 181.345155 103.245937 
L 181.349816 103.245937 
L 181.349816 103.245937 
L 181.354478 103.245937 
L 181.354478 103.245937 
L 181.359139 103.245937 
L 181.359139 103.245937 
L 181.363801 103.245937 
L 181.363801 103.245937 
L 181.368462 103.245937 
L 181.368462 103.245937 
L 181.373124 103.245937 
L 181.373124 103.245937 
L 181.377785 103.245937 
L 181.377785 103.245937 
L 181.382447 103.245937 
L 181.382447 103.245937 
L 181.387108 103.245937 
L 181.387108 103.245937 
L 181.39177 103.245937 
L 181.39177 103.245937 
L 181.396431 103.245937 
L 181.396431 103.245937 
L 181.401093 103.245937 
L 181.401093 103.245937 
L 181.405755 103.245937 
L 181.405755 103.245937 
L 181.410416 103.245937 
L 181.410416 103.245937 
L 181.415078 103.245937 
L 181.415078 103.245937 
L 181.419739 103.245937 
L 181.419739 103.245937 
L 181.424401 103.245937 
L 181.424401 103.245937 
L 181.429062 103.245937 
L 181.429062 103.245937 
L 181.433724 103.245937 
L 181.433724 103.245937 
L 181.438385 103.245937 
L 181.438385 103.245937 
L 181.443047 103.245937 
L 181.443047 103.245937 
L 181.447708 103.245937 
L 181.447708 103.245937 
L 181.45237 103.245937 
L 181.45237 103.245937 
L 181.457031 103.245937 
L 181.457031 103.245937 
L 181.461693 103.245937 
L 181.461693 103.245937 
L 181.466354 103.245937 
L 181.466354 103.245937 
L 181.471016 103.245937 
L 181.471016 103.245937 
L 181.475677 103.245937 
L 181.475677 117.419166 
L 181.475677 117.419166 
L 181.471016 117.419166 
L 181.471016 117.419166 
L 181.466354 117.419166 
L 181.466354 117.419166 
L 181.461693 117.419166 
L 181.461693 117.419166 
L 181.457031 117.419166 
L 181.457031 117.419166 
L 181.45237 117.419166 
L 181.45237 117.419166 
L 181.447708 117.419166 
L 181.447708 117.419166 
L 181.443047 117.419166 
L 181.443047 117.419166 
L 181.438385 117.419166 
L 181.438385 117.419166 
L 181.433724 117.419166 
L 181.433724 117.419166 
L 181.429062 117.419166 
L 181.429062 117.419166 
L 181.424401 117.419166 
L 181.424401 117.419166 
L 181.419739 117.419166 
L 181.419739 117.419166 
L 181.415078 117.419166 
L 181.415078 117.419166 
L 181.410416 117.419166 
L 181.410416 117.419166 
L 181.405755 117.419166 
L 181.405755 117.419166 
L 181.401093 117.419166 
L 181.401093 117.419166 
L 181.396431 117.419166 
L 181.396431 117.419166 
L 181.39177 117.419166 
L 181.39177 117.419166 
L 181.387108 117.419166 
L 181.387108 117.419166 
L 181.382447 117.419166 
L 181.382447 117.419166 
L 181.377785 117.419166 
L 181.377785 117.419166 
L 181.373124 117.419166 
L 181.373124 117.419166 
L 181.368462 117.419166 
L 181.368462 117.419166 
L 181.363801 117.419166 
L 181.363801 117.419166 
L 181.359139 117.419166 
L 181.359139 117.419166 
L 181.354478 117.419166 
L 181.354478 117.419166 
L 181.349816 117.419166 
L 181.349816 117.419166 
L 181.345155 117.419166 
L 181.345155 117.419166 
L 181.340493 117.419166 
L 181.340493 117.419166 
L 181.335832 117.419166 
L 181.335832 117.419166 
L 181.33117 117.419166 
z
" clip-path="url(#p1f886769da)" style="fill: #1f77b4; stroke: #1f77b4; stroke-width: 0.1"/>
    <path d="M 185.42865 117.419166 
L 185.42865 89.072709 
L 185.433312 89.072709 
L 185.433312 89.072709 
L 185.437973 89.072709 
L 185.437973 89.072709 
L 185.442635 89.072709 
L 185.442635 89.072709 
L 185.447296 89.072709 
L 185.447296 89.072709 
L 185.451958 89.072709 
L 185.451958 89.072709 
L 185.456619 89.072709 
L 185.456619 89.072709 
L 185.461281 89.072709 
L 185.461281 89.072709 
L 185.465943 89.072709 
L 185.465943 89.072709 
L 185.470604 89.072709 
L 185.470604 89.072709 
L 185.475266 89.072709 
L 185.475266 89.072709 
L 185.479927 89.072709 
L 185.479927 89.072709 
L 185.484589 89.072709 
L 185.484589 89.072709 
L 185.48925 89.072709 
L 185.48925 89.072709 
L 185.493912 89.072709 
L 185.493912 89.072709 
L 185.498573 89.072709 
L 185.498573 89.072709 
L 185.503235 89.072709 
L 185.503235 89.072709 
L 185.507896 89.072709 
L 185.507896 89.072709 
L 185.512558 89.072709 
L 185.512558 89.072709 
L 185.517219 89.072709 
L 185.517219 89.072709 
L 185.521881 89.072709 
L 185.521881 89.072709 
L 185.526542 89.072709 
L 185.526542 89.072709 
L 185.531204 89.072709 
L 185.531204 89.072709 
L 185.535865 89.072709 
L 185.535865 89.072709 
L 185.540527 89.072709 
L 185.540527 89.072709 
L 185.545188 89.072709 
L 185.545188 89.072709 
L 185.54985 89.072709 
L 185.54985 89.072709 
L 185.554512 89.072709 
L 185.554512 89.072709 
L 185.559173 89.072709 
L 185.559173 89.072709 
L 185.563835 89.072709 
L 185.563835 89.072709 
L 185.568496 89.072709 
L 185.568496 89.072709 
L 185.573158 89.072709 
L 185.573158 117.419166 
L 185.573158 117.419166 
L 185.568496 117.419166 
L 185.568496 117.419166 
L 185.563835 117.419166 
L 185.563835 117.419166 
L 185.559173 117.419166 
L 185.559173 117.419166 
L 185.554512 117.419166 
L 185.554512 117.419166 
L 185.54985 117.419166 
L 185.54985 117.419166 
L 185.545188 117.419166 
L 185.545188 117.419166 
L 185.540527 117.419166 
L 185.540527 117.419166 
L 185.535865 117.419166 
L 185.535865 117.419166 
L 185.531204 117.419166 
L 185.531204 117.419166 
L 185.526542 117.419166 
L 185.526542 117.419166 
L 185.521881 117.419166 
L 185.521881 117.419166 
L 185.517219 117.419166 
L 185.517219 117.419166 
L 185.512558 117.419166 
L 185.512558 117.419166 
L 185.507896 117.419166 
L 185.507896 117.419166 
L 185.503235 117.419166 
L 185.503235 117.419166 
L 185.498573 117.419166 
L 185.498573 117.419166 
L 185.493912 117.419166 
L 185.493912 117.419166 
L 185.48925 117.419166 
L 185.48925 117.419166 
L 185.484589 117.419166 
L 185.484589 117.419166 
L 185.479927 117.419166 
L 185.479927 117.419166 
L 185.475266 117.419166 
L 185.475266 117.419166 
L 185.470604 117.419166 
L 185.470604 117.419166 
L 185.465943 117.419166 
L 185.465943 117.419166 
L 185.461281 117.419166 
L 185.461281 117.419166 
L 185.456619 117.419166 
L 185.456619 117.419166 
L 185.451958 117.419166 
L 185.451958 117.419166 
L 185.447296 117.419166 
L 185.447296 117.419166 
L 185.442635 117.419166 
L 185.442635 117.419166 
L 185.437973 117.419166 
L 185.437973 117.419166 
L 185.433312 117.419166 
L 185.433312 117.419166 
L 185.42865 117.419166 
z
" clip-path="url(#p1f886769da)" style="fill: #1f77b4; stroke: #1f77b4; stroke-width: 0.1"/>
    <path d="M 192.062 117.419166 
L 192.062 89.072709 
L 192.066662 89.072709 
L 192.066662 89.072709 
L 192.071323 89.072709 
L 192.071323 89.072709 
L 192.075985 89.072709 
L 192.075985 89.072709 
L 192.080646 89.072709 
L 192.080646 89.072709 
L 192.085308 89.072709 
L 192.085308 89.072709 
L 192.089969 89.072709 
L 192.089969 89.072709 
L 192.094631 89.072709 
L 192.094631 89.072709 
L 192.099292 89.072709 
L 192.099292 89.072709 
L 192.103954 89.072709 
L 192.103954 89.072709 
L 192.108615 89.072709 
L 192.108615 89.072709 
L 192.113277 89.072709 
L 192.113277 89.072709 
L 192.117938 89.072709 
L 192.117938 89.072709 
L 192.1226 89.072709 
L 192.1226 89.072709 
L 192.127261 89.072709 
L 192.127261 89.072709 
L 192.131923 89.072709 
L 192.131923 89.072709 
L 192.136584 89.072709 
L 192.136584 89.072709 
L 192.141246 89.072709 
L 192.141246 89.072709 
L 192.145907 89.072709 
L 192.145907 89.072709 
L 192.150569 89.072709 
L 192.150569 89.072709 
L 192.155231 89.072709 
L 192.155231 89.072709 
L 192.159892 89.072709 
L 192.159892 89.072709 
L 192.164554 89.072709 
L 192.164554 89.072709 
L 192.169215 89.072709 
L 192.169215 89.072709 
L 192.173877 89.072709 
L 192.173877 89.072709 
L 192.178538 89.072709 
L 192.178538 89.072709 
L 192.1832 89.072709 
L 192.1832 89.072709 
L 192.187861 89.072709 
L 192.187861 89.072709 
L 192.192523 89.072709 
L 192.192523 89.072709 
L 192.197184 89.072709 
L 192.197184 89.072709 
L 192.201846 89.072709 
L 192.201846 89.072709 
L 192.206507 89.072709 
L 192.206507 117.419166 
L 192.206507 117.419166 
L 192.201846 117.419166 
L 192.201846 117.419166 
L 192.197184 117.419166 
L 192.197184 117.419166 
L 192.192523 117.419166 
L 192.192523 117.419166 
L 192.187861 117.419166 
L 192.187861 117.419166 
L 192.1832 117.419166 
L 192.1832 117.419166 
L 192.178538 117.419166 
L 192.178538 117.419166 
L 192.173877 117.419166 
L 192.173877 117.419166 
L 192.169215 117.419166 
L 192.169215 117.419166 
L 192.164554 117.419166 
L 192.164554 117.419166 
L 192.159892 117.419166 
L 192.159892 117.419166 
L 192.155231 117.419166 
L 192.155231 117.419166 
L 192.150569 117.419166 
L 192.150569 117.419166 
L 192.145907 117.419166 
L 192.145907 117.419166 
L 192.141246 117.419166 
L 192.141246 117.419166 
L 192.136584 117.419166 
L 192.136584 117.419166 
L 192.131923 117.419166 
L 192.131923 117.419166 
L 192.127261 117.419166 
L 192.127261 117.419166 
L 192.1226 117.419166 
L 192.1226 117.419166 
L 192.117938 117.419166 
L 192.117938 117.419166 
L 192.113277 117.419166 
L 192.113277 117.419166 
L 192.108615 117.419166 
L 192.108615 117.419166 
L 192.103954 117.419166 
L 192.103954 117.419166 
L 192.099292 117.419166 
L 192.099292 117.419166 
L 192.094631 117.419166 
L 192.094631 117.419166 
L 192.089969 117.419166 
L 192.089969 117.419166 
L 192.085308 117.419166 
L 192.085308 117.419166 
L 192.080646 117.419166 
L 192.080646 117.419166 
L 192.075985 117.419166 
L 192.075985 117.419166 
L 192.071323 117.419166 
L 192.071323 117.419166 
L 192.066662 117.419166 
L 192.066662 117.419166 
L 192.062 117.419166 
z
" clip-path="url(#p1f886769da)" style="fill: #1f77b4; stroke: #1f77b4; stroke-width: 0.1"/>
    <path d="M 213.30923 117.419166 
L 213.30923 89.072709 
L 213.313891 89.072709 
L 213.313891 89.072709 
L 213.318553 89.072709 
L 213.318553 89.072709 
L 213.323214 89.072709 
L 213.323214 89.072709 
L 213.327876 89.072709 
L 213.327876 89.072709 
L 213.332537 89.072709 
L 213.332537 89.072709 
L 213.337199 89.072709 
L 213.337199 89.072709 
L 213.34186 89.072709 
L 213.34186 89.072709 
L 213.346522 89.072709 
L 213.346522 89.072709 
L 213.351183 89.072709 
L 213.351183 89.072709 
L 213.355845 89.072709 
L 213.355845 89.072709 
L 213.360506 89.072709 
L 213.360506 89.072709 
L 213.365168 89.072709 
L 213.365168 89.072709 
L 213.369829 89.072709 
L 213.369829 89.072709 
L 213.374491 89.072709 
L 213.374491 89.072709 
L 213.379153 89.072709 
L 213.379153 89.072709 
L 213.383814 89.072709 
L 213.383814 89.072709 
L 213.388476 89.072709 
L 213.388476 89.072709 
L 213.393137 89.072709 
L 213.393137 89.072709 
L 213.397799 89.072709 
L 213.397799 89.072709 
L 213.40246 89.072709 
L 213.40246 89.072709 
L 213.407122 89.072709 
L 213.407122 89.072709 
L 213.411783 89.072709 
L 213.411783 89.072709 
L 213.416445 89.072709 
L 213.416445 89.072709 
L 213.421106 89.072709 
L 213.421106 89.072709 
L 213.425768 89.072709 
L 213.425768 89.072709 
L 213.430429 89.072709 
L 213.430429 89.072709 
L 213.435091 89.072709 
L 213.435091 89.072709 
L 213.439752 89.072709 
L 213.439752 89.072709 
L 213.444414 89.072709 
L 213.444414 89.072709 
L 213.449075 89.072709 
L 213.449075 89.072709 
L 213.453737 89.072709 
L 213.453737 117.419166 
L 213.453737 117.419166 
L 213.449075 117.419166 
L 213.449075 117.419166 
L 213.444414 117.419166 
L 213.444414 117.419166 
L 213.439752 117.419166 
L 213.439752 117.419166 
L 213.435091 117.419166 
L 213.435091 117.419166 
L 213.430429 117.419166 
L 213.430429 117.419166 
L 213.425768 117.419166 
L 213.425768 117.419166 
L 213.421106 117.419166 
L 213.421106 117.419166 
L 213.416445 117.419166 
L 213.416445 117.419166 
L 213.411783 117.419166 
L 213.411783 117.419166 
L 213.407122 117.419166 
L 213.407122 117.419166 
L 213.40246 117.419166 
L 213.40246 117.419166 
L 213.397799 117.419166 
L 213.397799 117.419166 
L 213.393137 117.419166 
L 213.393137 117.419166 
L 213.388476 117.419166 
L 213.388476 117.419166 
L 213.383814 117.419166 
L 213.383814 117.419166 
L 213.379153 117.419166 
L 213.379153 117.419166 
L 213.374491 117.419166 
L 213.374491 117.419166 
L 213.369829 117.419166 
L 213.369829 117.419166 
L 213.365168 117.419166 
L 213.365168 117.419166 
L 213.360506 117.419166 
L 213.360506 117.419166 
L 213.355845 117.419166 
L 213.355845 117.419166 
L 213.351183 117.419166 
L 213.351183 117.419166 
L 213.346522 117.419166 
L 213.346522 117.419166 
L 213.34186 117.419166 
L 213.34186 117.419166 
L 213.337199 117.419166 
L 213.337199 117.419166 
L 213.332537 117.419166 
L 213.332537 117.419166 
L 213.327876 117.419166 
L 213.327876 117.419166 
L 213.323214 117.419166 
L 213.323214 117.419166 
L 213.318553 117.419166 
L 213.318553 117.419166 
L 213.313891 117.419166 
L 213.313891 117.419166 
L 213.30923 117.419166 
z
" clip-path="url(#p1f886769da)" style="fill: #1f77b4; stroke: #1f77b4; stroke-width: 0.1"/>
    <path d="M 227.359065 117.419166 
L 227.359065 89.072709 
L 227.363727 89.072709 
L 227.363727 89.072709 
L 227.368388 89.072709 
L 227.368388 89.072709 
L 227.37305 89.072709 
L 227.37305 89.072709 
L 227.377711 89.072709 
L 227.377711 89.072709 
L 227.382373 89.072709 
L 227.382373 89.072709 
L 227.387034 89.072709 
L 227.387034 89.072709 
L 227.391696 89.072709 
L 227.391696 89.072709 
L 227.396357 89.072709 
L 227.396357 89.072709 
L 227.401019 89.072709 
L 227.401019 89.072709 
L 227.40568 89.072709 
L 227.40568 89.072709 
L 227.410342 89.072709 
L 227.410342 89.072709 
L 227.415003 89.072709 
L 227.415003 89.072709 
L 227.419665 89.072709 
L 227.419665 89.072709 
L 227.424326 89.072709 
L 227.424326 89.072709 
L 227.428988 89.072709 
L 227.428988 89.072709 
L 227.43365 89.072709 
L 227.43365 89.072709 
L 227.438311 89.072709 
L 227.438311 89.072709 
L 227.442973 89.072709 
L 227.442973 89.072709 
L 227.447634 89.072709 
L 227.447634 89.072709 
L 227.452296 89.072709 
L 227.452296 89.072709 
L 227.456957 89.072709 
L 227.456957 89.072709 
L 227.461619 89.072709 
L 227.461619 89.072709 
L 227.46628 89.072709 
L 227.46628 89.072709 
L 227.470942 89.072709 
L 227.470942 89.072709 
L 227.475603 89.072709 
L 227.475603 89.072709 
L 227.480265 89.072709 
L 227.480265 89.072709 
L 227.484926 89.072709 
L 227.484926 89.072709 
L 227.489588 89.072709 
L 227.489588 89.072709 
L 227.494249 89.072709 
L 227.494249 89.072709 
L 227.498911 89.072709 
L 227.498911 89.072709 
L 227.503572 89.072709 
L 227.503572 117.419166 
L 227.503572 117.419166 
L 227.498911 117.419166 
L 227.498911 117.419166 
L 227.494249 117.419166 
L 227.494249 117.419166 
L 227.489588 117.419166 
L 227.489588 117.419166 
L 227.484926 117.419166 
L 227.484926 117.419166 
L 227.480265 117.419166 
L 227.480265 117.419166 
L 227.475603 117.419166 
L 227.475603 117.419166 
L 227.470942 117.419166 
L 227.470942 117.419166 
L 227.46628 117.419166 
L 227.46628 117.419166 
L 227.461619 117.419166 
L 227.461619 117.419166 
L 227.456957 117.419166 
L 227.456957 117.419166 
L 227.452296 117.419166 
L 227.452296 117.419166 
L 227.447634 117.419166 
L 227.447634 117.419166 
L 227.442973 117.419166 
L 227.442973 117.419166 
L 227.438311 117.419166 
L 227.438311 117.419166 
L 227.43365 117.419166 
L 227.43365 117.419166 
L 227.428988 117.419166 
L 227.428988 117.419166 
L 227.424326 117.419166 
L 227.424326 117.419166 
L 227.419665 117.419166 
L 227.419665 117.419166 
L 227.415003 117.419166 
L 227.415003 117.419166 
L 227.410342 117.419166 
L 227.410342 117.419166 
L 227.40568 117.419166 
L 227.40568 117.419166 
L 227.401019 117.419166 
L 227.401019 117.419166 
L 227.396357 117.419166 
L 227.396357 117.419166 
L 227.391696 117.419166 
L 227.391696 117.419166 
L 227.387034 117.419166 
L 227.387034 117.419166 
L 227.382373 117.419166 
L 227.382373 117.419166 
L 227.377711 117.419166 
L 227.377711 117.419166 
L 227.37305 117.419166 
L 227.37305 117.419166 
L 227.368388 117.419166 
L 227.368388 117.419166 
L 227.363727 117.419166 
L 227.363727 117.419166 
L 227.359065 117.419166 
z
" clip-path="url(#p1f886769da)" style="fill: #1f77b4; stroke: #1f77b4; stroke-width: 0.1"/>
    <path d="M 307.877581 117.419166 
L 307.877581 89.072709 
L 307.882243 89.072709 
L 307.882243 89.072709 
L 307.886905 89.072709 
L 307.886905 89.072709 
L 307.891566 89.072709 
L 307.891566 89.072709 
L 307.896228 89.072709 
L 307.896228 89.072709 
L 307.900889 89.072709 
L 307.900889 89.072709 
L 307.905551 89.072709 
L 307.905551 89.072709 
L 307.910212 89.072709 
L 307.910212 89.072709 
L 307.914874 89.072709 
L 307.914874 89.072709 
L 307.919535 89.072709 
L 307.919535 89.072709 
L 307.924197 89.072709 
L 307.924197 89.072709 
L 307.928858 89.072709 
L 307.928858 89.072709 
L 307.93352 89.072709 
L 307.93352 89.072709 
L 307.938181 89.072709 
L 307.938181 89.072709 
L 307.942843 89.072709 
L 307.942843 89.072709 
L 307.947504 89.072709 
L 307.947504 89.072709 
L 307.952166 89.072709 
L 307.952166 89.072709 
L 307.956827 89.072709 
L 307.956827 89.072709 
L 307.961489 89.072709 
L 307.961489 89.072709 
L 307.96615 89.072709 
L 307.96615 89.072709 
L 307.970812 89.072709 
L 307.970812 89.072709 
L 307.975474 89.072709 
L 307.975474 89.072709 
L 307.980135 89.072709 
L 307.980135 89.072709 
L 307.984797 89.072709 
L 307.984797 89.072709 
L 307.989458 89.072709 
L 307.989458 89.072709 
L 307.99412 89.072709 
L 307.99412 89.072709 
L 307.998781 89.072709 
L 307.998781 89.072709 
L 308.003443 89.072709 
L 308.003443 89.072709 
L 308.008104 89.072709 
L 308.008104 89.072709 
L 308.012766 89.072709 
L 308.012766 89.072709 
L 308.017427 89.072709 
L 308.017427 89.072709 
L 308.022089 89.072709 
L 308.022089 117.419166 
L 308.022089 117.419166 
L 308.017427 117.419166 
L 308.017427 117.419166 
L 308.012766 117.419166 
L 308.012766 117.419166 
L 308.008104 117.419166 
L 308.008104 117.419166 
L 308.003443 117.419166 
L 308.003443 117.419166 
L 307.998781 117.419166 
L 307.998781 117.419166 
L 307.99412 117.419166 
L 307.99412 117.419166 
L 307.989458 117.419166 
L 307.989458 117.419166 
L 307.984797 117.419166 
L 307.984797 117.419166 
L 307.980135 117.419166 
L 307.980135 117.419166 
L 307.975474 117.419166 
L 307.975474 117.419166 
L 307.970812 117.419166 
L 307.970812 117.419166 
L 307.96615 117.419166 
L 307.96615 117.419166 
L 307.961489 117.419166 
L 307.961489 117.419166 
L 307.956827 117.419166 
L 307.956827 117.419166 
L 307.952166 117.419166 
L 307.952166 117.419166 
L 307.947504 117.419166 
L 307.947504 117.419166 
L 307.942843 117.419166 
L 307.942843 117.419166 
L 307.938181 117.419166 
L 307.938181 117.419166 
L 307.93352 117.419166 
L 307.93352 117.419166 
L 307.928858 117.419166 
L 307.928858 117.419166 
L 307.924197 117.419166 
L 307.924197 117.419166 
L 307.919535 117.419166 
L 307.919535 117.419166 
L 307.914874 117.419166 
L 307.914874 117.419166 
L 307.910212 117.419166 
L 307.910212 117.419166 
L 307.905551 117.419166 
L 307.905551 117.419166 
L 307.900889 117.419166 
L 307.900889 117.419166 
L 307.896228 117.419166 
L 307.896228 117.419166 
L 307.891566 117.419166 
L 307.891566 117.419166 
L 307.886905 117.419166 
L 307.886905 117.419166 
L 307.882243 117.419166 
L 307.882243 117.419166 
L 307.877581 117.419166 
z
" clip-path="url(#p1f886769da)" style="fill: #1f77b4; stroke: #1f77b4; stroke-width: 0.1"/>
    <path d="M 419.460499 117.419166 
L 419.460499 89.072709 
L 419.46516 89.072709 
L 419.46516 89.072709 
L 419.469822 89.072709 
L 419.469822 89.072709 
L 419.474483 89.072709 
L 419.474483 89.072709 
L 419.479145 89.072709 
L 419.479145 89.072709 
L 419.483806 89.072709 
L 419.483806 89.072709 
L 419.488468 89.072709 
L 419.488468 89.072709 
L 419.493129 89.072709 
L 419.493129 89.072709 
L 419.497791 89.072709 
L 419.497791 89.072709 
L 419.502452 89.072709 
L 419.502452 89.072709 
L 419.507114 89.072709 
L 419.507114 89.072709 
L 419.511775 89.072709 
L 419.511775 89.072709 
L 419.516437 89.072709 
L 419.516437 89.072709 
L 419.521098 89.072709 
L 419.521098 89.072709 
L 419.52576 89.072709 
L 419.52576 89.072709 
L 419.530421 89.072709 
L 419.530421 89.072709 
L 419.535083 89.072709 
L 419.535083 89.072709 
L 419.539744 89.072709 
L 419.539744 89.072709 
L 419.544406 89.072709 
L 419.544406 89.072709 
L 419.549067 89.072709 
L 419.549067 89.072709 
L 419.553729 89.072709 
L 419.553729 89.072709 
L 419.558391 89.072709 
L 419.558391 89.072709 
L 419.563052 89.072709 
L 419.563052 89.072709 
L 419.567714 89.072709 
L 419.567714 89.072709 
L 419.572375 89.072709 
L 419.572375 89.072709 
L 419.577037 89.072709 
L 419.577037 89.072709 
L 419.581698 89.072709 
L 419.581698 89.072709 
L 419.58636 89.072709 
L 419.58636 89.072709 
L 419.591021 89.072709 
L 419.591021 89.072709 
L 419.595683 89.072709 
L 419.595683 89.072709 
L 419.600344 89.072709 
L 419.600344 89.072709 
L 419.605006 89.072709 
L 419.605006 117.419166 
L 419.605006 117.419166 
L 419.600344 117.419166 
L 419.600344 117.419166 
L 419.595683 117.419166 
L 419.595683 117.419166 
L 419.591021 117.419166 
L 419.591021 117.419166 
L 419.58636 117.419166 
L 419.58636 117.419166 
L 419.581698 117.419166 
L 419.581698 117.419166 
L 419.577037 117.419166 
L 419.577037 117.419166 
L 419.572375 117.419166 
L 419.572375 117.419166 
L 419.567714 117.419166 
L 419.567714 117.419166 
L 419.563052 117.419166 
L 419.563052 117.419166 
L 419.558391 117.419166 
L 419.558391 117.419166 
L 419.553729 117.419166 
L 419.553729 117.419166 
L 419.549067 117.419166 
L 419.549067 117.419166 
L 419.544406 117.419166 
L 419.544406 117.419166 
L 419.539744 117.419166 
L 419.539744 117.419166 
L 419.535083 117.419166 
L 419.535083 117.419166 
L 419.530421 117.419166 
L 419.530421 117.419166 
L 419.52576 117.419166 
L 419.52576 117.419166 
L 419.521098 117.419166 
L 419.521098 117.419166 
L 419.516437 117.419166 
L 419.516437 117.419166 
L 419.511775 117.419166 
L 419.511775 117.419166 
L 419.507114 117.419166 
L 419.507114 117.419166 
L 419.502452 117.419166 
L 419.502452 117.419166 
L 419.497791 117.419166 
L 419.497791 117.419166 
L 419.493129 117.419166 
L 419.493129 117.419166 
L 419.488468 117.419166 
L 419.488468 117.419166 
L 419.483806 117.419166 
L 419.483806 117.419166 
L 419.479145 117.419166 
L 419.479145 117.419166 
L 419.474483 117.419166 
L 419.474483 117.419166 
L 419.469822 117.419166 
L 419.469822 117.419166 
L 419.46516 117.419166 
L 419.46516 117.419166 
L 419.460499 117.419166 
z
" clip-path="url(#p1f886769da)" style="fill: #1f77b4; stroke: #1f77b4; stroke-width: 0.1"/>
    <path d="M 427.01683 117.419166 
L 427.01683 89.072709 
L 427.021492 89.072709 
L 427.021492 89.072709 
L 427.026153 89.072709 
L 427.026153 89.072709 
L 427.030815 89.072709 
L 427.030815 89.072709 
L 427.035476 89.072709 
L 427.035476 89.072709 
L 427.040138 89.072709 
L 427.040138 89.072709 
L 427.044799 89.072709 
L 427.044799 89.072709 
L 427.049461 89.072709 
L 427.049461 89.072709 
L 427.054122 89.072709 
L 427.054122 89.072709 
L 427.058784 89.072709 
L 427.058784 89.072709 
L 427.063445 89.072709 
L 427.063445 89.072709 
L 427.068107 89.072709 
L 427.068107 89.072709 
L 427.072768 89.072709 
L 427.072768 89.072709 
L 427.07743 89.072709 
L 427.07743 89.072709 
L 427.082091 89.072709 
L 427.082091 89.072709 
L 427.086753 89.072709 
L 427.086753 89.072709 
L 427.091414 89.072709 
L 427.091414 89.072709 
L 427.096076 89.072709 
L 427.096076 89.072709 
L 427.100738 89.072709 
L 427.100738 89.072709 
L 427.105399 89.072709 
L 427.105399 89.072709 
L 427.110061 89.072709 
L 427.110061 89.072709 
L 427.114722 89.072709 
L 427.114722 89.072709 
L 427.119384 89.072709 
L 427.119384 89.072709 
L 427.124045 89.072709 
L 427.124045 89.072709 
L 427.128707 89.072709 
L 427.128707 89.072709 
L 427.133368 89.072709 
L 427.133368 89.072709 
L 427.13803 89.072709 
L 427.13803 89.072709 
L 427.142691 89.072709 
L 427.142691 89.072709 
L 427.147353 89.072709 
L 427.147353 89.072709 
L 427.152014 89.072709 
L 427.152014 89.072709 
L 427.156676 89.072709 
L 427.156676 89.072709 
L 427.161337 89.072709 
L 427.161337 117.419166 
L 427.161337 117.419166 
L 427.156676 117.419166 
L 427.156676 117.419166 
L 427.152014 117.419166 
L 427.152014 117.419166 
L 427.147353 117.419166 
L 427.147353 117.419166 
L 427.142691 117.419166 
L 427.142691 117.419166 
L 427.13803 117.419166 
L 427.13803 117.419166 
L 427.133368 117.419166 
L 427.133368 117.419166 
L 427.128707 117.419166 
L 427.128707 117.419166 
L 427.124045 117.419166 
L 427.124045 117.419166 
L 427.119384 117.419166 
L 427.119384 117.419166 
L 427.114722 117.419166 
L 427.114722 117.419166 
L 427.110061 117.419166 
L 427.110061 117.419166 
L 427.105399 117.419166 
L 427.105399 117.419166 
L 427.100738 117.419166 
L 427.100738 117.419166 
L 427.096076 117.419166 
L 427.096076 117.419166 
L 427.091414 117.419166 
L 427.091414 117.419166 
L 427.086753 117.419166 
L 427.086753 117.419166 
L 427.082091 117.419166 
L 427.082091 117.419166 
L 427.07743 117.419166 
L 427.07743 117.419166 
L 427.072768 117.419166 
L 427.072768 117.419166 
L 427.068107 117.419166 
L 427.068107 117.419166 
L 427.063445 117.419166 
L 427.063445 117.419166 
L 427.058784 117.419166 
L 427.058784 117.419166 
L 427.054122 117.419166 
L 427.054122 117.419166 
L 427.049461 117.419166 
L 427.049461 117.419166 
L 427.044799 117.419166 
L 427.044799 117.419166 
L 427.040138 117.419166 
L 427.040138 117.419166 
L 427.035476 117.419166 
L 427.035476 117.419166 
L 427.030815 117.419166 
L 427.030815 117.419166 
L 427.026153 117.419166 
L 427.026153 117.419166 
L 427.021492 117.419166 
L 427.021492 117.419166 
L 427.01683 117.419166 
z
" clip-path="url(#p1f886769da)" style="fill: #1f77b4; stroke: #1f77b4; stroke-width: 0.1"/>
    <path d="M 453.871874 117.419166 
L 453.871874 81.986095 
L 453.876535 81.986095 
L 453.876535 81.986095 
L 453.881197 81.986095 
L 453.881197 81.986095 
L 453.885859 81.986095 
L 453.885859 81.986095 
L 453.89052 81.986095 
L 453.89052 81.986095 
L 453.895182 81.986095 
L 453.895182 81.986095 
L 453.899843 81.986095 
L 453.899843 81.986095 
L 453.904505 81.986095 
L 453.904505 81.986095 
L 453.909166 81.986095 
L 453.909166 81.986095 
L 453.913828 81.986095 
L 453.913828 81.986095 
L 453.918489 81.986095 
L 453.918489 81.986095 
L 453.923151 81.986095 
L 453.923151 81.986095 
L 453.927812 81.986095 
L 453.927812 81.986095 
L 453.932474 81.986095 
L 453.932474 81.986095 
L 453.937135 81.986095 
L 453.937135 81.986095 
L 453.941797 81.986095 
L 453.941797 81.986095 
L 453.946458 81.986095 
L 453.946458 81.986095 
L 453.95112 81.986095 
L 453.95112 81.986095 
L 453.955781 81.986095 
L 453.955781 81.986095 
L 453.960443 81.986095 
L 453.960443 81.986095 
L 453.965104 81.986095 
L 453.965104 81.986095 
L 453.969766 81.986095 
L 453.969766 81.986095 
L 453.974427 81.986095 
L 453.974427 81.986095 
L 453.979089 81.986095 
L 453.979089 81.986095 
L 453.983751 81.986095 
L 453.983751 81.986095 
L 453.988412 81.986095 
L 453.988412 81.986095 
L 453.993074 81.986095 
L 453.993074 81.986095 
L 453.997735 81.986095 
L 453.997735 81.986095 
L 454.002397 81.986095 
L 454.002397 81.986095 
L 454.007058 81.986095 
L 454.007058 81.986095 
L 454.01172 81.986095 
L 454.01172 81.986095 
L 454.016381 81.986095 
L 454.016381 117.419166 
L 454.016381 117.419166 
L 454.01172 117.419166 
L 454.01172 117.419166 
L 454.007058 117.419166 
L 454.007058 117.419166 
L 454.002397 117.419166 
L 454.002397 117.419166 
L 453.997735 117.419166 
L 453.997735 117.419166 
L 453.993074 117.419166 
L 453.993074 117.419166 
L 453.988412 117.419166 
L 453.988412 117.419166 
L 453.983751 117.419166 
L 453.983751 117.419166 
L 453.979089 117.419166 
L 453.979089 117.419166 
L 453.974427 117.419166 
L 453.974427 117.419166 
L 453.969766 117.419166 
L 453.969766 117.419166 
L 453.965104 117.419166 
L 453.965104 117.419166 
L 453.960443 117.419166 
L 453.960443 117.419166 
L 453.955781 117.419166 
L 453.955781 117.419166 
L 453.95112 117.419166 
L 453.95112 117.419166 
L 453.946458 117.419166 
L 453.946458 117.419166 
L 453.941797 117.419166 
L 453.941797 117.419166 
L 453.937135 117.419166 
L 453.937135 117.419166 
L 453.932474 117.419166 
L 453.932474 117.419166 
L 453.927812 117.419166 
L 453.927812 117.419166 
L 453.923151 117.419166 
L 453.923151 117.419166 
L 453.918489 117.419166 
L 453.918489 117.419166 
L 453.913828 117.419166 
L 453.913828 117.419166 
L 453.909166 117.419166 
L 453.909166 117.419166 
L 453.904505 117.419166 
L 453.904505 117.419166 
L 453.899843 117.419166 
L 453.899843 117.419166 
L 453.895182 117.419166 
L 453.895182 117.419166 
L 453.89052 117.419166 
L 453.89052 117.419166 
L 453.885859 117.419166 
L 453.885859 117.419166 
L 453.881197 117.419166 
L 453.881197 117.419166 
L 453.876535 117.419166 
L 453.876535 117.419166 
L 453.871874 117.419166 
z
" clip-path="url(#p1f886769da)" style="fill: #1f77b4; stroke: #1f77b4; stroke-width: 0.1"/>
    <path d="M 681.727202 117.419166 
L 681.727202 89.072709 
L 681.731863 89.072709 
L 681.731863 89.072709 
L 681.736525 89.072709 
L 681.736525 89.072709 
L 681.741186 89.072709 
L 681.741186 89.072709 
L 681.745848 89.072709 
L 681.745848 89.072709 
L 681.75051 89.072709 
L 681.75051 89.072709 
L 681.755171 89.072709 
L 681.755171 89.072709 
L 681.759833 89.072709 
L 681.759833 89.072709 
L 681.764494 89.072709 
L 681.764494 89.072709 
L 681.769156 89.072709 
L 681.769156 89.072709 
L 681.773817 89.072709 
L 681.773817 89.072709 
L 681.778479 89.072709 
L 681.778479 89.072709 
L 681.78314 89.072709 
L 681.78314 89.072709 
L 681.787802 89.072709 
L 681.787802 89.072709 
L 681.792463 89.072709 
L 681.792463 89.072709 
L 681.797125 89.072709 
L 681.797125 89.072709 
L 681.801786 89.072709 
L 681.801786 89.072709 
L 681.806448 89.072709 
L 681.806448 89.072709 
L 681.811109 89.072709 
L 681.811109 89.072709 
L 681.815771 89.072709 
L 681.815771 89.072709 
L 681.820432 89.072709 
L 681.820432 89.072709 
L 681.825094 89.072709 
L 681.825094 89.072709 
L 681.829755 89.072709 
L 681.829755 89.072709 
L 681.834417 89.072709 
L 681.834417 89.072709 
L 681.839078 89.072709 
L 681.839078 89.072709 
L 681.84374 89.072709 
L 681.84374 89.072709 
L 681.848402 89.072709 
L 681.848402 89.072709 
L 681.853063 89.072709 
L 681.853063 89.072709 
L 681.857725 89.072709 
L 681.857725 89.072709 
L 681.862386 89.072709 
L 681.862386 89.072709 
L 681.867048 89.072709 
L 681.867048 89.072709 
L 681.871709 89.072709 
L 681.871709 117.419166 
L 681.871709 117.419166 
L 681.867048 117.419166 
L 681.867048 117.419166 
L 681.862386 117.419166 
L 681.862386 117.419166 
L 681.857725 117.419166 
L 681.857725 117.419166 
L 681.853063 117.419166 
L 681.853063 117.419166 
L 681.848402 117.419166 
L 681.848402 117.419166 
L 681.84374 117.419166 
L 681.84374 117.419166 
L 681.839078 117.419166 
L 681.839078 117.419166 
L 681.834417 117.419166 
L 681.834417 117.419166 
L 681.829755 117.419166 
L 681.829755 117.419166 
L 681.825094 117.419166 
L 681.825094 117.419166 
L 681.820432 117.419166 
L 681.820432 117.419166 
L 681.815771 117.419166 
L 681.815771 117.419166 
L 681.811109 117.419166 
L 681.811109 117.419166 
L 681.806448 117.419166 
L 681.806448 117.419166 
L 681.801786 117.419166 
L 681.801786 117.419166 
L 681.797125 117.419166 
L 681.797125 117.419166 
L 681.792463 117.419166 
L 681.792463 117.419166 
L 681.787802 117.419166 
L 681.787802 117.419166 
L 681.78314 117.419166 
L 681.78314 117.419166 
L 681.778479 117.419166 
L 681.778479 117.419166 
L 681.773817 117.419166 
L 681.773817 117.419166 
L 681.769156 117.419166 
L 681.769156 117.419166 
L 681.764494 117.419166 
L 681.764494 117.419166 
L 681.759833 117.419166 
L 681.759833 117.419166 
L 681.755171 117.419166 
L 681.755171 117.419166 
L 681.75051 117.419166 
L 681.75051 117.419166 
L 681.745848 117.419166 
L 681.745848 117.419166 
L 681.741186 117.419166 
L 681.741186 117.419166 
L 681.736525 117.419166 
L 681.736525 117.419166 
L 681.731863 117.419166 
L 681.731863 117.419166 
L 681.727202 117.419166 
z
" clip-path="url(#p1f886769da)" style="fill: #1f77b4; stroke: #1f77b4; stroke-width: 0.1"/>
   </g>
  </g>
  <g id="axes_5">
   <g id="line2d_1">
    <path d="M 45.354331 116.852237 
L 50.261199 116.852237 
L 50.261199 61.293181 
L 45.354331 61.293181 
" clip-path="url(#pb549766fcb)" style="fill: none; stroke: #000000; stroke-linecap: square"/>
   </g>
   <g id="text_11">
    <!-- 0 -->
    <g transform="translate(35.756583 115.49047)scale(0.12 -0.12)">
     <use xlink:href="#DejaVuSans-30"/>
    </g>
   </g>
   <g id="text_12">
    <!-- 1 -->
    <g transform="translate(35.756583 69.844377)scale(0.12 -0.12)">
     <defs>
      <path id="DejaVuSans-31" d="M 794 531 
L 1825 531 
L 1825 4091 
L 703 3866 
L 703 4441 
L 1819 4666 
L 2450 4666 
L 2450 531 
L 3481 531 
L 3481 0 
L 794 0 
L 794 531 
z
" transform="scale(0.015625)"/>
     </defs>
     <use xlink:href="#DejaVuSans-31"/>
    </g>
   </g>
  </g>
  <g id="axes_6">
   <g id="text_13">
    <!-- EH23b -->
    <g transform="translate(996.534359 93.046209)scale(0.144 -0.144)">
     <use xlink:href="#DejaVuSans-45"/>
     <use xlink:href="#DejaVuSans-48" x="63.183594"/>
     <use xlink:href="#DejaVuSans-32" x="138.378906"/>
     <use xlink:href="#DejaVuSans-33" x="202.001953"/>
     <use xlink:href="#DejaVuSans-62" x="265.625"/>
    </g>
   </g>
  </g>
  <g id="axes_7"/>
  <g id="axes_8"/>
  <g id="axes_9"/>
  <g id="axes_10">
   <g id="patch_3">
    <path d="M 82.502185 132.46796 
L 82.502185 143.412538 
L 97.973785 143.412538 
L 101.703005 137.940249 
L 97.973785 132.46796 
z
" clip-path="url(#p7e1a61b627)" style="fill: #1f78b4; stroke: #000000; stroke-width: 0.5; stroke-linejoin: miter"/>
   </g>
   <g id="patch_4">
    <path d="M 117.682712 157.640489 
L 117.682712 168.585067 
L 125.308966 168.585067 
L 129.038186 163.112778 
L 125.308966 157.640489 
z
" clip-path="url(#p7e1a61b627)" style="fill: #1f78b4; stroke: #000000; stroke-width: 0.5; stroke-linejoin: miter"/>
   </g>
   <g id="patch_5">
    <path d="M 164.82005 182.813018 
L 161.09083 188.285307 
L 164.82005 193.757596 
L 166.484214 193.757596 
L 166.484214 182.813018 
z
" clip-path="url(#p7e1a61b627)" style="fill: #1f78b4; stroke: #000000; stroke-width: 0.5; stroke-linejoin: miter"/>
   </g>
   <g id="patch_6">
    <path d="M 207.314509 207.985548 
L 207.314509 218.930125 
L 208.629059 218.930125 
L 212.358279 213.457837 
L 208.629059 207.985548 
z
" clip-path="url(#p7e1a61b627)" style="fill: #1f78b4; stroke: #000000; stroke-width: 0.5; stroke-linejoin: miter"/>
   </g>
   <g id="patch_7">
    <path d="M 321.810879 132.46796 
L 318.081659 137.940249 
L 321.810879 143.412538 
L 349.551612 143.412538 
L 349.551612 132.46796 
z
" clip-path="url(#p7e1a61b627)" style="fill: #1f78b4; stroke: #000000; stroke-width: 0.5; stroke-linejoin: miter"/>
   </g>
   <g id="patch_8">
    <path d="M 905.85331 132.46796 
L 902.12409 137.940249 
L 905.85331 143.412538 
L 924.709178 143.412538 
L 924.709178 132.46796 
z
" clip-path="url(#p7e1a61b627)" style="fill: #1f78b4; stroke: #000000; stroke-width: 0.5; stroke-linejoin: miter"/>
   </g>
   <g id="patch_9">
    <path d="M 979.421493 157.640489 
L 975.692273 163.112778 
L 979.421493 168.585067 
L 1001.838765 168.585067 
L 1001.838765 157.640489 
z
" clip-path="url(#p7e1a61b627)" style="fill: #1f78b4; stroke: #000000; stroke-width: 0.5; stroke-linejoin: miter"/>
   </g>
   <g id="text_14">
    <!-- EH23b.chr7.v1.g191830 -->
    <g transform="translate(101.703005 140.699624)scale(0.1 -0.1)">
     <defs>
      <path id="DejaVuSans-76" d="M 191 3500 
L 800 3500 
L 1894 563 
L 2988 3500 
L 3597 3500 
L 2284 0 
L 1503 0 
L 191 3500 
z
" transform="scale(0.015625)"/>
      <path id="DejaVuSans-67" d="M 2906 1791 
Q 2906 2416 2648 2759 
Q 2391 3103 1925 3103 
Q 1463 3103 1205 2759 
Q 947 2416 947 1791 
Q 947 1169 1205 825 
Q 1463 481 1925 481 
Q 2391 481 2648 825 
Q 2906 1169 2906 1791 
z
M 3481 434 
Q 3481 -459 3084 -895 
Q 2688 -1331 1869 -1331 
Q 1566 -1331 1297 -1286 
Q 1028 -1241 775 -1147 
L 775 -588 
Q 1028 -725 1275 -790 
Q 1522 -856 1778 -856 
Q 2344 -856 2625 -561 
Q 2906 -266 2906 331 
L 2906 616 
Q 2728 306 2450 153 
Q 2172 0 1784 0 
Q 1141 0 747 490 
Q 353 981 353 1791 
Q 353 2603 747 3093 
Q 1141 3584 1784 3584 
Q 2172 3584 2450 3431 
Q 2728 3278 2906 2969 
L 2906 3500 
L 3481 3500 
L 3481 434 
z
" transform="scale(0.015625)"/>
      <path id="DejaVuSans-39" d="M 703 97 
L 703 672 
Q 941 559 1184 500 
Q 1428 441 1663 441 
Q 2288 441 2617 861 
Q 2947 1281 2994 2138 
Q 2813 1869 2534 1725 
Q 2256 1581 1919 1581 
Q 1219 1581 811 2004 
Q 403 2428 403 3163 
Q 403 3881 828 4315 
Q 1253 4750 1959 4750 
Q 2769 4750 3195 4129 
Q 3622 3509 3622 2328 
Q 3622 1225 3098 567 
Q 2575 -91 1691 -91 
Q 1453 -91 1209 -44 
Q 966 3 703 97 
z
M 1959 2075 
Q 2384 2075 2632 2365 
Q 2881 2656 2881 3163 
Q 2881 3666 2632 3958 
Q 2384 4250 1959 4250 
Q 1534 4250 1286 3958 
Q 1038 3666 1038 3163 
Q 1038 2656 1286 2365 
Q 1534 2075 1959 2075 
z
" transform="scale(0.015625)"/>
      <path id="DejaVuSans-38" d="M 2034 2216 
Q 1584 2216 1326 1975 
Q 1069 1734 1069 1313 
Q 1069 891 1326 650 
Q 1584 409 2034 409 
Q 2484 409 2743 651 
Q 3003 894 3003 1313 
Q 3003 1734 2745 1975 
Q 2488 2216 2034 2216 
z
M 1403 2484 
Q 997 2584 770 2862 
Q 544 3141 544 3541 
Q 544 4100 942 4425 
Q 1341 4750 2034 4750 
Q 2731 4750 3128 4425 
Q 3525 4100 3525 3541 
Q 3525 3141 3298 2862 
Q 3072 2584 2669 2484 
Q 3125 2378 3379 2068 
Q 3634 1759 3634 1313 
Q 3634 634 3220 271 
Q 2806 -91 2034 -91 
Q 1263 -91 848 271 
Q 434 634 434 1313 
Q 434 1759 690 2068 
Q 947 2378 1403 2484 
z
M 1172 3481 
Q 1172 3119 1398 2916 
Q 1625 2713 2034 2713 
Q 2441 2713 2670 2916 
Q 2900 3119 2900 3481 
Q 2900 3844 2670 4047 
Q 2441 4250 2034 4250 
Q 1625 4250 1398 4047 
Q 1172 3844 1172 3481 
z
" transform="scale(0.015625)"/>
     </defs>
     <use xlink:href="#DejaVuSans-45"/>
     <use xlink:href="#DejaVuSans-48" x="63.183594"/>
     <use xlink:href="#DejaVuSans-32" x="138.378906"/>
     <use xlink:href="#DejaVuSans-33" x="202.001953"/>
     <use xlink:href="#DejaVuSans-62" x="265.625"/>
     <use xlink:href="#DejaVuSans-2e" x="329.101562"/>
     <use xlink:href="#DejaVuSans-63" x="360.888672"/>
     <use xlink:href="#DejaVuSans-68" x="415.869141"/>
     <use xlink:href="#DejaVuSans-72" x="479.248047"/>
     <use xlink:href="#DejaVuSans-37" x="520.361328"/>
     <use xlink:href="#DejaVuSans-2e" x="583.984375"/>
     <use xlink:href="#DejaVuSans-76" x="615.771484"/>
     <use xlink:href="#DejaVuSans-31" x="674.951172"/>
     <use xlink:href="#DejaVuSans-2e" x="738.574219"/>
     <use xlink:href="#DejaVuSans-67" x="770.361328"/>
     <use xlink:href="#DejaVuSans-31" x="833.837891"/>
     <use xlink:href="#DejaVuSans-39" x="897.460938"/>
     <use xlink:href="#DejaVuSans-31" x="961.083984"/>
     <use xlink:href="#DejaVuSans-38" x="1024.707031"/>
     <use xlink:href="#DejaVuSans-33" x="1088.330078"/>
     <use xlink:href="#DejaVuSans-30" x="1151.953125"/>
    </g>
   </g>
   <g id="text_15">
    <!-- EH23b.chr7.v1.g191840 -->
    <g transform="translate(129.038186 165.872153)scale(0.1 -0.1)">
     <use xlink:href="#DejaVuSans-45"/>
     <use xlink:href="#DejaVuSans-48" x="63.183594"/>
     <use xlink:href="#DejaVuSans-32" x="138.378906"/>
     <use xlink:href="#DejaVuSans-33" x="202.001953"/>
     <use xlink:href="#DejaVuSans-62" x="265.625"/>
     <use xlink:href="#DejaVuSans-2e" x="329.101562"/>
     <use xlink:href="#DejaVuSans-63" x="360.888672"/>
     <use xlink:href="#DejaVuSans-68" x="415.869141"/>
     <use xlink:href="#DejaVuSans-72" x="479.248047"/>
     <use xlink:href="#DejaVuSans-37" x="520.361328"/>
     <use xlink:href="#DejaVuSans-2e" x="583.984375"/>
     <use xlink:href="#DejaVuSans-76" x="615.771484"/>
     <use xlink:href="#DejaVuSans-31" x="674.951172"/>
     <use xlink:href="#DejaVuSans-2e" x="738.574219"/>
     <use xlink:href="#DejaVuSans-67" x="770.361328"/>
     <use xlink:href="#DejaVuSans-31" x="833.837891"/>
     <use xlink:href="#DejaVuSans-39" x="897.460938"/>
     <use xlink:href="#DejaVuSans-31" x="961.083984"/>
     <use xlink:href="#DejaVuSans-38" x="1024.707031"/>
     <use xlink:href="#DejaVuSans-34" x="1088.330078"/>
     <use xlink:href="#DejaVuSans-30" x="1151.953125"/>
    </g>
   </g>
   <g id="text_16">
    <!-- EH23b.chr7.v1.g191850 -->
    <g transform="translate(170.213434 191.044682)scale(0.1 -0.1)">
     <use xlink:href="#DejaVuSans-45"/>
     <use xlink:href="#DejaVuSans-48" x="63.183594"/>
     <use xlink:href="#DejaVuSans-32" x="138.378906"/>
     <use xlink:href="#DejaVuSans-33" x="202.001953"/>
     <use xlink:href="#DejaVuSans-62" x="265.625"/>
     <use xlink:href="#DejaVuSans-2e" x="329.101562"/>
     <use xlink:href="#DejaVuSans-63" x="360.888672"/>
     <use xlink:href="#DejaVuSans-68" x="415.869141"/>
     <use xlink:href="#DejaVuSans-72" x="479.248047"/>
     <use xlink:href="#DejaVuSans-37" x="520.361328"/>
     <use xlink:href="#DejaVuSans-2e" x="583.984375"/>
     <use xlink:href="#DejaVuSans-76" x="615.771484"/>
     <use xlink:href="#DejaVuSans-31" x="674.951172"/>
     <use xlink:href="#DejaVuSans-2e" x="738.574219"/>
     <use xlink:href="#DejaVuSans-67" x="770.361328"/>
     <use xlink:href="#DejaVuSans-31" x="833.837891"/>
     <use xlink:href="#DejaVuSans-39" x="897.460938"/>
     <use xlink:href="#DejaVuSans-31" x="961.083984"/>
     <use xlink:href="#DejaVuSans-38" x="1024.707031"/>
     <use xlink:href="#DejaVuSans-35" x="1088.330078"/>
     <use xlink:href="#DejaVuSans-30" x="1151.953125"/>
    </g>
   </g>
   <g id="text_17">
    <!-- EH23b.chr7.v1.g191860 -->
    <g transform="translate(212.358279 216.217212)scale(0.1 -0.1)">
     <use xlink:href="#DejaVuSans-45"/>
     <use xlink:href="#DejaVuSans-48" x="63.183594"/>
     <use xlink:href="#DejaVuSans-32" x="138.378906"/>
     <use xlink:href="#DejaVuSans-33" x="202.001953"/>
     <use xlink:href="#DejaVuSans-62" x="265.625"/>
     <use xlink:href="#DejaVuSans-2e" x="329.101562"/>
     <use xlink:href="#DejaVuSans-63" x="360.888672"/>
     <use xlink:href="#DejaVuSans-68" x="415.869141"/>
     <use xlink:href="#DejaVuSans-72" x="479.248047"/>
     <use xlink:href="#DejaVuSans-37" x="520.361328"/>
     <use xlink:href="#DejaVuSans-2e" x="583.984375"/>
     <use xlink:href="#DejaVuSans-76" x="615.771484"/>
     <use xlink:href="#DejaVuSans-31" x="674.951172"/>
     <use xlink:href="#DejaVuSans-2e" x="738.574219"/>
     <use xlink:href="#DejaVuSans-67" x="770.361328"/>
     <use xlink:href="#DejaVuSans-31" x="833.837891"/>
     <use xlink:href="#DejaVuSans-39" x="897.460938"/>
     <use xlink:href="#DejaVuSans-31" x="961.083984"/>
     <use xlink:href="#DejaVuSans-38" x="1024.707031"/>
     <use xlink:href="#DejaVuSans-36" x="1088.330078"/>
     <use xlink:href="#DejaVuSans-30" x="1151.953125"/>
    </g>
   </g>
   <g id="text_18">
    <!-- EH23b.chr7.v1.g191910 -->
    <g transform="translate(353.280832 140.699624)scale(0.1 -0.1)">
     <use xlink:href="#DejaVuSans-45"/>
     <use xlink:href="#DejaVuSans-48" x="63.183594"/>
     <use xlink:href="#DejaVuSans-32" x="138.378906"/>
     <use xlink:href="#DejaVuSans-33" x="202.001953"/>
     <use xlink:href="#DejaVuSans-62" x="265.625"/>
     <use xlink:href="#DejaVuSans-2e" x="329.101562"/>
     <use xlink:href="#DejaVuSans-63" x="360.888672"/>
     <use xlink:href="#DejaVuSans-68" x="415.869141"/>
     <use xlink:href="#DejaVuSans-72" x="479.248047"/>
     <use xlink:href="#DejaVuSans-37" x="520.361328"/>
     <use xlink:href="#DejaVuSans-2e" x="583.984375"/>
     <use xlink:href="#DejaVuSans-76" x="615.771484"/>
     <use xlink:href="#DejaVuSans-31" x="674.951172"/>
     <use xlink:href="#DejaVuSans-2e" x="738.574219"/>
     <use xlink:href="#DejaVuSans-67" x="770.361328"/>
     <use xlink:href="#DejaVuSans-31" x="833.837891"/>
     <use xlink:href="#DejaVuSans-39" x="897.460938"/>
     <use xlink:href="#DejaVuSans-31" x="961.083984"/>
     <use xlink:href="#DejaVuSans-39" x="1024.707031"/>
     <use xlink:href="#DejaVuSans-31" x="1088.330078"/>
     <use xlink:href="#DejaVuSans-30" x="1151.953125"/>
    </g>
   </g>
   <g id="text_19">
    <!-- EH23b.chr7.v1.g191940 -->
    <g transform="translate(928.438397 140.699624)scale(0.1 -0.1)">
     <use xlink:href="#DejaVuSans-45"/>
     <use xlink:href="#DejaVuSans-48" x="63.183594"/>
     <use xlink:href="#DejaVuSans-32" x="138.378906"/>
     <use xlink:href="#DejaVuSans-33" x="202.001953"/>
     <use xlink:href="#DejaVuSans-62" x="265.625"/>
     <use xlink:href="#DejaVuSans-2e" x="329.101562"/>
     <use xlink:href="#DejaVuSans-63" x="360.888672"/>
     <use xlink:href="#DejaVuSans-68" x="415.869141"/>
     <use xlink:href="#DejaVuSans-72" x="479.248047"/>
     <use xlink:href="#DejaVuSans-37" x="520.361328"/>
     <use xlink:href="#DejaVuSans-2e" x="583.984375"/>
     <use xlink:href="#DejaVuSans-76" x="615.771484"/>
     <use xlink:href="#DejaVuSans-31" x="674.951172"/>
     <use xlink:href="#DejaVuSans-2e" x="738.574219"/>
     <use xlink:href="#DejaVuSans-67" x="770.361328"/>
     <use xlink:href="#DejaVuSans-31" x="833.837891"/>
     <use xlink:href="#DejaVuSans-39" x="897.460938"/>
     <use xlink:href="#DejaVuSans-31" x="961.083984"/>
     <use xlink:href="#DejaVuSans-39" x="1024.707031"/>
     <use xlink:href="#DejaVuSans-34" x="1088.330078"/>
     <use xlink:href="#DejaVuSans-30" x="1151.953125"/>
    </g>
   </g>
  </g>
  <g id="axes_11"/>
  <g id="axes_12">
   <g id="text_20">
    <!-- genes -->
    <g transform="translate(996.534359 142.534144)scale(0.144 -0.144)">
     <defs>
      <path id="DejaVuSans-65" d="M 3597 1894 
L 3597 1613 
L 953 1613 
Q 991 1019 1311 708 
Q 1631 397 2203 397 
Q 2534 397 2845 478 
Q 3156 559 3463 722 
L 3463 178 
Q 3153 47 2828 -22 
Q 2503 -91 2169 -91 
Q 1331 -91 842 396 
Q 353 884 353 1716 
Q 353 2575 817 3079 
Q 1281 3584 2069 3584 
Q 2775 3584 3186 3129 
Q 3597 2675 3597 1894 
z
M 3022 2063 
Q 3016 2534 2758 2815 
Q 2500 3097 2075 3097 
Q 1594 3097 1305 2825 
Q 1016 2553 972 2059 
L 3022 2063 
z
" transform="scale(0.015625)"/>
      <path id="DejaVuSans-6e" d="M 3513 2113 
L 3513 0 
L 2938 0 
L 2938 2094 
Q 2938 2591 2744 2837 
Q 2550 3084 2163 3084 
Q 1697 3084 1428 2787 
Q 1159 2491 1159 1978 
L 1159 0 
L 581 0 
L 581 3500 
L 1159 3500 
L 1159 2956 
Q 1366 3272 1645 3428 
Q 1925 3584 2291 3584 
Q 2894 3584 3203 3211 
Q 3513 2838 3513 2113 
z
" transform="scale(0.015625)"/>
      <path id="DejaVuSans-73" d="M 2834 3397 
L 2834 2853 
Q 2591 2978 2328 3040 
Q 2066 3103 1784 3103 
Q 1356 3103 1142 2972 
Q 928 2841 928 2578 
Q 928 2378 1081 2264 
Q 1234 2150 1697 2047 
L 1894 2003 
Q 2506 1872 2764 1633 
Q 3022 1394 3022 966 
Q 3022 478 2636 193 
Q 2250 -91 1575 -91 
Q 1294 -91 989 -36 
Q 684 19 347 128 
L 347 722 
Q 666 556 975 473 
Q 1284 391 1588 391 
Q 1994 391 2212 530 
Q 2431 669 2431 922 
Q 2431 1156 2273 1281 
Q 2116 1406 1581 1522 
L 1381 1569 
Q 847 1681 609 1914 
Q 372 2147 372 2553 
Q 372 3047 722 3315 
Q 1072 3584 1716 3584 
Q 2034 3584 2315 3537 
Q 2597 3491 2834 3397 
z
" transform="scale(0.015625)"/>
     </defs>
     <use xlink:href="#DejaVuSans-67"/>
     <use xlink:href="#DejaVuSans-65" x="63.476562"/>
     <use xlink:href="#DejaVuSans-6e" x="125"/>
     <use xlink:href="#DejaVuSans-65" x="188.378906"/>
     <use xlink:href="#DejaVuSans-73" x="249.902344"/>
    </g>
   </g>
  </g>
 </g>
 <defs>
  <clipPath id="p69b31fcc4c">
   <rect x="58.472025" y="7.576646" width="932.304942" height="53.149606"/>
  </clipPath>
  <clipPath id="p1f886769da">
   <rect x="58.472025" y="60.726252" width="932.304942" height="56.692913"/>
  </clipPath>
  <clipPath id="pb549766fcb">
   <rect x="45.354331" y="60.726252" width="9.813736" height="56.692913"/>
  </clipPath>
  <clipPath id="p7e1a61b627">
   <rect x="58.472025" y="131.592394" width="932.304942" height="113.385827"/>
  </clipPath>
 </defs>
</svg>
