<?xml version="1.0" encoding="utf-8" standalone="no"?>
<!DOCTYPE svg PUBLIC "-//W3C//DTD SVG 1.1//EN"
  "http://www.w3.org/Graphics/SVG/1.1/DTD/svg11.dtd">
<svg xmlns:xlink="http://www.w3.org/1999/xlink" width="288pt" height="216pt" viewBox="0 0 288 216" xmlns="http://www.w3.org/2000/svg" version="1.1">
 <metadata>
  <rdf:RDF xmlns:dc="http://purl.org/dc/elements/1.1/" xmlns:cc="http://creativecommons.org/ns#" xmlns:rdf="http://www.w3.org/1999/02/22-rdf-syntax-ns#">
   <cc:Work>
    <dc:type rdf:resource="http://purl.org/dc/dcmitype/StillImage"/>
    <dc:date>2023-05-16T07:34:17.624716</dc:date>
    <dc:format>image/svg+xml</dc:format>
    <dc:creator>
     <cc:Agent>
      <dc:title>Matplotlib v3.7.1, https://matplotlib.org/</dc:title>
     </cc:Agent>
    </dc:creator>
   </cc:Work>
  </rdf:RDF>
 </metadata>
 <defs>
  <style type="text/css">*{stroke-linejoin: round; stroke-linecap: butt}</style>
 </defs>
 <g id="figure_1">
  <g id="patch_1">
   <path d="M 0 216 
L 288 216 
L 288 0 
L 0 0 
z
" style="fill: #ffffff"/>
  </g>
  <g id="axes_1">
   <g id="patch_2">
    <path d="M 47.91125 174.04 
L 213.696 174.04 
L 213.696 21.72 
L 47.91125 21.72 
z
" style="fill: #ffffff"/>
   </g>
   <g id="PolyCollection_1"/>
   <g id="PolyCollection_2"/>
   <g id="PolyCollection_3"/>
   <g id="PolyCollection_4"/>
   <g id="PolyCollection_5"/>
   <g id="matplotlib.axis_1">
    <g id="xtick_1">
     <g id="line2d_1">
      <defs>
       <path id="mdc09e4b793" d="M 0 0 
L 0 3.5 
" style="stroke: #000000; stroke-width: 0.8"/>
      </defs>
      <g>
       <use xlink:href="#mdc09e4b793" x="54.661955" y="174.04" style="stroke: #000000; stroke-width: 0.8"/>
      </g>
     </g>
     <g id="text_1">
      <!-- 0 -->
      <g transform="translate(51.480705 188.638438) scale(0.1 -0.1)">
       <defs>
        <path id="DejaVuSans-30" d="M 2034 4250 
Q 1547 4250 1301 3770 
Q 1056 3291 1056 2328 
Q 1056 1369 1301 889 
Q 1547 409 2034 409 
Q 2525 409 2770 889 
Q 3016 1369 3016 2328 
Q 3016 3291 2770 3770 
Q 2525 4250 2034 4250 
z
M 2034 4750 
Q 2819 4750 3233 4129 
Q 3647 3509 3647 2328 
Q 3647 1150 3233 529 
Q 2819 -91 2034 -91 
Q 1250 -91 836 529 
Q 422 1150 422 2328 
Q 422 3509 836 4129 
Q 1250 4750 2034 4750 
z
" transform="scale(0.015625)"/>
       </defs>
       <use xlink:href="#DejaVuSans-30"/>
      </g>
     </g>
    </g>
    <g id="xtick_2">
     <g id="line2d_2">
      <g>
       <use xlink:href="#mdc09e4b793" x="93.910238" y="174.04" style="stroke: #000000; stroke-width: 0.8"/>
      </g>
     </g>
     <g id="text_2">
      <!-- 50 -->
      <g transform="translate(87.547738 188.638438) scale(0.1 -0.1)">
       <defs>
        <path id="DejaVuSans-35" d="M 691 4666 
L 3169 4666 
L 3169 4134 
L 1269 4134 
L 1269 2991 
Q 1406 3038 1543 3061 
Q 1681 3084 1819 3084 
Q 2600 3084 3056 2656 
Q 3513 2228 3513 1497 
Q 3513 744 3044 326 
Q 2575 -91 1722 -91 
Q 1428 -91 1123 -41 
Q 819 9 494 109 
L 494 744 
Q 775 591 1075 516 
Q 1375 441 1709 441 
Q 2250 441 2565 725 
Q 2881 1009 2881 1497 
Q 2881 1984 2565 2268 
Q 2250 2553 1709 2553 
Q 1456 2553 1204 2497 
Q 953 2441 691 2322 
L 691 4666 
z
" transform="scale(0.015625)"/>
       </defs>
       <use xlink:href="#DejaVuSans-35"/>
       <use xlink:href="#DejaVuSans-30" x="63.623047"/>
      </g>
     </g>
    </g>
    <g id="xtick_3">
     <g id="line2d_3">
      <g>
       <use xlink:href="#mdc09e4b793" x="133.158522" y="174.04" style="stroke: #000000; stroke-width: 0.8"/>
      </g>
     </g>
     <g id="text_3">
      <!-- 100 -->
      <g transform="translate(123.614772 188.638438) scale(0.1 -0.1)">
       <defs>
        <path id="DejaVuSans-31" d="M 794 531 
L 1825 531 
L 1825 4091 
L 703 3866 
L 703 4441 
L 1819 4666 
L 2450 4666 
L 2450 531 
L 3481 531 
L 3481 0 
L 794 0 
L 794 531 
z
" transform="scale(0.015625)"/>
       </defs>
       <use xlink:href="#DejaVuSans-31"/>
       <use xlink:href="#DejaVuSans-30" x="63.623047"/>
       <use xlink:href="#DejaVuSans-30" x="127.246094"/>
      </g>
     </g>
    </g>
    <g id="xtick_4">
     <g id="line2d_4">
      <g>
       <use xlink:href="#mdc09e4b793" x="172.406806" y="174.04" style="stroke: #000000; stroke-width: 0.8"/>
      </g>
     </g>
     <g id="text_4">
      <!-- 150 -->
      <g transform="translate(162.863056 188.638438) scale(0.1 -0.1)">
       <use xlink:href="#DejaVuSans-31"/>
       <use xlink:href="#DejaVuSans-35" x="63.623047"/>
       <use xlink:href="#DejaVuSans-30" x="127.246094"/>
      </g>
     </g>
    </g>
    <g id="xtick_5">
     <g id="line2d_5">
      <g>
       <use xlink:href="#mdc09e4b793" x="211.655089" y="174.04" style="stroke: #000000; stroke-width: 0.8"/>
      </g>
     </g>
     <g id="text_5">
      <!-- 200 -->
      <g transform="translate(202.111339 188.638438) scale(0.1 -0.1)">
       <defs>
        <path id="DejaVuSans-32" d="M 1228 531 
L 3431 531 
L 3431 0 
L 469 0 
L 469 531 
Q 828 903 1448 1529 
Q 2069 2156 2228 2338 
Q 2531 2678 2651 2914 
Q 2772 3150 2772 3378 
Q 2772 3750 2511 3984 
Q 2250 4219 1831 4219 
Q 1534 4219 1204 4116 
Q 875 4013 500 3803 
L 500 4441 
Q 881 4594 1212 4672 
Q 1544 4750 1819 4750 
Q 2544 4750 2975 4387 
Q 3406 4025 3406 3419 
Q 3406 3131 3298 2873 
Q 3191 2616 2906 2266 
Q 2828 2175 2409 1742 
Q 1991 1309 1228 531 
z
" transform="scale(0.015625)"/>
       </defs>
       <use xlink:href="#DejaVuSans-32"/>
       <use xlink:href="#DejaVuSans-30" x="63.623047"/>
       <use xlink:href="#DejaVuSans-30" x="127.246094"/>
      </g>
     </g>
    </g>
    <g id="text_6">
     <!-- n_genomes -->
     <g transform="translate(102.104406 202.038438) scale(0.1 -0.1)">
      <defs>
       <path id="DejaVuSans-6e" d="M 3513 2113 
L 3513 0 
L 2938 0 
L 2938 2094 
Q 2938 2591 2744 2837 
Q 2550 3084 2163 3084 
Q 1697 3084 1428 2787 
Q 1159 2491 1159 1978 
L 1159 0 
L 581 0 
L 581 3500 
L 1159 3500 
L 1159 2956 
Q 1366 3272 1645 3428 
Q 1925 3584 2291 3584 
Q 2894 3584 3203 3211 
Q 3513 2838 3513 2113 
z
" transform="scale(0.015625)"/>
       <path id="DejaVuSans-5f" d="M 3263 -1063 
L 3263 -1509 
L -63 -1509 
L -63 -1063 
L 3263 -1063 
z
" transform="scale(0.015625)"/>
       <path id="DejaVuSans-67" d="M 2906 1791 
Q 2906 2416 2648 2759 
Q 2391 3103 1925 3103 
Q 1463 3103 1205 2759 
Q 947 2416 947 1791 
Q 947 1169 1205 825 
Q 1463 481 1925 481 
Q 2391 481 2648 825 
Q 2906 1169 2906 1791 
z
M 3481 434 
Q 3481 -459 3084 -895 
Q 2688 -1331 1869 -1331 
Q 1566 -1331 1297 -1286 
Q 1028 -1241 775 -1147 
L 775 -588 
Q 1028 -725 1275 -790 
Q 1522 -856 1778 -856 
Q 2344 -856 2625 -561 
Q 2906 -266 2906 331 
L 2906 616 
Q 2728 306 2450 153 
Q 2172 0 1784 0 
Q 1141 0 747 490 
Q 353 981 353 1791 
Q 353 2603 747 3093 
Q 1141 3584 1784 3584 
Q 2172 3584 2450 3431 
Q 2728 3278 2906 2969 
L 2906 3500 
L 3481 3500 
L 3481 434 
z
" transform="scale(0.015625)"/>
       <path id="DejaVuSans-65" d="M 3597 1894 
L 3597 1613 
L 953 1613 
Q 991 1019 1311 708 
Q 1631 397 2203 397 
Q 2534 397 2845 478 
Q 3156 559 3463 722 
L 3463 178 
Q 3153 47 2828 -22 
Q 2503 -91 2169 -91 
Q 1331 -91 842 396 
Q 353 884 353 1716 
Q 353 2575 817 3079 
Q 1281 3584 2069 3584 
Q 2775 3584 3186 3129 
Q 3597 2675 3597 1894 
z
M 3022 2063 
Q 3016 2534 2758 2815 
Q 2500 3097 2075 3097 
Q 1594 3097 1305 2825 
Q 1016 2553 972 2059 
L 3022 2063 
z
" transform="scale(0.015625)"/>
       <path id="DejaVuSans-6f" d="M 1959 3097 
Q 1497 3097 1228 2736 
Q 959 2375 959 1747 
Q 959 1119 1226 758 
Q 1494 397 1959 397 
Q 2419 397 2687 759 
Q 2956 1122 2956 1747 
Q 2956 2369 2687 2733 
Q 2419 3097 1959 3097 
z
M 1959 3584 
Q 2709 3584 3137 3096 
Q 3566 2609 3566 1747 
Q 3566 888 3137 398 
Q 2709 -91 1959 -91 
Q 1206 -91 779 398 
Q 353 888 353 1747 
Q 353 2609 779 3096 
Q 1206 3584 1959 3584 
z
" transform="scale(0.015625)"/>
       <path id="DejaVuSans-6d" d="M 3328 2828 
Q 3544 3216 3844 3400 
Q 4144 3584 4550 3584 
Q 5097 3584 5394 3201 
Q 5691 2819 5691 2113 
L 5691 0 
L 5113 0 
L 5113 2094 
Q 5113 2597 4934 2840 
Q 4756 3084 4391 3084 
Q 3944 3084 3684 2787 
Q 3425 2491 3425 1978 
L 3425 0 
L 2847 0 
L 2847 2094 
Q 2847 2600 2669 2842 
Q 2491 3084 2119 3084 
Q 1678 3084 1418 2786 
Q 1159 2488 1159 1978 
L 1159 0 
L 581 0 
L 581 3500 
L 1159 3500 
L 1159 2956 
Q 1356 3278 1631 3431 
Q 1906 3584 2284 3584 
Q 2666 3584 2933 3390 
Q 3200 3197 3328 2828 
z
" transform="scale(0.015625)"/>
       <path id="DejaVuSans-73" d="M 2834 3397 
L 2834 2853 
Q 2591 2978 2328 3040 
Q 2066 3103 1784 3103 
Q 1356 3103 1142 2972 
Q 928 2841 928 2578 
Q 928 2378 1081 2264 
Q 1234 2150 1697 2047 
L 1894 2003 
Q 2506 1872 2764 1633 
Q 3022 1394 3022 966 
Q 3022 478 2636 193 
Q 2250 -91 1575 -91 
Q 1294 -91 989 -36 
Q 684 19 347 128 
L 347 722 
Q 666 556 975 473 
Q 1284 391 1588 391 
Q 1994 391 2212 530 
Q 2431 669 2431 922 
Q 2431 1156 2273 1281 
Q 2116 1406 1581 1522 
L 1381 1569 
Q 847 1681 609 1914 
Q 372 2147 372 2553 
Q 372 3047 722 3315 
Q 1072 3584 1716 3584 
Q 2034 3584 2315 3537 
Q 2597 3491 2834 3397 
z
" transform="scale(0.015625)"/>
      </defs>
      <use xlink:href="#DejaVuSans-6e"/>
      <use xlink:href="#DejaVuSans-5f" x="63.378906"/>
      <use xlink:href="#DejaVuSans-67" x="113.378906"/>
      <use xlink:href="#DejaVuSans-65" x="176.855469"/>
      <use xlink:href="#DejaVuSans-6e" x="238.378906"/>
      <use xlink:href="#DejaVuSans-6f" x="301.757812"/>
      <use xlink:href="#DejaVuSans-6d" x="362.939453"/>
      <use xlink:href="#DejaVuSans-65" x="460.351562"/>
      <use xlink:href="#DejaVuSans-73" x="521.875"/>
     </g>
    </g>
   </g>
   <g id="matplotlib.axis_2">
    <g id="ytick_1">
     <g id="line2d_6">
      <defs>
       <path id="m06d706deb0" d="M 0 0 
L -3.5 0 
" style="stroke: #000000; stroke-width: 0.8"/>
      </defs>
      <g>
       <use xlink:href="#m06d706deb0" x="47.91125" y="174.04" style="stroke: #000000; stroke-width: 0.8"/>
      </g>
     </g>
     <g id="text_7">
      <!-- 0.0 -->
      <g transform="translate(25.008125 177.839219) scale(0.1 -0.1)">
       <defs>
        <path id="DejaVuSans-2e" d="M 684 794 
L 1344 794 
L 1344 0 
L 684 0 
L 684 794 
z
" transform="scale(0.015625)"/>
       </defs>
       <use xlink:href="#DejaVuSans-30"/>
       <use xlink:href="#DejaVuSans-2e" x="63.623047"/>
       <use xlink:href="#DejaVuSans-30" x="95.410156"/>
      </g>
     </g>
    </g>
    <g id="ytick_2">
     <g id="line2d_7">
      <g>
       <use xlink:href="#m06d706deb0" x="47.91125" y="142.598245" style="stroke: #000000; stroke-width: 0.8"/>
      </g>
     </g>
     <g id="text_8">
      <!-- 0.5 -->
      <g transform="translate(25.008125 146.397463) scale(0.1 -0.1)">
       <use xlink:href="#DejaVuSans-30"/>
       <use xlink:href="#DejaVuSans-2e" x="63.623047"/>
       <use xlink:href="#DejaVuSans-35" x="95.410156"/>
      </g>
     </g>
    </g>
    <g id="ytick_3">
     <g id="line2d_8">
      <g>
       <use xlink:href="#m06d706deb0" x="47.91125" y="111.156489" style="stroke: #000000; stroke-width: 0.8"/>
      </g>
     </g>
     <g id="text_9">
      <!-- 1.0 -->
      <g transform="translate(25.008125 114.955708) scale(0.1 -0.1)">
       <use xlink:href="#DejaVuSans-31"/>
       <use xlink:href="#DejaVuSans-2e" x="63.623047"/>
       <use xlink:href="#DejaVuSans-30" x="95.410156"/>
      </g>
     </g>
    </g>
    <g id="ytick_4">
     <g id="line2d_9">
      <g>
       <use xlink:href="#m06d706deb0" x="47.91125" y="79.714734" style="stroke: #000000; stroke-width: 0.8"/>
      </g>
     </g>
     <g id="text_10">
      <!-- 1.5 -->
      <g transform="translate(25.008125 83.513953) scale(0.1 -0.1)">
       <use xlink:href="#DejaVuSans-31"/>
       <use xlink:href="#DejaVuSans-2e" x="63.623047"/>
       <use xlink:href="#DejaVuSans-35" x="95.410156"/>
      </g>
     </g>
    </g>
    <g id="ytick_5">
     <g id="line2d_10">
      <g>
       <use xlink:href="#m06d706deb0" x="47.91125" y="48.272979" style="stroke: #000000; stroke-width: 0.8"/>
      </g>
     </g>
     <g id="text_11">
      <!-- 2.0 -->
      <g transform="translate(25.008125 52.072198) scale(0.1 -0.1)">
       <use xlink:href="#DejaVuSans-32"/>
       <use xlink:href="#DejaVuSans-2e" x="63.623047"/>
       <use xlink:href="#DejaVuSans-30" x="95.410156"/>
      </g>
     </g>
    </g>
    <g id="text_12">
     <!-- n_kmers -->
     <g transform="translate(18.650312 119.051094) rotate(-90) scale(0.1 -0.1)">
      <defs>
       <path id="DejaVuSans-6b" d="M 581 4863 
L 1159 4863 
L 1159 1991 
L 2875 3500 
L 3609 3500 
L 1753 1863 
L 3688 0 
L 2938 0 
L 1159 1709 
L 1159 0 
L 581 0 
L 581 4863 
z
" transform="scale(0.015625)"/>
       <path id="DejaVuSans-72" d="M 2631 2963 
Q 2534 3019 2420 3045 
Q 2306 3072 2169 3072 
Q 1681 3072 1420 2755 
Q 1159 2438 1159 1844 
L 1159 0 
L 581 0 
L 581 3500 
L 1159 3500 
L 1159 2956 
Q 1341 3275 1631 3429 
Q 1922 3584 2338 3584 
Q 2397 3584 2469 3576 
Q 2541 3569 2628 3553 
L 2631 2963 
z
" transform="scale(0.015625)"/>
      </defs>
      <use xlink:href="#DejaVuSans-6e"/>
      <use xlink:href="#DejaVuSans-5f" x="63.378906"/>
      <use xlink:href="#DejaVuSans-6b" x="113.378906"/>
      <use xlink:href="#DejaVuSans-6d" x="171.289062"/>
      <use xlink:href="#DejaVuSans-65" x="268.701172"/>
      <use xlink:href="#DejaVuSans-72" x="330.224609"/>
      <use xlink:href="#DejaVuSans-73" x="371.337891"/>
     </g>
    </g>
    <g id="text_13">
     <!-- 1e9 -->
     <g transform="translate(47.91125 18.72) scale(0.1 -0.1)">
      <defs>
       <path id="DejaVuSans-39" d="M 703 97 
L 703 672 
Q 941 559 1184 500 
Q 1428 441 1663 441 
Q 2288 441 2617 861 
Q 2947 1281 2994 2138 
Q 2813 1869 2534 1725 
Q 2256 1581 1919 1581 
Q 1219 1581 811 2004 
Q 403 2428 403 3163 
Q 403 3881 828 4315 
Q 1253 4750 1959 4750 
Q 2769 4750 3195 4129 
Q 3622 3509 3622 2328 
Q 3622 1225 3098 567 
Q 2575 -91 1691 -91 
Q 1453 -91 1209 -44 
Q 966 3 703 97 
z
M 1959 2075 
Q 2384 2075 2632 2365 
Q 2881 2656 2881 3163 
Q 2881 3666 2632 3958 
Q 2384 4250 1959 4250 
Q 1534 4250 1286 3958 
Q 1038 3666 1038 3163 
Q 1038 2656 1286 2365 
Q 1534 2075 1959 2075 
z
" transform="scale(0.015625)"/>
      </defs>
      <use xlink:href="#DejaVuSans-31"/>
      <use xlink:href="#DejaVuSans-65" x="63.623047"/>
      <use xlink:href="#DejaVuSans-39" x="125.146484"/>
     </g>
    </g>
   </g>
   <g id="line2d_11">
    <path d="M 55.44692 147.750665 
L 56.231886 137.924363 
L 57.016852 131.669042 
L 57.801817 127.046583 
L 58.586783 123.37344 
L 60.156714 117.711874 
L 61.726646 113.394235 
L 63.296577 109.88842 
L 64.866509 106.922899 
L 66.43644 104.340713 
L 68.791337 100.979879 
L 71.146234 98.059353 
L 73.501131 95.455515 
L 76.640994 92.34386 
L 79.780856 89.537352 
L 83.705685 86.345264 
L 88.415479 82.858162 
L 93.125273 79.650896 
L 98.620032 76.177193 
L 104.899758 72.479984 
L 111.964449 68.590426 
L 119.814106 64.530989 
L 128.448728 60.317904 
L 137.868316 55.963027 
L 148.857835 51.138642 
L 160.632321 46.218563 
L 173.976737 40.896968 
L 188.106119 35.506259 
L 203.805433 29.762351 
L 206.16033 28.920529 
L 206.16033 28.920529 
" clip-path="url(#p479a009552)" style="fill: none; stroke: #79d6ae; stroke-width: 3; stroke-linecap: square"/>
   </g>
   <g id="line2d_12">
    <path d="M 55.44692 147.750665 
L 56.231886 137.924363 
L 57.016852 131.669042 
L 57.801817 145.536421 
L 58.586783 141.739154 
L 59.371749 138.626285 
L 60.156714 135.988852 
L 60.94168 142.843703 
L 62.511612 138.868594 
L 63.296577 137.169806 
L 64.081543 141.819894 
L 65.651474 139.020855 
L 66.43644 137.767717 
L 67.221406 141.283735 
L 69.576303 138.131825 
L 70.361268 140.954309 
L 72.716165 138.376391 
L 73.501131 140.731196 
L 75.856028 138.551196 
L 76.640994 140.569853 
L 78.995891 138.681752 
L 79.780856 140.447592 
L 82.135753 138.78259 
L 82.920719 140.351673 
L 85.275616 138.862611 
L 86.060582 140.274395 
L 88.415479 138.927569 
L 89.200444 140.210826 
L 91.555341 138.981336 
L 92.340307 140.157654 
L 94.695204 139.0266 
L 95.48017 140.11257 
L 97.835067 139.06528 
L 98.620032 140.073911 
L 100.974929 139.098771 
L 101.759895 140.040446 
L 104.114792 139.128112 
L 104.899758 140.011242 
L 107.254655 139.154086 
L 108.039621 139.985579 
L 110.394518 139.177296 
L 111.179483 139.962893 
L 113.53438 139.19821 
L 114.319346 139.942733 
L 116.674243 139.217197 
L 117.459209 139.924735 
L 119.814106 139.234551 
L 120.599071 139.908601 
L 122.953968 139.250508 
L 123.738934 139.894085 
L 126.093831 139.265259 
L 126.878797 139.880979 
L 129.233694 139.278962 
L 130.018659 139.86911 
L 132.373556 139.291743 
L 133.158522 139.858328 
L 135.513419 139.303706 
L 136.298385 139.848504 
L 138.653282 139.314938 
L 139.438247 139.839528 
L 141.793144 139.325509 
L 142.57811 139.831301 
L 144.933007 139.335476 
L 145.717973 139.823737 
L 148.07287 139.344886 
L 148.857835 139.816761 
L 151.212732 139.353778 
L 151.997698 139.810306 
L 154.352595 139.362184 
L 155.137561 139.80431 
L 157.492458 139.370128 
L 158.277424 139.798723 
L 160.632321 139.377631 
L 161.417286 139.793495 
L 163.772183 139.38471 
L 164.557149 139.788587 
L 166.912046 139.391381 
L 167.697012 139.783961 
L 170.051909 139.397655 
L 170.836874 139.779588 
L 173.191771 139.403545 
L 173.976737 139.775441 
L 176.331634 139.409063 
L 177.1166 139.771496 
L 179.471497 139.414223 
L 180.256462 139.767733 
L 182.611359 139.419041 
L 183.396325 139.76413 
L 185.751222 139.423528 
L 186.536188 139.760657 
L 188.891085 139.427693 
L 189.67605 139.757272 
L 192.030947 139.431524 
L 192.815913 139.753903 
L 195.17081 139.434964 
L 195.955776 139.750441 
L 198.310673 139.437896 
L 199.095638 139.746723 
L 201.450536 139.440168 
L 202.235501 139.742328 
L 204.590398 139.440974 
L 205.375364 139.736574 
L 206.16033 139.636392 
L 206.16033 139.636392 
" clip-path="url(#p479a009552)" style="fill: none; stroke: #38aaac; stroke-width: 3; stroke-linecap: square"/>
   </g>
   <g id="line2d_13">
    <path d="M 55.44692 147.750665 
L 56.231886 157.576968 
L 57.016852 150.435004 
L 57.801817 155.333586 
L 58.586783 151.232322 
L 59.371749 154.499752 
L 60.156714 151.624924 
L 60.94168 154.069702 
L 61.726646 151.856967 
L 62.511612 153.808187 
L 63.296577 152.009764 
L 64.081543 153.632585 
L 64.866509 152.117922 
L 65.651474 153.506621 
L 66.43644 152.198524 
L 67.221406 153.411903 
L 68.006371 152.260934 
L 68.791337 153.338118 
L 69.576303 152.310701 
L 70.361268 153.279038 
L 71.146234 152.351326 
L 71.9312 153.230681 
L 72.716165 152.385125 
L 73.501131 153.190382 
L 74.286097 152.413692 
L 75.071062 153.156292 
L 75.856028 152.438159 
L 76.640994 153.127086 
L 77.425959 152.459355 
L 78.210925 153.101792 
L 78.995891 152.477897 
L 79.780856 153.079678 
L 80.565822 152.494257 
L 81.350788 153.060183 
L 82.135753 152.5088 
L 82.920719 153.042873 
L 83.705685 152.521814 
L 84.49065 153.027401 
L 85.275616 152.533528 
L 86.060582 153.013492 
L 86.845547 152.544128 
L 87.630513 153.000921 
L 88.415479 152.553765 
L 89.200444 152.989505 
L 89.98541 152.562565 
L 90.770376 152.979092 
L 91.555341 152.570631 
L 92.340307 152.969555 
L 93.125273 152.57805 
L 93.910238 152.960789 
L 94.695204 152.584898 
L 95.48017 152.952703 
L 96.265135 152.591235 
L 97.050101 152.945221 
L 97.835067 152.597116 
L 98.620032 152.938276 
L 99.404998 152.602587 
L 100.189964 152.931812 
L 100.974929 152.60769 
L 101.759895 152.92578 
L 102.544861 152.612457 
L 103.329826 152.920137 
L 104.114792 152.616921 
L 104.899758 152.914846 
L 105.684723 152.621108 
L 106.469689 152.909874 
L 107.254655 152.625042 
L 108.039621 152.905192 
L 108.824586 152.628745 
L 109.609552 152.900775 
L 110.394518 152.632234 
L 111.179483 152.896599 
L 111.964449 152.635527 
L 112.749415 152.892646 
L 113.53438 152.63864 
L 114.319346 152.888897 
L 115.104312 152.641585 
L 115.889277 152.885336 
L 116.674243 152.644375 
L 117.459209 152.881948 
L 118.244174 152.647022 
L 119.02914 152.878721 
L 119.814106 152.649534 
L 120.599071 152.875644 
L 121.384037 152.651923 
L 122.169003 152.872705 
L 122.953968 152.654196 
L 123.738934 152.869896 
L 124.5239 152.656361 
L 125.308865 152.867207 
L 126.093831 152.658425 
L 126.878797 152.864631 
L 127.663762 152.660395 
L 128.448728 152.862161 
L 129.233694 152.662277 
L 130.018659 152.85979 
L 130.803625 152.664076 
L 131.588591 152.857513 
L 132.373556 152.665798 
L 133.158522 152.855324 
L 133.943488 152.667448 
L 134.728453 152.853219 
L 135.513419 152.669029 
L 136.298385 152.851191 
L 137.08335 152.670547 
L 137.868316 152.849239 
L 138.653282 152.672004 
L 139.438247 152.847357 
L 140.223213 152.673406 
L 141.008179 152.845542 
L 141.793144 152.674754 
L 142.57811 152.843791 
L 143.363076 152.676052 
L 144.148041 152.842101 
L 144.933007 152.677303 
L 145.717973 152.840469 
L 146.502938 152.678511 
L 147.287904 152.838892 
L 148.07287 152.679676 
L 148.857835 152.837368 
L 149.642801 152.680802 
L 150.427767 152.835895 
L 151.212732 152.68189 
L 151.997698 152.83447 
L 152.782664 152.682944 
L 153.567629 152.833091 
L 154.352595 152.683964 
L 155.137561 152.831757 
L 155.922527 152.684952 
L 156.707492 152.830465 
L 157.492458 152.68591 
L 158.277424 152.829215 
L 159.062389 152.68684 
L 159.847355 152.828003 
L 160.632321 152.687743 
L 161.417286 152.826829 
L 162.202252 152.688619 
L 162.987218 152.825691 
L 163.772183 152.68947 
L 164.557149 152.824588 
L 165.342115 152.690298 
L 166.12708 152.823518 
L 166.912046 152.691102 
L 167.697012 152.82248 
L 168.481977 152.691883 
L 169.266943 152.821472 
L 170.051909 152.692642 
L 170.836874 152.820493 
L 171.62184 152.69338 
L 172.406806 152.819542 
L 173.191771 152.694097 
L 173.976737 152.818617 
L 174.761703 152.694793 
L 175.546668 152.817716 
L 176.331634 152.695467 
L 177.1166 152.816839 
L 177.901565 152.69612 
L 178.686531 152.815983 
L 179.471497 152.696752 
L 180.256462 152.815147 
L 181.041428 152.697361 
L 181.826394 152.814328 
L 182.611359 152.697948 
L 183.396325 152.813526 
L 184.181291 152.69851 
L 184.966256 152.812736 
L 185.751222 152.699046 
L 186.536188 152.811957 
L 187.321153 152.699554 
L 188.106119 152.811185 
L 188.891085 152.700032 
L 189.67605 152.810415 
L 190.461016 152.700477 
L 191.245982 152.809644 
L 192.030947 152.700883 
L 192.815913 152.808866 
L 193.600879 152.701248 
L 194.385844 152.808072 
L 195.17081 152.701563 
L 195.955776 152.807257 
L 196.740741 152.701822 
L 197.525707 152.80641 
L 198.310673 152.702016 
L 199.095638 152.805521 
L 199.880604 152.702135 
L 200.66557 152.804581 
L 201.450536 152.702167 
L 202.235501 152.803578 
L 203.020467 152.702109 
L 203.805433 152.802503 
L 204.590398 152.702002 
L 205.375364 152.801223 
L 206.16033 152.702347 
L 206.16033 152.702347 
" clip-path="url(#p479a009552)" style="fill: none; stroke: #357aa2; stroke-width: 3; stroke-linecap: square"/>
   </g>
   <g id="line2d_14">
    <path d="M 55.44692 147.750665 
L 56.231886 157.576968 
L 57.016852 161.14795 
L 57.801817 163.086071 
L 58.586783 158.067762 
L 59.371749 159.851767 
L 60.156714 161.130124 
L 60.94168 162.104307 
L 61.726646 159.39142 
L 63.296577 161.105556 
L 64.081543 161.754749 
L 64.866509 159.901417 
L 66.43644 161.090368 
L 67.221406 161.576693 
L 68.006371 160.171215 
L 69.576303 161.081005 
L 70.361268 161.469611 
L 71.146234 160.338362 
L 73.501131 161.398502 
L 74.286097 160.45219 
L 76.640994 161.347968 
L 77.425959 160.534729 
L 79.780856 161.310223 
L 80.565822 160.597309 
L 82.920719 161.280937 
L 83.705685 160.646363 
L 86.060582 161.257523 
L 86.845547 160.68582 
L 89.200444 161.238348 
L 89.98541 160.718219 
L 92.340307 161.222332 
L 93.125273 160.745275 
L 95.48017 161.208734 
L 96.265135 160.768188 
L 98.620032 161.197029 
L 99.404998 160.787824 
L 101.759895 161.186832 
L 102.544861 160.804823 
L 104.899758 161.177858 
L 105.684723 160.819668 
L 108.039621 161.16989 
L 108.824586 160.832733 
L 111.179483 161.162758 
L 111.964449 160.844307 
L 114.319346 161.156331 
L 115.104312 160.854624 
L 117.459209 161.150501 
L 118.244174 160.863868 
L 120.599071 161.145184 
L 121.384037 160.872191 
L 123.738934 161.14031 
L 124.5239 160.879717 
L 126.878797 161.135821 
L 127.663762 160.88655 
L 130.018659 161.131669 
L 130.803625 160.892777 
L 133.158522 161.127815 
L 133.943488 160.898468 
L 136.298385 161.124225 
L 137.08335 160.903688 
L 139.438247 161.120868 
L 140.223213 160.908487 
L 142.57811 161.117721 
L 143.363076 160.912911 
L 145.717973 161.114762 
L 146.502938 160.916998 
L 148.857835 161.111971 
L 149.642801 160.920783 
L 151.997698 161.109332 
L 152.782664 160.924293 
L 155.137561 161.106829 
L 155.922527 160.927555 
L 158.277424 161.104451 
L 159.062389 160.93059 
L 161.417286 161.102184 
L 162.202252 160.933416 
L 164.557149 161.100017 
L 165.342115 160.936052 
L 167.697012 161.097942 
L 168.481977 160.938511 
L 170.836874 161.095948 
L 171.62184 160.940807 
L 173.976737 161.094029 
L 174.761703 160.942952 
L 177.1166 161.092178 
L 177.901565 160.944957 
L 180.256462 161.09039 
L 181.041428 160.946832 
L 183.396325 161.088662 
L 184.181291 160.948588 
L 186.536188 161.086993 
L 187.321153 160.950235 
L 189.67605 161.085386 
L 190.461016 160.951787 
L 192.815913 161.08385 
L 193.600879 160.953258 
L 195.955776 161.082405 
L 196.740741 160.954665 
L 199.095638 161.081081 
L 199.880604 160.956015 
L 202.235501 161.079887 
L 203.020467 160.957308 
L 205.375364 161.078756 
L 206.16033 160.958283 
L 206.16033 160.958283 
" clip-path="url(#p479a009552)" style="fill: none; stroke: #40498e; stroke-width: 3; stroke-linecap: square"/>
   </g>
   <g id="line2d_15">
    <path d="M 55.44692 147.750665 
L 56.231886 157.576968 
L 57.016852 161.14795 
L 57.801817 163.086071 
L 58.586783 164.340648 
L 59.371749 165.238424 
L 60.94168 166.468689 
L 62.511612 167.295273 
L 64.866509 168.15149 
L 67.221406 168.754094 
L 70.361268 169.337969 
L 75.071062 169.950607 
L 81.350788 170.505461 
L 89.98541 171.019729 
L 102.544861 171.51565 
L 120.599071 171.980185 
L 146.502938 172.406019 
L 184.181291 172.783758 
L 206.16033 172.931108 
L 206.16033 172.931108 
" clip-path="url(#p479a009552)" style="fill: none; stroke: #332345; stroke-width: 3; stroke-linecap: square"/>
   </g>
   <g id="line2d_16"/>
   <g id="line2d_17"/>
   <g id="line2d_18"/>
   <g id="line2d_19"/>
   <g id="line2d_20"/>
   <g id="patch_3">
    <path d="M 47.91125 174.04 
L 47.91125 21.72 
" style="fill: none; stroke: #000000; stroke-width: 0.8; stroke-linejoin: miter; stroke-linecap: square"/>
   </g>
   <g id="patch_4">
    <path d="M 213.696 174.04 
L 213.696 21.72 
" style="fill: none; stroke: #000000; stroke-width: 0.8; stroke-linejoin: miter; stroke-linecap: square"/>
   </g>
   <g id="patch_5">
    <path d="M 47.91125 174.04 
L 213.696 174.04 
" style="fill: none; stroke: #000000; stroke-width: 0.8; stroke-linejoin: miter; stroke-linecap: square"/>
   </g>
   <g id="patch_6">
    <path d="M 47.91125 21.72 
L 213.696 21.72 
" style="fill: none; stroke: #000000; stroke-width: 0.8; stroke-linejoin: miter; stroke-linecap: square"/>
   </g>
   <g id="legend_1">
    <g id="patch_7">
     <path d="M 219.011695 98.110625 
L 273.87732 98.110625 
Q 275.87732 98.110625 275.87732 96.110625 
L 275.87732 23.72 
Q 275.87732 21.72 273.87732 21.72 
L 219.011695 21.72 
Q 217.011695 21.72 217.011695 23.72 
L 217.011695 96.110625 
Q 217.011695 98.110625 219.011695 98.110625 
z
" style="fill: #ffffff; opacity: 0.8; stroke: #cccccc; stroke-linejoin: miter"/>
    </g>
    <g id="line2d_21">
     <path d="M 221.011695 29.818438 
L 231.011695 29.818438 
L 241.011695 29.818438 
" style="fill: none; stroke: #79d6ae; stroke-width: 3; stroke-linecap: square"/>
    </g>
    <g id="text_14">
     <!-- total -->
     <g transform="translate(249.011695 33.318438) scale(0.1 -0.1)">
      <defs>
       <path id="DejaVuSans-74" d="M 1172 4494 
L 1172 3500 
L 2356 3500 
L 2356 3053 
L 1172 3053 
L 1172 1153 
Q 1172 725 1289 603 
Q 1406 481 1766 481 
L 2356 481 
L 2356 0 
L 1766 0 
Q 1100 0 847 248 
Q 594 497 594 1153 
L 594 3053 
L 172 3053 
L 172 3500 
L 594 3500 
L 594 4494 
L 1172 4494 
z
" transform="scale(0.015625)"/>
       <path id="DejaVuSans-61" d="M 2194 1759 
Q 1497 1759 1228 1600 
Q 959 1441 959 1056 
Q 959 750 1161 570 
Q 1363 391 1709 391 
Q 2188 391 2477 730 
Q 2766 1069 2766 1631 
L 2766 1759 
L 2194 1759 
z
M 3341 1997 
L 3341 0 
L 2766 0 
L 2766 531 
Q 2569 213 2275 61 
Q 1981 -91 1556 -91 
Q 1019 -91 701 211 
Q 384 513 384 1019 
Q 384 1609 779 1909 
Q 1175 2209 1959 2209 
L 2766 2209 
L 2766 2266 
Q 2766 2663 2505 2880 
Q 2244 3097 1772 3097 
Q 1472 3097 1187 3025 
Q 903 2953 641 2809 
L 641 3341 
Q 956 3463 1253 3523 
Q 1550 3584 1831 3584 
Q 2591 3584 2966 3190 
Q 3341 2797 3341 1997 
z
" transform="scale(0.015625)"/>
       <path id="DejaVuSans-6c" d="M 603 4863 
L 1178 4863 
L 1178 0 
L 603 0 
L 603 4863 
z
" transform="scale(0.015625)"/>
      </defs>
      <use xlink:href="#DejaVuSans-74"/>
      <use xlink:href="#DejaVuSans-6f" x="39.208984"/>
      <use xlink:href="#DejaVuSans-74" x="100.390625"/>
      <use xlink:href="#DejaVuSans-61" x="139.599609"/>
      <use xlink:href="#DejaVuSans-6c" x="200.878906"/>
     </g>
    </g>
    <g id="line2d_22">
     <path d="M 221.011695 44.496563 
L 231.011695 44.496563 
L 241.011695 44.496563 
" style="fill: none; stroke: #38aaac; stroke-width: 3; stroke-linecap: square"/>
    </g>
    <g id="text_15">
     <!-- 25% -->
     <g transform="translate(249.011695 47.996563) scale(0.1 -0.1)">
      <defs>
       <path id="DejaVuSans-25" d="M 4653 2053 
Q 4381 2053 4226 1822 
Q 4072 1591 4072 1178 
Q 4072 772 4226 539 
Q 4381 306 4653 306 
Q 4919 306 5073 539 
Q 5228 772 5228 1178 
Q 5228 1588 5073 1820 
Q 4919 2053 4653 2053 
z
M 4653 2450 
Q 5147 2450 5437 2106 
Q 5728 1763 5728 1178 
Q 5728 594 5436 251 
Q 5144 -91 4653 -91 
Q 4153 -91 3862 251 
Q 3572 594 3572 1178 
Q 3572 1766 3864 2108 
Q 4156 2450 4653 2450 
z
M 1428 4353 
Q 1159 4353 1004 4120 
Q 850 3888 850 3481 
Q 850 3069 1003 2837 
Q 1156 2606 1428 2606 
Q 1700 2606 1854 2837 
Q 2009 3069 2009 3481 
Q 2009 3884 1853 4118 
Q 1697 4353 1428 4353 
z
M 4250 4750 
L 4750 4750 
L 1831 -91 
L 1331 -91 
L 4250 4750 
z
M 1428 4750 
Q 1922 4750 2215 4408 
Q 2509 4066 2509 3481 
Q 2509 2891 2217 2550 
Q 1925 2209 1428 2209 
Q 931 2209 642 2551 
Q 353 2894 353 3481 
Q 353 4063 643 4406 
Q 934 4750 1428 4750 
z
" transform="scale(0.015625)"/>
      </defs>
      <use xlink:href="#DejaVuSans-32"/>
      <use xlink:href="#DejaVuSans-35" x="63.623047"/>
      <use xlink:href="#DejaVuSans-25" x="127.246094"/>
     </g>
    </g>
    <g id="line2d_23">
     <path d="M 221.011695 59.174688 
L 231.011695 59.174688 
L 241.011695 59.174688 
" style="fill: none; stroke: #357aa2; stroke-width: 3; stroke-linecap: square"/>
    </g>
    <g id="text_16">
     <!-- 50% -->
     <g transform="translate(249.011695 62.674688) scale(0.1 -0.1)">
      <use xlink:href="#DejaVuSans-35"/>
      <use xlink:href="#DejaVuSans-30" x="63.623047"/>
      <use xlink:href="#DejaVuSans-25" x="127.246094"/>
     </g>
    </g>
    <g id="line2d_24">
     <path d="M 221.011695 73.852813 
L 231.011695 73.852813 
L 241.011695 73.852813 
" style="fill: none; stroke: #40498e; stroke-width: 3; stroke-linecap: square"/>
    </g>
    <g id="text_17">
     <!-- 75% -->
     <g transform="translate(249.011695 77.352813) scale(0.1 -0.1)">
      <defs>
       <path id="DejaVuSans-37" d="M 525 4666 
L 3525 4666 
L 3525 4397 
L 1831 0 
L 1172 0 
L 2766 4134 
L 525 4134 
L 525 4666 
z
" transform="scale(0.015625)"/>
      </defs>
      <use xlink:href="#DejaVuSans-37"/>
      <use xlink:href="#DejaVuSans-35" x="63.623047"/>
      <use xlink:href="#DejaVuSans-25" x="127.246094"/>
     </g>
    </g>
    <g id="line2d_25">
     <path d="M 221.011695 88.530938 
L 231.011695 88.530938 
L 241.011695 88.530938 
" style="fill: none; stroke: #332345; stroke-width: 3; stroke-linecap: square"/>
    </g>
    <g id="text_18">
     <!-- core -->
     <g transform="translate(249.011695 92.030938) scale(0.1 -0.1)">
      <defs>
       <path id="DejaVuSans-63" d="M 3122 3366 
L 3122 2828 
Q 2878 2963 2633 3030 
Q 2388 3097 2138 3097 
Q 1578 3097 1268 2742 
Q 959 2388 959 1747 
Q 959 1106 1268 751 
Q 1578 397 2138 397 
Q 2388 397 2633 464 
Q 2878 531 3122 666 
L 3122 134 
Q 2881 22 2623 -34 
Q 2366 -91 2075 -91 
Q 1284 -91 818 406 
Q 353 903 353 1747 
Q 353 2603 823 3093 
Q 1294 3584 2113 3584 
Q 2378 3584 2631 3529 
Q 2884 3475 3122 3366 
z
" transform="scale(0.015625)"/>
      </defs>
      <use xlink:href="#DejaVuSans-63"/>
      <use xlink:href="#DejaVuSans-6f" x="54.980469"/>
      <use xlink:href="#DejaVuSans-72" x="116.162109"/>
      <use xlink:href="#DejaVuSans-65" x="155.025391"/>
     </g>
    </g>
   </g>
  </g>
 </g>
 <defs>
  <clipPath id="p479a009552">
   <rect x="47.91125" y="21.72" width="165.78475" height="152.32"/>
  </clipPath>
 </defs>
</svg>
